<svg xmlns="http://www.w3.org/2000/svg" viewBox="0 0 97.72 65.93"><defs><style>.cls-1,.cls-2,.cls-3{fill:none;stroke-miterlimit:10;stroke-width:1.5px;}.cls-1,.cls-3{stroke:#0b0b0b;}.cls-2{stroke:#e50e38;}.cls-2,.cls-3{stroke-linecap:round;}</style></defs><g id="Layer_2" data-name="Layer 2"><g id="Layer_3" data-name="Layer 3"><path class="cls-1" d="M96.67,34.24l0-.08c-6.93,0-11.17-4.23-16.27-7.79-3.71-2.58-7.86-4.82-13.84-4.82-2.68,0-5,0-6.9.08H45.6a3.74,3.74,0,1,0,0,7.47H58.83a5.59,5.59,0,0,1,1.8,10.43L55.48,40.9q-2.61.63-4.95,1.31l-.33.08c-5.81,1.54-12.07,3.19-13.2,3.46a7,7,0,0,1-2-.15L14.11,32.09l-3.78-2.73h0A5.3,5.3,0,0,0,9.76,29a6,6,0,0,0-.86-.36,6.08,6.08,0,0,0-.74-.16,5.55,5.55,0,0,0-.82-.06,4.83,4.83,0,0,0-1.08.11,6,6,0,0,0-5.51,6,5.91,5.91,0,0,0,1.79,4.24h0l0,0A6.86,6.86,0,0,0,4,39.88l1.44,1L38.16,64.6l.4.16a7.23,7.23,0,0,0,2.33.42,7.15,7.15,0,0,0,1.4-.14l.17,0c11.07-2.82,33.94-8.64,44.65-11.27l.77-.29a43.17,43.17,0,0,1,8.79-1.5V50.38h0l0-2.15v-14Z"/><polygon class="cls-2" points="40.01 10.63 40.01 17.19 30.54 17.19 30.54 27.07 24.32 27.07 24.32 17.19 14.84 17.19 14.84 10.63 24.32 10.63 24.32 0.75 30.54 0.75 30.54 10.63 40.01 10.63"/><path class="cls-3" d="M70.36,24.54c.12.37,4.09,0,12.88,7.83"/></g></g></svg>