<svg xmlns="http://www.w3.org/2000/svg" viewBox="0 0 110.05 95.66"><defs><style>.cls-1{fill:none;}.cls-1,.cls-2{stroke:#0b0b0b;stroke-linecap:round;stroke-miterlimit:10;stroke-width:1.5px;}.cls-2{fill:#e50e38;}</style></defs><g id="Layer_2" data-name="Layer 2"><g id="Layer_2-2" data-name="Layer 2"><path class="cls-1" d="M50.12,86C52,98.56,22.82,99,20.35,80,8.36,83.31.07,71.73,5.87,61.49c-7-4.75-6.83-18.6.42-22.75C.75,32.84,7.47,16.31,20.87,19.26,17.21,6,36.58-4.84,50.2,5.74Z"/><path class="cls-1" d="M20.46,16.31c1,5.89,6.18,10.45,12.1,11.51"/><path class="cls-1" d="M32.56,11.88C31.19,20.68,46,24.38,50,18.67"/><path class="cls-1" d="M25.18,24.87c0,3.09-4.16,7.05-6.49,8"/><path class="cls-1" d="M16,42.87c3.64,1.84,3.72,7.14,7.66,8.31,4.13,1.23,6.38-3.33,8-6.5,2.52-4.83,6.28-6.78,11.74-5.93a26.79,26.79,0,0,1,5.91,2.06"/><path class="cls-1" d="M11.9,42.58c2.83,3.51,7.36-1.68,4.43-4.72"/><path class="cls-1" d="M50.27,60.88c-3.88-3.87-9.91.49-11.21,4.68-1.54,4.93,3.12,8.94,1.48,13.74A5.18,5.18,0,0,1,34.33,83"/><path class="cls-1" d="M20.46,82.42c-4.55-11.91,18-8.56,8.26-26.56"/><path class="cls-1" d="M5.7,62.06c1.62-2.65,5.47-2.84,8.28-2.67,2.55.16,5.4,2.07,6.48,2.37"/><path class="cls-1" d="M108.85,55.86l.42-13-7.87-.26a39.69,39.69,0,0,0-2.21-7.78l7.22-4-6.25-11.39L92.48,23.7A40.68,40.68,0,0,0,87,18.37l4.59-7.75L80.4,4l-4.73,8a40,40,0,0,0-7.17-1.87V.75H62.08V94.91H68.5V89.09a40,40,0,0,0,7.1-1.84l2.76,5.2,11.48-6.09-2.9-5.47a40.25,40.25,0,0,0,5.86-5.74l5.42,3.46,7-11-5.83-3.72a40.16,40.16,0,0,0,2.2-8.31Z"/><path class="cls-2" d="M62.08,19.42v9a19.45,19.45,0,0,1,0,38.89v9a28.41,28.41,0,0,0,0-56.81Z"/></g></g></svg>