<svg xmlns="http://www.w3.org/2000/svg" viewBox="0 0 113.58 113.58"><defs><style>.cls-1{fill:#e8505b;}.cls-2{fill:#151819;}.cls-3{fill:#0c0c0c;}.cls-4{fill:#442a26;}.cls-5{fill:#2b1b19;}.cls-6{fill:#263238;}.cls-7{fill:#fff;}</style></defs><g id="Layer_2" data-name="Layer 2"><g id="Layer_4" data-name="Layer 4"><path class="cls-1" d="M113.58,56.79a56.82,56.82,0,0,1-33.14,51.64,55.15,55.15,0,0,1-8.21,3,56.61,56.61,0,0,1-15.44,2.13c-.91,0-1.82,0-2.72-.06l-1-.07H52.8a53.22,53.22,0,0,1-5.39-.64l-.24,0-.42-.07h0c-.52-.09-1-.19-1.55-.3a56.79,56.79,0,1,1,68.39-55.6Z"/><path class="cls-2" d="M71.16,18.28c4.09,11.17,8.65,23,18.19,30.13a5.15,5.15,0,0,1-3.67-.52c2.08,3.36,4.2,6.78,5.27,10.58s1,8.12-1.17,11.45L89,68.65a19.88,19.88,0,0,1-8.59,22c-3.13,1.9-7.33,2.82-10.4.82-2.34-1.52-3.44-4.31-4.4-6.91L46.84,33.72C45.09,29,43.32,24,44.18,19a14.5,14.5,0,0,1,26.15-5.76Z"/><path class="cls-3" d="M82.09,80.7a1.74,1.74,0,0,0,.31-.31,8.21,8.21,0,0,0,.79-1,13.28,13.28,0,0,0,1.91-4.23,18.48,18.48,0,0,0,.37-6.86,30.14,30.14,0,0,0-2.38-8.09c-1.18-2.74-2.53-5.26-3.67-7.57a60.4,60.4,0,0,1-2.77-6.27A30.59,30.59,0,0,1,75.4,42c-.2-1.08-.26-1.68-.29-1.67a1.47,1.47,0,0,0,0,.44c0,.28.07.71.16,1.25a25.9,25.9,0,0,0,1.15,4.49,54.64,54.64,0,0,0,2.71,6.32c1.13,2.33,2.46,4.85,3.64,7.58a30.39,30.39,0,0,1,2.38,8,18.53,18.53,0,0,1-.3,6.77,13.55,13.55,0,0,1-1.78,4.22C82.49,80.24,82.06,80.68,82.09,80.7Z"/><path class="cls-4" d="M58.64,12A15.86,15.86,0,0,1,73.76,27.81c0,6.55-.09,13.69-.51,17.92-1,9.84-8.37,11.52-8.37,11.52s.24,6.12.57,11.92C65.76,74.7,61.23,79.56,55.32,80h0c-5.85.47-10.87-3.54-11.27-9l-2-42.47A15.86,15.86,0,0,1,58.64,12Z"/><path class="cls-5" d="M64.92,57.27a26.71,26.71,0,0,1-13.36-2.93s3.64,7,13.44,5.74Z"/><path class="cls-6" d="M53,27.75c.16.24,1.14-.17,2.36-.44s2.28-.33,2.32-.62-1.11-.69-2.54-.36S52.87,27.54,53,27.75Z"/><path class="cls-2" d="M28.18,71.79s3.47-6.88,1.31-13.05S28.16,47.93,31.27,45.5c2.19-1.71,2.46-4.52,2.25-6.75a43.75,43.75,0,0,1,.25-11.2c.87-5.33,2.42-11,5.63-15.21,4.17-5.45,11.71-10.43,18-7.64,2.91,1.29,4.39,1.21,7.43,4,0,0,2.79.18,4.27.41,5.09.79,8.38,6.22,9,10.2,1.38,9.21-3.7,11.84-4.22,18.1,0,0-.92-13-2.07-16.4a11.12,11.12,0,0,0-5-5.75c-3.76.36-5.18,2.58-6.41,6.16s-1.87,6.41-4.86,8.72c-2.82,2.17-4.85,5.84-10,4a11,11,0,0,0-1,6.2c.56,3.18,4.09,4.05,3.19,9.44s-4.18,9.79-4.09,11.81Z"/><path class="cls-2" d="M38.7,13.32a65.78,65.78,0,0,1-6.25,8.57c-2.48,2.73-5,5.85-5.12,9.53-.12,2.67,1,5.48-.08,7.94-.91,2.1-3.12,3.26-4.77,4.83a11.3,11.3,0,0,0-3,11.08c.71,2.47,2.3,4.88,1.74,7.39-.49,2.19-2.51,3.76-3.13,5.91s.19,4.24,1.11,6.17c1.41,3,3.49,6,6.68,6.69a7.84,7.84,0,0,0,6.26-1.56,15.69,15.69,0,0,0,4.17-5.11,31.28,31.28,0,0,0,3.76-12.14c.48-5.08-.29-10.19-.79-15.27a144.24,144.24,0,0,1,0-28c.22-2.27,1.13-4.48-.58-6Z"/><path class="cls-4" d="M47.65,35.55c0-.64-1.71-1.83-2.36-1.82-1.5,0-3.91.73-3.95,4.87-.06,5.9,5.54,4.17,5.55,4A44.17,44.17,0,0,0,47.65,35.55Z"/><path class="cls-5" d="M45.49,40.35s-.11.07-.28.15a1.06,1.06,0,0,1-.77,0,2.54,2.54,0,0,1-1.16-2.29,3.45,3.45,0,0,1,.3-1.47,1.19,1.19,0,0,1,.79-.78.52.52,0,0,1,.6.28c.08.17,0,.29.07.3s.13-.1.08-.35a.66.66,0,0,0-.23-.37.79.79,0,0,0-.56-.15,1.44,1.44,0,0,0-1.09.9,3.52,3.52,0,0,0-.37,1.65,2.67,2.67,0,0,0,1.48,2.56,1.1,1.1,0,0,0,.94-.15C45.47,40.49,45.51,40.36,45.49,40.35Z"/><path class="cls-3" d="M75.71,33.27a7.4,7.4,0,0,0-.32-1A11.07,11.07,0,0,1,75,29.51a29.94,29.94,0,0,1,.39-4.17,27,27,0,0,0,.4-5.16,10,10,0,0,0-.5-2.66,7.32,7.32,0,0,0-1.24-2.21,8.46,8.46,0,0,0-3.41-2.5,7.56,7.56,0,0,0-2.81-.53,4.73,4.73,0,0,0-.77.05l-.27.06s.38,0,1,0a8.15,8.15,0,0,1,6,3.1A7.08,7.08,0,0,1,75,17.62a10.26,10.26,0,0,1,.48,2.57,27.64,27.64,0,0,1-.38,5.11,26.57,26.57,0,0,0-.31,4.21,10.13,10.13,0,0,0,.48,2.81c.12.32.24.56.31.72S75.7,33.28,75.71,33.27Z"/><path class="cls-3" d="M27.44,38.85a1.5,1.5,0,0,1,.1-.51A6.74,6.74,0,0,1,28.13,37,12.15,12.15,0,0,1,31.85,33a8.67,8.67,0,0,1,3.51-1.43,21.09,21.09,0,0,1,4.33-.22,29.4,29.4,0,0,0,4.68-.06,10.7,10.7,0,0,0,4.6-1.7,43.3,43.3,0,0,0,3.9-3.19,19.36,19.36,0,0,0,3.29-3.3c1.86-2.39,3.64-4.44,5-6.26a34.11,34.11,0,0,0,3-4.48c.59-1.12.82-1.79.87-1.77a1.66,1.66,0,0,1-.12.5,11.66,11.66,0,0,1-.55,1.37,29.3,29.3,0,0,1-2.84,4.62c-1.33,1.86-3.08,4-4.9,6.34a19.32,19.32,0,0,1-3.36,3.41,40,40,0,0,1-3.95,3.25,11.13,11.13,0,0,1-4.84,1.78,31.77,31.77,0,0,1-4.77,0,20.72,20.72,0,0,0-4.22.15,8.52,8.52,0,0,0-3.37,1.3,12.66,12.66,0,0,0-3.76,3.72A14.88,14.88,0,0,0,27.44,38.85Z"/><path class="cls-1" d="M92.87,100.65a56.59,56.59,0,0,1-12.43,7.78l-.8.35a54.47,54.47,0,0,1-7.41,2.67,2.08,2.08,0,0,0-1.71-.44c-2.16.41-4.53.74-6.44-.34a5,5,0,0,1-1.06-.81,5.65,5.65,0,0,1-.71-.83,10.54,10.54,0,0,1-1.45-3.43c-.18-.71-.33-1.43-.46-2.13q-1.45-7.95-2.93-15.89c-.22-1.18-.43-2.36-.65-3.53-.25-1.37-.51-2.74-.76-4.1-.33-1.78-.65-3.55-1-5.33l3.81,4.55.31.36a5.89,5.89,0,0,1,.21-.59,23.76,23.76,0,0,1,2.35-4.87,15.46,15.46,0,0,1,3.71-4.18A7.15,7.15,0,0,1,70,68.28a6.21,6.21,0,0,1,2.29.49c6,2.5,7.89,5.62,11,10.33a.94.94,0,0,1,.09.12l.55.83c.56.84,1.08,1.7,1.58,2.58a0,0,0,0,1,0,0c.37.65.73,1.32,1.06,2a105.22,105.22,0,0,1,5.08,12.55C91.82,97.83,92.31,99.1,92.87,100.65Z"/><path class="cls-1" d="M80.44,108.43l-.8.35a54.47,54.47,0,0,1-7.41,2.67,56.61,56.61,0,0,1-15.44,2.13c-.91,0-1.82,0-2.72-.06l-1-.07H52.8c-.93-.06-1.85-.15-2.76-.26s-1.76-.23-2.63-.38l-.24,0-.42-.07h0c-.52-.09-1-.19-1.55-.3a56.65,56.65,0,0,1-17-6.51l-1.95-6.79c-.15-1-.28-2.3-.37-3.72l0-.34c-.29-4.42-.27-10,.54-13.1,0-.13.07-.27.11-.4A19.7,19.7,0,0,1,39.15,67.7c.83-.34,1.68-.64,2.54-.92s1.42-.44,2.13-.65l.76-.21a27.58,27.58,0,0,0,7.94,4.4,14.94,14.94,0,0,0,7.42.75A4.42,4.42,0,0,0,60.6,71,5.45,5.45,0,0,0,65,66.16l.26.11,4.65,2,3.46,1.49c4.23,3.33,5.42,9,5.28,14.4l.51,7.12.14,1.94h0l.08,1Z"/><path class="cls-1" d="M57.24,108.85a22.55,22.55,0,0,1-3.17,4.67l-1-.07H52.8a53.22,53.22,0,0,1-5.39-.64l-.24,0-.42-.07h0c-.52-.09-1-.19-1.55-.3a56.32,56.32,0,0,1-23.87-11.25c-.14-2.36-.21-4.75-.33-7.21a28.4,28.4,0,0,1,2.5-13.58,19.88,19.88,0,0,1,2.62-4.13,22.3,22.3,0,0,1,3.67-3.47,44.57,44.57,0,0,1,9.4-5.16l2.54-1.08,0,.27-.7,5.8q4.29,8.85,8.59,17.71,2.1,4.35,4.21,8.69C55,101.49,58.38,106.31,57.24,108.85Z"/><path class="cls-7" d="M68.44,86.53c.14.87.28,1.72.42,2.58l-2.28.27c-.14-.86-.29-1.73-.43-2.61l-5.43.53c.14.9.29,1.78.43,2.68l-2.42.24c-.15-.89-.29-1.78-.44-2.71l-5,.43A18.59,18.59,0,0,1,53,86.08a1.65,1.65,0,0,1,1.27-1.83l.27,0c1.93-.13,17.83-1.49,19.11-1.6.88-.07,1.6.75,1.82,2,.18,1.09.37,2.18.55,3.26l0,.26L74,88.47,73.54,86Z"/><path class="cls-7" d="M75.19,95.85c-.64.13-1.26.25-1.89.36-.36.07-.73.15-1.09.2-.76.12-1.53-.66-1.73-1.79-.4-2.34-.78-4.68-1.17-7a.34.34,0,0,1,0-.11l2.21-.25c.32,1.91.64,3.82,1,5.76l.2,0,2.7-.45c.86-.14,1.57.62,1.79,1.88.49,2.85,1,5.68,1.46,8.49.21,1.23-.21,2.25-1.05,2.5-2.1.63-4.26,1.23-6.46,1.78-.91.23-1.68-.54-1.91-1.92l-.57-3.43c0-.08,0-.17,0-.28l2.27-.45c.08.43.15.86.22,1.28l.21,1.26c1.71-.38,3.38-.79,5-1.22Z"/><path class="cls-7" d="M70.34,98.07l-2.26.41c-.07-.43-.14-.85-.21-1.29l-2.31.37q.85,5.23,1.73,10.46l-.16.06-2,.44c-.13,0-.17,0-.2-.22-.36-2.14-3-18.6-3.24-19.8,0-.07,0-.13,0-.22L64,88l1,6,2.31-.32-.21-1.29,2.27-.31Z"/><path class="cls-7" d="M53.45,89,56,88.8q1.38,8.51,2.78,17.1l2.46-.35-.45-2.72,2.42-.36,0,.26c.1.62.5,3,.59,3.59.23,1.38-.28,2.49-1.24,2.66-1.33.24-2.67.46-4,.64-1,.14-1.87-.79-2.11-2.24Q55,98.26,53.49,89.26Z"/><path class="cls-7" d="M55.77,107.46c-.06-.4-.13-.79-.19-1.19l-1,.1c-.4-2.44-.8-4.89-1.19-7.32-.46-2.78-.91-5.54-1.36-8.3q-.46-2.79-.92-5.56c-.06-.38-.34-.67-.61-.65l-3.68.26h-.05a.25.25,0,0,0-.13.3c.15.9.31,1.8.46,2.7l1.07-.06.71,0c.13.81.27,1.61.4,2.42l.12.72q1.29,7.78,2.58,15.75c-1,.07-2,.12-2.94.16l.6,3.69c2.39-.1,4.8-.3,7.21-.59A4,4,0,0,1,55.77,107.46Z"/><path class="cls-7" d="M52.18,111.29A92.26,92.26,0,0,0,63,109.86a132.34,132.34,0,0,0,16.1-4.09c.18,1,.35,2,.52,3a54.47,54.47,0,0,1-7.41,2.67,56.61,56.61,0,0,1-15.44,2.13c-.91,0-1.82,0-2.72-.06l-1-.07c-.08,0-.09-.64-.17-.65"/><path class="cls-6" d="M53.05,113.45H52.8a2.51,2.51,0,0,0-.78-1.92,2.88,2.88,0,0,0-2.2-.69,3.42,3.42,0,0,0-.46,0l-.21,0,0-.22s0-.07,0-.11a16.62,16.62,0,0,0-2-5.71,16.32,16.32,0,0,0-5-5.38,22.26,22.26,0,0,0-7.45-3,41.4,41.4,0,0,0-6.58-1c-.78-.06-1.5-.09-2.15-.1-.93,0-1.72,0-2.35,0a10.19,10.19,0,0,1-1.66,0,8.08,8.08,0,0,1,1.65-.23c.61,0,1.4-.1,2.33-.11.66,0,1.4,0,2.2,0a39.1,39.1,0,0,1,6.67.85A22.45,22.45,0,0,1,42.39,99a16.46,16.46,0,0,1,5.15,5.61,16.24,16.24,0,0,1,2,5.81,3.39,3.39,0,0,1,2.74.85A2.76,2.76,0,0,1,53.05,113.45Z"/><path class="cls-1" d="M49.6,110.86s-.06.12-.22.27a0,0,0,0,0,0,0c-.34.32-1,.89-2,1.66l-.24,0-.42-.07A11.28,11.28,0,0,1,49.6,110.86Z"/><path class="cls-6" d="M49.9,110.77l-.08.06a4.27,4.27,0,0,0-.44.3,0,0,0,0,0,0,0c-.75.51-1.49,1.06-2.2,1.62l-.42-.07h0c-.52-.09-1-.19-1.55-.3a39.58,39.58,0,0,1,3.91-1.81l.23-.09.22.11Z"/><path class="cls-6" d="M78.83,95.78a5.72,5.72,0,0,1,.39-2.16,28.28,28.28,0,0,1,2-4.85c1.89-3.66,4-6.27,4.18-6.14a12.64,12.64,0,0,1-1.1,1.87c-.7,1.14-1.62,2.73-2.57,4.53a48,48,0,0,0-2.16,4.73A13.78,13.78,0,0,1,78.83,95.78Z"/><path class="cls-2" d="M47.56,49.46a10.21,10.21,0,0,0,.18,10.21c1.23,2,3.17,3.56,4.11,5.71,1.15,2.63.64,5.64.29,8.49s-.39,6,1.42,8.24c.77.93,1.8,1.6,2.57,2.52a3.09,3.09,0,0,1,.68,3.31,3.56,3.56,0,0,1-2,1.43,15.6,15.6,0,0,1-17-4.38l-.46,3a22.3,22.3,0,0,1-5-27.53Z"/></g></g></svg>