<svg xmlns="http://www.w3.org/2000/svg" viewBox="0 0 113.58 113.58"><defs><style>.cls-1{fill:#e8505b;}.cls-2{fill:#263238;}.cls-3{fill:#edbfab;}.cls-4{fill:#dd927c;}.cls-5{fill:#c9876f;}.cls-6{fill:#fafafa;}.cls-7{fill:#fff;}</style></defs><g id="Layer_2" data-name="Layer 2"><g id="Layer_5" data-name="Layer 5"><path class="cls-1" d="M113.58,56.79a56.8,56.8,0,0,1-26.33,47.93,3,3,0,0,1-.38.24,56.8,56.8,0,0,1-65.13-3.48l0,0-.18-.15a51.94,51.94,0,0,1-4.32-3.8,56.79,56.79,0,1,1,96.39-40.7Z"/><path class="cls-2" d="M99.94,93.71a56.85,56.85,0,0,1-12.69,11,3,3,0,0,1-.38.24A56.88,56.88,0,0,1,37,110q-1.22-.45-2.4-1c-1.41-.59-2.78-1.25-4.12-2a55.48,55.48,0,0,1-8.7-5.62l0,0-.18-.15a51.94,51.94,0,0,1-4.32-3.8,56.37,56.37,0,0,1-7.58-9.07,138.63,138.63,0,0,1,6.05-13.29C19,69.56,38.44,64.58,42.87,63.66H64.62c.6.21,19.76,7.05,26.05,11.87C93.48,77.7,96.94,85.56,99.94,93.71Z"/><path class="cls-1" d="M66,65.5a1.81,1.81,0,0,1,0,.38A9.22,9.22,0,0,1,65.74,67a12.71,12.71,0,0,1-1.54,3.74A13.09,13.09,0,0,1,60,75a13,13,0,0,1-14-.39,13.32,13.32,0,0,1-4-4.49,12.71,12.71,0,0,1-1.33-3.82c-.07-.48-.11-.85-.12-1.1a1.83,1.83,0,0,1,0-.38s.07.52.27,1.45A13.73,13.73,0,0,0,42.2,70a13.06,13.06,0,0,0,3.94,4.33,12.76,12.76,0,0,0,13.65.38A13.09,13.09,0,0,0,64,70.57a13.73,13.73,0,0,0,1.63-3.64C65.85,66,65.91,65.49,66,65.5Z"/><path class="cls-1" d="M21.74,101.48l0,0-.18-.15c0-.25,0-.47,0-.68v-.13c0-.27,0-.51,0-.7h0a2.24,2.24,0,0,1,.07-.69,5.8,5.8,0,0,1,.08,1.17C21.72,100.59,21.73,101,21.74,101.48Z"/><path class="cls-1" d="M87.25,104.72a3,3,0,0,1-.38.24v-.11c0-5,0-9.31.13-10.77a1.93,1.93,0,0,1,.06-.53.56.56,0,0,1,0,.23C87.18,94.83,87.25,99.32,87.25,104.72Z"/><path class="cls-1" d="M21.63,99.08a11.43,11.43,0,0,1-.9-1.84c-.51-1.16-1.15-2.79-1.81-4.61S17.65,89.18,17.2,88a15,15,0,0,1-.68-1.93,11.43,11.43,0,0,1,.9,1.84c.51,1.16,1.15,2.79,1.81,4.61S20.5,96,21,97.15A14.36,14.36,0,0,1,21.63,99.08Z"/><path class="cls-1" d="M21.71,100.71A34.63,34.63,0,0,1,18,97.58a35.62,35.62,0,0,1-3.49-3.38,37.83,37.83,0,0,1,3.71,3.14A36.83,36.83,0,0,1,21.71,100.71Z"/><path class="cls-1" d="M88.32,85.21a31.49,31.49,0,0,1-.5,4.46A31.35,31.35,0,0,1,87,94.09a30.27,30.27,0,0,1,.5-4.47A30.65,30.65,0,0,1,88.32,85.21Z"/><path class="cls-3" d="M54.38,74.42h0A10.85,10.85,0,0,0,64.61,63.48c0-3.48-.07-6.46-.07-6.46s8.82-1.37,8.93-10.19-1.42-29.07-1.42-29.07h0a30.64,30.64,0,0,0-30.8,3.87l-1.3,1,3,41.72A10.86,10.86,0,0,0,54.38,74.42Z"/><path class="cls-4" d="M64.56,56.89a20.47,20.47,0,0,1-11.5-3.26S55.78,60,64.58,59.18Z"/><path class="cls-3" d="M41,31.77C40.88,31.71,35,30,35.17,36s6.2,4.59,6.21,4.42S41,31.77,41,31.77Z"/><path class="cls-5" d="M39.46,38.2s-.1.08-.28.17a1,1,0,0,1-.78,0,2.63,2.63,0,0,1-1.28-2.29,3.55,3.55,0,0,1,.25-1.52,1.2,1.2,0,0,1,.76-.83.54.54,0,0,1,.63.27c.09.16.05.29.09.3s.12-.11.07-.36a.7.7,0,0,0-.25-.37.83.83,0,0,0-.59-.13,1.48,1.48,0,0,0-1.07,1,3.67,3.67,0,0,0-.31,1.69,2.73,2.73,0,0,0,1.62,2.55,1.09,1.09,0,0,0,1-.19C39.46,38.35,39.48,38.21,39.46,38.2Z"/><path class="cls-2" d="M76.35,12.19a3.28,3.28,0,0,0-1.2-2.91,2.32,2.32,0,0,0-3,.23,2.69,2.69,0,0,0-2.31-3.27c-1.44-.09-2.67,1-4.06,1.38a6.51,6.51,0,0,1-4.11-.48c-1.31-.53-2.53-1.25-3.85-1.73A11.27,11.27,0,0,0,43.39,12a5,5,0,0,0-5.3,2,8.19,8.19,0,0,0-1.26,5.79,18.19,18.19,0,0,0,1,4c0,.12,0,.23,0,.34.09,4.85.64,10.55,2.7,10.58,3.61,0,2.75-6.74,2.75-6.74,4.43-1.71,2.78-8.34,3.89-9.35S50.59,15.27,59.85,20a17.88,17.88,0,0,0,11,1.19l.24,0h0l.08,0a8.09,8.09,0,0,0,2.37-1,4.7,4.7,0,0,0,2-2.18A2.56,2.56,0,0,0,75,15.16,5.65,5.65,0,0,0,76.35,12.19Z"/><path class="cls-6" d="M37.89,23.14s.41.39,1.16.85a5.58,5.58,0,0,0,6.4-.28c.7-.53,1-1,1.08-.95a3.15,3.15,0,0,1-.94,1.13,5.42,5.42,0,0,1-6.67.3A3,3,0,0,1,37.89,23.14Z"/><path class="cls-6" d="M46,20.29a3.7,3.7,0,0,1-1.17.89,7.55,7.55,0,0,1-3.44.89,7.38,7.38,0,0,1-3.46-.77,3.62,3.62,0,0,1-1.21-.84c0-.05.49.28,1.3.63a8.26,8.26,0,0,0,6.7-.12C45.53,20.59,46,20.24,46,20.29Z"/><path class="cls-7" d="M63.42,87v2.76H59.8V87H51.46v2.76H47.84V87H40.55a16.3,16.3,0,0,1,.14-1.89,2.28,2.28,0,0,1,2.21-1.74h30a2.3,2.3,0,0,1,2.44,2.43v4H71.76V87Z"/><path class="cls-7" d="M71.74,98H68.59c-.6,0-1.2,0-1.8,0a2.26,2.26,0,0,1-2.26-2.21c0-2.53,0-5.06,0-7.59a.74.74,0,0,1,0-.12h3.59V94.4h.32c1.5,0,3,0,4.51,0a2.29,2.29,0,0,1,2.42,2.42v9.8A2.3,2.3,0,0,1,73,109.05q-5.35,0-10.71,0a2.31,2.31,0,0,1-2.45-2.46v-4h3.63v2.77h8.31Z"/><path class="cls-7" d="M63.41,99.4h-3.6V98H56.19v11l-.24,0H52.79c-.19,0-.24-.06-.24-.25V88.31a2.15,2.15,0,0,1,0-.23h3.61v6.3H59.8V93h3.61Z"/><path class="cls-7" d="M40.59,88.08h3.63v17.33h3.62v-2.77h3.62v4A2.36,2.36,0,0,1,49,109.05q-3,0-5.94,0a2.36,2.36,0,0,1-2.47-2.46V88.08Z"/><path class="cls-7" d="M39.64,106.6v-1.19h-1.5V84.06a.7.7,0,0,0-.7-.7h-5a.31.31,0,0,0-.31.31v2.77H34.5v19H30.44v1.69c1.34.71,2.71,1.37,4.12,2h6A3,3,0,0,1,39.64,106.6Z"/><path class="cls-7" d="M75.39,110v.44A57,57,0,0,1,37,110Z"/></g></g></svg>