
<svg width="19px" height="19px" viewBox="0 0 19 19" version="1.1" xmlns="http://www.w3.org/2000/svg" xmlns:xlink="http://www.w3.org/1999/xlink">
    <g id="Homepage" stroke="none" stroke-width="1" fill="none" fill-rule="evenodd">
        <g id="OSH3001---Homepage---Final---1.6.19" transform="translate(-581.000000, -4326.000000)" fill="#1A4175">
            <g id="Footer" transform="translate(0.000000, 4079.000000)">
                <g id="Social" transform="translate(444.000000, 205.000000)">
                    <path d="M153.741538,42 L139.258462,42 C138.011074,42 137,43.0084827 137,44.2532799 L137,58.7467201 C137,59.9909991 138.011074,61 139.258462,61 L153.741538,61 C154.988926,61 156,59.9909991 156,58.7467201 L156,44.2532799 C156,43.0084827 154.988926,42 153.741538,42 L153.741538,42 Z M150.656493,44.9684423 C150.656493,44.6409186 150.922347,44.3750648 151.24987,44.3750648 L153.031039,44.3750648 C153.359081,44.3750648 153.624935,44.6409186 153.624935,44.9684423 L153.624935,46.7501296 C153.624935,47.0776532 153.359081,47.3435071 153.031039,47.3435071 L151.24987,47.3435071 C150.922347,47.3435071 150.656493,47.0776532 150.656493,46.7501296 L150.656493,44.9684423 L150.656493,44.9684423 Z M146.522025,47.8767695 C148.540027,47.8767695 150.17609,49.5092055 150.17609,51.5220249 C150.17609,53.5353626 148.540027,55.1672804 146.522025,55.1672804 C144.504541,55.1672804 142.868478,53.5353626 142.868478,51.5220249 C142.868478,49.5092055 144.504541,47.8767695 146.522025,47.8767695 L146.522025,47.8767695 Z M154.218831,58.6249352 C154.218831,58.9524589 153.952977,59.218831 153.624935,59.218831 L139.375065,59.218831 C139.047023,59.218831 138.781169,58.9524589 138.781169,58.6249352 L138.781169,49.7185719 L141.156234,49.7185719 C140.846848,50.1637346 140.742165,50.9944631 140.742165,51.5220249 C140.742165,54.7013883 143.335406,57.2884107 146.522025,57.2884107 C149.709162,57.2884107 152.302403,54.7013883 152.302403,51.5220249 C152.302403,50.9944631 152.227259,50.1766904 151.843766,49.7185719 L154.218831,49.7185719 L154.218831,58.6249352 L154.218831,58.6249352 Z" id="Instagram"></path>
                </g>
            </g>
        </g>
    </g>
</svg>