
<svg width="62px" height="78px" viewBox="0 0 62 78" version="1.1" xmlns="http://www.w3.org/2000/svg" xmlns:xlink="http://www.w3.org/1999/xlink">
    <g id="Homepage" stroke="none" stroke-width="1" fill="none" fill-rule="evenodd" stroke-linecap="round">
        <g id="Our-Team---3.8.19" transform="translate(-427.000000, -5336.000000)">
            <g id="Employees" transform="translate(394.000000, 5146.000000)">
                <g id="Employee-1" transform="translate(6.000000, 176.000000)">
                    <g id="icon" transform="translate(27.000000, 14.000000)">
                        <path d="M48.0227362,26.0862724 C37.8251275,25.1162494 28.8590116,25.9844908 23.1586058,17.9649851 C23.1135188,25.1135943 20.1846348,29.0618356 13.3031275,30.9496632" id="Stroke-1" stroke="black" stroke-width="1.188" stroke-linejoin="round"></path>
                        <path d="M19.687529,47.3111897 C13.4160217,49.8557299 8.57757246,53.9942586 5.15626812,59.7657184 C2.66234058,63.9723966 1.24873188,68.5357529 0.657297101,73.5088908 C2.17876087,73.8275115 3.67723913,74.1691437 5.18632609,74.4550172 C15.5793116,76.4251552 26.0783841,76.9615 36.6243116,76.5959713 C44.575529,76.3198333 52.4657464,75.4436264 60.2357319,73.6531552 C60.7025145,73.5451782 60.9164565,73.403569 60.8439638,72.896431 C59.7875145,65.4991207 56.9717899,58.9452701 51.6020217,53.6260747 C48.9737174,51.0213506 45.9352101,49.0220057 42.5183261,47.6023736 C42.318529,47.5191782 42.1284565,47.4129713 41.8720797,47.2872931" id="Stroke-3" stroke="black" stroke-width="1.188"></path>
                        <path d="M12.3340232,56.6682828 C9.84009565,60.8749609 7.16582029,65.4383172 6.57438551,70.4105701 C8.09673333,70.7300759 20.9146899,72.5577195 23.5323855,72.5541844" id="Stroke-5" stroke=" black" stroke-width="1.188" stroke-linejoin="round"></path>
                        <path d="M48.3577058,29.3879793 C48.4019087,38.7430368 40.1978507,46.9475195 30.8445174,46.938669 C21.3055319,46.938669 13.2606043,38.9120828 13.2164014,29.3623126 C13.1898797,22.3526575 17.7074159,15.9802437 23.8074159,13.1746115 C24.2848072,12.9533471 24.7710391,12.7586345 25.257271,12.581623 C23.4184304,11.3416575 22.2514739,9.47418621 22.2514739,7.39430115 C22.2514739,3.64165747 26.0440826,0.597944828 30.7207493,0.597944828 C35.3974159,0.597944828 39.1900246,3.64165747 39.1900246,7.39430115 C39.1900246,9.48392184 38.0142275,11.350508 36.1665464,12.5984391 C43.0356768,14.9615425 48.3223435,21.5384046 48.3577058,29.3879793 Z" id="Stroke-7" stroke=" black" stroke-width="1.188" stroke-linejoin="round"></path>
                        <path d="M38.2497406,40.4701379 C36.0935232,41.9552644 33.5262188,42.8394368 30.8333783,42.8367816 C26.5845957,42.8367816 22.7212623,40.7613218 20.2202623,37.5857356" id="Stroke-9" stroke="#e50e38" stroke-width="1.19" stroke-linejoin="round"></path>
                        <polyline id="Stroke-11" stroke="#e50e38" stroke-width="1.188" points="19.6123841 50.3181724 30.7868768 61.3628046 40.2896159 50.3181724"></polyline>
                    </g>
                </g>
            </g>
        </g>
    </g>
</svg>