
<svg width="21px" height="16px" viewBox="0 0 21 16" version="1.1" xmlns="http://www.w3.org/2000/svg" xmlns:xlink="http://www.w3.org/1999/xlink">
    <g id="Homepage" stroke="none" stroke-width="1" fill="none" fill-rule="evenodd">
        <g id="OSH3001---Homepage---Final---1.6.19" transform="translate(-544.000000, -1781.000000)" fill="#FFFFFF">
            <g id="Find-An-Office" transform="translate(366.000000, 1477.000000)">
                <g id="Btn" transform="translate(0.000000, 276.000000)">
                    <g id="Arrow" transform="translate(178.807927, 28.187500)">
                        <g id="Group-4-Copy">
                            <rect id="Rectangle" x="0" y="7.21875" width="18.3567073" height="1.375" rx="0.68"></rect>
                            <path d="M10.4180193,10.6522613 L20.0009039,10.598845 C20.3743087,10.5967636 20.6787005,10.8977807 20.6807819,11.2711856 C20.6807959,11.273698 20.6807959,11.2762106 20.6807819,11.278723 L20.6807193,11.2899613 C20.6786424,11.6625521 20.377111,11.9640835 20.0045202,11.9661604 L10.4216356,12.0195767 C10.0482307,12.0216581 9.74383893,11.720641 9.74175752,11.3472361 C9.74174352,11.3447236 9.74174352,11.3422111 9.74175752,11.3396986 L9.74182017,11.3284604 C9.74389704,10.9558696 10.0454285,10.6543381 10.4180193,10.6522613 Z" id="Rectangle-Copy-3" transform="translate(15.211270, 11.309211) rotate(-45.000000) translate(-15.211270, -11.309211) "></path>
                            <path d="M10.4180193,3.83848335 L20.0009039,3.78506705 C20.3743087,3.78298564 20.6787005,4.08400278 20.6807819,4.45740765 C20.6807959,4.45992011 20.6807959,4.46243263 20.6807819,4.4649451 L20.6807193,4.47618337 C20.6786424,4.84877415 20.377111,5.15030558 20.0045202,5.15238245 L10.4216356,5.20579876 C10.0482307,5.20788017 9.74383893,4.90686303 9.74175752,4.53345816 C9.74174352,4.53094569 9.74174352,4.52843317 9.74175752,4.52592071 L9.74182017,4.51468243 C9.74389704,4.14209165 10.0454285,3.84056022 10.4180193,3.83848335 Z" id="Rectangle-Copy-4" transform="translate(15.211270, 4.495433) scale(-1, 1) rotate(-45.000000) translate(-15.211270, -4.495433) "></path>
                        </g>
                    </g>
                </g>
            </g>
        </g>
    </g>
</svg>