
<svg width="16px" height="17px" viewBox="0 0 16 17" version="1.1" xmlns="http://www.w3.org/2000/svg" xmlns:xlink="http://www.w3.org/1999/xlink">
    <g id="Homepage" stroke="none" stroke-width="1" fill="none" fill-rule="evenodd">
        <g id="OSH3001---Homepage---Final---1.6.19" transform="translate(-1565.000000, -68.000000)" fill="#e50e38">
            <g id="Nav" transform="translate(54.000000, 50.000000)">
                <g id="Utility" transform="translate(1353.000000, 0.000000)">
                    <g id="Group-3" transform="translate(132.000000, 0.000000)">
                        <path d="M26,22.9863525 C26.0071823,22.8747295 26.0134884,22.7630198 26.0217193,22.6514692 C26.066853,22.0396489 26.2045669,21.4502603 26.4467547,20.8866897 C26.6395569,20.4380273 26.8920586,20.0260949 27.2026508,19.6504294 C27.4158652,19.3925375 27.6550221,19.1618531 27.913011,18.9494034 C28.1337956,18.7676055 28.3481735,18.5779059 28.5644762,18.3906231 C28.7108088,18.2639203 28.8663061,18.1523264 29.0465392,18.0790399 C29.3609956,17.9511504 29.6641182,17.9817878 29.9564961,18.1468415 C30.2486155,18.3117505 30.4720287,18.55326 30.6783337,18.8127873 C30.9571083,19.1634739 31.1817713,19.5509341 31.4224221,19.9275402 C31.5990641,20.2039853 31.7704343,20.4835274 31.9101304,20.7812898 C32.0516508,21.0829741 32.1643271,21.3938916 32.1988309,21.7288183 C32.2463779,22.1903608 32.1280707,22.6037694 31.8147348,22.944398 C31.6349182,23.1398719 31.4248928,23.3068939 31.2315448,23.4900521 C31.0438133,23.6678991 30.8296652,23.8099133 30.6221392,23.9614791 C30.3720221,24.1441598 30.1798232,24.3727458 30.0995105,24.6816372 C30.0323845,24.939862 30.0502829,25.1975368 30.1100398,25.4540538 C30.1913724,25.8032065 30.3393138,26.1249346 30.512537,26.4358955 C30.8183459,26.9848637 31.1938232,27.4840481 31.5925856,27.9664449 C31.9708066,28.4240077 32.3666099,28.8653907 32.7962707,29.2747615 C33.1554155,29.6169821 33.532789,29.9363513 33.9642884,30.1845614 C34.219505,30.3313513 34.4861414,30.447229 34.7804011,30.4883441 C35.1613514,30.5415579 35.493232,30.4336832 35.7805249,30.1802487 C35.8385006,30.1291189 35.8973381,30.0774393 35.9469392,30.0184657 C36.1663878,29.757578 36.4278818,29.5420024 36.684937,29.3222733 C36.8307812,29.1975966 36.9791823,29.0717042 37.1420773,28.972426 C37.548611,28.724679 37.9840895,28.7020013 38.4320508,28.8453324 C38.7972718,28.9621942 39.1249436,29.1530082 39.4223492,29.3906537 C39.7848552,29.6803262 40.1351514,29.9855562 40.4886796,30.2865314 C40.7385238,30.4992561 40.9751669,30.7260765 41.1807249,30.9835921 C41.3573094,31.2048118 41.5069028,31.441097 41.5716011,31.7225349 C41.582432,31.7696993 41.5906055,31.8174716 41.6,31.8649544 L41.6,32.0386189 C41.5946994,32.0649581 41.5890972,32.0912538 41.5841414,32.1176653 C41.5305039,32.4040237 41.3718608,32.6280221 41.1642917,32.8195596 C40.9618652,33.0063504 40.7452033,33.1780902 40.5494851,33.371538 C40.1144807,33.8014592 39.6228652,34.144577 39.0679448,34.396738 C38.5136851,34.6486095 37.9330663,34.7952837 37.3267779,34.8393511 C37.2249613,34.8467463 37.1231017,34.8535771 37.0212707,34.8606684 L36.7842541,34.8606684 C36.7612133,34.8579332 36.7382586,34.8543442 36.7151602,34.8525786 C36.5631823,34.840972 36.4107448,34.8338373 36.2592552,34.8176575 C35.7092188,34.7589444 35.178158,34.6195786 34.6615624,34.4235402 C33.8425624,34.1127385 33.0937768,33.6731211 32.3873238,33.156961 C31.7848133,32.7167502 31.2241901,32.2267411 30.6915923,31.7037357 C30.0689138,31.0922627 29.488611,30.4419323 28.9393359,29.7630629 C28.402716,29.0998524 27.9050099,28.4087541 27.4664431,27.6755712 C26.9466298,26.8065681 26.5177304,25.8965946 26.2542685,24.9132189 C26.1339646,24.4641223 26.0512818,24.0084843 26.0210586,23.5437868 C26.0141492,23.437562 26.0070243,23.3313516 26,23.2251413 L26,22.9863525 Z" id="Fill-1"></path>
                    </g>
                </g>
            </g>
        </g>
    </g>
</svg>