
<svg width="15px" height="27px" viewBox="0 0 15 27" version="1.1" xmlns="http://www.w3.org/2000/svg" xmlns:xlink="http://www.w3.org/1999/xlink">
    <g id="Homepage" stroke="none" stroke-width="1" fill="none" fill-rule="evenodd">
        <g id="OSH3001---Homepage---Final---1.6.19" transform="translate(-226.000000, -3642.000000)" fill="#e50e38">
            <g id="Testi" transform="translate(-468.000000, 3025.000000)">
                <g id="Testimonial" transform="translate(694.000000, 348.000000)">
                    <g id="Group-13" transform="translate(7.500000, 282.500000) scale(-1, 1) translate(-7.500000, -282.500000) translate(0.000000, 269.000000)">
                        <path d="M-1.10629652,18.576138 L15.9687775,18.4989984 C16.4942982,18.4966243 16.9222416,18.9207184 16.9246158,19.4462392 C16.9246321,19.4498535 16.9246278,19.4534679 16.924603,19.4570822 L16.924603,19.4570822 C16.9209351,19.9903834 16.4888473,20.4214527 15.9555389,20.423862 L-1.11953507,20.5010016 C-1.64505584,20.5033757 -2.07299922,20.0792816 -2.07537335,19.5537608 C-2.07538968,19.5501465 -2.07538541,19.5465321 -2.07536055,19.5429178 L-2.07536055,19.5429178 C-2.07169269,19.0096166 -1.63960493,18.5785473 -1.10629652,18.576138 Z" id="Rectangle-Copy-3" transform="translate(7.424621, 19.500000) rotate(-45.000000) translate(-7.424621, -19.500000) "></path>
                        <path d="M-1.10629652,6.57613798 L15.9687775,6.49899839 C16.4942982,6.49662426 16.9222416,6.9207184 16.9246158,7.44623918 C16.9246321,7.44985351 16.9246278,7.45346791 16.924603,7.45708219 L16.924603,7.45708219 C16.9209351,7.99038343 16.4888473,8.42145271 15.9555389,8.42386202 L-1.11953507,8.50100161 C-1.64505584,8.50337574 -2.07299922,8.0792816 -2.07537335,7.55376082 C-2.07538968,7.55014649 -2.07538541,7.54653209 -2.07536055,7.54291781 L-2.07536055,7.54291781 C-2.07169269,7.00961657 -1.63960493,6.57854729 -1.10629652,6.57613798 Z" id="Rectangle-Copy-4" transform="translate(7.424621, 7.500000) scale(-1, 1) rotate(-45.000000) translate(-7.424621, -7.500000) "></path>
                    </g>
                </g>
            </g>
        </g>
    </g>
</svg>