<?xml version="1.0" encoding="utf-8"?>


<svg width="72px" height="77px" viewBox="0 0 72 77" version="1.1" xmlns="http://www.w3.org/2000/svg" xmlns:xlink="http://www.w3.org/1999/xlink">
    <g id="Homepage" stroke="none" stroke-width="1" fill="none" fill-rule="evenodd" stroke-linecap="round">
        <g id="OSH3001---Homepage---Final---1.6.19" transform="translate(-868.000000, -936.000000)" stroke-width="1.35">
            <g id="CTA's" transform="translate(320.000000, 898.000000)">
                <g id="2" transform="translate(399.000000, 0.000000)">
                    <g id="Icon-2" transform="translate(149.000000, 38.000000)">
                        <path d="M24.1622,48.2194 C22.4412,87.7504 61.5702,79.9284 60.6002,57.4384" id="Stroke-1" stroke="#e50e38"></path>
                        <path d="M28.7501,52.4001 C28.4321,59.7081 31.1781,69.3101 39.3651,71.5131 C45.1291,73.0641 52.4491,69.4871 55.2081,64.2761" id="Stroke-3" stroke="black"></path>
                        <path d="M70.3556,47.6833 C70.3556,53.0713 65.9886,57.4383 60.6006,57.4383 C55.2136,57.4383 50.8466,53.0713 50.8466,47.6833 C50.8466,42.2963 55.2136,37.9293 60.6006,37.9293 C65.9886,37.9293 70.3556,42.2963 70.3556,47.6833 Z" id="Stroke-5" stroke="black"></path>
                        <path d="M63.1915,47.6833 C63.1915,49.1143 62.0315,50.2743 60.6005,50.2743 C59.1705,50.2743 58.0105,49.1143 58.0105,47.6833 C58.0105,46.2523 59.1705,45.0933 60.6005,45.0933 C62.0315,45.0933 63.1915,46.2523 63.1915,47.6833 Z" id="Stroke-7" stroke="#e50e38"></path>
                        <path d="M38.2863,3.2653 C43.8263,3.8523 46.4693,6.6583 47.3833,14.4733 C47.5913,16.8053 47.6913,19.1503 47.6333,21.4923 C47.5623,24.2743 47.2693,27.0613 46.6183,29.7703 C46.0323,32.2063 45.1483,34.5793 43.8843,36.7463 C42.6623,38.8403 41.0883,40.7153 39.2253,42.2683 C37.2093,43.9503 34.8873,45.2353 32.4413,46.1783 C31.0563,46.7123 29.6313,47.1403 28.1873,47.4813 C27.0153,47.7583 25.8793,47.9893 24.6693,48.0193 C23.4683,48.0493 22.2653,47.9363 21.0893,47.6893 C19.9933,47.4583 18.9083,47.1813 17.8393,46.8493 C15.2503,46.0443 12.7513,44.9083 10.5283,43.3443 C8.5313,41.9413 6.7833,40.2003 5.3893,38.1963 C3.9793,36.1723 2.9413,33.9113 2.2183,31.5573 C1.4223,28.9703 0.9973,26.2793 0.8123,23.5823 C0.6053,20.5743 0.6143,17.4713 0.9653,14.4733 C1.8793,6.6583 4.5213,3.8523 10.0613,3.2653" id="Stroke-9" stroke="#e50e38"></path>
                        <path d="M19.1037,42.6081 C17.0327,41.9641 15.0337,41.0551 13.2547,39.8041 C11.6577,38.6811 10.2587,37.2891 9.1437,35.6861 C8.0157,34.0671 7.1857,32.2571 6.6067,30.3751 C5.2987,26.1241 4.8667,21.4761 5.1747,17.0461" id="Stroke-11" stroke="black"></path>
                        <path d="M41.3419,8.1481 C43.9879,11.6201 44.6309,22.2251 42.8809,29.4301" id="Stroke-13" stroke="black"></path>
                        <path d="M15.2423,3.2653 C15.2423,4.6963 14.0823,5.8563 12.6513,5.8563 C11.2213,5.8563 10.0613,4.6963 10.0613,3.2653 C10.0613,1.8343 11.2213,0.6753 12.6513,0.6753 C14.0823,0.6753 15.2423,1.8343 15.2423,3.2653 Z" id="Stroke-15" stroke="black"></path>
                        <path d="M38.2482,3.2653 C38.2482,4.6963 37.0882,5.8563 35.6572,5.8563 C34.2272,5.8563 33.0672,4.6963 33.0672,3.2653 C33.0672,1.8343 34.2272,0.6753 35.6572,0.6753 C37.0882,0.6753 38.2482,1.8343 38.2482,3.2653 Z" id="Stroke-17" stroke="black"></path>
                    </g>
                </g>
            </g>
        </g>
    </g>
</svg>