<?xml version="1.0" encoding="utf-8"?>


<svg width="84px" height="81px" viewBox="0 0 84 81" version="1.1" xmlns="http://www.w3.org/2000/svg" xmlns:xlink="http://www.w3.org/1999/xlink">
    <g id="Homepage" stroke="none" stroke-width="1" fill="none" fill-rule="evenodd">
        <g id="OSH3001---Homepage---Final---1.6.19" transform="translate(-466.000000, -930.000000)">
            <g id="CTA's" transform="translate(320.000000, 898.000000)">
                <g id="1">
                    <g id="Icon-1" transform="translate(146.000000, 32.000000)">
                        <path d="M79.1129,80.2711 L4.5579,80.2711 C2.4129,80.2711 0.6749,78.5331 0.6749,76.3881 L0.6749,22.5891 C0.6749,20.4461 2.4129,18.7081 4.5579,18.7081 L79.1129,18.7081 C81.2579,18.7081 82.9959,20.4461 82.9959,22.5891 L82.9959,76.3881 C82.9959,78.5331 81.2579,80.2711 79.1129,80.2711 Z" id="Stroke-1" stroke="#e50e38" stroke-width="1.35" stroke-linecap="round"></path>
                        <path d="M70.4337,18.7076 L70.4337,8.8816 C70.4337,6.7366 68.6957,4.9986 66.5517,4.9986 L58.1227,4.9986" id="Stroke-3" stroke="#e50e38" stroke-width="1.5"></path>
                        <path d="M13.2369,18.7076 L13.2369,8.8816 C13.2369,6.7366 14.9749,4.9986 17.1189,4.9986 L25.5479,4.9986" id="Stroke-5" stroke="#e50e38" stroke-width="1.5"></path>
                        <path d="M45.1006,46.9019 C45.1006,49.8589 42.7036,52.2559 39.7466,52.2559 C36.7896,52.2559 34.3926,49.8589 34.3926,46.9019 C34.3926,43.9449 36.7896,41.5479 39.7466,41.5479 C42.7036,41.5479 45.1006,43.9449 45.1006,46.9019 Z" id="Stroke-7" stroke="#e50e38" stroke-width="1.35" stroke-linecap="round"></path>
                        <path d="M50.149,57.4303 L43.475,50.7803" id="Stroke-9" stroke="#e50e38" stroke-width="1.35" stroke-linecap="round"></path>
                        <path d="M60.9459,49.4889 C60.9459,60.0439 52.3899,68.5999 41.8359,68.5999 C31.2809,68.5999 22.7249,60.0439 22.7249,49.4889 C22.7249,38.9349 31.2809,30.3789 41.8359,30.3789 C52.3899,30.3789 60.9459,38.9349 60.9459,49.4889 Z" id="Stroke-11" stroke="black" stroke-width="1.35" stroke-linecap="round"></path>
                        <path d="M75.3853,76.1881 L6.7703,76.1881 C5.6773,76.1881 4.7913,75.3021 4.7913,74.2091 L4.7913,24.2751" id="Stroke-13" stroke="black" stroke-width="1.35" stroke-linecap="round"></path>
                        <path d="M78.7774,38.1676 L78.7774,24.6666 C78.7774,23.5736 77.8914,22.6876 76.7984,22.6876 L26.8634,22.6876" id="Stroke-15" stroke="black" stroke-width="1.35" stroke-linecap="round"></path>
                        <path d="M54.2403,9.2467 L29.4303,9.2467 C27.2863,9.2467 25.5483,7.5087 25.5483,5.3637 L25.5483,4.6327 C25.5483,2.4877 27.2863,0.7497 29.4303,0.7497 L54.2403,0.7497 C56.3843,0.7497 58.1223,2.4877 58.1223,4.6327 L58.1223,5.3637 C58.1223,7.5087 56.3843,9.2467 54.2403,9.2467 Z" id="Stroke-17" stroke="black" stroke-width="1.5"></path>
                    </g>
                </g>
            </g>
        </g>
    </g>
</svg>