<svg xmlns="http://www.w3.org/2000/svg" viewBox="0 0 102.26 90.45"><defs><style>.cls-1{fill:#e50e38;}</style></defs><g id="Layer_2" data-name="Layer 2"><g id="Layer_1-2" data-name="Layer 1"><path d="M62.4,57c2.42,1.11,7.25,3.83,8.94,8.58a1.72,1.72,0,0,0,2,1.14h0a1.7,1.7,0,0,0,1.26-2.25c-2.1-6-7.83-9.23-10.75-10.56a1.69,1.69,0,0,0-2.31,1h0A1.7,1.7,0,0,0,62.4,57Z"/><path d="M47.5,34.39h0a1.7,1.7,0,0,0-1.57,1,15.82,15.82,0,0,1-4.49,5.21,1.7,1.7,0,0,0-.29,2.33h0a1.7,1.7,0,0,0,2.43.3A19.11,19.11,0,0,0,49,36.82,1.71,1.71,0,0,0,47.5,34.39Z"/><rect class="cls-1" x="85.23" y="3.04" width="12" height="3.39" rx="1.7" transform="translate(23.37 65.9) rotate(-45)"/><rect class="cls-1" x="92.08" y="10.68" width="10.18" height="3.39" rx="1.7"/><rect class="cls-1" x="89.53" y="14.01" width="3.39" height="12" rx="1.7" transform="translate(12.57 70.37) rotate(-45)"/><path d="M.15,67.9l.55,1a1.16,1.16,0,0,0,1.57.43l9.6-5.49s.05,0,.06,0a21.67,21.67,0,0,0,2.79,2.56,1.69,1.69,0,0,0,1,.32,1.7,1.7,0,0,0,.87-.24L50,46.67a0,0,0,0,1,.06,0A97.85,97.85,0,0,0,48,67V88.7a1.74,1.74,0,0,0,1.74,1.75H78.47a1.74,1.74,0,0,0,1.67-1.27l2.47-8.64a23.84,23.84,0,0,0,.57-2.36,26.17,26.17,0,0,0-7.26-23.26l-7.59-7.59a0,0,0,0,1,0,0V42.64s0,0,0,0a5,5,0,0,0,2.06-8.13.06.06,0,0,1,0-.06,5,5,0,0,0,.35-6.3,0,0,0,0,1,0-.06l2.32-1.54c.09-.06.11-.06.13,0l1.71,1.71a1,1,0,0,0,1.35,0l1.11-1.12a.86.86,0,0,0,0-1.22l-.54-.54,2.94-.59a4.64,4.64,0,0,0,3.76-3.82A4.52,4.52,0,0,0,79,15.77h0l-.39,0,.28-.07A1.75,1.75,0,0,0,80.2,14V10.71A1.75,1.75,0,0,0,78.88,9L72.12,7.34v0a1.37,1.37,0,0,0-.4-.09H51.39A1.74,1.74,0,0,0,49.65,9v8.41a1.75,1.75,0,0,0,1,1.56l.75.38a0,0,0,0,1,0,.07l-14.24,10h0l-33.54,5a1.69,1.69,0,0,0-1.44,1.68c0,.65,0,1.26.06,1.88a0,0,0,0,1,0,0l-1.4.21a.61.61,0,0,0-.5.69l.33,2.15a.62.62,0,0,0,.7.52l1.09-.17a.05.05,0,0,1,.06,0A39.37,39.37,0,0,0,9.68,61.09s0,0,0,.06l-9.1,5.2A1.13,1.13,0,0,0,.15,67.9ZM51.34,87V83.7s0,0,0,0H78.13a0,0,0,0,1,0,.06L77.23,87a.05.05,0,0,1,0,0H51.39S51.34,87,51.34,87ZM73.52,57.32a22.77,22.77,0,0,1,6.34,20.13,21.48,21.48,0,0,1-.54,2.24l-.15.54s0,0,0,0H51.39s0,0,0,0V67a93.26,93.26,0,0,1,2.24-20.33l4.21-19a0,0,0,0,1,0,0h3.23a0,0,0,0,1,0,.07,5,5,0,0,0,0,6.69.06.06,0,0,1,0,.06c-1.7,1.9-2,5,.85,8,.76.76,1.82.54,2.9.49,0,0,0,0,0,0V48a1.7,1.7,0,0,0,.5,1.2Zm-5.22-26a1.79,1.79,0,0,1-1.81,1.44H65.06a1.8,1.8,0,0,1-1.82-1.44,1.7,1.7,0,0,1,1.68-1.95h1.7A1.7,1.7,0,0,1,68.3,31.3Zm-1.68,8.23H65.06a1.81,1.81,0,0,1-1.82-1.44,1.7,1.7,0,0,1,1.68-2h1.57a1.79,1.79,0,0,1,1.81,1.44A1.7,1.7,0,0,1,66.62,39.53Zm1-13.48h0a5.67,5.67,0,0,0-1-.1H65.3a5.05,5.05,0,0,0,1.32-3.39A5.15,5.15,0,0,0,65.9,20l.79,0,4,4s0,.06,0,.07ZM79.1,19.16a1.11,1.11,0,0,1,1.1,1.1,1.09,1.09,0,0,1-.89,1.08L74,22.41h0l-2.67-2.67a0,0,0,0,1,0-.08Zm-2.3-6.41-3.34.83s0,0,0,0V11.21s0-.05,0,0L76.8,12ZM53.09,10.68H70a0,0,0,0,1,0,0v3.87s0,0,0,0l-7.38,2.95s0,0,0,0a5.29,5.29,0,0,0-1.06-.11h-6.4l-2.06-1s0,0,0,0V10.72A0,0,0,0,1,53.09,10.68ZM38,32.72a1.72,1.72,0,0,0,.72-.28L55.26,20.87h6.13a1.8,1.8,0,0,1,1.82,1.45,1.7,1.7,0,0,1-1.68,2H54.77a1.74,1.74,0,0,0-1.56,1l-3.36,6.72s0,0,0,.06l3,1.5.29-.57-2,9.15s0,0,0,0L15.9,62.9h-.05C13.33,60.6,6,52.67,5.54,37.64a0,0,0,0,1,0,0Z"/></g></g></svg>