<svg xmlns="http://www.w3.org/2000/svg" viewBox="0 0 89.75 89.75"><defs><style>.cls-1{fill:#e50e38;}</style></defs><g id="Layer_2" data-name="Layer 2"><g id="Layer_1-2" data-name="Layer 1"><path d="M.77,42.86a3,3,0,0,0,0,4c.81.89,19.93,21.67,44.1,21.67S88.17,47.77,89,46.88a3,3,0,0,0,0-4c-.8-.88-19.92-21.67-44.1-21.67S1.58,42,.77,42.86ZM44.87,61A16.16,16.16,0,1,1,61,44.87,16.16,16.16,0,0,1,44.87,61ZM27.56,31.09a22.09,22.09,0,0,0,0,27.57A73.9,73.9,0,0,1,7.22,44.87,74.08,74.08,0,0,1,27.56,31.09ZM62.19,58.66a22.09,22.09,0,0,0,0-27.57A74.23,74.23,0,0,1,82.53,44.87,74,74,0,0,1,62.19,58.66Z"/><circle cx="44.87" cy="44.87" r="9.62"/><path class="cls-1" d="M47.37,10.64V2.49a2.49,2.49,0,1,0-5,0v8.15a2.49,2.49,0,1,0,5,0Z"/><path class="cls-1" d="M70.81,19.3A2.5,2.5,0,0,0,74,17.88l3-7.63a2.49,2.49,0,0,0-4.64-1.82l-3,7.63a2.49,2.49,0,0,0,1.41,3.23Z"/><path class="cls-1" d="M18.94,19.3a2.49,2.49,0,0,0,1.41-3.23h0l-3-7.63a2.5,2.5,0,0,0-4.65,1.82l3,7.63A2.5,2.5,0,0,0,18.94,19.3Z"/><path class="cls-1" d="M42.39,79.11v8.14a2.49,2.49,0,1,0,5,0V79.11a2.49,2.49,0,1,0-5,0Z"/><path class="cls-1" d="M70.81,70.45a2.49,2.49,0,0,0-1.42,3.23h0l3,7.63A2.49,2.49,0,0,0,77,79.5l-3-7.64A2.5,2.5,0,0,0,70.81,70.45Z"/><path class="cls-1" d="M15.71,71.86l-3,7.64a2.49,2.49,0,0,0,4.65,1.81l3-7.63a2.49,2.49,0,1,0-4.64-1.82Z"/></g></g></svg>