<svg xmlns="http://www.w3.org/2000/svg" viewBox="0 0 94.25 94.25"><defs><style>.cls-1{fill:#e50e38;}</style></defs><g id="Layer_2" data-name="Layer 2"><g id="Layer_1-2" data-name="Layer 1"><path d="M88.17,54.72a6.08,6.08,0,0,0-5.87,4.56H71A26.41,26.41,0,0,0,54.44,48.82L54,46.88a10.67,10.67,0,0,0,8.37-10.4,6,6,0,0,0,4.73-9.85A17.28,17.28,0,0,0,68.4,20a20,20,0,0,0-20-20H44.8A12.45,12.45,0,0,0,33.88,6.4l-.17.06a12.48,12.48,0,0,0-7.87,11.63v4.56a12.53,12.53,0,0,0,.9,4.61,6.06,6.06,0,0,0,5.18,9.22h0a10.68,10.68,0,0,0,8.38,10.4l-.49,1.94A26.36,26.36,0,0,0,23.3,59.28H12a6.08,6.08,0,1,0,0,3H21.4A26,26,0,0,0,18.24,74.7V94.25H76V74.7a26.11,26.11,0,0,0-3.16-12.38H82.3a6.07,6.07,0,1,0,5.87-7.6ZM6.08,63.84a3,3,0,1,1,3-3A3,3,0,0,1,6.08,63.84Zm56.24-30.4V27.36a3,3,0,0,1,0,6.08Zm-30.4,0h0a3,3,0,0,1-3-3,3.05,3.05,0,0,1,3-3v6.08Zm0-9.92v.8a6,6,0,0,0-2.73.68,9.36,9.36,0,0,1-.31-2.35V18.09a9.42,9.42,0,0,1,6-8.8l1.22-.49.26-.52A9.44,9.44,0,0,1,44.8,3h3.59a17,17,0,0,1,17,17,14.09,14.09,0,0,1-.82,4.73,6.05,6.05,0,0,0-2.22-.43V24a6.11,6.11,0,0,0-5.57-6.06l-6.34-.53a8.83,8.83,0,0,1-7.88-7l-3,.6a11.87,11.87,0,0,0,1.27,3.43l-4.7,2.35A7.57,7.57,0,0,0,31.92,23.52Zm3,13v-13a4.55,4.55,0,0,1,2.52-4.08l5.19-2.59a11.84,11.84,0,0,0,7.49,3.55l6.33.53a3.05,3.05,0,0,1,2.79,3V36.48a7.61,7.61,0,0,1-7.6,7.6H42.56A7.61,7.61,0,0,1,35,36.48Zm6.3,15.19,1-.15,1.1-4.4h7.51l1.1,4.4,1,.15a23.21,23.21,0,0,1,14.07,7.61H27.19A23.21,23.21,0,0,1,41.26,51.67ZM73,74.7V91.21H66.88V68.4h-3V91.21H30.4V68.4h-3V91.21H21.28V74.7a23,23,0,0,1,3.63-12.38H69.34A23.11,23.11,0,0,1,73,74.7ZM88.17,63.84a3,3,0,1,1,3-3A3,3,0,0,1,88.17,63.84Z"/><path d="M47.12,41A6.08,6.08,0,0,0,53.2,35v-3H41v3A6.08,6.08,0,0,0,47.12,41Zm3-6.08a3,3,0,0,1-6.08,0Z"/><circle cx="39.52" cy="24.32" r="1.52"/><circle cx="54.72" cy="24.32" r="1.52"/><polygon class="cls-1" points="91.21 91.21 82.08 91.21 82.08 94.25 94.25 94.25 94.25 82.08 91.21 82.08 91.21 91.21"/><polygon class="cls-1" points="3.04 82.08 0 82.08 0 94.25 12.16 94.25 12.16 91.21 3.04 91.21 3.04 82.08"/><polygon class="cls-1" points="3.04 3.04 12.16 3.04 12.16 0 0 0 0 12.16 3.04 12.16 3.04 3.04"/><polygon class="cls-1" points="82.08 0 82.08 3.04 91.21 3.04 91.21 12.16 94.25 12.16 94.25 0 82.08 0"/></g></g></svg>