<svg xmlns="http://www.w3.org/2000/svg" viewBox="0 0 537.54 336.53"><defs><style>.cls-1{fill:#e0e0e0;}.cls-2{fill:#ebebeb;}.cls-3{fill:#f5f5f5;}.cls-4{fill:#e8505b;}.cls-5{fill:#263238;}.cls-6{fill:#455a64;}.cls-7{fill:#fafafa;}.cls-8{fill:#0b0b0b;}.cls-9{fill:#ffbe9d;}.cls-10{opacity:0.3;}.cls-11{opacity:0.2;}.cls-12{opacity:0.6;}.cls-13{fill:#fff;}.cls-14{fill:#eb996e;}</style></defs><g id="Layer_2" data-name="Layer 2"><g id="Layer_2-2" data-name="Layer 2"><path class="cls-1" d="M201.44,320.77a44.28,44.28,0,0,0-21.61-22.18c-9.55-4.48-30.87-2.4-30.87-2.4l-56-.12c1.15,4.92,4.8,17.56,7.53,21.81s6.75,7.84,11.61,9.22c6,1.68,12.26-.06,18.42-.46,10.86-.7,21.49,2.8,31.94,5.82s21.55,5.58,32.12,3c3-.73,6.15-2.07,7.61-4.79C203.78,327.66,202.81,323.92,201.44,320.77Z"/><path class="cls-2" d="M29.41,122.15S23,121.7,23.62,136a167,167,0,0,0,2,21.91s-.18,3.17-2.64,2.55-7.07-3.71-9.35-1.4-1.53,6.06,1.61,10.38,9.67,14,10.25,14.92.81,2.48-.93,2.33-13.49-4.14-15,1.55,9.16,16.28,10.31,17.47,1.21,1.92.75,2.64-4.29-1-7.68-2-7.49-1.56-8.11,1.8,4.1,13.17,21.78,23.5l8.5,4.24,8-5.13c16.56-12,20.28-22.28,19.32-25.56s-5-2.31-8.25-1-6.9,3.41-7.44,2.75-.54-1.42.48-2.71,10.63-12.91,8.51-18.41-13.4-.36-15.12,0-1.64-1.3-1.16-2.22,6-11.26,8.71-15.87,3.16-8.35.57-10.49-6.79,1.46-9.17,2.33-2.88-2.27-2.88-2.27a165.31,165.31,0,0,0-.16-22c-.85-14.28-7.29-13.13-7.29-13.13"/><path class="cls-1" d="M29.91,135a2.29,2.29,0,0,1,0,.3c0,.21,0,.5.07.87,0,.79.13,1.93.23,3.38.19,2.93.45,7.18.74,12.42.58,10.49,1.26,25,2,41s1.34,30.52,1.87,41c.26,5.23.48,9.47.63,12.42.07,1.46.13,2.59.17,3.38,0,.38,0,.67,0,.88a2.25,2.25,0,0,1,0,.3l0-.3c0-.21,0-.5-.07-.88,0-.78-.13-1.92-.23-3.37-.19-2.93-.44-7.18-.73-12.42-.58-10.49-1.27-25-2-41s-1.34-30.51-1.86-41c-.27-5.23-.49-9.47-.64-12.42-.07-1.46-.13-2.59-.16-3.38,0-.38,0-.67,0-.88A2.25,2.25,0,0,1,29.91,135Z"/><path class="cls-1" d="M20,163.62a3.28,3.28,0,0,1,.52.44c.33.3.79.75,1.35,1.3,1.13,1.11,2.64,2.69,4.27,4.46l4.16,4.55,1.26,1.37a3.52,3.52,0,0,1,.45.53s-.21-.14-.54-.44-.78-.74-1.34-1.3c-1.11-1.12-2.6-2.72-4.23-4.49l-4.19-4.52-1.28-1.37C20.1,163.83,19.94,163.64,20,163.62Z"/><path class="cls-1" d="M32.81,176c-.06-.06,3-3.32,6.95-7.28s7.11-7.11,7.18-7-3,3.32-6.95,7.27S32.88,176.05,32.81,176Z"/><path class="cls-1" d="M32.78,200.64a2.64,2.64,0,0,1,.59-.38l1.66-.93c1.41-.79,3.34-1.89,5.43-3.17s4-2.51,5.29-3.41l1.59-1.05a3,3,0,0,1,.6-.36s-.17.18-.53.46-.87.67-1.53,1.14c-1.3.95-3.14,2.21-5.25,3.49s-4.05,2.36-5.49,3.1c-.72.37-1.3.65-1.71.84A3.15,3.15,0,0,1,32.78,200.64Z"/><path class="cls-1" d="M18.69,192a2.33,2.33,0,0,1,.58.28c.37.19.9.49,1.55.85,1.29.74,3.07,1.78,5,2.94s3.71,2.23,5,3l1.49.95a2.91,2.91,0,0,1,.52.38,2.64,2.64,0,0,1-.59-.27l-1.54-.86c-1.29-.74-3.07-1.77-5-2.93s-3.71-2.23-5-3l-1.49-.94C18.86,192.17,18.67,192,18.69,192Z"/><path class="cls-1" d="M15.89,213.77a4,4,0,0,1,.75.36l2,1.09c1.66.94,3.95,2.25,6.47,3.71s4.78,2.81,6.42,3.79l1.93,1.18a4.44,4.44,0,0,1,.68.47,4,4,0,0,1-.75-.36l-2-1.09c-1.66-.93-3.95-2.24-6.47-3.71s-4.78-2.81-6.42-3.79l-1.92-1.18A4.3,4.3,0,0,1,15.89,213.77Z"/><path class="cls-1" d="M33.76,224a4.29,4.29,0,0,1,.74-.5l2.06-1.26c1.75-1.06,4.15-2.54,6.76-4.24s4.94-3.3,6.62-4.47l2-1.38a4.58,4.58,0,0,1,.75-.47,5.16,5.16,0,0,1-.68.58c-.45.35-1.1.85-1.93,1.46-1.64,1.22-4,2.85-6.57,4.55s-5,3.16-6.82,4.17c-.89.51-1.61.91-2.12,1.17A4.86,4.86,0,0,1,33.76,224Z"/><polygon class="cls-1" points="46.54 238.68 23.01 238.68 30.69 296.81 38.86 296.81 46.54 238.68"/><path class="cls-3" d="M24.23,245.82s0,.09.13.21a1.61,1.61,0,0,0,.56.41,2.87,2.87,0,0,0,2.49-.31c.95-.52,1.78-1.55,3.05-2a6.71,6.71,0,0,1,4.33.09,19.08,19.08,0,0,1,4,1.95,27.83,27.83,0,0,0,3.27,1.76,9.15,9.15,0,0,0,2.42.7,3.63,3.63,0,0,0,.68,0c.16,0,.24,0,.24,0a11.78,11.78,0,0,1-3.23-1,31.37,31.37,0,0,1-3.2-1.81,18,18,0,0,0-4.1-2,6.9,6.9,0,0,0-4.57-.05,6,6,0,0,0-1.71,1.06,14.79,14.79,0,0,1-1.35,1.05,2.8,2.8,0,0,1-2.29.4A2.2,2.2,0,0,1,24.23,245.82Z"/><path class="cls-3" d="M25.09,256.53s.19-.24.55-.62a5.2,5.2,0,0,1,1.88-1.2,8.53,8.53,0,0,1,3.27-.49,35.09,35.09,0,0,1,4.1.56,14.26,14.26,0,0,0,4.19.17,11.23,11.23,0,0,0,3.3-.94,9.93,9.93,0,0,0,2-1.18,2.71,2.71,0,0,0,.63-.56,20.94,20.94,0,0,1-2.72,1.49,11.77,11.77,0,0,1-3.23.84,14.39,14.39,0,0,1-4.09-.2,30.69,30.69,0,0,0-4.14-.53,8.4,8.4,0,0,0-3.39.59,4.91,4.91,0,0,0-1.89,1.35,2.75,2.75,0,0,0-.35.52C25.11,256.45,25.08,256.52,25.09,256.53Z"/><path class="cls-3" d="M43.87,262.26a1.83,1.83,0,0,0-.64-.33,6.82,6.82,0,0,0-1.95-.42,12.34,12.34,0,0,0-3,.17c-1.1.17-2.28.48-3.51.74a15.43,15.43,0,0,1-3.51.4,7.71,7.71,0,0,1-2.78-.61,6.44,6.44,0,0,1-2.11-1.57,1.91,1.91,0,0,0,.4.62,5,5,0,0,0,1.6,1.2,7.43,7.43,0,0,0,2.88.71,14.35,14.35,0,0,0,3.6-.37c1.25-.27,2.41-.58,3.49-.78a13.91,13.91,0,0,1,2.87-.24A10.53,10.53,0,0,1,43.87,262.26Z"/><path class="cls-3" d="M27.17,270.33a3.77,3.77,0,0,1,2.28-.24,10.92,10.92,0,0,1,2.39.9,9.22,9.22,0,0,0,8.73-.45A8.65,8.65,0,0,0,42,269.46c.28-.31.43-.48.41-.5a21,21,0,0,1-2,1.34A9.66,9.66,0,0,1,35,271.46c-2.23-.13-3.94-1.46-5.48-1.63a3.43,3.43,0,0,0-1.78.15C27.32,270.14,27.16,270.31,27.17,270.33Z"/><path class="cls-3" d="M28.48,281.48a4.37,4.37,0,0,0,2-.39c1.18-.39,2.65-1.3,4.36-2a7.13,7.13,0,0,1,2.5-.52,4.13,4.13,0,0,1,3.46,1.71s0-.2-.22-.49a3.22,3.22,0,0,0-1.1-1,4.53,4.53,0,0,0-2.14-.57,7.06,7.06,0,0,0-2.64.51c-1.77.71-3.19,1.64-4.32,2.09S28.47,281.42,28.48,281.48Z"/><path class="cls-3" d="M29.63,286.68a5.85,5.85,0,0,0,1.49.48,27.36,27.36,0,0,0,7.5.74,5.57,5.57,0,0,0,1.56-.19c0-.11-2.39,0-5.3-.31S29.66,286.56,29.63,286.68Z"/><rect class="cls-3" x="401.19" y="147.98" width="73.4" height="49.48" transform="translate(-27.47 101.9) rotate(-12.87)"/><path class="cls-1" d="M468.52,141a4.73,4.73,0,0,1-.52.79l-1.59,2.2-6,8c-5.13,6.8-12.14,16.1-19.92,26.4l-.16.22-.25-.12-.59-.29-30.16-14.64-9.1-4.5-2.46-1.26a4.93,4.93,0,0,1-.84-.48,6.14,6.14,0,0,1,.9.36l2.51,1.14,9.2,4.32,30.24,14.46.59.29-.41.1,20.08-26.28,6.13-7.9c.71-.88,1.27-1.59,1.69-2.13A4.78,4.78,0,0,1,468.52,141Z"/><path class="cls-1" d="M408,205.54c-.16-.09,3.71-7.93,8.65-17.52s9.07-17.29,9.23-17.21-3.7,7.93-8.64,17.52S408.15,205.62,408,205.54Z"/><path class="cls-1" d="M449.51,164.78c.12-.15,6.94,5.2,15.23,11.94s14.92,12.32,14.8,12.46-6.93-5.2-15.22-11.94S449.4,164.92,449.51,164.78Z"/><rect class="cls-3" x="152.62" y="6.74" width="29.17" height="43.28" transform="translate(101.92 184.91) rotate(-77)"/><path class="cls-1" d="M191.63,19.41a2.21,2.21,0,0,1-.48.29l-1.42.76-5.23,2.72-17.36,8.88-.14.07-.1-.12-.24-.31L154.43,16.18l-3.67-4.73-1-1.3a3.82,3.82,0,0,1-.32-.47,2.62,2.62,0,0,1,.38.42l1,1.25L154.65,16,167,31.46l.24.3-.24-.05,17.41-8.77,5.29-2.62,1.44-.69A3.64,3.64,0,0,1,191.63,19.41Z"/><path class="cls-1" d="M142.89,38.1c-.06-.09,4-3.25,9.09-7.07s9.27-6.83,9.33-6.75-4,3.25-9.09,7.07S143,38.19,142.89,38.1Z"/><path class="cls-1" d="M175.41,27.16c.1,0,2.34,4.55,5,10.26s4.75,10.37,4.65,10.42-2.34-4.55-5-10.26S175.31,27.21,175.41,27.16Z"/><rect class="cls-3" x="388.99" y="22.1" width="33.54" height="22.6" transform="translate(19.78 162.91) rotate(-23.25)"/><path class="cls-1" d="M416.91,16.6a1.91,1.91,0,0,1-.17.4c-.14.29-.31.66-.54,1.12-.49,1-1.17,2.39-2,4.1l-6.77,13.51-.06.11-.12,0-.29-.08-14.76-4.09-4.46-1.28L386.51,30a2,2,0,0,1-.41-.14,2.74,2.74,0,0,1,.43.08l1.22.31,4.49,1.18,14.78,4,.29.08-.18.08L414,22.13l2.11-4.06.58-1.09A2.8,2.8,0,0,1,416.91,16.6Z"/><path class="cls-1" d="M395,50.61c-.08,0,1-3.86,2.44-8.58s2.66-8.52,2.74-8.49-1,3.86-2.45,8.58S395.1,50.64,395,50.61Z"/><path class="cls-1" d="M410.33,28.88c0-.08,3.54,1.77,7.82,4.11s7.72,4.31,7.68,4.38-3.54-1.77-7.82-4.11S410.29,29,410.33,28.88Z"/><path class="cls-4" d="M457.5,226.49a25.48,25.48,0,0,0-10.9-3.75,7.23,7.23,0,0,0-5.16.95,1,1,0,0,0-.53.94,1.16,1.16,0,0,0,.5.64,15.59,15.59,0,0,0,16.09,1.22"/><path class="cls-4" d="M457.22,226.18a52.52,52.52,0,0,1-7-6.19,17.88,17.88,0,0,1-4.42-8.17,3.28,3.28,0,0,1,.35-2.73c5.61,4.38,10,10,11.11,17.09"/><path class="cls-4" d="M457.44,226.45a25.44,25.44,0,0,1,.13-9.25,12.57,12.57,0,0,1,4.92-7.63c1,2.27.56,4.88-.13,7.25a35.07,35.07,0,0,1-4.88,10.28"/><path class="cls-4" d="M462.94,236.31a16,16,0,0,0-8.74,4.42,16.46,16.46,0,0,0-5,8.59c3.27-.21,6.05-2.52,8.07-5.11s3.41-5.43,5.63-7.85"/><path class="cls-4" d="M464.14,237.88a21.54,21.54,0,0,1,2.49-20.39,26,26,0,0,1-2.49,20.39"/><path class="cls-4" d="M471.41,246.54a15.59,15.59,0,0,0-14.91,8.58c-.19.37-.35.84-.1,1.17a1.08,1.08,0,0,0,1,.29c2.93-.19,5.54-2,7.69-4s4-4.34,6.39-6.08"/><path class="cls-4" d="M471.18,246.07a27.65,27.65,0,0,1-.28-15.51c.54-2,1.46-4.1,3.31-5a.5.5,0,0,1,.82.28,9.44,9.44,0,0,1,.79,4.45,28.77,28.77,0,0,1-.7,4.51c-.58,2.75-.89,5.71-2.4,8.09a15.14,15.14,0,0,0-1,1.77c-.29.61-.29.82-.55,1.3"/><path class="cls-4" d="M490.42,248.94a20,20,0,0,1,3.5-16.45c.26-.33.59-.68,1-.64.63.06.79.9.77,1.53a29.79,29.79,0,0,1-5.27,15.56"/><path class="cls-4" d="M492.15,250.12a23.9,23.9,0,0,0,19.63-4,15.8,15.8,0,0,0-10.62-1.3,15.18,15.18,0,0,0-9,5.29"/><path class="cls-4" d="M493.62,246.51a22.67,22.67,0,0,1,17.81-10.3,11,11,0,0,1-5.82,6.44,31.94,31.94,0,0,1-8.56,2.5c-1.13.22-2.69.47-3.43,1.36"/><path class="cls-4" d="M490.79,229a51.4,51.4,0,0,0,2.27-10.43A17.36,17.36,0,0,0,491,208.24a22.71,22.71,0,0,0-.31,21.11"/><path class="cls-4" d="M502.39,223.12c4-7.32,12.26-13.18,20.58-14-3.21,8-12,14.17-20.58,14"/><path class="cls-4" d="M499.86,224.56c6,.91,11.13,4.75,16.75,7.08a7.47,7.47,0,0,0,3.78.73,3,3,0,0,0,1.86-5.25,8.12,8.12,0,0,0-2.75-1.67c-6.12-2.54-12.68-2.61-19.13-1.06"/><path class="cls-4" d="M496.38,228.78c1.36.39,1.82,1.09,2.9,2a31.41,31.41,0,0,0,12.7,6.52c.49.12,1.13.17,1.37-.27s-.06-.84-.33-1.18a17.47,17.47,0,0,0-7.67-5.21c-2.93-1.09-5.47-2.41-9-2.13"/><path class="cls-4" d="M492.45,203.31a24.08,24.08,0,0,0,18.43,6.27,1.27,1.27,0,0,0,.84-.3c.47-.51-.09-1.29-.63-1.71-5.42-4.22-12-6-18.64-4.26"/><path class="cls-4" d="M497.11,201.61a25.66,25.66,0,0,1,23-3.8,18.19,18.19,0,0,1-11,4.81,34.88,34.88,0,0,1-12-1"/><path class="cls-4" d="M495.26,189.9c-.54-5.41-.19-9.68-.57-15.11,0-.43-.12-1-.53-1.11-.56-.22-1,.48-1.22,1a17.31,17.31,0,0,0,2.31,15.05"/><path class="cls-4" d="M494.87,190.5a32,32,0,0,0,9-8.71c1.77-2.42,3.26-5.32,2.86-8.29a8.58,8.58,0,0,0-6.47,3.21,18.18,18.18,0,0,0-3.29,6.63c-.72,2.38-1.22,4.82-2.06,7.16"/><path class="cls-4" d="M503.67,188.06a72.46,72.46,0,0,0,22.05-13c-2.64-1.06-5.65-.42-8.28.64A26.12,26.12,0,0,0,503.55,188"/><path class="cls-4" d="M497.34,193.46a45.21,45.21,0,0,0,12.24.06,51.67,51.67,0,0,0,11.43-3.8,1.31,1.31,0,0,0,.78-.59.89.89,0,0,0-.28-1,2.28,2.28,0,0,0-1-.45,21.12,21.12,0,0,0-12.35.74,56.77,56.77,0,0,0-10.85,5"/><path class="cls-4" d="M474.1,203.49a21.63,21.63,0,0,1-.2-17.92c1.69,2.57,1.9,5.85,1.59,8.91s-1.24,6.22-1.3,9.29"/><path class="cls-4" d="M463,197.9a25,25,0,0,0-18.58,7.91,17.36,17.36,0,0,0,10.17-1.88,51.85,51.85,0,0,0,8.72-5.84"/><path class="cls-4" d="M455.55,195.4c-3.39-.27-6.66-.69-9.92.31a11.91,11.91,0,0,0-7.56,6.41,17.89,17.89,0,0,0,9.3-1.76,53.37,53.37,0,0,0,8.18-5"/><path class="cls-4" d="M466.59,195.52c-3-2-6.18-4-9.74-4.87s-7.67-.21-10.14,2.47c2.87,1.68,6.36,1.88,9.7,1.88s7.42,0,10.56,1.07"/><path class="cls-4" d="M466.61,195.68c-5.22-5.12-7.2-14.32-5.1-21.33a32.52,32.52,0,0,1,5.1,21.33"/><path class="cls-4" d="M481,181.17c1-2.29,1.68-4.69,2.56-7a20.08,20.08,0,0,1,3.65-6.47,9.63,9.63,0,0,1,6.46-3.35,26,26,0,0,1-12.54,16.87"/><path class="cls-4" d="M478.36,184.19c-1.63-2.24-3.51-5.28-5.72-7a9.58,9.58,0,0,0-7.78-2,18.13,18.13,0,0,0,13.5,9"/><path class="cls-4" d="M478.88,181.35A38.44,38.44,0,0,1,476.3,173a13,13,0,0,1,1.31-8.48c2.86,5.42,3.78,11.23,1.41,16.87"/><path class="cls-4" d="M481,164.54c1.62-5.36,6.53-9.31,11.84-11.13a4.52,4.52,0,0,1,2.08-.31,1.82,1.82,0,0,1,1.53,1.28c.19.91-.57,1.73-1.27,2.34A40.35,40.35,0,0,1,481,164.54"/><path class="cls-4" d="M481,160.16a38,38,0,0,1,1.55-10.25c1.12-3.28,3.29-6.36,6.44-7.79.54,3.49-1,7-2.86,10s-4.1,5.84-5.22,9.2"/><path class="cls-4" d="M481,162.54c-1.34-3.91-1.48-8.88-3.82-12.29-1.63-2.38-4.26-4-5.67-6.52a9.94,9.94,0,0,0,.33,7.4,21.34,21.34,0,0,0,4.34,6.21c1.73,1.85,3.21,3.24,4.82,5.2"/><path class="cls-5" d="M481,277.7c-.11,0-.2-26.09-.2-58.26s.07-58.27.17-58.27.2,26.09.2,58.27S481.08,277.7,481,277.7Z"/><path class="cls-5" d="M503.78,199.56a8,8,0,0,1-1,.37l-2.7.91c-2.28.77-5.41,1.89-8.8,3.29s-6.53,2.61-8.33,4.17a6.2,6.2,0,0,0-1.68,2.22c-.26.61-.3,1-.34,1a.87.87,0,0,1,0-.28,4.11,4.11,0,0,1,.2-.76,5.93,5.93,0,0,1,1.63-2.36,14.69,14.69,0,0,1,3.62-2.25c1.44-.67,3-1.37,4.75-2.07,3.4-1.4,6.55-2.49,8.85-3.2,1.15-.36,2.09-.62,2.74-.8A4.76,4.76,0,0,1,503.78,199.56Z"/><path class="cls-5" d="M511.25,181.2a1.83,1.83,0,0,1-.28.3l-.83.78L507,185.12l-10.4,9.26c-4.06,3.62-7.57,7.07-10,9.67-1.22,1.3-2.18,2.37-2.83,3.13-.31.34-.56.63-.76.86s-.27.29-.28.28A2.37,2.37,0,0,1,483,208c.16-.21.39-.52.71-.91.62-.78,1.55-1.89,2.74-3.21a132.4,132.4,0,0,1,9.95-9.77c4.07-3.6,7.78-6.84,10.48-9.18l3.2-2.75.88-.73A1.51,1.51,0,0,1,511.25,181.2Z"/><path class="cls-5" d="M492.23,198.06c-.11-.05.74-2,1.58-4.49s1.26-4.56,1.37-4.54a15.11,15.11,0,0,1-1,4.67,29.11,29.11,0,0,1-1.26,3.13A5.32,5.32,0,0,1,492.23,198.06Z"/><path class="cls-5" d="M481,213.85a5.54,5.54,0,0,1-.62-.73l-1.61-2.05c-1.34-1.74-3.2-4.15-5.29-6.78s-4-5-5.39-6.69l-1.64-2a5,5,0,0,1-.57-.77,4.18,4.18,0,0,1,.68.68c.42.45,1,1.12,1.73,2,1.44,1.66,3.4,4,5.49,6.63s3.91,5.06,5.21,6.85c.64.89,1.16,1.61,1.51,2.12A4.58,4.58,0,0,1,481,213.85Z"/><path class="cls-5" d="M476,207.43a9.24,9.24,0,0,1-2.09-3.92,10.88,10.88,0,0,1-.47-3.95h.16c-.07.3-.13.46-.16.46s0-.18,0-.49l.16,0a18,18,0,0,0,.67,3.84A31.51,31.51,0,0,0,476,207.43Z"/><path class="cls-5" d="M469.55,199.31a6.72,6.72,0,0,0-1.46-.85,9.9,9.9,0,0,0-4.06-.32,25.7,25.7,0,0,0-4.09.66,10.17,10.17,0,0,1-1.68.4,6.12,6.12,0,0,1,1.61-.66,19.49,19.49,0,0,1,4.13-.78,8.83,8.83,0,0,1,4.19.46A2.61,2.61,0,0,1,469.55,199.31Z"/><path class="cls-5" d="M468,197.35c0,.05-.85-.35-2.24-.82a22.72,22.72,0,0,0-5.59-1.15,23,23,0,0,0-5.7.29c-1.44.26-2.32.53-2.33.47s.2-.12.59-.26a14.56,14.56,0,0,1,1.69-.47,19.8,19.8,0,0,1,11.43.87,14.06,14.06,0,0,1,1.6.72C467.84,197.2,468,197.32,468,197.35Z"/><path class="cls-5" d="M481,189a47.33,47.33,0,0,1-1.63-5.68,46.89,46.89,0,0,1-1.27-5.77,47.33,47.33,0,0,1,1.63,5.68A44.76,44.76,0,0,1,481,189Z"/><path class="cls-5" d="M481.06,189a28.81,28.81,0,0,0-1.81-3.4,15,15,0,0,0-2.67-2.75,2.41,2.41,0,0,1,1,.53,8.08,8.08,0,0,1,1.94,2A7.55,7.55,0,0,1,481.06,189Z"/><path class="cls-5" d="M481,263.8s-.12-.63-.41-1.74a24.46,24.46,0,0,0-1.75-4.52,62.47,62.47,0,0,0-9.25-13c-2.06-2.36-4.06-4.58-5.76-6.71a46.73,46.73,0,0,1-4.13-6,29.18,29.18,0,0,1-2.08-4.42c-.19-.54-.33-1-.41-1.26a2.93,2.93,0,0,1-.11-.45s.23.6.66,1.66a30.76,30.76,0,0,0,2.17,4.33,49.3,49.3,0,0,0,4.17,5.87c1.7,2.11,3.71,4.32,5.78,6.69a58.6,58.6,0,0,1,9.2,13.16,22.21,22.21,0,0,1,1.65,4.6,13.1,13.1,0,0,1,.23,1.3A2.34,2.34,0,0,1,481,263.8Z"/><path class="cls-5" d="M501.58,240.53s-.38.22-1.08.6a24.63,24.63,0,0,0-2.8,1.85,32.49,32.49,0,0,0-3.68,3.36c-1.29,1.36-2.62,2.95-4,4.64-2.71,3.41-5.25,6.42-6.77,8.82-.77,1.2-1.33,2.2-1.7,2.91a10.18,10.18,0,0,1-.59,1.09,1,1,0,0,1,.1-.31c.08-.19.19-.49.36-.85a28.45,28.45,0,0,1,1.61-3,96.31,96.31,0,0,1,6.7-8.91c1.36-1.7,2.71-3.29,4-4.65a29.63,29.63,0,0,1,3.77-3.33,20,20,0,0,1,2.89-1.77c.36-.18.65-.29.84-.37A1,1,0,0,1,501.58,240.53Z"/><path class="cls-5" d="M502,248.08a16.44,16.44,0,0,1-2.28.33,29.9,29.9,0,0,0-5.41,1.06,16.36,16.36,0,0,0-4.85,2.55c-1.11.86-1.64,1.57-1.69,1.53a1.62,1.62,0,0,1,.34-.52,8.48,8.48,0,0,1,1.18-1.22,14.85,14.85,0,0,1,4.9-2.7,25,25,0,0,1,5.5-1A12.39,12.39,0,0,1,502,248.08Z"/><path class="cls-5" d="M488.41,252.72c-.12-.06.91-1.64,1.71-3.75s.92-4,1.06-4a3.48,3.48,0,0,1,0,1.23,13.12,13.12,0,0,1-.67,2.88,13.84,13.84,0,0,1-1.32,2.65C488.74,252.38,488.46,252.75,488.41,252.72Z"/><path class="cls-5" d="M508.25,220.26a1.7,1.7,0,0,1-.36.2l-1.08.48c-.47.2-1,.46-1.68.8s-1.4.67-2.18,1.14l-1.24.71c-.44.25-.86.55-1.32.83-.91.56-1.83,1.24-2.82,1.94a53.12,53.12,0,0,0-5.88,5.18,54.09,54.09,0,0,0-5,6.05c-.67,1-1.32,1.95-1.85,2.89-.26.46-.54.9-.78,1.34l-.66,1.27c-.45.8-.76,1.56-1.07,2.22s-.56,1.23-.74,1.7-.33.81-.45,1.09a1.77,1.77,0,0,1-.18.37,1.46,1.46,0,0,1,.11-.39l.38-1.12c.17-.48.38-1.07.68-1.74s.6-1.44,1-2.25l.65-1.29c.22-.45.5-.89.76-1.36.52-.95,1.17-1.9,1.83-2.92a51.11,51.11,0,0,1,5-6.13,51.91,51.91,0,0,1,5.95-5.19c1-.69,1.92-1.38,2.86-1.92.46-.28.89-.58,1.33-.82l1.26-.69c.8-.46,1.56-.79,2.22-1.1s1.24-.56,1.72-.74l1.1-.43A1.91,1.91,0,0,1,508.25,220.26Z"/><path class="cls-5" d="M492,231.19a2.59,2.59,0,0,1,.89-1.34,5.73,5.73,0,0,1,3.62-1.39,9.94,9.94,0,0,1,3.8.75,5,5,0,0,1,1.43.7,9.79,9.79,0,0,1-1.52-.45,11.61,11.61,0,0,0-3.7-.62,5.94,5.94,0,0,0-3.45,1.21A9.08,9.08,0,0,0,492,231.19Z"/><path class="cls-5" d="M489.51,233.7a13.45,13.45,0,0,0,1-3.34,13.88,13.88,0,0,0-.23-3.48,2.29,2.29,0,0,1,.42,1,6.72,6.72,0,0,1,.18,2.56,6.82,6.82,0,0,1-.76,2.44C489.83,233.43,489.55,233.73,489.51,233.7Z"/><path class="cls-6" d="M463,267.53c.56,10,3.57,20.11,8.19,30.36h20.09c4.41-10.15,7.21-20.27,7.7-30.36Z"/><path class="cls-7" d="M495.69,283.67c0,.1-6.62.18-14.78.18s-14.78-.08-14.78-.18,6.62-.19,14.78-.19S495.69,283.56,495.69,283.67Z"/><path class="cls-7" d="M495.24,287.28c0,.1-6.2.19-13.85.19s-13.86-.09-13.86-.19,6.2-.19,13.86-.19S495.24,287.17,495.24,287.28Z"/><rect class="cls-6" x="108.54" y="88.51" width="309.44" height="204.63" rx="14.57"/><path class="cls-6" d="M96.44,279.93H431.7a0,0,0,0,1,0,0V281a16.85,16.85,0,0,1-16.85,16.85H113.3A16.85,16.85,0,0,1,96.44,281v-1.05a0,0,0,0,1,0,0Z"/><rect class="cls-5" x="116.84" y="96.64" width="291.96" height="172.81"/><polygon class="cls-5" points="232.75 278.01 236.91 284.63 295.45 284.63 299.31 278.01 232.75 278.01"/><rect class="cls-2" x="122.86" y="102.49" width="280.53" height="166.4" rx="3.27"/><polygon class="cls-7" points="403.09 269.14 122.56 269.14 122.86 114.93 403.09 114.93 403.09 269.14"/><path class="cls-5" d="M145.87,108.92a2.25,2.25,0,1,1-2.25-2.24A2.24,2.24,0,0,1,145.87,108.92Z"/><path class="cls-5" d="M132.29,108.92a2.24,2.24,0,1,1-2.24-2.24A2.24,2.24,0,0,1,132.29,108.92Z"/><path class="cls-5" d="M138.8,108.92a2.24,2.24,0,1,1-2.24-2.24A2.24,2.24,0,0,1,138.8,108.92Z"/><path class="cls-5" d="M415.32,278c0,.11-68.68.2-153.39.2s-153.39-.09-153.39-.2,68.66-.2,153.39-.2S415.32,277.9,415.32,278Z"/><path class="cls-8" d="M233.63,210.41c-1.64,0-1.64,0-1.64,1.62v.9h0v1.72a.62.62,0,0,0,.38.65.84.84,0,0,0,.29,0,7,7,0,0,0,1.49,0c.38-.15.39-.57.39-1.59,0-.79,0-1.57,0-2.35S234.4,210.43,233.63,210.41Zm0,3.88a.2.2,0,0,1-.2.2h-.32a.2.2,0,0,1-.19-.2v-2.83a.2.2,0,0,1,.19-.2h.32a.2.2,0,0,1,.2.2Z"/><path class="cls-8" d="M287.27,212.73a.44.44,0,0,0-.18-.12,7.51,7.51,0,0,0-.95,0,3.79,3.79,0,0,1,0-1.15c0-.09.85,0,.94,0h.28s0-.13,0-.16a1.16,1.16,0,0,0,0-.18,1.58,1.58,0,0,0-.09-.31,1.17,1.17,0,0,0-.05-.11s0,0,0,0a11,11,0,0,0-1.62,0,.45.45,0,0,0-.29.39.17.17,0,0,0,0,.07c0,.37,0,.73,0,1.1v.59c0,.21,0,.44.22.54a1.24,1.24,0,0,0,.43.06h.36c.06,0,.17,0,.21.06a5.57,5.57,0,0,1,0,1.08h-1s0,.84,0,.9a7.11,7.11,0,0,0,1.72,0,.54.54,0,0,0,.27-.46s0-1.85,0-2A.46.46,0,0,0,287.27,212.73Z"/><path class="cls-8" d="M211.39,212.66a.3.3,0,0,0-.19-.12,6,6,0,0,0-.95,0,3.86,3.86,0,0,1,0-1.15c0-.1.84-.06.93,0h.29s0-.13,0-.16a1.13,1.13,0,0,0,0-.18c0-.1-.06-.21-.1-.31a.3.3,0,0,0,0-.1l0-.05a12.13,12.13,0,0,0-1.61,0,.45.45,0,0,0-.3.39V211c0,.37,0,.74,0,1.1,0,.2,0,.4,0,.6s0,.43.22.53a1,1,0,0,0,.42.06l.37,0c.05,0,.17,0,.2,0a6.48,6.48,0,0,1,0,1.08h-1s0,.84,0,.89a7.75,7.75,0,0,0,1.72,0,.55.55,0,0,0,.28-.47s0-1.85,0-2A.4.4,0,0,0,211.39,212.66Z"/><path class="cls-8" d="M320.58,212.92a.34.34,0,0,0-.07-.19.44.44,0,0,0-.18-.12,7.67,7.67,0,0,0-1,0,4.23,4.23,0,0,1,0-1.15c0-.09.84,0,.94,0h.28s0-.13,0-.16a1.16,1.16,0,0,0,0-.18,2.8,2.8,0,0,0-.09-.31,1.17,1.17,0,0,0,0-.11s0,0,0,0a11,11,0,0,0-1.62,0,.45.45,0,0,0-.29.39.17.17,0,0,0,0,.07c0,.37,0,.73,0,1.1v.59c0,.21,0,.44.22.54a1.19,1.19,0,0,0,.42.06h.37s.17,0,.2.06a5.55,5.55,0,0,1,0,1.08h-1a8.79,8.79,0,0,0,0,.9,7.13,7.13,0,0,0,1.72,0,.43.43,0,0,0,.2-.2A18.22,18.22,0,0,0,320.58,212.92Z"/><path class="cls-8" d="M237.3,215.33h.92V210.4h-.92Z"/><polygon class="cls-8" points="228.31 212.36 227.74 212.36 227.74 210.4 226.74 210.4 226.74 215.39 227.74 215.39 227.74 213.2 228.31 213.2 228.31 215.39 229.31 215.39 229.31 210.4 228.31 210.4 228.31 212.36"/><path class="cls-8" d="M223.79,210.42c-.24,0-.48,0-.72,0a4.53,4.53,0,0,0-.52,0h0l-.39.32a1.82,1.82,0,0,0-.06.48c0,1.11,0,2.22,0,3.34a2.3,2.3,0,0,0,0,.28c.13.16.27.33.38.45s1.29,0,1.31,0a3.57,3.57,0,0,0,.31-.64,1.21,1.21,0,0,1,0-.19h-.82a.28.28,0,0,1-.15,0s0-.13,0-.17v-1.56c0-.33,0-1.26,0-1.31a.15.15,0,0,1,.08-.12h.91v-.25a.45.45,0,0,1,0-.11C224.09,210.87,223.86,210.42,223.79,210.42Z"/><path class="cls-8" d="M311.08,214.64v-.12h-.91a.15.15,0,0,1-.08-.12s0-1,0-1.31v-.57c0-.19,0-.38,0-.57v-.42s0-.13,0-.17a.28.28,0,0,1,.15,0h.83a1.2,1.2,0,0,1,0-.19,3.93,3.93,0,0,0-.31-.64s-1.12,0-1.31,0l-.37.45a1.27,1.27,0,0,0,0,.28c0,1.12,0,2.23,0,3.35a1.45,1.45,0,0,0,.06.47l.39.32h0a3,3,0,0,0,.52,0c.24,0,.48,0,.72,0a1.38,1.38,0,0,0,.29-.52.37.37,0,0,0,0-.11Z"/><path class="cls-8" d="M242.7,210.42c-.24,0-.48,0-.72,0a4.71,4.71,0,0,0-.53,0h0l-.39.32a1.24,1.24,0,0,0-.06.48c0,1.11,0,2.22,0,3.34a.84.84,0,0,0,0,.28l.37.45c.19,0,1.29,0,1.31,0a3.57,3.57,0,0,0,.31-.64.61.61,0,0,1,0-.19h-.83a.28.28,0,0,1-.15,0s0-.13,0-.17v-1.56c0-.33,0-1.26,0-1.31a.16.16,0,0,1,.07-.12H243v-.25a.37.37,0,0,0,0-.11A1.38,1.38,0,0,0,242.7,210.42Z"/><polygon class="cls-8" points="246.63 213.21 247.49 213.21 247.49 212.49 246.63 212.49 246.63 211.28 246.82 211.28 246.82 211.28 247.65 211.28 247.65 211.11 247.47 210.4 246.63 210.4 246.46 210.4 245.58 210.4 245.58 215.37 246.08 215.37 246.08 215.38 247.51 215.38 247.74 214.72 247.74 214.36 246.63 214.36 246.63 213.21"/><polygon class="cls-8" points="290.59 210.44 290.59 210.45 290.09 210.45 290.09 215.41 290.97 215.41 291.14 215.41 291.98 215.41 292.16 214.7 292.16 214.53 291.33 214.53 291.33 214.53 291.14 214.53 291.14 213.32 292 213.32 292 212.6 291.14 212.6 291.14 211.45 292.25 211.45 292.25 211.09 292.02 210.44 290.59 210.44"/><polygon class="cls-8" points="314.1 210.44 314.1 210.45 313.6 210.45 313.6 215.41 314.48 215.41 314.66 215.41 315.49 215.41 315.67 214.7 315.67 214.53 314.84 214.53 314.84 214.53 314.66 214.53 314.66 213.32 315.51 213.32 315.51 212.6 314.66 212.6 314.66 211.45 315.76 211.45 315.76 211.09 315.53 210.44 314.1 210.44"/><polygon class="cls-8" points="254.48 210.4 254.24 210.4 253.93 210.4 253.49 210.4 253.49 215.41 254.48 215.41 254.48 213.3 255.26 213.3 255.26 212.51 254.48 212.51 254.48 211.42 255.33 211.42 255.56 210.77 255.56 210.4 255.38 210.4 254.48 210.4"/><path class="cls-8" d="M258.59,210.43l-.92,4.76v.22h1.09v-.22l.05-.5h.66l.06.46v.26h1v-.26l-.86-4.72Zm.29,3.61.2-1.87h.07l.24,1.87Z"/><polygon class="cls-8" points="264.7 212.83 264.1 210.42 263.11 210.42 263.11 215.41 264.1 215.41 264.1 213.72 264.7 215.41 265.31 213.57 265.31 215.41 266.31 215.41 266.31 210.42 265.31 210.42 264.7 212.83"/><rect class="cls-8" x="268.97" y="210.42" width="1" height="4.99"/><rect class="cls-8" x="305.32" y="210.42" width="1.09" height="4.99"/><polygon class="cls-8" points="274.46 214.79 274.46 214.71 273.68 214.71 273.68 210.42 272.68 210.42 272.68 215.41 273.14 215.41 273.34 215.41 273.68 215.41 274.46 215.41 274.6 215.41 274.6 215.07 274.54 215.07 274.6 214.84 274.46 214.79"/><path class="cls-8" d="M278.43,211l-.06.27-.13.62-.13.62-.08.37v0l0-.23-.12-.53-.13-.62-.11-.47a2.19,2.19,0,0,1,0-.36v-.21h-1.06v.32h.11l.85,3.58v1.07h1.08v-1.16l.83-3.49h.11v-.32h-1.06A3,3,0,0,1,278.43,211Z"/><path class="cls-8" d="M297.35,213.49c0-.09,0-2.53,0-2.53-.07-.16-.15-.32-.22-.49l0,0h-2.27v5h1v-1.62h.12l.52,1.62h1.08l-.59-1.56A1.67,1.67,0,0,0,297.35,213.49Zm-.93-.48h-.61v-1.7h.61Z"/><polygon class="cls-8" points="301.67 210.67 301.67 210.7 301.33 213.55 300.98 210.7 300.98 210.67 300.98 210.39 299.89 210.39 299.89 210.67 299.97 210.67 300.73 214.76 300.73 215.35 301.34 215.35 301.4 215.41 301.45 215.35 301.92 215.35 301.92 214.76 302.64 210.67 302.76 210.67 302.76 210.39 301.67 210.39 301.67 210.67"/><polygon class="cls-8" points="206.37 210.39 205.45 210.39 205.04 211.3 205.45 211.3 205.45 214.42 205.1 214.42 205.1 215.34 206.76 215.34 206.76 214.42 206.37 214.42 206.37 210.39"/><polygon class="cls-8" points="215.65 210.39 215.65 210.37 214.78 210.37 214.78 210.39 214.35 210.39 214.07 211.3 214.78 211.3 214.78 215.33 215.65 215.33 215.65 211.3 216.4 211.3 216.13 210.39 215.65 210.39"/><path class="cls-8" d="M267.77,239.45a3,3,0,0,1-1.52,2.62.19.19,0,0,1-.09.05,2.94,2.94,0,0,1-1.42.36,3,3,0,0,1-1.36-.33l0,0a.39.39,0,0,1-.11-.06h0a3,3,0,1,1,4.54-2.62Z"/><circle class="cls-8" cx="253.86" cy="225.2" r="3.79"/><circle class="cls-8" cx="275.63" cy="225.2" r="3.79"/><path class="cls-8" d="M271.41,243l0,0-.24-.14-.24-.12-.17-.08h0l-.15-.06h0l-.21-.08-.22-.06-.2-.05a3.46,3.46,0,0,0-.48-.07l-.21,0h-.3a4.2,4.2,0,0,0-.7.05l-.24,0-.17,0-.17,0-.28.07-.29.09-.29.1a4.46,4.46,0,0,0-2,1.73,4.6,4.6,0,0,0-2-1.73l-.3-.1a2.46,2.46,0,0,0-.29-.09l-.28-.07-.17,0-.17,0-.24,0a4.2,4.2,0,0,0-.7-.05h-.3l-.21,0a3.46,3.46,0,0,0-.48.07l-.2.05-.22.06-.21.08h0l-.15.06h0l-.18.08-.24.12-.24.14,0,0a4.36,4.36,0,0,0-.91.78A16.87,16.87,0,0,1,260,246l.27.27a13.84,13.84,0,0,1,1.09,1.21,15.45,15.45,0,0,1,3.4,7.48h0a15.44,15.44,0,0,1,3.39-7.48,15.66,15.66,0,0,1,1.09-1.21l.27-.27a16.94,16.94,0,0,1,2.83-2.18A4.47,4.47,0,0,0,271.41,243Z"/><path class="cls-8" d="M247.46,233.27l.32.2a36.93,36.93,0,0,1,5.28,4,38.22,38.22,0,0,0-5.54-4.22Z"/><path class="cls-8" d="M276.47,237.39a36.68,36.68,0,0,1,5.24-3.92l.32-.2-.06-.06A38.89,38.89,0,0,0,276.47,237.39Z"/><path class="cls-8" d="M281.78,233a10.45,10.45,0,0,0-7.71-3.47,12.64,12.64,0,0,0-1.34.1l-.57.09-.38.08a2.88,2.88,0,0,0-.4.09c-.21.05-.43.1-.65.17l-.66.2-.68.24a10.75,10.75,0,0,0-4.64,4,10.9,10.9,0,0,0-4.65-4l-.68-.24-.66-.2c-.22-.07-.44-.12-.65-.17a2.88,2.88,0,0,0-.4-.09l-.38-.08-.57-.09a12.64,12.64,0,0,0-1.34-.1,10.45,10.45,0,0,0-7.71,3.47l-.19.22a38.22,38.22,0,0,1,5.54,4.22,36.61,36.61,0,0,1,4.68,5.06,5.19,5.19,0,0,1,2.86-.84,6.21,6.21,0,0,1,1.39.17,3.64,3.64,0,1,1,5.51,0,6.23,6.23,0,0,1,1.4-.17,5.18,5.18,0,0,1,2.85.84,37.26,37.26,0,0,1,4.72-5.1,38.89,38.89,0,0,1,5.5-4.18Z"/><path class="cls-8" d="M289.86,138.48v7.11h-9.32v-7.1H259.1v7.1h-9.3v-7.14H231.06a34.31,34.31,0,0,1,.36-4.84,5.84,5.84,0,0,1,5.66-4.48h77.24a5.92,5.92,0,0,1,6.28,6.25v10.22h-9.3v-7.11Z"/><path class="cls-8" d="M311.24,166.81h-8.12c-1.54,0-3.08,0-4.62,0a5.82,5.82,0,0,1-5.8-5.69c-.06-6.51,0-13,0-19.51a2.51,2.51,0,0,1,0-.32H302V157.5h12.41a5.9,5.9,0,0,1,6.23,6.23v25.2a5.93,5.93,0,0,1-6.22,6.25H286.82a6,6,0,0,1-6.29-6.32V178.7h9.33v7.1h21.38Z"/><path class="cls-8" d="M289.81,170.37h-9.25v-3.51h-9.29v28.26c-.25,0-.44.06-.63.06-2.7,0-5.41,0-8.11,0-.51,0-.64-.15-.64-.64,0-5.76,0-49.5,0-52.7,0-.18,0-.35,0-.58h9.29v16.19h9.3v-3.52h9.28Z"/><path class="cls-8" d="M231.16,141.26h9.31v44.55h9.31v-7.12h9.31V188.9a6.05,6.05,0,0,1-6.31,6.28H237.5a6.06,6.06,0,0,1-6.34-6.32q0-23.46,0-46.93Z"/><path class="cls-8" d="M228.69,188.86v-3h-3.84v-54.9a1.81,1.81,0,0,0-1.8-1.8h-13a.79.79,0,0,0-.79.79V137h6.23v48.79H205v9.37h26C229.21,193.73,228.69,191.5,228.69,188.86Z"/><rect class="cls-8" x="205.04" y="197.66" width="115.56" height="10.31"/><path class="cls-5" d="M537.54,297.14c0,.12-120.34.21-268.76.21S0,297.26,0,297.14s120.32-.2,268.78-.2S537.54,297,537.54,297.14Z"/><path class="cls-5" d="M295.1,118.84a9.23,9.23,0,0,1-1.15,3.79,9.35,9.35,0,0,1,1.15-3.79Z"/><path class="cls-5" d="M297.86,111.43a4.72,4.72,0,0,1-.54,1.92,4.86,4.86,0,0,1-.92,1.76,4.84,4.84,0,0,1,.53-1.92C297.34,112.17,297.75,111.38,297.86,111.43Z"/><path class="cls-5" d="M301.29,104.31a9.81,9.81,0,0,1-1.8,3.52,4.68,4.68,0,0,1,.71-1.86C300.7,105,301.19,104.25,301.29,104.31Z"/><path class="cls-5" d="M305.43,97.57a5.15,5.15,0,0,1-.93,1.75c-.58.93-1.14,1.62-1.23,1.56a4.68,4.68,0,0,1,.88-1.78C304.76,98.18,305.33,97.5,305.43,97.57Z"/><path class="cls-5" d="M310.3,91.34c.09.07-.41.82-1.1,1.65s-1.34,1.46-1.43,1.39.4-.81,1.1-1.65S310.21,91.26,310.3,91.34Z"/><path class="cls-5" d="M315.87,85.73c.08.09-.5.76-1.29,1.51s-1.5,1.29-1.58,1.21.5-.76,1.29-1.51S315.8,85.64,315.87,85.73Z"/><path class="cls-5" d="M322.1,80.85c.07.1-.59.7-1.47,1.34a5,5,0,0,1-1.72,1c-.07-.09.59-.69,1.47-1.34A5.19,5.19,0,0,1,322.1,80.85Z"/><path class="cls-5" d="M328.92,76.85A4.83,4.83,0,0,1,327.28,78a4.88,4.88,0,0,1-1.84.76c-.06-.1.68-.6,1.64-1.12A4.63,4.63,0,0,1,328.92,76.85Z"/><path class="cls-5" d="M336.25,73.87a5,5,0,0,1-1.79.87,4.88,4.88,0,0,1-1.93.48c0-.11.75-.5,1.78-.87A4.77,4.77,0,0,1,336.25,73.87Z"/><path class="cls-5" d="M343.94,72.08a5,5,0,0,1-1.91.53,4.56,4.56,0,0,1-2,.2A5,5,0,0,1,342,72.2,4.56,4.56,0,0,1,343.94,72.08Z"/><path class="cls-5" d="M351.84,71.64a4.82,4.82,0,0,1-2,.23,4.92,4.92,0,0,1-2-.18,4.8,4.8,0,0,1,2-.24A5,5,0,0,1,351.84,71.64Z"/><path class="cls-5" d="M359.69,72.57a5.08,5.08,0,0,1-2-.11,5,5,0,0,1-1.92-.52,9.11,9.11,0,0,1,3.91.63Z"/><path class="cls-5" d="M367.26,74.83a5,5,0,0,1-1.94-.45,5.06,5.06,0,0,1-1.8-.85,4.82,4.82,0,0,1,1.94.45A4.74,4.74,0,0,1,367.26,74.83Z"/><path class="cls-5" d="M374.3,78.42a5,5,0,0,1-1.82-.8c-.94-.54-1.67-1.06-1.61-1.16s.86.25,1.82.8S374.37,78.32,374.3,78.42Z"/><path class="cls-5" d="M380.5,83.31a4.93,4.93,0,0,1-1.62-1.14c-.82-.72-1.42-1.37-1.35-1.47s.8.43,1.62,1.15S380.58,83.23,380.5,83.31Z"/><path class="cls-5" d="M384.41,87.82c-.09.07-.44-.23-.78-.67s-.54-.85-.45-.92.44.22.78.67S384.5,87.75,384.41,87.82Z"/><path class="cls-5" d="M421.63,136.31a5.13,5.13,0,0,1-1.92-.66c-1-.47-1.79-.94-1.73-1a5.11,5.11,0,0,1,1.91.66A5,5,0,0,1,421.63,136.31Z"/><path class="cls-5" d="M429.22,139a5,5,0,0,1-2-.39,4.77,4.77,0,0,1-1.86-.79,5.14,5.14,0,0,1,2,.39A5,5,0,0,1,429.22,139Z"/><path class="cls-5" d="M437.16,140.21a4.7,4.7,0,0,1-2,0,4.82,4.82,0,0,1-2-.43,10.17,10.17,0,0,1,4,.44Z"/><path class="cls-5" d="M445.19,140a4.73,4.73,0,0,1-2,.36,5,5,0,0,1-2,0,4.94,4.94,0,0,1,2-.36A5.08,5.08,0,0,1,445.19,140Z"/><path class="cls-5" d="M453.1,138.48a5.13,5.13,0,0,1-1.91.69,4.87,4.87,0,0,1-2,.19,5.21,5.21,0,0,1,1.93-.6A5,5,0,0,1,453.1,138.48Z"/><path class="cls-5" d="M460.57,135.52a5.18,5.18,0,0,1-1.74,1,4.9,4.9,0,0,1-1.92.65,9.75,9.75,0,0,1,3.66-1.68Z"/><path class="cls-5" d="M467.23,131c.08.08-.55.75-1.44,1.42a4.53,4.53,0,0,1-1.77,1c-.06-.1.63-.67,1.51-1.33A5.79,5.79,0,0,1,467.23,131Z"/><path class="cls-5" d="M472.7,125.16c.1.07-.35.86-1.06,1.73s-1.41,1.45-1.49,1.37.46-.79,1.16-1.64S472.61,125.09,472.7,125.16Z"/><path class="cls-5" d="M476.48,118.08a4.45,4.45,0,0,1-.57,2c-.45,1-1,1.78-1.07,1.72a6.06,6.06,0,0,1,.69-1.89C476,118.85,476.36,118,476.48,118.08Z"/><path class="cls-5" d="M478,110.21a7,7,0,0,1-.41,4,6.69,6.69,0,0,1,.09-2A6.17,6.17,0,0,1,478,110.21Z"/><path class="cls-5" d="M476.8,102.28a4.19,4.19,0,0,1,.73,1.89,4.13,4.13,0,0,1,.16,2,6.65,6.65,0,0,1-.57-1.94A6.29,6.29,0,0,1,476.8,102.28Z"/><path class="cls-5" d="M473.3,95.06c.1-.07.7.62,1.26,1.59a4.34,4.34,0,0,1,.77,1.88c-.11,0-.57-.72-1.13-1.67A6.39,6.39,0,0,1,473.3,95.06Z"/><path class="cls-5" d="M467.72,89.32a4.14,4.14,0,0,1,1.71,1.09c.85.73,1.41,1.46,1.33,1.54s-.77-.51-1.6-1.23S467.65,89.42,467.72,89.32Z"/><path class="cls-5" d="M460.42,86.05a4,4,0,0,1,2,.33,4,4,0,0,1,1.81.93,7,7,0,0,1-1.94-.53A6.78,6.78,0,0,1,460.42,86.05Z"/><path class="cls-5" d="M452.44,86.18a6.42,6.42,0,0,1,4-.52,7,7,0,0,1-2,.36A6.54,6.54,0,0,1,452.44,86.18Z"/><path class="cls-5" d="M445.51,90.07c-.09-.08.47-.82,1.37-1.51a3.82,3.82,0,0,1,1.82-.92c.05.1-.69.6-1.56,1.26A8.92,8.92,0,0,1,445.51,90.07Z"/><path class="cls-5" d="M442.32,97.29a3.76,3.76,0,0,1,.12-2,3.55,3.55,0,0,1,.84-1.85,8.37,8.37,0,0,1-.43,1.95A8.29,8.29,0,0,1,442.32,97.29Z"/><path class="cls-5" d="M443.89,105.09a3.92,3.92,0,0,1-1-1.79,3.87,3.87,0,0,1-.33-2,7.59,7.59,0,0,1,.73,1.88A6.8,6.8,0,0,1,443.89,105.09Z"/><path class="cls-5" d="M449.15,111.08a4.14,4.14,0,0,1-1.71-1.09c-.85-.75-1.38-1.51-1.29-1.58s.74.54,1.56,1.26S449.22,111,449.15,111.08Z"/><path class="cls-5" d="M456.46,114.35a4.27,4.27,0,0,1-2-.37,4.32,4.32,0,0,1-1.81-.93,6.32,6.32,0,0,1,2,.53A6.23,6.23,0,0,1,456.46,114.35Z"/><path class="cls-5" d="M464.44,115.11a4.39,4.39,0,0,1-2,.24,4.28,4.28,0,0,1-2-.33,6.37,6.37,0,0,1,2-.09A5.8,5.8,0,0,1,464.44,115.11Z"/><path class="cls-5" d="M472.33,113.65a4.5,4.5,0,0,1-1.88.76,4.38,4.38,0,0,1-2,.23,6,6,0,0,1,1.91-.64A5.88,5.88,0,0,1,472.33,113.65Z"/><path class="cls-5" d="M479.63,110.3c.06.1-.69.61-1.68,1.13a4.86,4.86,0,0,1-1.88.75,5.14,5.14,0,0,1,1.68-1.12A5.27,5.27,0,0,1,479.63,110.3Z"/><path class="cls-5" d="M486.08,105.51c.08.09-.56.73-1.42,1.44s-1.62,1.21-1.69,1.11.57-.73,1.42-1.44S486,105.42,486.08,105.51Z"/><path class="cls-5" d="M491.56,99.63c.09.07-.42.81-1.15,1.66s-1.38,1.48-1.47,1.4a5.11,5.11,0,0,1,1.15-1.67C490.81,100.18,491.47,99.56,491.56,99.63Z"/><path class="cls-5" d="M496,92.91a5,5,0,0,1-.85,1.84c-.58,1-1.12,1.68-1.22,1.61a5.06,5.06,0,0,1,.86-1.83A5.21,5.21,0,0,1,496,92.91Z"/><path class="cls-5" d="M499.25,85.56a5.12,5.12,0,0,1-.54,2,4.55,4.55,0,0,1-.95,1.79,5.57,5.57,0,0,1,.56-1.94A5,5,0,0,1,499.25,85.56Z"/><path class="cls-5" d="M501.5,77.84a5.15,5.15,0,0,1-.31,2,5,5,0,0,1-.7,1.89,5,5,0,0,1,.3-2A4.86,4.86,0,0,1,501.5,77.84Z"/><path class="cls-5" d="M502.9,69.92a4.77,4.77,0,0,1-.09,2,4.86,4.86,0,0,1-.52,2,5.1,5.1,0,0,1,.1-2A5.15,5.15,0,0,1,502.9,69.92Z"/><path class="cls-5" d="M503.65,61.91a5.14,5.14,0,0,1,.06,2,5.25,5.25,0,0,1-.36,2,4.77,4.77,0,0,1-.06-2A4.83,4.83,0,0,1,503.65,61.91Z"/><path class="cls-5" d="M503.9,53.87a4.92,4.92,0,0,1,.17,2,4.87,4.87,0,0,1-.25,2,5.2,5.2,0,0,1-.17-2A5,5,0,0,1,503.9,53.87Z"/><path class="cls-5" d="M503.84,45.82a4.81,4.81,0,0,1,.24,2,4.82,4.82,0,0,1-.18,2,5,5,0,0,1-.24-2A5.24,5.24,0,0,1,503.84,45.82Z"/><path class="cls-5" d="M503.72,40.87c.12,0,.22.2.22.46s-.08.46-.19.46-.22-.2-.22-.45S503.61,40.87,503.72,40.87Z"/><rect class="cls-4" x="468.5" y="19.86" width="55.02" height="37.09" transform="translate(-1.25 53.78) rotate(-6.2)"/><path class="cls-5" d="M470.64,59.83v0l-4-36.89h0L521.37,17v0l4,36.89h0Zm-4-36.87,4,36.83,54.66-5.94-4-36.83Z"/><path class="cls-5" d="M521.58,17.42a4.79,4.79,0,0,1-.46.55l-1.37,1.5-5.14,5.46L497.47,42.84l-.14.15-.17-.11-.42-.26L475.57,29.09l-6.39-4.15-1.72-1.15a3,3,0,0,1-.58-.43,4.58,4.58,0,0,1,.63.35l1.78,1.07,6.47,4L497,42.2l.42.26-.32,0c6.73-7,12.81-13.23,17.24-17.82l5.26-5.34,1.44-1.44A5.63,5.63,0,0,1,521.58,17.42Z"/><path class="cls-5" d="M470.88,60.24c-.11-.08,3.45-5.58,8-12.29s8.26-12.08,8.38-12-3.45,5.58-8,12.29S471,60.31,470.88,60.24Z"/><path class="cls-5" d="M505.35,33.51c.1-.1,4.71,4.48,10.3,10.22s10,10.47,9.93,10.56-4.7-4.47-10.29-10.22S505.25,33.6,505.35,33.51Z"/><path class="cls-5" d="M270.27,120.94a4.78,4.78,0,0,1,.53,1.93,5.07,5.07,0,0,1,.11,2,4.78,4.78,0,0,1-.53-1.93A5.06,5.06,0,0,1,270.27,120.94Z"/><path class="cls-5" d="M269.13,113.06a9.65,9.65,0,0,1,.55,3.94,4.84,4.84,0,0,1-.49-1.94A4.76,4.76,0,0,1,269.13,113.06Z"/><path class="cls-5" d="M268.22,105.16a4.85,4.85,0,0,1,.42,2,5.18,5.18,0,0,1,0,2,4.74,4.74,0,0,1-.42-2A5.11,5.11,0,0,1,268.22,105.16Z"/><path class="cls-5" d="M267.67,97.22a5.05,5.05,0,0,1,.32,2,4.77,4.77,0,0,1-.1,2,4.92,4.92,0,0,1-.32-2A4.83,4.83,0,0,1,267.67,97.22Z"/><path class="cls-5" d="M267.58,89.26a4.82,4.82,0,0,1,.2,2,5.21,5.21,0,0,1-.22,2,4.75,4.75,0,0,1-.2-2A5.13,5.13,0,0,1,267.58,89.26Z"/><path class="cls-5" d="M268.08,81.33a4.78,4.78,0,0,1,.05,2,4.91,4.91,0,0,1-.38,2,5.05,5.05,0,0,1,0-2A5,5,0,0,1,268.08,81.33Z"/><path class="cls-5" d="M269.28,73.46a5,5,0,0,1-.14,2,5,5,0,0,1-.55,1.92,4.78,4.78,0,0,1,.14-2A5,5,0,0,1,269.28,73.46Z"/><path class="cls-5" d="M271.31,65.78a5,5,0,0,1-.37,2,4.75,4.75,0,0,1-.77,1.85,5.07,5.07,0,0,1,.37-2A4.65,4.65,0,0,1,271.31,65.78Z"/><path class="cls-5" d="M274.28,58.4a4.89,4.89,0,0,1-.61,1.91,4.89,4.89,0,0,1-1,1.73,4.92,4.92,0,0,1,.61-1.9A4.93,4.93,0,0,1,274.28,58.4Z"/><path class="cls-5" d="M278.16,51.46a4.92,4.92,0,0,1-.84,1.81,5.12,5.12,0,0,1-1.21,1.6,4.93,4.93,0,0,1,.85-1.82C277.53,52.11,278.07,51.4,278.16,51.46Z"/><path class="cls-5" d="M282.94,45.1a5.12,5.12,0,0,1-1.09,1.68c-.69.85-1.32,1.48-1.41,1.42a4.89,4.89,0,0,1,1.08-1.69C282.22,45.66,282.85,45,282.94,45.1Z"/><path class="cls-5" d="M288.59,39.51c.07.09-.52.76-1.33,1.49s-1.53,1.27-1.61,1.19.51-.75,1.33-1.5S288.51,39.42,288.59,39.51Z"/><path class="cls-5" d="M295.09,34.94c.06.1-.64.65-1.56,1.24a5.13,5.13,0,0,1-1.79.9c-.07-.1.63-.66,1.56-1.25S295,34.83,295.09,34.94Z"/><path class="cls-5" d="M302.34,31.67a4.89,4.89,0,0,1-1.78.92,4.83,4.83,0,0,1-1.93.53,5.1,5.1,0,0,1,1.78-.92A4.91,4.91,0,0,1,302.34,31.67Z"/><path class="cls-5" d="M308.15,30.24c0,.12-.41.29-.95.4s-1,.09-1,0,.4-.29.95-.4S308.13,30.13,308.15,30.24Z"/><rect class="cls-4" x="265.81" y="-0.29" width="40.33" height="59.83" transform="translate(155.2 285.66) rotate(-68.86)"/><path class="cls-5" d="M306.61,59.24h0L250.77,37.65v0L265.33,0h0l55.82,21.58v0ZM250.82,37.63l55.77,21.56,14.53-37.58L265.35.05Z"/><path class="cls-5" d="M321.15,22.12a3.39,3.39,0,0,1-.72.3l-2.08.77-7.69,2.7-25.49,8.75-.21.07-.11-.19-.28-.46L270.88,10.42l-4.1-7.2-1.09-2a5.83,5.83,0,0,1-.35-.7,3.74,3.74,0,0,1,.45.65L267,3.12l4.24,7.1L285,33.78l.28.47-.33-.12,25.55-8.6L318.28,23l2.12-.67A6.52,6.52,0,0,1,321.15,22.12Z"/><path class="cls-5" d="M250.8,38.16c-.07-.13,6.12-3.67,13.82-7.89s14-7.55,14.09-7.42-6.12,3.67-13.82,7.9S250.87,38.29,250.8,38.16Z"/><path class="cls-5" d="M297.44,29.56c.14,0,2.31,6.67,4.84,15s4.47,15.12,4.32,15.17-2.31-6.68-4.84-15S297.3,29.6,297.44,29.56Z"/><path class="cls-5" d="M247.77,121.24a5,5,0,0,1,.4,2,5.17,5.17,0,0,1,0,2.06,5.22,5.22,0,0,1-.4-2A5.44,5.44,0,0,1,247.77,121.24Z"/><path class="cls-5" d="M246.41,113.17a5.33,5.33,0,0,1,.6,2,5.23,5.23,0,0,1,.19,2,4.93,4.93,0,0,1-.6-2A5.23,5.23,0,0,1,246.41,113.17Z"/><path class="cls-5" d="M244.18,105.29a5.19,5.19,0,0,1,.82,1.9,5.12,5.12,0,0,1,.41,2,5.08,5.08,0,0,1-.81-1.89A5.45,5.45,0,0,1,244.18,105.29Z"/><path class="cls-5" d="M241.06,97.73a10.3,10.3,0,0,1,1.68,3.74,5.38,5.38,0,0,1-1-1.78A5,5,0,0,1,241.06,97.73Z"/><path class="cls-5" d="M237,90.63c.1-.06.67.66,1.28,1.62a5.16,5.16,0,0,1,.87,1.87c-.1.06-.65-.68-1.22-1.65A5.08,5.08,0,0,1,237,90.63Z"/><path class="cls-5" d="M232,84.16c.08-.07.74.57,1.47,1.44a5.1,5.1,0,0,1,1.15,1.71c-.09.07-.75-.57-1.47-1.44S231.89,84.24,232,84.16Z"/><path class="cls-5" d="M226.1,78.47c.07-.09.82.46,1.66,1.22s1.46,1.44,1.38,1.52-.83-.46-1.66-1.21S226,78.56,226.1,78.47Z"/><path class="cls-5" d="M219.46,73.69a5.15,5.15,0,0,1,1.82,1c.94.63,1.66,1.21,1.59,1.31a5.22,5.22,0,0,1-1.82-1A5.34,5.34,0,0,1,219.46,73.69Z"/><path class="cls-5" d="M212.17,70a5.1,5.1,0,0,1,2,.67,5.19,5.19,0,0,1,1.77,1,5,5,0,0,1-1.95-.66A5.07,5.07,0,0,1,212.17,70Z"/><path class="cls-5" d="M204.37,67.5a5.34,5.34,0,0,1,2,.33,5.09,5.09,0,0,1,1.92.74,10,10,0,0,1-3.95-1.07Z"/><path class="cls-5" d="M196.26,66.46a5.19,5.19,0,0,1,2.06-.09,5.39,5.39,0,0,1,2,.42,5,5,0,0,1-2.06,0A5.1,5.1,0,0,1,196.26,66.46Z"/><path class="cls-5" d="M188.1,67a4.86,4.86,0,0,1,2-.45,5.22,5.22,0,0,1,2.06,0,5.06,5.06,0,0,1-2,.45A5.2,5.2,0,0,1,188.1,67Z"/><path class="cls-5" d="M180.19,69.13a10.13,10.13,0,0,1,3.9-1.24,5.19,5.19,0,0,1-1.88.82A5.25,5.25,0,0,1,180.19,69.13Z"/><path class="cls-5" d="M172.82,72.68c-.06-.1.7-.62,1.7-1.16a5,5,0,0,1,1.9-.79,10.07,10.07,0,0,1-3.6,2Z"/><path class="cls-5" d="M166.28,77.59c-.08-.08.57-.74,1.44-1.47A5.1,5.1,0,0,1,169.43,75c.07.09-.58.75-1.44,1.47S166.36,77.68,166.28,77.59Z"/><path class="cls-5" d="M160.93,83.77A4.72,4.72,0,0,1,162,82c.7-.91,1.38-1.54,1.47-1.46a6.22,6.22,0,0,1-1.14,1.71C161.62,83.13,161,83.83,160.93,83.77Z"/><path class="cls-5" d="M158,89.08c-.11,0,0-.49.25-1s.52-.87.63-.82,0,.5-.26,1S158.05,89.13,158,89.08Z"/><path class="cls-5" d="M106.81,136.57c0-.11.43-.26,1-.33s1,0,1,.09-.41.26-1,.33S106.82,136.69,106.81,136.57Z"/><path class="cls-5" d="M98.84,135.67a6.34,6.34,0,0,1,2,.3,6.4,6.4,0,0,1,2,.53,4.28,4.28,0,0,1-2-.12A4.19,4.19,0,0,1,98.84,135.67Z"/><path class="cls-5" d="M91.64,132.11a6,6,0,0,1,1.8.91c1,.57,1.71,1,1.66,1.15a4.28,4.28,0,0,1-1.87-.79C92.26,132.81,91.57,132.2,91.64,132.11Z"/><path class="cls-5" d="M85.65,126.73c.09-.07.75.54,1.53,1.33s1.39,1.45,1.31,1.54-.82-.45-1.61-1.25S85.56,126.81,85.65,126.73Z"/><path class="cls-5" d="M80.92,120.21c.1-.06.67.65,1.28,1.57a5.11,5.11,0,0,1,.93,1.81c-.1.06-.67-.64-1.28-1.58A4.81,4.81,0,0,1,80.92,120.21Z"/><path class="cls-5" d="M77.44,112.94a5.07,5.07,0,0,1,1,1.78,4.86,4.86,0,0,1,.6,1.93,5.08,5.08,0,0,1-1-1.77A5,5,0,0,1,77.44,112.94Z"/><path class="cls-5" d="M75.13,105.22a5.15,5.15,0,0,1,.71,1.9,4.9,4.9,0,0,1,.31,2,10,10,0,0,1-1-3.9Z"/><path class="cls-5" d="M73.73,97.28a5.15,5.15,0,0,1,.51,2,5,5,0,0,1,.09,2,5.17,5.17,0,0,1-.51-2A5,5,0,0,1,73.73,97.28Z"/><path class="cls-5" d="M73,89.25a5.14,5.14,0,0,1,.37,2,4.91,4.91,0,0,1,0,2,5.14,5.14,0,0,1-.37-2A4.89,4.89,0,0,1,73,89.25Z"/><path class="cls-5" d="M72.62,83.21c.12,0,.23.44.26,1s0,1-.16,1-.23-.44-.26-1S72.51,83.21,72.62,83.21Z"/><rect class="cls-4" x="37.03" y="35.97" width="66.99" height="45.15" transform="translate(-2.68 3.39) rotate(-2.7)"/><path class="cls-5" d="M38.11,82.7v0L36,37.55h0l66.93-3.15v0l2.13,45.12h0ZM36,37.59l2.12,45.06L105,79.5,102.9,34.44Z"/><path class="cls-5" d="M103.16,35a5.78,5.78,0,0,1-.59.63l-1.79,1.72-6.65,6.25L72,64.05l-.18.17-.21-.15-.49-.35-24.72-18-7.45-5.52-2-1.52a4.3,4.3,0,0,1-.67-.57,7.32,7.32,0,0,1,.74.47L39.07,40l7.56,5.36C53,50,61.79,56.26,71.46,63.23l.49.35-.38,0L93.84,43.23l6.78-6.1,1.86-1.64A4.31,4.31,0,0,1,103.16,35Z"/><path class="cls-5" d="M38.37,83.21C38.24,83.1,43,76.68,49,68.87S59.9,54.8,60,54.9s-4.61,6.52-10.59,14.34S38.5,83.31,38.37,83.21Z"/><path class="cls-5" d="M82.25,53.29c.12-.11,5.38,5.79,11.75,13.18s11.41,13.47,11.29,13.58S99.9,74.26,93.53,66.87,82.12,53.4,82.25,53.29Z"/><path class="cls-9" d="M155.76,194.63a1.82,1.82,0,0,0-1.39-2l-1.79.12-6.42-2.23a1.91,1.91,0,0,0-2.42,1.75c0,1.84-.77,6.86-2.27,5.28l-.11-.1c-2.11-2.36-4.56-3.5-5.51-3.36a1.07,1.07,0,0,0-.46,1.9,1.28,1.28,0,0,0,.38.26l.22.12a15.48,15.48,0,0,1,2.45,2.19,8.09,8.09,0,0,1,1.61,2.44c.44,1,.77,1.87,1,2.61l.11,5.9-2.57,27.58s-17-17.83-16.58-18l1,27.75,10.29,8.51a12.92,12.92,0,0,0,21.17-10.18l-.59-35.66.42-4.67Z"/><path class="cls-9" d="M60.43,233.83,41.85,276.36,27.15,307,16.23,310.7s-8.64,2.51-8.64,4.3,2.28,1.38,2.28,1.38c.42,2.67,4.12,1.16,6.7,0s8.35-1.44,8.35-1.44a2.34,2.34,0,0,0-.17,3.75c.92.65,2.52-.13,3.6-1.28s3.86-1.69,6.95-2.79,3.61-5.27,3.61-5.27l37.2-62.67Z"/><path class="cls-4" d="M122.1,249.27l4.68,6.18L136.91,233s-9.83-12-13.43-17-6.24-5.86-6.24-5.86-6.53-1.94-9.79-1.87l-16.14,1-16.4,7.16A22.74,22.74,0,0,0,65,224.64L49.6,249.44l21.86,9.34,7.33,41.9c1.41,6.29,2.63,12.22,8.44,15.12l40.53-39L123,269.36Z"/><path class="cls-5" d="M83.35,241.59c.1.06-2.4,3.95-5.58,8.67s-5.83,8.51-5.93,8.44,2.41-3.95,5.58-8.67S83.25,241.52,83.35,241.59Z"/><path class="cls-5" d="M117.33,281.37a7.62,7.62,0,0,1-1.07.64c-.71.39-1.74.94-3,1.6-2.56,1.33-6.12,3.11-10.1,5s-7.63,3.49-10.28,4.62c-1.33.56-2.41,1-3.16,1.3a6.4,6.4,0,0,1-1.18.42,9.73,9.73,0,0,1,1.12-.57l3.1-1.42c2.62-1.2,6.24-2.86,10.22-4.73s7.56-3.61,10.15-4.87l3.07-1.48A6.54,6.54,0,0,1,117.33,281.37Z"/><path class="cls-5" d="M82.05,232.51a12.68,12.68,0,0,1-1.42-1.79,28.1,28.1,0,0,0-3.6-4.1,12.75,12.75,0,0,0-4.64-2.74c-1.33-.41-2.22-.4-2.21-.48a1.8,1.8,0,0,1,.62,0,7,7,0,0,1,1.67.24,11.64,11.64,0,0,1,4.84,2.7,22.93,22.93,0,0,1,3.56,4.25A10.46,10.46,0,0,1,82.05,232.51Z"/><path class="cls-5" d="M115.4,252.93a1.59,1.59,0,0,1,0,.45c0,.29,0,.72,0,1.27a30.88,30.88,0,0,1-.64,4.65A33.31,33.31,0,0,1,96,282.65a31,31,0,0,1-4.39,1.64c-.53.16-1,.25-1.24.32a1.41,1.41,0,0,1-.43.07s.57-.2,1.62-.55a35.79,35.79,0,0,0,4.32-1.75,34,34,0,0,0,18.57-23.15,37.34,37.34,0,0,0,.77-4.59C115.33,253.54,115.37,252.93,115.4,252.93Z"/><g class="cls-10"><path d="M74.29,275c-.07-.4,5.2-27.65,5.2-27.65l-7.94,11.93"/></g><path class="cls-5" d="M121.07,223.12a2.48,2.48,0,0,1,.05.47c0,.35,0,.8.09,1.35.06,1.22.14,2.9.25,4.95.2,4.23.48,10,.79,16.34s.54,12.16.67,16.35c.06,2.09.1,3.79.11,5,0,.55,0,1,0,1.35a1.48,1.48,0,0,1,0,.47,2.48,2.48,0,0,1-.05-.47l-.09-1.35c-.06-1.22-.14-2.9-.25-5-.2-4.23-.48-10-.79-16.34s-.54-12.16-.67-16.35c-.06-2.09-.1-3.79-.11-5,0-.55,0-1,0-1.35A1.43,1.43,0,0,1,121.07,223.12Z"/><g class="cls-11"><path d="M88.71,294.92c-1.29-1.08-1-3.28.15-4.52a9.94,9.94,0,0,1,4.45-2.3c7.7-2.49,15.44-6,20.53-12.32a12,12,0,0,1,2.27-2.45,3.14,3.14,0,0,1,3.16-.44c1.56.81,1.62,3.07,1,4.69a9,9,0,0,1-4.24,4.64"/></g><g class="cls-11"><polygon points="121.23 227.96 125.73 254.06 122.23 249.44 121.23 227.96"/></g><path class="cls-4" d="M164,296.53l-7.6,26.09,32.4,9.63c.74-3.16-14.18-14.35-14.18-14.35l5.56-16.52Z"/><g class="cls-12"><path class="cls-13" d="M165,313.52a1.37,1.37,0,0,0-1.36,1.23,1.34,1.34,0,0,0,1.21,1.37,1.46,1.46,0,0,0,1.44-1.32c0-.68-.76-1.42-1.42-1.28"/></g><g class="cls-12"><path class="cls-13" d="M156.43,322.62l.87-2.6L188,330.22s1.26,1.06.79,2Z"/></g><path class="cls-5" d="M175.22,317.89c-.05.16-.86,0-1.79.27s-1.55.82-1.67.71.38-.95,1.51-1.26S175.3,317.75,175.22,317.89Z"/><path class="cls-5" d="M178.2,320.3c0,.17-.77.23-1.51.74s-1.1,1.17-1.26,1.12,0-1,.94-1.59S178.24,320.15,178.2,320.3Z"/><path class="cls-5" d="M178.92,325c-.15,0-.14-.87.53-1.62s1.5-.87,1.53-.71-.57.47-1.1,1.1S179.09,325,178.92,325Z"/><path class="cls-5" d="M176.07,314c-.11.13-.77-.31-1.68-.51s-1.7-.13-1.74-.29.8-.53,1.87-.27S176.18,313.88,176.07,314Z"/><path class="cls-5" d="M176.44,309.91a3.1,3.1,0,0,1-1.62-.49,7.24,7.24,0,0,1-1.54-1,8.13,8.13,0,0,1-.79-.77,1.89,1.89,0,0,1-.37-.53.71.71,0,0,1,.17-.86.89.89,0,0,1,.8-.15,2,2,0,0,1,.59.26,5.05,5.05,0,0,1,.9.65,5.84,5.84,0,0,1,1.21,1.42,2.89,2.89,0,0,1,.56,1.6c-.09,0-.3-.57-.9-1.37a7.28,7.28,0,0,0-1.2-1.25,6.58,6.58,0,0,0-.85-.56c-.32-.19-.61-.28-.74-.16s-.06.08,0,.2a1.91,1.91,0,0,0,.28.38,10.23,10.23,0,0,0,.71.75,9.13,9.13,0,0,0,1.39,1.07C175.87,309.6,176.47,309.82,176.44,309.91Z"/><path class="cls-5" d="M176.17,310.08a2.65,2.65,0,0,1,0-1.7,5.28,5.28,0,0,1,.74-1.71,5.69,5.69,0,0,1,.71-.86,1.37,1.37,0,0,1,1.28-.51.78.78,0,0,1,.54.65,2.25,2.25,0,0,1,0,.64,3.8,3.8,0,0,1-.32,1.1,3.92,3.92,0,0,1-1.19,1.47c-.89.65-1.6.64-1.6.58a12.1,12.1,0,0,0,1.34-.9,3.71,3.71,0,0,0,1-1.37,3,3,0,0,0,.25-.94c.06-.36,0-.68-.13-.68a1,1,0,0,0-.73.36,5.79,5.79,0,0,0-.66.76,6.28,6.28,0,0,0-.8,1.53C176.27,309.43,176.26,310.08,176.17,310.08Z"/><path class="cls-5" d="M197.31,257.69c.82,6-1.24,12.8-3.42,18.47l-14.21,33.42L164,307.16a20.21,20.21,0,0,1-7.48,5c-1.87.63-8,1.84-13.12-1.81h0s-7.19,10-18.49,13-28.43,4.7-36.72-8.53l39.45-38c.82.2,34-22.17,51.9-27.26C179.49,249.62,195.8,246.62,197.31,257.69Z"/><path class="cls-6" d="M162.77,307l.22-.13.64-.34c.57-.3,1.41-.73,2.47-1.31a41.26,41.26,0,0,0,3.76-2.32,19.61,19.61,0,0,0,4.26-3.95,13.59,13.59,0,0,0,2.76-6.39,21.38,21.38,0,0,0-.33-8,13,13,0,0,0-4.34-7.56,16.42,16.42,0,0,0-8.89-3.16,28.26,28.26,0,0,0-4.87,0,37.32,37.32,0,0,0-4.67.82,55.73,55.73,0,0,0-8.49,2.94c-5.26,2.3-9.82,4.78-13.83,6.49a49.17,49.17,0,0,1-9.78,3.26c-.59.14-1.13.22-1.59.29s-.86.13-1.18.16l-.72.07h-.25a1.17,1.17,0,0,1,.24-.05l.72-.11c.32,0,.71-.11,1.17-.2s1-.18,1.58-.33a51.64,51.64,0,0,0,9.69-3.37c4-1.74,8.52-4.25,13.8-6.57a55.3,55.3,0,0,1,8.54-3,36.2,36.2,0,0,1,4.73-.83,27.25,27.25,0,0,1,5,0,16.72,16.72,0,0,1,9.1,3.25,11.44,11.44,0,0,1,3,3.6,16.26,16.26,0,0,1,1.5,4.2,21.68,21.68,0,0,1,.31,8.18,14,14,0,0,1-2.87,6.51,19.93,19.93,0,0,1-4.36,4,38.78,38.78,0,0,1-3.82,2.27c-1.08.57-1.93,1-2.51,1.25l-.66.3C162.85,307,162.78,307,162.77,307Z"/><path class="cls-6" d="M172.64,263.19a47.66,47.66,0,0,1-3.29,5.37,46.26,46.26,0,0,1-3.65,5.15,47.53,47.53,0,0,1,3.3-5.38A45.88,45.88,0,0,1,172.64,263.19Z"/><path class="cls-6" d="M161.3,304.38a29,29,0,0,1-2.86.73c-1.77.44-4.19,1.11-6.81,2s-4.93,1.9-6.58,2.66-2.67,1.26-2.7,1.21a2.81,2.81,0,0,1,.66-.44c.44-.27,1.09-.62,1.91-1a56.31,56.31,0,0,1,6.57-2.79,53.93,53.93,0,0,1,6.88-1.91c.9-.19,1.63-.32,2.13-.38A2.54,2.54,0,0,1,161.3,304.38Z"/><path class="cls-6" d="M179.4,307.39c-.08,0-.26-.71-.93-1.7a7.12,7.12,0,0,0-3.59-2.73,7,7,0,0,0-4.51.11c-1.12.4-1.7.89-1.75.82s.11-.16.38-.37a6,6,0,0,1,1.26-.73,6.72,6.72,0,0,1,8.46,2.74,6,6,0,0,1,.59,1.33A1.39,1.39,0,0,1,179.4,307.39Z"/><path class="cls-6" d="M111.33,294.92a2.32,2.32,0,0,1,.21.75,11.92,11.92,0,0,1,.18,2.12,13.07,13.07,0,0,1-1.86,6.72,10.21,10.21,0,0,1-5.39,4.38,7.53,7.53,0,0,1-2.09.4,1.86,1.86,0,0,1-.78,0,15,15,0,0,0,2.77-.64,10.49,10.49,0,0,0,5.14-4.32,13.73,13.73,0,0,0,1.91-6.51C111.49,296,111.26,294.93,111.33,294.92Z"/><path class="cls-6" d="M93.58,313c-.09.07-.5-.29-.9-.84s-.6-1.06-.5-1.12.46.34.84.88S93.67,312.9,93.58,313Z"/><path class="cls-6" d="M96.9,316.47c-.08.09-.53-.22-1-.69s-.8-.91-.72-1,.54.23,1,.69S97,316.38,96.9,316.47Z"/><path class="cls-6" d="M100.8,319.29c-.06.11-.56-.11-1.12-.48s-1-.74-.9-.83.57.12,1.12.48S100.86,319.19,100.8,319.29Z"/><path class="cls-6" d="M105.23,321.2c0,.11-.58,0-1.21-.21s-1.11-.51-1.06-.61.58,0,1.2.21S105.26,321.09,105.23,321.2Z"/><path class="cls-6" d="M110,321.94c0,.12-.55.16-1.22.1s-1.2-.2-1.18-.31.57-.16,1.22-.1S110,321.83,110,321.94Z"/><path class="cls-6" d="M114.8,321.68c0,.12-.52.25-1.2.29a4.34,4.34,0,0,1-.9,0h0c-.2,0-.32,0-.33-.1s.11-.12.3-.17h0a5.21,5.21,0,0,1,.89-.14C114.24,321.51,114.78,321.57,114.8,321.68Z"/><path class="cls-6" d="M119.54,320.83c0,.11-.48.31-1.13.45s-1.21.16-1.23.05.49-.32,1.14-.46S119.51,320.71,119.54,320.83Z"/><path class="cls-6" d="M124.15,319.42c0,.11-.44.37-1.07.58s-1.18.3-1.22.19.45-.37,1.08-.58S124.11,319.31,124.15,319.42Z"/><path class="cls-6" d="M128.59,317.54c0,.1-.4.41-1,.69s-1.14.41-1.18.31.4-.42,1-.69S128.54,317.43,128.59,317.54Z"/><path class="cls-6" d="M132.82,315.22c.06.09-.36.45-.94.78s-1.09.53-1.14.43.36-.46.93-.79S132.76,315.12,132.82,315.22Z"/><path class="cls-6" d="M136.81,312.5c.07.09-.32.48-.86.87s-1,.63-1.1.53.32-.48.85-.87S136.74,312.41,136.81,312.5Z"/><path class="cls-6" d="M140.52,309.42c.08.09-.27.51-.77.95s-1,.72-1.05.63.27-.51.77-.94S140.45,309.34,140.52,309.42Z"/><path class="cls-6" d="M144,306.11c.07.09-.26.53-.74,1s-.94.76-1,.68.24-.52.73-1S144,306,144,306.11Z"/><path class="cls-6" d="M147.85,303.14c.06.1-.32.49-.86.88s-1,.63-1.1.54.31-.48.86-.88S147.79,303.05,147.85,303.14Z"/><path class="cls-6" d="M152.08,300.81c0,.11-.4.43-1,.72s-1.12.45-1.18.35.39-.42,1-.72S152,300.7,152.08,300.81Z"/><path class="cls-6" d="M156.68,299.38c0,.11-.48.33-1.12.49s-1.18.2-1.22.09.47-.33,1.12-.49S156.66,299.26,156.68,299.38Z"/><path class="cls-6" d="M161.49,299.13c0,.12-.55.16-1.21.15s-1.19-.07-1.2-.19.54-.24,1.21-.23S161.51,299,161.49,299.13Z"/><path class="cls-6" d="M166.15,300.35c-.06.11-.57-.05-1.19-.26s-1.11-.44-1.09-.55.59-.08,1.23.15S166.2,300.25,166.15,300.35Z"/><path class="cls-6" d="M165.13,303.85c-.07-.09.29-.49.71-1s.78-.88.88-.83-.1.6-.56,1.11S165.2,303.94,165.13,303.85Z"/><path class="cls-6" d="M160.87,306.07c0-.11.42-.41,1-.66s1.14-.37,1.2-.26-.41.39-1,.65S160.9,306.18,160.87,306.07Z"/><path class="cls-6" d="M156.27,307.54c0-.11.44-.37,1.08-.58s1.17-.3,1.21-.18-.45.37-1.08.58S156.31,307.65,156.27,307.54Z"/><path class="cls-6" d="M151.76,309.26c0-.1.42-.39,1-.63s1.16-.36,1.2-.25-.42.39-1,.64S151.8,309.37,151.76,309.26Z"/><path class="cls-6" d="M147.31,311.14c-.05-.1.41-.4,1-.67s1.15-.39,1.19-.28-.41.4-1,.67S147.35,311.25,147.31,311.14Z"/><path class="cls-6" d="M138.31,173.15s5.26-1.58,12.26-9.38,9.81-17.68,10.74-17.7,4.81-2.19,13.7,13.89,6.16,20.17,4.64,20.25-12.08-2-18.49-.81-14.46,5.19-14.46,5.19Z"/><path class="cls-5" d="M127.62,183.07l2.08,3.34.94,1.49a4.54,4.54,0,0,0,6.05,1.57l11.17-4.85-7.81-14.75-11,6.95A4.55,4.55,0,0,0,127.62,183.07Z"/><path class="cls-5" d="M134.65,188.14l4.18,6.89,1.79-.65,12.66,8.82,2.85-6.77s-7.28-2.52-8.77-4.94,0-3.1,0-3.1l-3.6-3.52Z"/><path class="cls-5" d="M174.41,160.31c4.75,8.71,7,16.63,5.12,17.67s-7.31-5.18-12.05-13.9-7-16.62-5.13-17.67S169.67,151.59,174.41,160.31Z"/><polygon class="cls-6" points="127.01 188.16 130.04 186.95 127.85 183.44 125.63 185.06 127.01 188.16"/><polygon class="cls-6" points="144.97 186.08 137.01 192.03 135.81 190.06 144.97 186.08"/><polygon class="cls-6" points="127.85 183.44 130.04 186.95 129.42 187.2 127.58 183.63 127.85 183.44"/><path class="cls-6" d="M130.05,184.12a17.19,17.19,0,0,0,3.37-1.6,17.88,17.88,0,0,0,3.17-2,17,17,0,0,0-3.36,1.61A17.41,17.41,0,0,0,130.05,184.12Z"/><path class="cls-6" d="M128.94,182a14.62,14.62,0,0,0,3-1.55,15.2,15.2,0,0,0,2.84-1.9,14.29,14.29,0,0,0-3,1.55A15,15,0,0,0,128.94,182Z"/><path class="cls-6" d="M131.43,186.32c0,.05.38-.06,1-.29.29-.11.63-.25,1-.42s.76-.39,1.17-.62a12.93,12.93,0,0,0,2.83-1.87,15.15,15.15,0,0,0-3,1.52c-.41.22-.79.46-1.15.65s-.68.34-.95.48C131.73,186.06,131.41,186.27,131.43,186.32Z"/><path class="cls-6" d="M166,158.92s4.43-3.23,7.45,2.86-1.81,7.5-1.81,7.5A42.26,42.26,0,0,1,166,158.92Z"/><path class="cls-5" d="M160.46,151.8a6.56,6.56,0,0,0,.27,1.19c.2.75.49,1.85.89,3.2l.81,2.15q.21.58.45,1.2l.24.62c.08.21.19.42.29.63.4.84.81,1.72,1.25,2.63l.33.69c.11.23.25.45.38.68l.79,1.37c.27.47.54.92.8,1.38.14.22.26.45.4.66l.44.63,1.67,2.39c.14.19.26.38.4.56s.29.35.43.52l.81,1,1.48,1.76c1,1,1.77,1.81,2.33,2.36a7.28,7.28,0,0,0,.9.83,7.11,7.11,0,0,0-.79-.94l-2.24-2.44-1.42-1.79-.8-1-.41-.52c-.14-.17-.26-.37-.39-.56-.53-.76-1.07-1.56-1.64-2.39l-.43-.62c-.15-.21-.26-.44-.4-.66l-.79-1.37-.79-1.36c-.13-.23-.27-.44-.38-.67l-.33-.69-1.27-2.6c-.1-.21-.2-.41-.29-.62s-.16-.42-.25-.62c-.16-.4-.31-.8-.46-1.18-.31-.76-.59-1.47-.85-2.12-.42-1.32-.77-2.39-1-3.16A8.69,8.69,0,0,0,160.46,151.8Z"/><path class="cls-9" d="M148.49,188.41a1.38,1.38,0,0,1,.95,1.65c-.35,1.37-.92,3.52-1.37,4.83a3.66,3.66,0,0,1-.6,1.2,1.27,1.27,0,0,1-1.2.45,1.25,1.25,0,0,1-.85-1,3.51,3.51,0,0,1,.12-1.4c.28-1.27.8-3.19,1.25-4.75a1.37,1.37,0,0,1,1.7-.94Z"/><path class="cls-9" d="M150.67,190.64a1.35,1.35,0,0,1,.94,1.65c-.34,1.36-.91,3.51-1.36,4.83a3.71,3.71,0,0,1-.6,1.19,1.13,1.13,0,0,1-2.05-.58,3.56,3.56,0,0,1,.11-1.41c.29-1.27.81-3.19,1.26-4.75a1.36,1.36,0,0,1,1.7-.93Z"/><path class="cls-9" d="M152.78,192a1.18,1.18,0,0,1,.81,1.43c-.3,1.18-.79,3-1.18,4.18a3.13,3.13,0,0,1-.52,1,1.09,1.09,0,0,1-1,.4,1.13,1.13,0,0,1-.74-.9,3.17,3.17,0,0,1,.11-1.22c.24-1.1.69-2.76,1.08-4.11a1.19,1.19,0,0,1,1.48-.81Z"/><path class="cls-9" d="M155.16,192.24a1.18,1.18,0,0,1,.82,1.43c-.3,1.2-.79,3.06-1.18,4.21a3,3,0,0,1-.53,1,1,1,0,0,1-1.78-.5,3.15,3.15,0,0,1,.1-1.22c.25-1.11.7-2.78,1.09-4.14a1.19,1.19,0,0,1,1.48-.81Z"/><path class="cls-14" d="M147.73,196.11a8.51,8.51,0,0,1,.6-2.57,8.16,8.16,0,0,1,1-2.45,8.73,8.73,0,0,1-.59,2.57A8.48,8.48,0,0,1,147.73,196.11Z"/><path class="cls-14" d="M152.27,197.94a33.4,33.4,0,0,1,1.5-5.06,6.89,6.89,0,0,1-.45,2.62A7.07,7.07,0,0,1,152.27,197.94Z"/><path class="cls-14" d="M150,197.64a11.33,11.33,0,0,1,.65-2.56,10.61,10.61,0,0,1,.86-2.5,7,7,0,0,1-.46,2.62A6.75,6.75,0,0,1,150,197.64Z"/><path class="cls-5" d="M190.91,129.59c.09.07-3.21,4.55-7.37,10s-7.61,9.82-7.71,9.75,3.21-4.55,7.37-10S190.81,129.52,190.91,129.59Z"/><path class="cls-5" d="M212.5,142.36c.05.11-6.89,3.43-15.5,7.43s-15.62,7.14-15.67,7,6.89-3.43,15.5-7.42S212.45,142.26,212.5,142.36Z"/><path class="cls-5" d="M209.28,168.94c0,.11-4.95-.27-11-.86s-11-1.15-11-1.27,5,.27,11.05.86S209.3,168.82,209.28,168.94Z"/><path class="cls-9" d="M82.4,183.84l5.47,31.07a10.22,10.22,0,0,0,11.51,8.27h0a10.1,10.1,0,0,0,8.69-11.62l-.88-5.35s7.64-2.07,6.84-9.75c-.38-3.7-1.8-11.25-3.17-18.07a14.64,14.64,0,0,0-16.74-11.45h0A14.29,14.29,0,0,0,82.4,183.84Z"/><path class="cls-14" d="M107.2,206.23a18.49,18.49,0,0,1-10.48-1.69s3,5.24,10.73,3.67Z"/><path class="cls-5" d="M109.2,183.57a1.1,1.1,0,0,1-.94,1.22,1.06,1.06,0,0,1-1.26-.86,1.1,1.1,0,0,1,.94-1.22A1.07,1.07,0,0,1,109.2,183.57Z"/><path class="cls-5" d="M109.45,181.71c-.12.16-1-.36-2.23-.22s-2,.82-2.15.7,0-.33.39-.65a3.09,3.09,0,0,1,1.7-.74,3,3,0,0,1,1.8.36C109.36,181.39,109.51,181.64,109.45,181.71Z"/><path class="cls-5" d="M98,184.92a1.1,1.1,0,0,1-.94,1.23,1.07,1.07,0,0,1-1.26-.86,1.1,1.1,0,0,1,.94-1.22A1.06,1.06,0,0,1,98,184.92Z"/><path class="cls-5" d="M97.9,183.26c-.12.16-1-.36-2.23-.22s-2,.82-2.15.69,0-.33.39-.64a3.05,3.05,0,0,1,1.7-.74,3,3,0,0,1,1.8.36C97.81,182.94,98,183.19,97.9,183.26Z"/><path class="cls-5" d="M103.26,192.21a7.54,7.54,0,0,1,1.9-.56c.3-.07.58-.16.61-.37a1.48,1.48,0,0,0-.31-.87l-1.17-2.19a39.41,39.41,0,0,1-2.72-5.76,40.21,40.21,0,0,1,3.19,5.53l1.13,2.21a1.72,1.72,0,0,1,.3,1.16.8.8,0,0,1-.45.5,2.39,2.39,0,0,1-.51.13A7.66,7.66,0,0,1,103.26,192.21Z"/><path class="cls-5" d="M99.83,193.42c.2,0,.35,1.25,1.57,2s2.58.49,2.61.66-.28.29-.86.37A3.33,3.33,0,0,1,101,196a2.77,2.77,0,0,1-1.22-1.71C99.64,193.76,99.74,193.43,99.83,193.42Z"/><path class="cls-5" d="M97.67,179.32c-.08.33-1.29.31-2.67.64s-2.48.83-2.7.56.06-.45.49-.81a4.57,4.57,0,0,1,1.93-.93,4.71,4.71,0,0,1,2.16,0C97.42,178.94,97.7,179.16,97.67,179.32Z"/><path class="cls-5" d="M108.79,179.06c-.18.29-1,.11-2,.2s-1.8.39-2,.13,0-.41.34-.7a3,3,0,0,1,3.27-.27C108.72,178.66,108.87,178.92,108.79,179.06Z"/><path class="cls-5" d="M110.9,165.27a2.7,2.7,0,0,0-3.53.22,2.46,2.46,0,0,0-.68-3.22,4.17,4.17,0,0,0-3.53-.51,12.5,12.5,0,0,0-3.28,1.61,1.24,1.24,0,0,0-.55-1.25,2.84,2.84,0,0,0-1.38-.43,10.54,10.54,0,0,0-5.8,1.3,36.79,36.79,0,0,0-5.37,3.65h0a25.48,25.48,0,0,0-4.91,5.25l-.06.05a8.56,8.56,0,0,0-1.92,5.57c.63,5.52,2.46,8.72,3.49,14a1.83,1.83,0,0,0,.4,1c.64.67,1.78.1,2.38-.59a9.89,9.89,0,0,0,2-6.22c.07-2.22-.24-4.44-.19-6.66v-.15a12.71,12.71,0,0,1,.17-1.7c.09-.36,1-3.53,4.08-4.05,3.24-.55,9.62,2.59,12.78,2.09s3.33-2.73,3.33-2.73l1.86,3.78a11.46,11.46,0,0,0,.3-4.72,5.42,5.42,0,0,0,1.57-2.76A3.56,3.56,0,0,0,110.9,165.27Z"/><path class="cls-9" d="M85.44,187.14c-.14,0-5.53-.95-4.75,4.27s6,3.37,5.93,3.22S85.44,187.14,85.44,187.14Z"/><path class="cls-14" d="M84.71,192.89s-.09.08-.23.17a.92.92,0,0,1-.69.11,2.27,2.27,0,0,1-1.36-1.86A3,3,0,0,1,82.5,190a1,1,0,0,1,.59-.8.48.48,0,0,1,.58.17c.09.14.07.24.1.25s.1-.1,0-.31a.6.6,0,0,0-.26-.3.73.73,0,0,0-.53-.06,1.29,1.29,0,0,0-.84,1,3.11,3.11,0,0,0-.11,1.5,2.41,2.41,0,0,0,1.69,2.06,1,1,0,0,0,.82-.26C84.72,193,84.73,192.9,84.71,192.89Z"/><path class="cls-13" d="M97.57,248.26c-.37.13-.37.13-.31.46l0,.18h0l.06.34c0,.07.05.1.11.1l.07,0a1.9,1.9,0,0,0,.34-.13c.08-.06.07-.15,0-.35s-.05-.31-.08-.47S97.75,248.19,97.57,248.26Zm.15.77a.08.08,0,0,1,0,.06l-.07,0s0,0,0,0c0-.19-.07-.38-.11-.56a.07.07,0,0,1,0-.06l.07,0s0,0,0,0C97.65,248.65,97.68,248.84,97.72,249Z"/><path class="cls-13" d="M109.19,243.82h0a1.52,1.52,0,0,0-.2.06,1,1,0,0,1,0-.24s.17-.07.19-.08l0,0h0s0,0,0,0,0,0,0,0l0-.06v0h0l-.33.11a.14.14,0,0,0,0,.11h0a1.94,1.94,0,0,0,0,.24s0,.08,0,.13,0,.09.06.1l.09,0,.07,0h0a1.85,1.85,0,0,1,0,.23l-.21.08a1.37,1.37,0,0,0,0,.19,1.52,1.52,0,0,0,.35-.13.15.15,0,0,0,0-.12s-.06-.39-.06-.41S109.2,243.83,109.19,243.82Z"/><path class="cls-13" d="M92.44,250.23h0a1.57,1.57,0,0,0-.23,0,.61.61,0,0,1,0-.23s.2-.05.22-.06h.07s0,0,0,0,0,0,0,0a.21.21,0,0,0,0-.06v0h0a2.18,2.18,0,0,0-.39.08s-.05,0-.06.09h0a1.57,1.57,0,0,0,0,.23s0,.08,0,.12,0,.09.08.1h.1l.09,0h.05a1.74,1.74,0,0,1,0,.22l-.25.05s0,.17,0,.19a3.3,3.3,0,0,0,.42-.1.12.12,0,0,0,0-.11s-.08-.37-.09-.39A.08.08,0,0,0,92.44,250.23Z"/><path class="cls-13" d="M115.69,242.93s0,0,0,0,0,0,0,0a1.1,1.1,0,0,0-.18,0,1.19,1.19,0,0,1,0-.24s.16,0,.18,0h.05s0,0,0,0,0,0,0,0a.25.25,0,0,1,0-.07l0,0h0a2.11,2.11,0,0,0-.31,0s0,0,0,.08h0a1.79,1.79,0,0,0,0,.23s0,.08,0,.12,0,.1.06.12l.08,0h.11a.86.86,0,0,1,0,.23l-.19,0a1.37,1.37,0,0,0,0,.19,2.07,2.07,0,0,0,.32,0s0,0,0,0S115.69,243,115.69,242.93Z"/><path class="cls-13" d="M98.58,248.92l.21-.08c-.06-.33-.11-.65-.17-1l-.21.08C98.47,248.26,98.53,248.59,98.58,248.92Z"/><path class="cls-13" d="M96.42,249.08l-.13,0-.07-.39-.24.07c.07.34.13.67.19,1l.23-.07c0-.15-.05-.29-.08-.44l.13,0c0,.14.06.29.08.43l.23-.07-.18-1-.23.08Z"/><path class="cls-13" d="M95.3,249l-.17.05-.13,0h0l-.08.09a.33.33,0,0,0,0,.1c0,.22.09.44.13.66,0,0,0,0,0,.06l.11.06.31-.09s0-.14,0-.15a.06.06,0,0,0,0,0l-.11,0-.05,0h-.06a0,0,0,0,1,0,0v-.09l0-.11,0-.11c0-.07,0-.25,0-.27s0,0,0,0h0l.19-.06v-.07S95.31,249,95.3,249Z"/><path class="cls-13" d="M113.92,243.25v0h-.18a0,0,0,0,1,0,0s0-.2,0-.27v-.12l0-.12v-.09a.06.06,0,0,1,0,0h.18v0l-.07-.13a2.54,2.54,0,0,0-.26,0,.53.53,0,0,1-.06.1v.06l.09.71a.3.3,0,0,0,0,.1l.08.06h.25a.34.34,0,0,0,0-.12v0Z"/><path class="cls-13" d="M99.63,247.43l-.17.07-.11.05h0l-.07.1a.17.17,0,0,0,0,.1c0,.23.08.45.11.68,0,0,0,0,0,.05l.1.06.29-.12a.9.9,0,0,0,0-.16.06.06,0,0,1,0,0l-.11,0,0,0h-.06a0,0,0,0,1,0,0v-.09l0-.11,0-.12c0-.07,0-.26,0-.27l0,0h0l.19-.08v-.07Z"/><path class="cls-13" d="M100.6,247.62l.19-.08,0-.15-.19.08,0-.24,0,0h0l.19-.08v0l-.06-.13-.19.09h0l-.19.09c.06.34.11.67.17,1l.11,0h0l.31-.14,0-.16v-.07l-.24.11Z"/><path class="cls-13" d="M109.79,243.12h0l-.1,0c0,.35.09.71.14,1.06l.17-.05h0l.16-.05,0-.17v0l-.17,0h0l0-.26.17,0,0-.16-.17.06,0-.25.22-.07v-.07l-.06-.13Z"/><path class="cls-13" d="M114.4,242.34h-.09c0,.34.07.69.11,1h.36l0-.15v0h-.2l0-.26h.16l0-.15h-.16l0-.24h.21v-.07l-.06-.14Z"/><path class="cls-13" d="M102.23,246.27l0,0-.07,0-.1.05c.06.34.11.69.17,1l.21-.09-.07-.44.17-.08,0-.16-.17.08,0-.23.19-.09,0-.16v-.07l0,0Z"/><path class="cls-13" d="M103.12,245.86c0,.36,0,.72,0,1.09v0l.24-.1v-.16l.14-.07,0,.1v.05l.23-.1v-.06c-.11-.3-.22-.6-.34-.9Zm.18.73v-.41h0c0,.12.07.24.11.37Z"/><path class="cls-13" d="M104.51,245.76c-.07-.15-.14-.3-.2-.45l-.22.1c0,.35.11.7.16,1.05l.21-.09,0-.36.18.3.07-.45.06.39.21-.09-.15-1.06-.22.1Z"/><path class="cls-13" d="M105.49,245.91l.21-.1-.15-1.06-.21.1Z"/><path class="cls-13" d="M112.83,243.52l.21,0-.12-1.06-.21,0Z"/><path class="cls-13" d="M106.62,245.27h0l-.17.07-.12-.92-.21.09c0,.36.1.71.14,1.07l.1,0h0l.07,0,.17-.07h0v-.08h0v-.06Z"/><path class="cls-13" d="M107.33,244.12v.43h0l0-.05,0-.1,0-.12,0-.1s0,0,0-.07v0l-.22.09v.06h0c.1.23.19.47.28.7l0,.23.23-.09,0-.25c0-.27,0-.55.07-.82h0v-.06l-.22.08S107.33,244.08,107.33,244.12Z"/><path class="cls-13" d="M111.22,243.4s-.06-.54-.06-.54l-.06-.09h0l-.25.06-.2.05,0,.19c0,.29.07.58.1.88l.2-.05,0-.35h0c0,.11.09.22.14.32l.22,0-.16-.3Zm-.2-.06-.12,0,0-.36.12,0Z"/><path class="cls-13" d="M112,242.62h0v.62l-.15-.6h0v-.06l-.22,0v.06h0c.08.27.16.56.25.84v.12l.12,0h0l.1,0,0-.13c0-.3,0-.59,0-.89h0v-.05l-.22,0Z"/><path class="cls-13" d="M91.13,250l-.23,0-.06.21.1,0c0,.22.09.44.13.66H91l0,.2.41-.08,0-.19-.1,0C91.24,250.55,91.18,250.27,91.13,250Z"/><path class="cls-13" d="M93.37,249.55h0l-.21.05h0l-.1,0,0,.2.17,0c0,.27.1.54.16.81l.2-.05c0-.27-.1-.54-.16-.81l.18,0-.1-.17Z"/><path class="cls-13" d="M106,251.18a.9.9,0,0,1-.24.69l0,0a.8.8,0,0,1-.28.2.6.6,0,0,1-.29,0h0a.49.49,0,0,1-.39-.44.91.91,0,0,1,.54-.91A.49.49,0,0,1,106,251.18Z"/><path class="cls-13" d="M103.39,249a1.16,1.16,0,0,1-.7,1.14.63.63,0,0,1-.94-.43,1.16,1.16,0,0,1,.7-1.14A.62.62,0,0,1,103.39,249Z"/><path class="cls-13" d="M107.93,247.1a1.13,1.13,0,0,1-.66,1.13.61.61,0,0,1-.89-.49,1.15,1.15,0,0,1,.67-1.14A.6.6,0,0,1,107.93,247.1Z"/><path class="cls-13" d="M106.8,251.65h-.33l-.1,0,0,0-.07,0-.14.07-.05,0,0,0,0,0,0,0-.06,0-.06.05a1.51,1.51,0,0,0-.36.54.73.73,0,0,0-.47-.2h-.31l-.15,0-.06,0,0,0-.1.06,0,0s0,0,0,0l0,0h0l0,0h0l0,0,0,0s0,0,0,.05h0a1.21,1.21,0,0,0-.17.24,2.48,2.48,0,0,1,.66.24l.07,0,.26.17a2.57,2.57,0,0,1,.93,1.36h0a4.39,4.39,0,0,1,.48-1.91l.19-.35a.35.35,0,0,1,0-.08,5.11,5.11,0,0,1,.51-.71A.68.68,0,0,0,106.8,251.65Z"/><path class="cls-13" d="M101.45,251.62l.07,0a5.81,5.81,0,0,1,1.27.36,6,6,0,0,0-1.33-.39Z"/><path class="cls-13" d="M107.68,250a9.86,9.86,0,0,1,.95-1.28l.06-.06h0A10.42,10.42,0,0,0,107.68,250Z"/><path class="cls-13" d="M108.63,248.61a1.7,1.7,0,0,0-1.67-.13,1.74,1.74,0,0,0-.27.14l-.12.07-.07.05-.08,0-.13.09-.13.11-.14.11a3.58,3.58,0,0,0-.85,1.26,1.58,1.58,0,0,0-1.1-.43h-.15l-.14,0-.15,0-.09,0-.08,0-.12,0-.29.1a3.46,3.46,0,0,0-1.56,1.4l0,.06a6,6,0,0,1,1.33.39,5.25,5.25,0,0,1,1.15.67,1.46,1.46,0,0,1,.58-.41,1,1,0,0,1,.3-.08.62.62,0,0,1-.26-.44,1.1,1.1,0,0,1,.65-1.09.59.59,0,0,1,.87.47,1,1,0,0,1-.12.59,2,2,0,0,1,.29-.15,1,1,0,0,1,.61-.05,10,10,0,0,1,.82-1.51,10.42,10.42,0,0,1,1-1.35Z"/><path class="cls-13" d="M107.63,228.34l.21,1.42c-.67.16-1.32.34-2,.53l-.21-1.48c-1.58.41-3.16.88-4.78,1.39l.24,1.64-2.14.74c-.08-.56-.17-1.13-.26-1.72-1.47.45-2.94.89-4.48,1.23a9.58,9.58,0,0,1-.1-1.29,1.63,1.63,0,0,1,1.2-1.51l.24,0c1.73-.65,15.78-3.75,16.9-3.62a1.14,1.14,0,0,1,1.42,1c.08.64.15,1.28.23,1.93l0,.16c-.62.05-1.23.11-1.86.19l-.18-1.4C110.62,227.75,109.15,228,107.63,228.34Z"/><path class="cls-13" d="M112.79,233.23c-.55.05-1.09.11-1.63.2q-.47.07-.93.18a1.11,1.11,0,0,1-1.36-.88c-.19-1.32-.37-2.62-.55-3.9,0,0,0,0,0-.07.64-.14,1.28-.26,1.93-.38.14,1.05.29,2.11.43,3.21l.17,0c.78-.13,1.56-.23,2.33-.28a1.28,1.28,0,0,1,1.38,1.25c.19,1.76.39,3.55.59,5.34.08.79-.34,1.27-1.05,1.26a16.93,16.93,0,0,0-5.49,1,1,1,0,0,1-1.48-.86l-.27-2,0-.16c.66-.25,1.3-.47,2-.66,0,.25.07.5.1.74s.06.48.1.73a17.77,17.77,0,0,1,4.28-.79C113.11,235.85,113,234.54,112.79,233.23Z"/><path class="cls-13" d="M108.54,234.78c-.65.19-1.29.4-2,.64,0-.24-.07-.48-.1-.73-.67.23-1.32.49-2,.76.3,2,.59,3.94.87,5.94l-.13.08c-.57.25-1.16.52-1.74.8-.11,0-.14,0-.16-.08-.18-1.22-1.62-10.64-1.73-11.42a.57.57,0,0,1,0-.14l2.08-.65c.17,1.17.35,2.32.52,3.48.68-.26,1.34-.49,2-.71,0-.25-.07-.49-.1-.73.67-.22,1.31-.41,2-.58C108.22,232.54,108.38,233.65,108.54,234.78Z"/><path class="cls-13" d="M94.35,232.81c.76-.17,1.5-.37,2.25-.59.56,3.7,1.11,7.09,1.65,10.3.72-.29,1.41-.6,2.12-.92-.08-.51-.17-1-.25-1.53.71-.31,1.39-.63,2.08-.95l0,.15c0,.35.26,1.7.31,2a2,2,0,0,1-1.18,2c-1.14.53-2.29,1-3.45,1.52-.86.34-1.57,0-1.71-.79-.59-3.38-1.2-7-1.82-11Z"/><path class="cls-13" d="M95.62,244.2c0-.22-.07-.44-.11-.66l-.91.27c-.75-4.15-1.49-8.67-2.23-13.43a.48.48,0,0,0-.53-.41,19.62,19.62,0,0,1-3.33.22.17.17,0,0,0-.17.2l.33,1.85c.53,0,1.06,0,1.6,0,.69,4.15,1.38,8.25,2.07,12a14.92,14.92,0,0,1-2.58.17c.13.74.26,1.47.4,2.19a21.08,21.08,0,0,0,6.24-1.3C95.93,245.2,95.73,244.76,95.62,244.2Z"/><path class="cls-13" d="M115.58,241.89c-8.29-.62-16.59,7.09-24.88,7.62-.14-.75-.29-1.51-.44-2.28,8.37-.15,16.73-8.29,25.09-7.51C115.42,240.44,115.5,241.17,115.58,241.89Z"/></g></g></svg>