<?xml version="1.0" encoding="utf-8"?>
<!-- Generator: Adobe Illustrator 23.0.4, SVG Export Plug-In . SVG Version: 6.00 Build 0)  -->
<svg version="1.1" id="Layer_1" xmlns="http://www.w3.org/2000/svg" xmlns:xlink="http://www.w3.org/1999/xlink" x="0px" y="0px"
	 viewBox="0 0 432 144" style="enable-background:new 0 0 432 144;" xml:space="preserve">
<style type="text/css">
	.st0{fill:#00AEEF;}
	.st1{fill:#1A4175;}
	.st2{fill-rule:evenodd;clip-rule:evenodd;fill:#1A4175;}
	.st3{clip-path:url(#SVGID_2_);}
	.st4{clip-path:url(#SVGID_4_);fill:#1A4175;}
	.st5{clip-path:url(#SVGID_6_);}
	.st6{clip-path:url(#SVGID_8_);fill:#EBBC6F;}
	.st7{clip-path:url(#SVGID_10_);}
	.st8{clip-path:url(#SVGID_12_);fill:#EBBC6F;}
	.st9{clip-path:url(#SVGID_14_);}
	.st10{clip-path:url(#SVGID_16_);fill:#1A4175;}
	.st11{clip-path:url(#SVGID_18_);}
	.st12{clip-path:url(#SVGID_20_);fill:#1A4175;}
	.st13{clip-path:url(#SVGID_22_);}
	.st14{clip-path:url(#SVGID_24_);fill:#00AEEF;}
	.st15{clip-path:url(#SVGID_26_);}
	.st16{clip-path:url(#SVGID_28_);fill:#EBBC6F;}
	.st17{clip-path:url(#SVGID_30_);}
	.st18{clip-path:url(#SVGID_32_);fill:#C2E3ED;}
	.st19{clip-path:url(#SVGID_34_);}
	.st20{clip-path:url(#SVGID_36_);fill:#272223;}
	.st21{clip-path:url(#SVGID_38_);}
	.st22{clip-path:url(#SVGID_40_);fill:#272223;}
	.st23{clip-path:url(#SVGID_42_);}
	.st24{clip-path:url(#SVGID_44_);fill:#EBBC6F;}
	.st25{clip-path:url(#SVGID_46_);}
	.st26{clip-path:url(#SVGID_48_);fill:#C78F4D;}
	.st27{clip-path:url(#SVGID_50_);}
	.st28{clip-path:url(#SVGID_52_);fill:#C78F4D;}
	.st29{clip-path:url(#SVGID_54_);}
	.st30{clip-path:url(#SVGID_56_);fill:#C2E3ED;}
	.st31{clip-path:url(#SVGID_58_);}
	.st32{clip-path:url(#SVGID_60_);fill:#C78F4D;}
	.st33{clip-path:url(#SVGID_62_);}
	.st34{clip-path:url(#SVGID_64_);fill:#272223;}
	.st35{clip-path:url(#SVGID_66_);}
	.st36{clip-path:url(#SVGID_68_);fill:#00AEEF;}
</style>
<path class="st0" d="M127.3,53.3c8.7,0,14.5,6.3,14.5,15c0,8.2-5.9,15-14.5,15c-8.6,0-14.6-6.8-14.6-15
	C112.8,59.6,118.6,53.3,127.3,53.3z M127.3,79c6.2,0,8.9-5.6,8.9-10.7c0-5.4-3.3-10.7-8.9-10.7c-5.7,0-9,5.3-9,10.7
	C118.4,73.4,121.1,79,127.3,79z"/>
<path class="st0" d="M145.9,54h5v4h0.1c1.4-2.1,4.7-4.7,9.7-4.7c8.3,0,12.3,6.8,12.3,14.5c0,7.8-3.6,15.5-12.3,15.5
	c-5,0-7.9-2-9.5-4.6h-0.1v15.7h-5.3L145.9,54L145.9,54z M159.6,57.6c-5.7,0-8.5,5.4-8.5,10.8c0,4.8,2.5,10.7,8.4,10.7
	c5.7,0,8-6.3,7.9-10.8C167.6,63,165.4,57.6,159.6,57.6z"/>
<path class="st0" d="M199.5,81.4c-2,0.7-4.3,1.9-9,1.9c-10.1,0-14.8-6.2-14.8-15.5c0-8.5,5.3-14.5,13.4-14.5
	c9.5,0,12.6,6.9,12.6,16.1h-20.4c0,5.7,4.4,9.5,9.4,9.5c3.5,0,7.5-1.8,8.8-2.9L199.5,81.4L199.5,81.4z M196.1,65.5
	c0-4.4-2.6-8-7.1-8c-5.2,0-7.3,4.3-7.7,8H196.1z"/>
<path class="st0" d="M205.7,54h5.1v4.5h0.1c1.6-3.3,5.4-5.2,9.4-5.2c7.4,0,10.7,4.6,10.7,12.3v17h-5.3V67.8c0-6.7-1.5-9.9-6.1-10.2
	c-6,0-8.7,4.8-8.7,11.8v13.3h-5.3L205.7,54L205.7,54z"/>
<path class="st1" d="M237.4,77c2.1,1.3,5,2,6.6,2c2.4,0,5.4-1,5.4-4.1c0-5.2-12.4-4.8-12.4-12.8c0-5.9,4.4-8.8,10.1-8.8
	c2.5,0,4.5,0.5,6.6,1.1l-0.4,4.6c-1.2-0.7-4.3-1.5-5.5-1.5c-2.7,0-5,1.1-5,3.5c0,5.8,12.4,4.1,12.4,13.3c0,6.1-4.9,8.9-10,8.9
	c-2.7,0-5.4-0.3-7.8-1.6L237.4,77z"/>
<path class="st1" d="M258.1,90.3c0.7,0.2,1.6,0.4,2.5,0.4c4.7,0,6.3-6.5,6.3-7.1c0-0.6-0.7-2.1-1-3L256.1,54h5.8l7.7,23.6h0.1
	l7.8-23.6h5.3l-10.5,29.2c-2,5.5-4,11.8-11,11.8c-1.7,0-2.6-0.2-3.6-0.4L258.1,90.3z"/>
<path class="st1" d="M285,77c2.1,1.3,5,2,6.6,2c2.4,0,5.4-1,5.4-4.1c0-5.2-12.4-4.8-12.4-12.8c0-5.9,4.4-8.8,10.1-8.8
	c2.5,0,4.5,0.5,6.6,1.1l-0.5,4.6c-1.2-0.7-4.3-1.5-5.5-1.5c-2.7,0-5,1.1-5,3.5c0,5.8,12.4,4.1,12.4,13.3c0,6.1-4.9,8.9-10,8.9
	c-2.7,0-5.4-0.3-7.8-1.6L285,77z"/>
<path class="st1" d="M323,58.2h-7.6v15.6c0,3.3,2,5.1,4.4,5.1c1.6,0,2.8-0.5,3.6-1v4.5c-1.2,0.3-2.8,0.8-4.5,0.8
	c-5.4,0-8.8-2.6-8.8-8.3V58.2h-6.4V54h6.4v-6.6l5.3-1.7V54h7.6L323,58.2L323,58.2z"/>
<path class="st1" d="M350.4,81.4c-2,0.7-4.3,1.9-9,1.9c-10.1,0-14.8-6.2-14.8-15.5c0-8.5,5.3-14.5,13.4-14.5
	c9.5,0,12.6,6.9,12.6,16.1h-20.4c0,5.7,4.4,9.5,9.4,9.5c3.5,0,7.5-1.8,8.8-2.9L350.4,81.4L350.4,81.4z M347,65.5c0-4.4-2.6-8-7.1-8
	c-5.2,0-7.3,4.3-7.7,8H347z"/>
<path class="st1" d="M358.5,54h4.9v4.1h0.1c2-3.3,4.9-4.8,9.1-4.8c3.3,0,6.6,1.7,8.1,5.5c2-4.1,6.3-5.5,8.9-5.5
	c7.3,0,9.9,4.7,9.9,10.9v18.4h-5.3V65.5c0-3.5-0.8-8-5.1-8c-5.4,0-7.5,5.3-7.5,10.6v14.4h-5.3V65.5c0-3.5-0.8-8-5.1-8
	c-5.4,0-7.5,5.3-7.5,10.6v14.4h-5.3L358.5,54L358.5,54z"/>
<path class="st1" d="M405.1,77c2.1,1.3,5,2,6.6,2c2.4,0,5.4-1,5.4-4.1c0-5.2-12.4-4.8-12.4-12.8c0-5.9,4.4-8.8,10.1-8.8
	c2.5,0,4.5,0.5,6.6,1.1l-0.4,4.6c-1.2-0.7-4.3-1.5-5.5-1.5c-2.7,0-5,1.1-5,3.5c0,5.8,12.4,4.1,12.4,13.3c0,6.1-4.9,8.9-10,8.9
	c-2.7,0-5.4-0.3-7.8-1.6L405.1,77z"/>
<g>
	<path class="st0" d="M276,90h2v5.8h6.7V90h2v14h-2v-6.4H278v6.4h-2V90z"/>
	<path class="st0" d="M293.1,90h7.8v1.8h-5.8v4.1h5.3v1.8h-5.3v4.6h5.8v1.8h-7.8V90z"/>
	<path class="st0" d="M311.2,90h2.1l5.9,14H317l-1.4-3.5h-6.8l-1.4,3.5h-2.1L311.2,90z M312.2,91.9l-2.8,6.9h5.6L312.2,91.9z"/>
	<path class="st0" d="M323.9,90h2v12.2h5.8v1.8h-7.9V90z"/>
	<path class="st0" d="M338.3,91.8h-4.3V90h10.7v1.8h-4.3V104h-2L338.3,91.8L338.3,91.8z"/>
	<path class="st0" d="M349.4,90h2v5.8h6.7V90h2v14h-2v-6.4h-6.7v6.4h-2V90z"/>
	<path class="st0" d="M376,92.3c-0.9-0.5-1.9-0.8-2.9-0.8c-3.2,0-5.4,2.3-5.4,5.5c0,3.3,2.4,5.5,5.3,5.5c1,0,2.3-0.3,3-0.7l0.1,1.9
		c-1.1,0.4-2.4,0.5-3.2,0.5c-4.4,0-7.4-2.8-7.4-7.3c0-4.3,3.1-7.2,7.4-7.2c1.1,0,2.1,0.2,3.1,0.6L376,92.3z"/>
	<path class="st0" d="M385.7,90h2.1l5.9,14h-2.2l-1.4-3.5h-6.9l-1.4,3.5h-2.1L385.7,90z M386.7,91.9l-2.8,6.9h5.6L386.7,91.9z"/>
	<path class="st0" d="M398.3,90h3.4c2.8,0,5.4,0.4,5.4,3.8c0,1.7-1.3,2.9-2.9,3.2v0c0.6,0.2,0.9,0.5,1.4,1.4l2.6,5.6h-2.3l-2.1-4.8
		c-0.6-1.4-1.3-1.4-2.3-1.4h-1.2v6.2h-2V90z M400.3,96h1.7c1.9,0,3-0.8,3-2.2c0-1.3-1-2.1-2.8-2.1h-1.9L400.3,96L400.3,96z"/>
	<path class="st0" d="M413.4,90h7.8v1.8h-5.8v4.1h5.3v1.8h-5.3v4.6h5.8v1.8h-7.8V90z"/>
</g>
<g>
	<g>
		<path class="st1" d="M20.4,68.4c-0.8-12.9,10.9-28.1,24.9-33c9.1-3.2,18.1-2.9,27,1.1c11.1,4.9,18.5,13.8,22.2,26.9
			c2.4-1,4.5-1.9,7.6-3.2c-3.4-5.2-5.9-10.5-9.6-14.5C77.6,29.5,59.7,27.6,40.7,32.8c-11.5,3.2-20.4,11-25.9,23.1
			c-2.6,5.6-4.3,11.6-3.9,18.1c0.1,1.1,1,3,1.6,3c5.2,0.2,10.3,0.1,15.6,0.1c0-3.2,0-5.9,0-8.9C25.5,68.4,23,68.4,20.4,68.4z
			 M14.3,87.1c7.3,18.6,26.1,28.4,49.3,25.9c18.2-2,34.7-15.5,38-32c-3.2,2.6-7.3,0.9-9.3,5.8c-6.7,15.9-18.5,23.7-33.7,24.2
			c-14.9,0.5-26.9-6.4-34.7-21.2c-2.8-5.3-2.7-5.4-8.1-3.4C15.3,86.5,14.9,86.7,14.3,87.1z M37.5,68.6c-1.9,0-3.5,0-5.1,0
			c0,3,0,5.7,0,8.4c1.9,0,3.4,0,5.1,0C37.5,74.1,37.5,71.5,37.5,68.6z M54.8,77c0-3,0-5.6,0-8.4c-1.8,0-3.5,0-5.2,0
			c0,2.9,0,5.6,0,8.4C51.4,77,52.9,77,54.8,77z M58.5,68.6c0,3,0,5.7,0,8.4c1.8,0,3.4,0,5,0c0-3,0-5.7,0-8.4
			C61.7,68.6,60.1,68.6,58.5,68.6z"/>
		<path class="st2" d="M20.4,68.4c2.7,0,5.1,0,7.8,0c0,3,0,5.6,0,8.9c-5.3,0-16.9-0.1-16.9-0.1s-0.2-1.9-0.3-3
			c-0.4-6.5,1.3-12.5,3.9-18.1c5.5-12.1,14.4-19.9,25.9-23.1c18.9-5.3,36.9-3.3,51.7,12.8c3.6,4,6.2,9.3,9.6,14.5
			c-3.1,1.3-5.2,2.2-7.6,3.2c-3.6-13.1-11.1-22-22.2-26.9c-8.9-3.9-17.9-4.2-27-1.1C31.2,40.3,19.5,55.5,20.4,68.4z"/>
		<path class="st2" d="M14.3,87.1c0.6-0.3,6.3-2.5,6.7-2.6c0,0,0,0,2.8,5.3c7.8,14.8,19.8,21.7,34.7,21.2c15.2-0.5,27.3-8.6,34-24.5
			c2.1-4.9-0.3-2.4,9-5.5c-3.2,16.4-19.8,30-38,32C40.4,115.4,21.6,105.6,14.3,87.1z"/>
		<path class="st2" d="M37.5,68.6c0,2.9,0,5.6,0,8.4c-1.7,0-3.3,0-5.1,0c0-2.7,0-5.5,0-8.4C34,68.6,35.6,68.6,37.5,68.6z"/>
		<path class="st2" d="M46.1,68.6c0,2.9,0,5.6,0,8.4c-1.7,0-3.3,0-5.1,0c0-2.7,0-5.5,0-8.4C42.7,68.6,44.2,68.6,46.1,68.6z"/>
		<path class="st2" d="M54.8,77c-1.9,0-3.4,0-5.2,0c0-2.9,0-5.5,0-8.4c1.7,0,3.3,0,5.2,0C54.8,71.4,54.8,74,54.8,77z"/>
		<path class="st2" d="M58.5,68.6c1.6,0,3.2,0,5,0c0,2.7,0,5.4,0,8.4c-1.6,0-3.2,0-5,0C58.5,74.3,58.5,71.5,58.5,68.6z"/>
		<path class="st2" d="M66.9,68.6c1.6,0,3.2,0,5,0c0,2.7,0,5.4,0,8.4c-1.6,0-3.2,0-5,0C66.9,74.3,66.9,71.5,66.9,68.6z"/>
		<path class="st2" d="M75.7,68.6c1.6,0,3.2,0,5,0c0,2.7,0,5.4,0,8.4c-1.6,0-3.2,0-5,0C75.7,74.3,75.7,71.5,75.7,68.6z"/>
		<path class="st2" d="M84.9,68.6c6,0,11.8,0,18.5,0c0,2.7,0,5.4,0,8.4c-6,0-11.7,0-18.5,0C84.9,74.3,84.9,71.5,84.9,68.6z"/>
	</g>
</g>
<g>
	<defs>
		<path id="SVGID_1_" d="M-1460.5-53.7c0.2,0,0.4,0.1,0.5,0.2l3,3c0.3,0.3,0.3,0.8,0,1.1l-3,3c-0.3,0.3-0.8,0.3-1.1,0
			c-0.3-0.3-0.3-0.8,0-1.1l2.5-2.5l-2.5-2.5c-0.3-0.3-0.3-0.8,0-1.1C-1460.9-53.6-1460.7-53.7-1460.5-53.7"/>
	</defs>
	<clipPath id="SVGID_2_">
		<use xlink:href="#SVGID_1_"  style="overflow:visible;"/>
	</clipPath>
	<g class="st3">
		<defs>
			<rect id="SVGID_3_" x="-1943" y="-510" width="1800" height="3307"/>
		</defs>
		<clipPath id="SVGID_4_">
			<use xlink:href="#SVGID_3_"  style="overflow:visible;"/>
		</clipPath>
		<rect x="-1466.2" y="-58.7" class="st4" width="14.5" height="17.5"/>
	</g>
</g>
<g>
	<defs>
		<polygon id="SVGID_5_" points="-1423.7,47.9 -1408.5,54.5 -1407.2,50.9 -1421.6,44 		"/>
	</defs>
	<clipPath id="SVGID_6_">
		<use xlink:href="#SVGID_5_"  style="overflow:visible;"/>
	</clipPath>
	<g class="st5">
		<defs>
			<rect id="SVGID_7_" x="-1943" y="-510" width="1800" height="3307"/>
		</defs>
		<clipPath id="SVGID_8_">
			<use xlink:href="#SVGID_7_"  style="overflow:visible;"/>
		</clipPath>
		<rect x="-1428.7" y="39" class="st6" width="26.5" height="20.5"/>
	</g>
</g>
<g>
	<defs>
		<polygon id="SVGID_9_" points="-1485.2,50.9 -1472,54.5 -1470.2,47.7 -1483.6,45.5 		"/>
	</defs>
	<clipPath id="SVGID_10_">
		<use xlink:href="#SVGID_9_"  style="overflow:visible;"/>
	</clipPath>
	<g class="st7">
		<defs>
			<rect id="SVGID_11_" x="-1943" y="-510" width="1800" height="3307"/>
		</defs>
		<clipPath id="SVGID_12_">
			<use xlink:href="#SVGID_11_"  style="overflow:visible;"/>
		</clipPath>
		<rect x="-1490.2" y="40.5" class="st8" width="25" height="19"/>
	</g>
</g>
<g>
	<defs>
		<path id="SVGID_13_" d="M-1483.7,45.1l15.2,3.4l16.7-31.7l4.8-9.1l8.8-16.6l4.4-8.4l4.1-7.7c-5.8-0.2-11.5-0.7-17.3-1.4
			c-6.1-0.8-12.3-1.8-18.3-3.1l-5.1,20.6l-6.4,25.7L-1483.7,45.1z"/>
	</defs>
	<clipPath id="SVGID_14_">
		<use xlink:href="#SVGID_13_"  style="overflow:visible;"/>
	</clipPath>
	<g class="st9">
		<defs>
			<rect id="SVGID_15_" x="-1943" y="-510" width="1800" height="3307"/>
		</defs>
		<clipPath id="SVGID_16_">
			<use xlink:href="#SVGID_15_"  style="overflow:visible;"/>
		</clipPath>
		<rect x="-1488.7" y="-34.6" class="st10" width="64" height="88.1"/>
	</g>
</g>
<g>
	<defs>
		<path id="SVGID_17_" d="M-1434.2-16.4l5.7,7l1.2,1.4l7.1,8.8l-1.7,42.2l5,3.4l8.7,4.4l1.2,0.6l12.9-59.3l0.3-1.4l-8.3-15.9
			c-0.3,0.1-0.6,0.1-0.8,0.1c-8.5,0.9-17.1,1.2-25.6,1c-0.6,0-1.2,0-1.8-0.1L-1434.2-16.4z"/>
	</defs>
	<clipPath id="SVGID_18_">
		<use xlink:href="#SVGID_17_"  style="overflow:visible;"/>
	</clipPath>
	<g class="st11">
		<defs>
			<rect id="SVGID_19_" x="-1943" y="-510" width="1800" height="3307"/>
		</defs>
		<clipPath id="SVGID_20_">
			<use xlink:href="#SVGID_19_"  style="overflow:visible;"/>
		</clipPath>
		<rect x="-1439.2" y="-30.1" class="st12" width="50.5" height="86.6"/>
	</g>
</g>
<g>
	<defs>
		<path id="SVGID_21_" d="M-1461.7-24.2c2.9,1.2,5.9,1.7,9,2.1c16.4,2.1,33,1.6,49.5,1c1.3,0,3-0.3,3.4-1.6c0.2-0.5,0.1-1.1,0-1.6
			c-1-6.6-2-13-4.3-19.3c-2.3-6.3-5.2-12.4-6.8-19c-3.9-15.9,0.3-32.9-3-48.9c-1.1-5.1-2.9-10.1-4.7-15c-1.9-5.1-3.7-10.2-5.6-15.3
			c-0.4-1.1-0.8-2.3-1.6-3.3c-0.7-0.9-1.6-1.6-2.5-2.3c-3.6-2.7-7.5-5-11.6-6.8c-0.5-0.2-10.8,14.1-12.2,16
			c-4.1,5.7-4.6,14.1-4.6,20.9c-0.1,7.9,0.7,15.9-0.5,23.8c-0.8,5-2.5,9.9-4,14.8c-0.1,0.4-0.2,0.8-0.4,1.3
			c-2.3,8.2-4.4,16.3-5.9,24.6c-0.8,4.2-1.4,8.5-1.9,12.7c-0.4,3-2,8.6,0.1,11.2c0.8,1,1.9,1.7,3,2.4
			C-1464.7-25.9-1463.3-24.8-1461.7-24.2"/>
	</defs>
	<clipPath id="SVGID_22_">
		<use xlink:href="#SVGID_21_"  style="overflow:visible;"/>
	</clipPath>
	<g class="st13">
		<defs>
			<rect id="SVGID_23_" x="-1943" y="-510" width="1800" height="3307"/>
		</defs>
		<clipPath id="SVGID_24_">
			<use xlink:href="#SVGID_23_"  style="overflow:visible;"/>
		</clipPath>
		<rect x="-1475.2" y="-159.3" class="st14" width="80.6" height="143.7"/>
	</g>
</g>
<g>
	<defs>
		<path id="SVGID_25_" d="M-1424.8-169.9c-0.1,0.4-0.4,0.6-0.5,1c-1.3,2.3,2.2,4.9,1.6,7.4c-0.4,1.7-2.3,2.5-3.2,3.9
			c-0.5,0.8-0.7,1.8-0.8,2.7c-0.3,2.2-0.5,4.3-0.5,6.5c-3.2-0.7-6.3-1.9-9.2-3.6c-0.5-0.3-1.1-0.7-1.4-1.2c-0.3-0.5-0.4-1.1-0.6-1.7
			c-0.6-3.3-0.8-6.7-0.7-10.1c0.1-2.5,0.4-5.2,2.1-7c1.2-1.3,7.1-5.7,8.8-4.8c0.9,0.5,1.1,2.6,1.7,3.4
			C-1426.9-172.4-1424.5-171.3-1424.8-169.9"/>
	</defs>
	<clipPath id="SVGID_26_">
		<use xlink:href="#SVGID_25_"  style="overflow:visible;"/>
	</clipPath>
	<g class="st15">
		<defs>
			<rect id="SVGID_27_" x="-1943" y="-510" width="1800" height="3307"/>
		</defs>
		<clipPath id="SVGID_28_">
			<use xlink:href="#SVGID_27_"  style="overflow:visible;"/>
		</clipPath>
		<rect x="-1445.2" y="-181.9" class="st16" width="26.5" height="38.5"/>
	</g>
</g>
<g>
	<defs>
		<path id="SVGID_29_" d="M-1425.7-181.3c-1-2.4-3.5-4-6.2-4.4c-2.6-0.4-5.4,0.1-7.8,1.2c-1.2,0.5-2.3,1.1-3.5,1.4
			c-1.1,0.3-2.3,0.4-3.3,0.8c-3.3,1.4-3.9,5.6-5.5,8.7c-0.6,1.2-1.5,2.3-1.7,3.6c-0.3,1.4,0.1,2.9,0,4.3c0,2.1-0.9,4.1-1.3,6.2
			c-0.6,3.5,0.2,7.1,2.3,10c0.4,0.6,0.9,1.1,1.5,1.5c0.7,0.4,1.4,0.6,2.2,0.7c1.6,0.3,3.3,0.5,4.9,0.5c0.5,0,1.1,0,1.5-0.2
			c0.5-0.2,0.9-0.7,1.3-1.2c2.3-3.4,2.1-7.8,1.9-11.8c-0.2-4.1-0.2-8.5,2.3-11.7c2.1-2.6,5.1-3.4,8.3-3.5
			C-1425.5-175.4-1424.4-178.3-1425.7-181.3"/>
	</defs>
	<clipPath id="SVGID_30_">
		<use xlink:href="#SVGID_29_"  style="overflow:visible;"/>
	</clipPath>
	<g class="st17">
		<defs>
			<rect id="SVGID_31_" x="-1943" y="-510" width="1800" height="3307"/>
		</defs>
		<clipPath id="SVGID_32_">
			<use xlink:href="#SVGID_31_"  style="overflow:visible;"/>
		</clipPath>
		<rect x="-1460.2" y="-190.9" class="st18" width="40" height="49.1"/>
	</g>
</g>
<g>
	<defs>
		<path id="SVGID_33_" d="M-1468.3,55c1.3,1,2.6,1.9,3.8,2.9c2.3,1.9,4.4,4.2,5.7,6.9c0.6,1.2,1,2.9-0.1,3.7
			c-0.4,0.3-0.8,0.4-1.2,0.5c-10.2,2.5-19.7-5.3-27.6-10.6c-0.4-0.3-0.6-0.8-0.4-1.3l2.6-6.5c0.2-0.5,0.7-0.8,1.2-0.7
			c0,0,13.2,2.9,13.5,3c0.2,0,0.4,0.1,0.6,0.3C-1469.5,53.7-1468.8,54.6-1468.3,55z"/>
	</defs>
	<clipPath id="SVGID_34_">
		<use xlink:href="#SVGID_33_"  style="overflow:visible;"/>
	</clipPath>
	<g class="st19">
		<defs>
			<rect id="SVGID_35_" x="-1943" y="-510" width="1800" height="3307"/>
		</defs>
		<clipPath id="SVGID_36_">
			<use xlink:href="#SVGID_35_"  style="overflow:visible;"/>
		</clipPath>
		<rect x="-1493.2" y="45" class="st20" width="40" height="29.5"/>
	</g>
</g>
<g>
	<defs>
		<path id="SVGID_37_" d="M-1417.7,60.7c4.8,2.5,10.8,7.2,16.4,7.3c1.1,0,2.4-0.2,2.9-1.2c0.4-0.7,0.3-1.6,0.1-2.4
			c-1.8-7.6-11.2-11.6-17.5-15.1c0,0-5.2-2.9-5.2-2.9l-1.5-0.8c-0.5-0.3-1.2-0.1-1.5,0.5l-3.9,7.9c-0.3,0.5-0.1,1.2,0.5,1.5
			C-1424.3,57.2-1421,59-1417.7,60.7z"/>
	</defs>
	<clipPath id="SVGID_38_">
		<use xlink:href="#SVGID_37_"  style="overflow:visible;"/>
	</clipPath>
	<g class="st21">
		<defs>
			<rect id="SVGID_39_" x="-1943" y="-510" width="1800" height="3307"/>
		</defs>
		<clipPath id="SVGID_40_">
			<use xlink:href="#SVGID_39_"  style="overflow:visible;"/>
		</clipPath>
		<rect x="-1433.2" y="40.5" class="st22" width="40" height="32.5"/>
	</g>
</g>
<g>
	<defs>
		<path id="SVGID_41_" d="M-1443.2-105.7c2.4,8.3,5.4,15.6,10,20.2c5.6,3.8,12,6.5,18.1,9.3c8.1,3.7,16.3,7.3,24.6,10.6
			c2,0.8,4.1,1.6,6.2,2.4c1.8,0.7,3.7,1.5,5.7,1.6c4.7,0.3,9.3,0,13.9,1.3c1.1,0.3,2.2,0.6,3.3,0.3c0.3-0.1,0.5-0.2,0.7-0.4
			c0.3-0.5-0.1-1.1-0.6-1.5c-0.1-0.1-0.2-0.1-0.3-0.2c-0.5-0.3-1.1-0.6-1.5-1.2c-0.4-0.5-0.5-1.3-0.1-1.7c0.6-0.6,1.6-0.4,2.4,0
			c1.4,0.6,2.8,1.2,4.2,1.7l0.5,0.2c0.3,0.1,0.6,0.2,0.9,0.4c0.7,0.3,1.6,0.5,2-0.2c0.2-0.4-0.1-0.9-0.3-1.4l-0.2-0.3
			c-0.8-1.3-1.6-3.1-2.9-4c-1.3-0.9-3.2-1.3-4.8-1.6c-3.4-0.7-6.9-0.7-10.4-0.8c-1.3-0.1-2.6-0.2-3.9-0.6c-1.1-0.4-2.1-0.9-3.1-1.6
			c-1.4-0.9-7.8-5-9.5-6c-3.5-2.1-6.9-4.1-10.4-6.2c-4.8-2.9-9.7-5.8-14.5-8.7l-8.4-16.9L-1443.2-105.7z"/>
	</defs>
	<clipPath id="SVGID_42_">
		<use xlink:href="#SVGID_41_"  style="overflow:visible;"/>
	</clipPath>
	<g class="st23">
		<defs>
			<rect id="SVGID_43_" x="-1943" y="-510" width="1800" height="3307"/>
		</defs>
		<clipPath id="SVGID_44_">
			<use xlink:href="#SVGID_43_"  style="overflow:visible;"/>
		</clipPath>
		<rect x="-1448.2" y="-115.8" class="st24" width="100.1" height="61.1"/>
	</g>
</g>
<g>
	<defs>
		<path id="SVGID_45_" d="M-1282.4-98.6c0,1,0.1,2,0.5,2.9c0.3,0.7,0.9,1.4,0.9,2.2c0,1-0.9,1.8-1.3,2.7c-0.9,1.9,0.3,4.4-1.1,5.9
			c-0.7,0.7-1.7,1-2.7,1c-2,0.1-4-0.3-5.9,0.3c-1.3,0.4-2.3,1.2-3.3,2.1c-0.5,0.4-1,0.9-1.5,1.3c-0.5,0.4-1.1,0.7-1.5,1.1
			c-0.4,0.4-0.7,0.9-1.3,1.2c-0.6,0.3-1.4,0.1-2-0.3c-0.6-0.4-0.9-1-1.3-1.6c-0.8-1.3-1.5-2.6-2.5-3.8c-0.5-0.5-0.9-1.2-1-1.9
			c-0.1-1.5,1.3-2.5,2-3.8c1.4-2.5,0.2-5.7,0.9-8.4c0.5-1.8,2-3.4,3.8-4.1c2.9-1.1,6.4,0.1,9.1-1.3c1.3-0.6,2.2-1.7,3.5-2.4
			c1.1-0.5,3.7-1.5,4.4,0c0.4,0.8,0.2,2.3,0.2,3.2L-1282.4-98.6z"/>
	</defs>
	<clipPath id="SVGID_46_">
		<use xlink:href="#SVGID_45_"  style="overflow:visible;"/>
	</clipPath>
	<g class="st25">
		<defs>
			<rect id="SVGID_47_" x="-1943" y="-510" width="1800" height="3307"/>
		</defs>
		<clipPath id="SVGID_48_">
			<use xlink:href="#SVGID_47_"  style="overflow:visible;"/>
		</clipPath>
		<rect x="-1311.6" y="-111.3" class="st26" width="35.5" height="38.5"/>
	</g>
</g>
<g>
	<defs>
		<polygon id="SVGID_49_" points="-1235.3,0.4 -1216.5,40.3 -1230.2,47 -1252.6,9.5 		"/>
	</defs>
	<clipPath id="SVGID_50_">
		<use xlink:href="#SVGID_49_"  style="overflow:visible;"/>
	</clipPath>
	<g class="st27">
		<defs>
			<rect id="SVGID_51_" x="-1943" y="-510" width="1800" height="3307"/>
		</defs>
		<clipPath id="SVGID_52_">
			<use xlink:href="#SVGID_51_"  style="overflow:visible;"/>
		</clipPath>
		<rect x="-1257.6" y="-4.6" class="st28" width="46" height="56.6"/>
	</g>
</g>
<g>
	<defs>
		<path id="SVGID_53_" d="M-1343.2-17.1c1.9-0.3,3.8-0.4,5.8-0.4c1,0,1.9,0,2.8,0.1c2.2-0.1,4.4,0.1,6.5,0.7
			c0.6,0.2,1.1,0.4,1.7,0.6c6.2,1.6,11.8,4.6,16.6,8.5c1,0.8,1.9,1.6,2.7,2.5c0.3,0.2,0.6,0.5,0.9,0.7c0.9,0.7,1.8,1.5,2.9,1.9
			c1.4,0.6,2.9,0.6,4.3,0.6c7.6,0.1,15.1,0.2,22.7,0.3c0.8,0,1.6,0,2.4,0c2.2,0,4.4,0.1,6.4,0.8h0c0.4,0.1,0.7,0.3,1.1,0.5
			c1.4,0.7,9,17.3,10.2,17.1c1-0.2,3.6-3.6,4.4-4.2c1.1-0.8,2.2-1.5,3.3-2.2c4.6-2.9,9.5-5.2,14.6-6.9c2-0.7,4.3-1.5,5.1-3.5
			c0.7-1.8-0.3-3.8-1.3-5.5c-0.4-0.7-0.8-1.4-1.3-2.2c-6-10.2-13.8-20-24.9-23.8c-5.1-1.7-10.4-1.9-15.8-1.8
			c0.3,0.6,0.5,1.3,0.5,2.1c0,1.2-0.5,2.2-1.2,3c-0.8,0.8-1.8,1.2-3,1.2h-63.5c-2.3,0-4.2-1.9-4.2-4.2c0-1.2,0.5-2.2,1.2-3
			c0.8-0.8,1.8-1.2,2.9-1.2h42.8c0-3.4,0-6.9-0.1-10.3c0-5.1-0.1-10.2-0.1-15.3c0-3.8-0.1-7.7-1.4-11.3c-0.9-2.5-2.5-4.8-4-7
			c-1.6-2.4-4.4-8.5-7.2-9.1c-2.7-0.6-7.3,1.4-9.7,2.5c-6.2,2.9-11.4,7.8-15.1,13.6c-2.7,4.2-4.6,8.8-6,13.6v9.3
			c0,1.2-1,2.2-2.2,2.2h-0.4c-0.3,1.5-0.5,2.9-0.7,4.4c0,0.2-0.1,0.3-0.1,0.5c-1,7.6-1.2,16.8,0,24.5
			C-1343.3-17.4-1343.3-17.3-1343.2-17.1z"/>
	</defs>
	<clipPath id="SVGID_54_">
		<use xlink:href="#SVGID_53_"  style="overflow:visible;"/>
	</clipPath>
	<g class="st29">
		<defs>
			<rect id="SVGID_55_" x="-1943" y="-510" width="1800" height="3307"/>
		</defs>
		<clipPath id="SVGID_56_">
			<use xlink:href="#SVGID_55_"  style="overflow:visible;"/>
		</clipPath>
		<rect x="-1349.1" y="-93.2" class="st30" width="125.6" height="115.2"/>
	</g>
</g>
<g>
	<defs>
		<path id="SVGID_57_" d="M-1329.1-37.1c0,0.4,0,0.7,0.1,1.1h54.1c1.4,0,2.7,0.7,3.4,1.9h0.9c-2.7-4.9-7.5-8.5-12.7-10.4
			c-3.9-1.4-8.1-2-12.3-1.9c-1.4,0-2.7,0.1-4,0.2c-4.2,0.4-9,1-12-2c-1.1-1.1-1.7-2.6-2.1-4.1c-0.2-0.9,0-3.5-0.6-4.1
			c-0.7-0.6-4.3-0.1-5.2-0.1h-9.2C-1328.8-50-1329.1-43.5-1329.1-37.1"/>
	</defs>
	<clipPath id="SVGID_58_">
		<use xlink:href="#SVGID_57_"  style="overflow:visible;"/>
	</clipPath>
	<g class="st31">
		<defs>
			<rect id="SVGID_59_" x="-1943" y="-510" width="1800" height="3307"/>
		</defs>
		<clipPath id="SVGID_60_">
			<use xlink:href="#SVGID_59_"  style="overflow:visible;"/>
		</clipPath>
		<rect x="-1334.1" y="-61.7" class="st32" width="68.5" height="32.5"/>
	</g>
</g>
<g>
	<defs>
		<path id="SVGID_61_" d="M-1199.3,32.1c0.5,0,1.1,0.1,1.6,0.4c0.5,0.3,0.8,0.8,0.7,1.4c-0.1,0.4-0.4,0.6-0.6,0.9
			c-4.9,4.5-11.5,6.8-17.5,9.7c-1.8,0.9-3.7,1.6-5.6,2.4c-2,0.8-3.6,1.6-5.7,1.6c-0.5,0-1,0-1.5-0.1c-2.1-0.5-3.2-3-4.3-4.6
			c-0.7-1-3.3-4-1.8-5.3c0.3-0.3,0.9-0.4,1.3-0.6c4.2-1.9,8.4-3.9,12.6-5.8c0.1-0.1,0.3-0.1,0.4-0.1
			C-1213,32.2-1206.2,31.7-1199.3,32.1z"/>
	</defs>
	<clipPath id="SVGID_62_">
		<use xlink:href="#SVGID_61_"  style="overflow:visible;"/>
	</clipPath>
	<g class="st33">
		<defs>
			<rect id="SVGID_63_" x="-1943" y="-510" width="1800" height="3307"/>
		</defs>
		<clipPath id="SVGID_64_">
			<use xlink:href="#SVGID_63_"  style="overflow:visible;"/>
		</clipPath>
		<rect x="-1239.6" y="26.9" class="st34" width="47.5" height="26.5"/>
	</g>
</g>
<g>
	<defs>
		<path id="SVGID_65_" d="M-1301.9-97.9c-0.2,0.1-0.3,0.3-0.3,0.6c-0.3,1.1,0.1,2.4,1.1,3c0.5,0.4,1.2,0.7,1.2,1.3
			c0,0.4-0.3,0.8-0.6,1.1c-1.4,1.5-2.6,3.1-4,4.6c-0.5,0.5-1.4,1.8-2.1,2.1c-0.9,0.3-2.1-0.4-3-0.8c-1.8-0.6-3-1.8-4.4-3
			c-1.1-0.9-1.5-2.3-1.6-3.7c-0.1-1.4,0.1-2.8,0.5-4.2c0.8-2.4,2.4-4.5,4.3-6.3c1.8-1.8,3.9-3.3,5.8-5c2.5-2.3,4.9-4.9,8-6.2
			c4.3-1.8,9.6-0.5,12.7,3c1.1,1.2,1.9,2.9,1.6,4.5c-0.2,1.1-0.9,2-1.5,2.9c-2.8,3.6-6.2,7-10.6,8c-1.3,0.3-2.4,0.3-3.4-0.5
			c-1-0.8-1.7-1.6-3.1-1.5C-1301.5-98-1301.7-98-1301.9-97.9z"/>
	</defs>
	<clipPath id="SVGID_66_">
		<use xlink:href="#SVGID_65_"  style="overflow:visible;"/>
	</clipPath>
	<g class="st35">
		<defs>
			<rect id="SVGID_67_" x="-1943" y="-510" width="1800" height="3307"/>
		</defs>
		<clipPath id="SVGID_68_">
			<use xlink:href="#SVGID_67_"  style="overflow:visible;"/>
		</clipPath>
		<rect x="-1320.6" y="-120.3" class="st36" width="43" height="40"/>
	</g>
</g>
</svg>
