<?xml version="1.0" encoding="utf-8"?>

<svg width="400px" height="284px" viewBox="0 0 400 284" version="1.1" xmlns="http://www.w3.org/2000/svg" xmlns:xlink="http://www.w3.org/1999/xlink">
    <g id="Homepage" stroke="none" stroke-width="1" fill="none" fill-rule="evenodd">
        <g id="About-Us---3.8.19" transform="translate(-346.000000, -297.000000)">
            <g id="Banner" transform="translate(0.000000, -735.000000)">
                <g id="Illus" transform="translate(346.000000, 1033.000000)">
                    <g id = "desk">

                    <path d="M139.56005,165.832618 C139.367926,165.832618 139.175802,165.759015 139.029457,165.612559 L136.027519,162.608342 C135.73408,162.31468 135.73408,161.840014 136.027519,161.546352 L139.029457,158.542135 C139.322897,158.248473 139.797203,158.248473 140.090643,158.542135 C140.384082,158.835797 140.384082,159.310463 140.090643,159.604126 L137.619297,162.077347 L140.090643,164.550569 C140.384082,164.844231 140.384082,165.318897 140.090643,165.612559 C139.944298,165.759015 139.752174,165.832618 139.56005,165.832618" id="Icon-Copy" fill="#1A4175" transform="translate(138.059081, 162.077253) rotate(-180.000000) translate(-138.059081, -162.077253) "></path>
                   
                    <polygon id="Stroke-14" stroke="#D5D5D5" stroke-width="2.0124" transform="translate(111.039387, 127.527897) scale(-1, 1) translate(-111.039387, -127.527897) " points="47.2428884 132.785408 174.835886 132.785408 174.835886 122.270386 47.2428884 122.270386"></polygon>
                    <polygon id="Stroke-15" stroke="#D5D5D5" stroke-width="2.0124" transform="translate(156.822757, 211.648069) scale(-1, 1) translate(-156.822757, -211.648069) " points="168.83151 228.922747 144.814004 228.922747 144.814004 201.463839 150.72889 194.373391 155.194885 202.907434 164.0246 219.742572"></polygon>
                    <path d="M168.83151,132.785408 L168.83151,228.922747 L103.079869,228.922747 L96.5771804,203.157287 L91.5798687,182.5 C85.6281392,183.845543 79.5889105,184.874727 73.537152,185.631595 C67.8855097,186.354824 62.2171959,186.807262 56.5322106,187.027595 C55.9320362,187.061234 55.3485333,187.076371 54.7483589,187.094872 L54.7483589,132.785408 L168.83151,132.785408 Z" id="Stroke-16" stroke="#D5D5D5" stroke-width="2.0124" transform="translate(111.789934, 180.854077) scale(-1, 1) translate(-111.789934, -180.854077) "></path>
                    <path d="M70.5098468,132.785408 L70.5098468,228.922747" id="Stroke-17" stroke="#D5D5D5" stroke-width="2.0124" transform="translate(70.509847, 180.854077) scale(-1, 1) translate(-70.509847, -180.854077) "></path>
                    <path d="M107.538293,134.287554 L107.538293,228.922747" id="Stroke-18" stroke="#D5D5D5" stroke-width="2.0124" transform="translate(107.787746, 181.787554) scale(-1, 1) translate(-107.787746, -181.787554) "></path>
                    <path d="M150.067834,228.922747 L150.067834,219.909871" id="Stroke-19" stroke="#D5D5D5" stroke-width="2.0124" transform="translate(150.067834, 224.416309) scale(-1, 1) translate(-150.067834, -224.416309) "></path>
                    <polyline id="Stroke-20" stroke="#C2E3ED" stroke-width="2.0124" transform="translate(149.317287, 159.072961) scale(-1, 1) translate(-149.317287, -159.072961) " points="148.56674 185.360515 148.56674 133.446314 148.56674 132.785408"></polyline>
                    <polyline id="Stroke-21" stroke="#D5D5D5" stroke-width="2.0124" transform="translate(90.774617, 204.584764) scale(-1, 1) translate(-90.774617, -204.584764) " points="126.800875 204.084764 117.517325 204.099785 54.7483589 204.189914"></polyline>
                    <polyline id="Stroke-22" stroke="#D5D5D5" stroke-width="2.0124" transform="translate(164.328228, 204.880901) scale(-1, 1) translate(-164.328228, -204.880901) " points="170.332604 204.129828 159.577706 204.14485 158.323851 204.14485"></polyline>
               </g>
                <g id = "desk2">

                    <path d="M139.56005,165.832618 C139.367926,165.832618 139.175802,165.759015 139.029457,165.612559 L136.027519,162.608342 C135.73408,162.31468 135.73408,161.840014 136.027519,161.546352 L139.029457,158.542135 C139.322897,158.248473 139.797203,158.248473 140.090643,158.542135 C140.384082,158.835797 140.384082,159.310463 140.090643,159.604126 L137.619297,162.077347 L140.090643,164.550569 C140.384082,164.844231 140.384082,165.318897 140.090643,165.612559 C139.944298,165.759015 139.752174,165.832618 139.56005,165.832618" id="Icon-Copy" fill="#1A4175" transform="translate(138.059081, 162.077253) rotate(-180.000000) translate(-138.059081, -162.077253) "></path>
                   
                    <polygon id="Stroke-14" stroke="#D5D5D5" stroke-width="2.0124" transform="translate(111.039387, 127.527897) scale(-1, 1) translate(-111.039387, -127.527897) " points="47.2428884 132.785408 174.835886 132.785408 174.835886 122.270386 47.2428884 122.270386"></polygon>
                    <polygon id="Stroke-15" stroke="#D5D5D5" stroke-width="2.0124" transform="translate(156.822757, 211.648069) scale(-1, 1) translate(-156.822757, -211.648069) " points="168.83151 228.922747 144.814004 228.922747 144.814004 201.463839 150.72889 194.373391 155.194885 202.907434 164.0246 219.742572"></polygon>
                    <path d="M168.83151,132.785408 L168.83151,228.922747 L103.079869,228.922747 L96.5771804,203.157287 L91.5798687,182.5 C85.6281392,183.845543 79.5889105,184.874727 73.537152,185.631595 C67.8855097,186.354824 62.2171959,186.807262 56.5322106,187.027595 C55.9320362,187.061234 55.3485333,187.076371 54.7483589,187.094872 L54.7483589,132.785408 L168.83151,132.785408 Z" id="Stroke-16" stroke="#D5D5D5" stroke-width="2.0124" transform="translate(111.789934, 180.854077) scale(-1, 1) translate(-111.789934, -180.854077) "></path>
                    <path d="M70.5098468,132.785408 L70.5098468,228.922747" id="Stroke-17" stroke="#D5D5D5" stroke-width="2.0124" transform="translate(70.509847, 180.854077) scale(-1, 1) translate(-70.509847, -180.854077) "></path>
                    <path d="M107.538293,134.287554 L107.538293,228.922747" id="Stroke-18" stroke="#D5D5D5" stroke-width="2.0124" transform="translate(107.787746, 181.787554) scale(-1, 1) translate(-107.787746, -181.787554) "></path>
                    <path d="M150.067834,228.922747 L150.067834,219.909871" id="Stroke-19" stroke="#D5D5D5" stroke-width="2.0124" transform="translate(150.067834, 224.416309) scale(-1, 1) translate(-150.067834, -224.416309) "></path>
                    <polyline id="Stroke-20" stroke="#C2E3ED" stroke-width="2.0124" transform="translate(149.317287, 159.072961) scale(-1, 1) translate(-149.317287, -159.072961) " points="148.56674 185.360515 148.56674 133.446314 148.56674 132.785408"></polyline>
                    <polyline id="Stroke-21" stroke="#D5D5D5" stroke-width="2.0124" transform="translate(90.774617, 204.584764) scale(-1, 1) translate(-90.774617, -204.584764) " points="126.800875 204.084764 117.517325 204.099785 54.7483589 204.189914"></polyline>
                    <polyline id="Stroke-22" stroke="#D5D5D5" stroke-width="2.0124" transform="translate(164.328228, 204.880901) scale(-1, 1) translate(-164.328228, -204.880901) " points="170.332604 204.129828 159.577706 204.14485 158.323851 204.14485"></polyline>
               </g>
                    <g id = "bulletin-board">
                          <polygon id="Stroke-9" stroke="#D5D5D5" stroke-width="2.0124" transform="translate(63.754923, 32.141631) scale(-1, 1) translate(-63.754923, -32.141631) " points="12.7177243 63.6866953 114.792123 63.6866953 114.792123 0.596566524 12.7177243 0.596566524"></polygon>
                    <polygon id="Stroke-11" stroke="#D5D5D5" stroke-width="2.0124" transform="translate(73.512035, 20.124464) scale(-1, 1) translate(-73.512035, -20.124464) " points="63.7549234 27.6351931 83.2691466 27.6351931 83.2691466 12.6137339 63.7549234 12.6137339"></polygon>
                    <polygon id="Stroke-12" stroke="#D5D5D5" stroke-width="2.0124" transform="translate(79.516411, 41.154506) scale(-1, 1) translate(-79.516411, -41.154506) " points="69.7592998 48.6652361 89.273523 48.6652361 89.273523 33.6437768 69.7592998 33.6437768"></polygon>
                    <polygon id="Stroke-13" stroke="#D5D5D5" stroke-width="2.0124" transform="translate(47.993435, 33.643777) scale(-1, 1) translate(-47.993435, -33.643777) " points="38.2363239 41.1545064 57.750547 41.1545064 57.750547 26.1330472 38.2363239 26.1330472"></polygon>
                    </g>
                       <g id = "bulletin-board2">
                          <polygon id="Stroke-9" stroke="#D5D5D5" stroke-width="2.0124" transform="translate(63.754923, 32.141631) scale(-1, 1) translate(-63.754923, -32.141631) " points="12.7177243 63.6866953 114.792123 63.6866953 114.792123 0.596566524 12.7177243 0.596566524"></polygon>
                    <polygon id="Stroke-11" stroke="#D5D5D5" stroke-width="2.0124" transform="translate(73.512035, 20.124464) scale(-1, 1) translate(-73.512035, -20.124464) " points="63.7549234 27.6351931 83.2691466 27.6351931 83.2691466 12.6137339 63.7549234 12.6137339"></polygon>
                    <polygon id="Stroke-12" stroke="#D5D5D5" stroke-width="2.0124" transform="translate(79.516411, 41.154506) scale(-1, 1) translate(-79.516411, -41.154506) " points="69.7592998 48.6652361 89.273523 48.6652361 89.273523 33.6437768 69.7592998 33.6437768"></polygon>
                    <polygon id="Stroke-13" stroke="#D5D5D5" stroke-width="2.0124" transform="translate(47.993435, 33.643777) scale(-1, 1) translate(-47.993435, -33.643777) " points="38.2363239 41.1545064 57.750547 41.1545064 57.750547 26.1330472 38.2363239 26.1330472"></polygon>
                    </g>

                    <g id = "background-pluses">
                    <path d="M219.118162,99.7381974 L219.118162,111.755365" id="Stroke-40" stroke="#D5D5D5" stroke-width="2.0124" transform="translate(219.118162, 105.746781) scale(-1, 1) translate(-219.118162, -105.746781) "></path>
                    
                    <path d="M212.363239,104.995708 L225.873085,104.995708" id="Stroke-41" stroke="#D5D5D5" stroke-width="2.0124" transform="translate(219.118162, 104.995708) scale(-1, 1) translate(-219.118162, -104.995708) "></path>
                    <path d="M234.750547,48 L234.750547,63.0214592" id="Stroke-48" stroke="#D5D5D5" stroke-width="2.0124" transform="translate(234.750547, 55.510730) scale(-1, 1) translate(-234.750547, -55.510730) "></path>
                    <path d="M226,54.751073 L242.512035,54.751073" id="Stroke-49" stroke="#D5D5D5" stroke-width="2.0124" transform="translate(234.256018, 54.751073) scale(-1, 1) translate(-234.256018, -54.751073) "></path>
                    <path d="M255.750547,34 L255.750547,46.0171674" id="Stroke-50" stroke="#D5D5D5" stroke-width="2.0124" transform="translate(255.750547, 40.008584) scale(-1, 1) translate(-255.750547, -40.008584) "></path>
                    <path d="M248,39.751073 L263.010941,39.751073" id="Stroke-51" stroke="#D5D5D5" stroke-width="2.0124" transform="translate(255.505470, 39.751073) scale(-1, 1) translate(-255.505470, -39.751073) "></path>
                    <path d="M30.750547,101 L30.750547,116.021459" id="Stroke-54" stroke="#D5D5D5" stroke-width="2.0124" transform="translate(30.750547, 108.510730) scale(-1, 1) translate(-30.750547, -108.510730) "></path>
                    <path d="M375.960613,155 L375.960613,170.021459" id="Stroke-54-Copy" stroke="#D5D5D5" stroke-width="2.0124" transform="translate(375.960613, 162.510730) scale(-1, 1) translate(-375.960613, -162.510730) "></path>
                    <path d="M22,108.751073 L38.512035,108.751073" id="Stroke-55" stroke="#D5D5D5" stroke-width="2.0124" transform="translate(30.256018, 108.751073) scale(-1, 1) translate(-30.256018, -108.751073) "></path>
                    <path d="M367.210066,162.751073 L383.722101,162.751073" id="Stroke-55-Copy" stroke="#D5D5D5" stroke-width="2.0124" transform="translate(375.466083, 162.751073) scale(-1, 1) translate(-375.466083, -162.751073) "></path>
                    <path d="M7.75054705,77 L7.75054705,89.0171674" id="Stroke-56" stroke="#D5D5D5" stroke-width="2.0124" transform="translate(7.750547, 83.008584) scale(-1, 1) translate(-7.750547, -83.008584) "></path>
                    <path d="M352.960613,131 L352.960613,143.017167" id="Stroke-56-Copy" stroke="#D5D5D5" stroke-width="2.0124" transform="translate(352.960613, 137.008584) scale(-1, 1) translate(-352.960613, -137.008584) "></path>
                    <path d="M0,82.751073 L15.0109409,82.751073" id="Stroke-57" stroke="#D5D5D5" stroke-width="2.0124" transform="translate(7.505470, 82.751073) scale(-1, 1) translate(-7.505470, -82.751073) "></path>
                     <path d="M345.210066,136.751073 L360.221007,136.751073" id="Stroke-57-Copy" stroke="#D5D5D5" stroke-width="2.0124" transform="translate(352.715536, 136.751073) scale(-1, 1) translate(-352.715536, -136.751073) "></path>
               </g>
                <g id = "background-pluses-2">
                    <path d="M219.118162,99.7381974 L219.118162,111.755365" id="Stroke-40" stroke="#D5D5D5" stroke-width="2.0124" transform="translate(219.118162, 105.746781) scale(-1, 1) translate(-219.118162, -105.746781) "></path>
                    
                    <path d="M212.363239,104.995708 L225.873085,104.995708" id="Stroke-41" stroke="#D5D5D5" stroke-width="2.0124" transform="translate(219.118162, 104.995708) scale(-1, 1) translate(-219.118162, -104.995708) "></path>
                    <path d="M234.750547,48 L234.750547,63.0214592" id="Stroke-48" stroke="#D5D5D5" stroke-width="2.0124" transform="translate(234.750547, 55.510730) scale(-1, 1) translate(-234.750547, -55.510730) "></path>
                    <path d="M226,54.751073 L242.512035,54.751073" id="Stroke-49" stroke="#D5D5D5" stroke-width="2.0124" transform="translate(234.256018, 54.751073) scale(-1, 1) translate(-234.256018, -54.751073) "></path>
                    <path d="M255.750547,34 L255.750547,46.0171674" id="Stroke-50" stroke="#D5D5D5" stroke-width="2.0124" transform="translate(255.750547, 40.008584) scale(-1, 1) translate(-255.750547, -40.008584) "></path>
                    <path d="M248,39.751073 L263.010941,39.751073" id="Stroke-51" stroke="#D5D5D5" stroke-width="2.0124" transform="translate(255.505470, 39.751073) scale(-1, 1) translate(-255.505470, -39.751073) "></path>
                    <path d="M30.750547,101 L30.750547,116.021459" id="Stroke-54" stroke="#D5D5D5" stroke-width="2.0124" transform="translate(30.750547, 108.510730) scale(-1, 1) translate(-30.750547, -108.510730) "></path>
                    <path d="M375.960613,155 L375.960613,170.021459" id="Stroke-54-Copy" stroke="#D5D5D5" stroke-width="2.0124" transform="translate(375.960613, 162.510730) scale(-1, 1) translate(-375.960613, -162.510730) "></path>
                    <path d="M22,108.751073 L38.512035,108.751073" id="Stroke-55" stroke="#D5D5D5" stroke-width="2.0124" transform="translate(30.256018, 108.751073) scale(-1, 1) translate(-30.256018, -108.751073) "></path>
                    <path d="M367.210066,162.751073 L383.722101,162.751073" id="Stroke-55-Copy" stroke="#D5D5D5" stroke-width="2.0124" transform="translate(375.466083, 162.751073) scale(-1, 1) translate(-375.466083, -162.751073) "></path>
                    <path d="M7.75054705,77 L7.75054705,89.0171674" id="Stroke-56" stroke="#D5D5D5" stroke-width="2.0124" transform="translate(7.750547, 83.008584) scale(-1, 1) translate(-7.750547, -83.008584) "></path>
                    <path d="M352.960613,131 L352.960613,143.017167" id="Stroke-56-Copy" stroke="#D5D5D5" stroke-width="2.0124" transform="translate(352.960613, 137.008584) scale(-1, 1) translate(-352.960613, -137.008584) "></path>
                    <path d="M0,82.751073 L15.0109409,82.751073" id="Stroke-57" stroke="#D5D5D5" stroke-width="2.0124" transform="translate(7.505470, 82.751073) scale(-1, 1) translate(-7.505470, -82.751073) "></path>
                     <path d="M345.210066,136.751073 L360.221007,136.751073" id="Stroke-57-Copy" stroke="#D5D5D5" stroke-width="2.0124" transform="translate(352.715536, 136.751073) scale(-1, 1) translate(-352.715536, -136.751073) "></path>
               </g>
               


                    <path d="M166.654923,187.756438 L166.504814,187.47103" id="Stroke-58" stroke="#C2E3ED" stroke-width="2.0124" transform="translate(166.579869, 187.613734) scale(-1, 1) translate(-166.579869, -187.613734) "></path>
                    <path d="M132.14477,183.475322 L131.964639,182.73927" id="Stroke-59" stroke="#C2E3ED" stroke-width="2.0124" transform="translate(132.054705, 183.107296) scale(-1, 1) translate(-132.054705, -183.107296) "></path>
                    <polygon id="Fill-74" fill="#EBBC6F" transform="translate(181.590810, 261.218884) scale(-1, 1) translate(-181.590810, -261.218884) " points="189.846827 259.857108 174.61255 266.476395 173.334792 262.854432 187.790625 255.961373"></polygon>
                    <polygon id="Fill-75" fill="#EBBC6F" transform="translate(119.295405, 261.969957) scale(-1, 1) translate(-119.295405, -261.969957) " points="126.800875 262.871245 113.543255 266.476395 111.789934 259.650043 125.143673 257.463519"></polygon>
                    <path d="M167.330416,257.108895 L152.084194,260.467811 L135.34723,228.726056 L130.57008,219.656984 L121.795032,203.03035 L117.356688,194.599471 L113.291028,186.89076 C119.067653,186.67243 124.827337,186.218976 130.57008,185.496809 C136.71939,184.741053 142.851759,183.69979 148.899427,182.356223 L153.981501,202.996761 L160.334094,228.726056 L167.330416,257.108895 Z" id="Stroke-76" stroke="#FFFFFF" stroke-width="1.8" fill="#1A4175" transform="translate(140.310722, 221.412017) scale(-1, 1) translate(-140.310722, -221.412017) "></path>
                    <path d="M203.356674,195.633447 L197.616368,202.666943 L196.441838,204.115809 L189.295405,212.871415 L190.949672,255.038655 L185.986871,258.412034 L177.285427,262.848028 L176.061269,263.472103 L163.157987,204.168096 L162.827133,202.751277 L171.131554,186.862661 C171.412779,186.930129 171.694004,186.962176 171.97523,186.997596 C180.494705,187.891542 189.063807,188.212013 197.616368,187.959009 C198.211904,187.940456 198.790897,187.925275 199.386433,187.891542 L203.356674,195.633447 Z" id="Stroke-77" stroke="#FFFFFF" stroke-width="1.8" fill="#1A4175" transform="translate(183.091904, 225.167382) scale(-1, 1) translate(-183.091904, -225.167382) "></path>
                    <path d="M194.350109,177.849785 L189.846827,186.862661" id="Stroke-78" stroke="#1A4175" stroke-width="1.8" transform="translate(192.098468, 182.356223) scale(-1, 1) translate(-192.098468, -182.356223) "></path>
                    <path d="M188.782026,187.759332 C185.927993,188.941683 182.849168,189.445526 179.788659,189.84692 C163.415437,191.991611 146.824083,191.415551 130.32431,190.836132 C128.995537,190.790786 127.365374,190.535505 126.915789,189.274219 C126.729295,188.753582 126.807556,188.177521 126.887482,187.630012 C127.858253,180.989365 128.910615,174.644306 131.196838,168.309324 C133.476401,161.989457 136.352081,155.866088 137.953936,149.312774 C141.848674,133.409818 137.702501,116.428639 141.001123,100.391325 C142.065141,95.2689245 143.863482,90.3295864 145.661822,85.4104021 C147.543419,80.3047959 149.408364,75.1991897 151.274975,70.0767887 C151.691257,68.9330657 152.122526,67.7574327 152.856848,66.7850163 C153.539551,65.8780994 154.420405,65.1895144 155.319575,64.5160446 C158.951224,61.862473 162.864279,59.5615912 166.943847,57.6805784 C167.426735,57.4622466 177.783843,71.8049692 179.114282,73.6355978 C183.228818,79.3139052 183.711705,87.7599886 183.759994,94.5282758 C183.826599,102.455401 183.029002,110.46818 184.294501,118.294537 C185.110414,123.332964 186.775544,128.184969 188.25751,133.057128 C188.39072,133.476997 188.50728,133.896866 188.622173,134.316735 C190.88675,142.47059 192.9998,150.60765 194.491756,158.951285 C195.247725,163.180205 195.88214,167.432637 196.390004,171.698506 C196.751338,174.718203 198.399816,180.257114 196.323399,182.877096 C195.520807,183.886461 194.393514,184.575046 193.291198,185.238439 C191.857521,186.103369 190.385546,187.2219 188.782026,187.759332" id="Fill-79" fill="#00AEEF" transform="translate(162.076586, 124.523605) scale(-1, 1) translate(-162.076586, -124.523605) "></path>
                    <path d="M157.937957,42.0932771 C158.028256,42.4529977 158.292585,42.7346657 158.4699,43.0570569 C159.729158,45.3494274 156.312579,47.9268596 156.888849,50.4924143 C157.271388,52.1841193 159.179156,52.9680388 160.088711,54.4306764 C160.587817,55.2349574 160.758564,56.2055244 160.893192,57.1523362 C161.200208,59.3157503 161.374238,61.5012228 161.411999,63.6866953 C164.636488,62.9893124 167.755902,61.781194 170.627405,60.1132442 C171.165914,59.8027306 171.710991,59.4582812 172.059052,58.9356682 C172.389053,58.4385071 172.508904,57.8293576 172.612337,57.237176 C173.191892,53.8961858 173.425027,50.4907175 173.303534,47.0988235 C173.21816,44.6045343 172.86189,41.9303847 171.229944,40.0910585 C170.077403,38.79301 164.081561,34.3779484 162.470958,35.2619788 C161.572896,35.7557463 161.336477,37.8207463 160.750355,38.6453888 C160.077219,39.5888071 157.589896,40.6917241 157.937957,42.0932771" id="Fill-80" fill="#EBBC6F" transform="translate(165.078775, 49.416309) scale(-1, 1) translate(-165.078775, -49.416309) "></path>
                    <path d="M142.33129,30.7274245 C143.362534,28.3256513 145.878095,26.7239194 148.506924,26.2818347 C151.137443,25.8397501 153.857562,26.4286464 156.313953,27.4431317 C157.490587,27.9297547 158.630027,28.5137023 159.862449,28.8353683 C160.956245,29.1174447 162.114282,29.1883762 163.150599,29.6321104 C166.44551,31.035894 167.038898,35.2225014 168.655078,38.3550338 C169.275516,39.5542708 170.105583,40.6792772 170.389598,41.9939841 C170.692209,43.3961182 170.337191,44.8460897 170.36593,46.277916 C170.408194,48.3877154 171.277145,50.3919423 171.642307,52.4703999 C172.24922,55.9229488 171.395484,59.5998392 169.326233,62.4618423 C168.908663,63.0391916 168.430233,63.5950965 167.818249,63.9711983 C167.164,64.3736933 166.393102,64.5534964 165.634039,64.6937098 C164.014477,64.9939314 162.367867,65.1588884 160.717875,65.1869311 C160.195491,65.1951789 159.6562,65.1852815 159.179461,64.9790853 C158.63848,64.7431969 158.239507,64.2796678 157.906466,63.8029423 C155.565033,60.4361709 155.761139,56.0351196 155.97584,51.9705803 C156.188852,47.9060411 156.209138,43.4571522 153.627645,40.2602866 C151.539798,37.6770608 148.537354,36.9050622 145.337114,36.7631993 C142.140256,36.6196867 141.061675,33.6851026 142.33129,30.7274245" id="Fill-81" fill="#C2E3ED" transform="translate(156.822757, 45.660944) scale(-1, 1) translate(-156.822757, -45.660944) "></path>
                    <path d="M118.855683,266.993299 C117.593329,267.954869 116.304744,268.869335 115.096491,269.90075 C112.817696,271.848254 110.735631,274.07351 109.376551,276.756811 C108.766687,277.962022 108.402735,279.6334 109.453604,280.489393 C109.80444,280.773641 110.252002,280.905207 110.691367,281.012409 C120.92955,283.534907 130.364417,275.66205 138.325445,270.40265 C138.753334,270.120027 138.923833,269.580767 138.730382,269.108104 L136.123703,262.646741 C135.925333,262.157835 135.399079,261.881708 134.879382,261.995407 C134.879382,261.995407 121.72139,264.891488 121.342684,264.97595 C121.170545,265.013309 120.983651,265.110765 120.78856,265.243955 C120.113118,265.708498 119.354067,266.614843 118.855683,266.993299 Z" id="Fill-82" fill="#272223" transform="translate(123.798687, 271.733906) scale(-1, 1) translate(-123.798687, -271.733906) "></path>
                    <path d="M188.407894,272.696719 C183.590916,275.247424 177.56805,279.920686 171.987125,279.995075 C170.894597,280.009953 169.636137,279.76695 169.095623,278.809815 C168.69147,278.094031 168.822902,277.20302 169.016764,276.401275 C170.865025,268.783875 180.254189,264.768539 186.548133,261.305333 C186.551418,261.302027 191.772549,258.427318 191.772549,258.427318 L193.297159,257.595817 C193.837673,257.301569 194.514547,257.514816 194.790554,258.070252 L198.738439,266.01331 C199.002945,266.547255 198.79594,267.196916 198.271855,267.474634 C194.982773,269.215329 191.695333,270.956024 188.407894,272.696719 Z" id="Fill-83" fill="#272223" transform="translate(183.842451, 268.729614) scale(-1, 1) translate(-183.842451, -268.729614) "></path>
                    <path d="M243.886214,106.30176 C241.53137,114.636225 238.508484,121.890922 233.8656,126.547425 C228.304158,130.360359 221.840862,133.076652 215.744988,135.894174 C207.62829,139.639622 199.411385,143.182613 191.110976,146.54002 C189.06176,147.370092 187.007534,148.190041 184.943287,148.977935 C183.097824,149.683159 181.267392,150.464304 179.27997,150.60265 C174.607023,150.92658 169.970819,150.63808 165.408099,151.871378 C164.322532,152.175063 163.170161,152.478748 162.084595,152.208806 C161.817378,152.124449 161.550162,152.006349 161.399853,151.77015 C161.099234,151.264008 161.51676,150.67351 162.017791,150.285468 C162.101296,150.217982 162.184801,150.150497 162.285007,150.099882 C162.81944,149.779326 163.370574,149.45877 163.737996,148.935757 C164.105419,148.429615 164.188924,147.670403 163.788099,147.214875 C163.220264,146.573762 162.201502,146.843705 161.433255,147.181132 C160.030369,147.75476 158.610782,148.345258 157.207896,148.918885 L156.756968,149.121342 C156.439648,149.239442 156.155731,149.357541 155.855113,149.492512 C155.187072,149.762455 154.235113,149.94804 153.901093,149.290056 C153.683979,148.8514 153.951196,148.345258 154.168309,147.940345 L154.368721,147.619788 C155.178721,146.325753 155.97202,144.532324 157.266349,143.663448 C158.599091,142.76589 160.497997,142.35929 162.044512,142.047169 C165.463212,141.352068 168.972097,141.382436 172.43923,141.201913 C173.750261,141.13274 175.076322,141.028137 176.323889,140.61985 C177.419476,140.262176 178.428218,139.676739 179.398547,139.052498 C180.833165,138.126259 187.181225,134.060254 188.934832,133.010854 C192.386934,130.944109 195.842376,128.885799 199.294478,126.817367 C204.137775,123.915489 208.981073,121.01361 213.82437,118.111731 L222.174882,101.240343 L243.886214,106.30176 Z" id="Fill-84" fill="#EBBC6F" transform="translate(198.853392, 126.776824) scale(-1, 1) translate(-198.853392, -126.776824) "></path>
                    <path d="M291.776753,113.399164 C291.727778,114.371519 291.672049,115.366869 291.280254,116.26367 C290.956011,117.001148 290.400405,117.69428 290.420671,118.497459 C290.447691,119.497736 291.347805,120.246713 291.76662,121.161581 C292.624515,123.035664 291.452509,125.576599 292.864321,127.102474 C293.524629,127.815315 294.569978,128.053477 295.554531,128.117534 C297.542213,128.248933 299.599134,127.846523 301.495623,128.439462 C302.7622,128.835303 303.817681,129.643409 304.802234,130.489292 C305.305487,130.92291 305.803675,131.364741 306.298484,131.808213 C306.773028,132.235261 307.352276,132.49806 307.825132,132.930035 C308.259146,133.325876 309.828588,135.488274 310.358862,135.751073 C310.997217,136.064789 310.535607,134.248956 311.103034,133.825194 C311.670461,133.401431 312.052123,132.790424 312.420275,132.192557 C313.217374,130.899915 313.948611,129.548144 314.939919,128.406613 C315.412775,127.861305 315.861987,127.243728 315.929538,126.532529 C316.066329,125.077281 314.642696,123.998164 313.90977,122.72359 C312.48107,120.2385 313.754403,117.066848 313.004589,114.314032 C312.504713,112.474441 311.048994,110.905861 309.216678,110.237367 C306.320438,109.177959 302.853394,110.301424 300.109143,108.913518 C298.847632,108.274589 297.891788,107.165907 296.630277,106.530262 C295.568041,105.996452 292.881208,105.073372 292.185435,106.52862 C291.785197,107.364648 292.008114,108.847818 291.95914,109.761044 L291.776753,113.399164 Z" id="Fill-97" fill="#9C6D36" transform="translate(303.179431, 120.767035) scale(-1, 1) translate(-303.179431, -120.767035) "></path>
                    <polygon id="Fill-98" fill="#9C6D36" transform="translate(362.472648, 235.682403) scale(-1, 1) translate(-362.472648, -235.682403) " points="363.213284 212.399142 344.459519 252.313305 358.134633 258.965665 380.485777 221.499571"></polygon>
                    <path d="M367.58061,194.864084 C365.690846,194.612062 363.750912,194.477651 361.794254,194.477651 C360.84101,194.477651 359.887767,194.511254 358.951247,194.578459 C356.742063,194.511254 354.569671,194.679268 352.462501,195.317723 C351.893899,195.485737 351.325298,195.687355 350.77342,195.905773 C344.617473,197.518712 338.983302,200.458964 334.200361,204.407303 C333.247117,205.196971 332.327321,206.020242 331.457695,206.893917 C331.156671,207.129137 330.855646,207.381159 330.554622,207.616379 C329.651549,208.338841 328.715029,209.078104 327.627997,209.514942 C326.256664,210.069389 324.751543,210.102992 323.279868,210.119794 C315.720814,210.220602 308.145036,210.338213 300.585982,210.439021 C299.78325,210.455823 298.997242,210.455823 298.194511,210.472624 C296.03717,210.506227 293.812935,210.556631 291.82283,211.312696 L291.806107,211.312696 C291.421464,211.447108 291.070269,211.615122 290.702351,211.816739 C289.347742,212.556003 281.721793,229.139027 280.551143,228.920608 C279.581176,228.735792 276.938851,225.325099 276.102673,224.737049 C275.015641,223.964183 273.911885,223.241721 272.791406,222.53606 C268.209147,219.679815 263.292417,217.378017 258.175004,215.66427 C256.151452,214.975411 253.843599,214.15214 253.107762,212.135967 C252.455543,210.321411 253.407114,208.355642 254.36203,206.675498 C254.780119,205.953036 255.198208,205.230574 255.616298,204.508112 C261.653507,194.326438 269.396521,184.463991 280.484249,180.750872 C285.584938,179.053926 290.88631,178.801905 296.2713,178.969919 C295.936829,179.574771 295.736146,180.280432 295.736146,181.036496 C295.736146,182.195796 296.204406,183.254287 296.955294,184.010352 C297.709527,184.766417 298.763112,185.236857 299.917039,185.236857 L363.466611,185.236857 C365.75774,185.236857 367.647504,183.355096 367.647504,181.036496 C367.647504,179.877197 367.179244,178.818706 366.40996,178.062641 C365.657399,177.306576 364.603814,176.836136 363.466611,176.836136 L320.704438,176.836136 C320.71949,173.408641 320.737885,169.981147 320.771333,166.553653 C320.786384,161.446014 320.821503,156.338376 320.85495,151.247539 C320.888398,147.450413 320.921845,143.535676 322.259731,139.990572 C323.196251,137.470356 324.751543,135.235764 326.273388,133.034775 C327.912298,130.665771 330.721858,124.566848 333.497971,123.89479 C336.207189,123.256335 340.772724,125.272508 343.197642,126.381403 C349.418811,129.25445 354.619842,134.210876 358.26558,139.973771 C360.941352,144.190933 362.864562,148.811329 364.30279,153.599741 L364.30279,162.890938 C364.30279,164.100642 365.272757,165.075126 366.476854,165.075126 L366.911667,165.075126 C367.16252,166.536851 367.379927,168.015378 367.58061,169.477104 C367.597333,169.645118 367.63078,169.813133 367.647504,169.997949 C368.650918,177.625804 368.851601,186.832994 367.647504,194.477651 C367.63078,194.612062 367.612384,194.729672 367.58061,194.864084 Z" id="Fill-99" fill="#C2E3ED" transform="translate(310.684902, 176.347639) scale(-1, 1) translate(-310.684902, -176.347639) "></path>
                    <path d="M303.929978,237.935622 C303.929978,261.995378 284.441158,281.497854 260.398249,281.497854 C236.355341,281.497854 216.866521,261.995378 216.866521,237.935622 C216.866521,229.658798 219.177051,221.90137 223.195364,215.316771 C225.104063,212.166887 227.397851,209.285078 230.026497,206.755117 C230.897132,205.883873 231.817995,205.062892 232.772345,204.275421 C237.560835,200.338065 243.201542,197.405992 249.364631,195.79754 C252.01002,195.093843 254.739125,194.641466 257.551944,194.473919 C258.489551,194.4069 259.4439,194.373391 260.398249,194.373391 C262.357177,194.373391 264.299362,194.507428 266.191318,194.758749 C274.378632,195.847805 281.829254,199.2155 287.922022,204.191647 C297.701592,212.166887 303.929978,224.330802 303.929978,237.935622 Z" id="Stroke-100" fill ="#1A4175" stroke="#FFFFFF" stroke-width="1.8" transform="translate(260.398249, 237.935622) scale(-1, 1) translate(-260.398249, -237.935622) "></path>
                    <path d="M314.437637,266.476395 C314.437637,273.942436 320.486671,279.995708 327.947484,279.995708 C335.409985,279.995708 341.45733,273.942436 341.45733,266.476395 C341.45733,259.010354 335.409985,252.957082 327.947484,252.957082 C320.486671,252.957082 314.437637,259.010354 314.437637,266.476395 Z" id="Stroke-101" stroke="#FFFFFF" stroke-width="1.8" transform="translate(327.947484, 266.476395) scale(-1, 1) translate(-327.947484, -266.476395) "></path>
                    <polyline id="Stroke-106" stroke="#FFFFFF" stroke-width="1.8" transform="translate(345.210066, 240.939914) scale(-1, 1) translate(-345.210066, -240.939914) " points="393.995624 213.901288 358.235474 213.901288 326.494707 267.978541 296.424508 254.459227"></polyline>
                    <path d="M348.962801,241.690987 L303.929978,241.690987" id="Stroke-107" stroke="#FFFFFF" stroke-width="1.8" transform="translate(326.446389, 241.690987) scale(-1, 1) translate(-326.446389, -241.690987) "></path>
                    <path d="M353.466083,249.201717 L302.428884,249.201717" id="Stroke-108" stroke="#FFFFFF" stroke-width="1.8" transform="translate(327.947484, 249.201717) scale(-1, 1) translate(-327.947484, -249.201717) "></path>
                    <path d="M335.452954,254.459227 L333.201313,249.201717" id="Stroke-109" stroke="#FFFFFF" stroke-width="1.8" transform="translate(333.951860, 251.454936) scale(-1, 1) translate(-333.951860, -251.454936) "></path>
                    <path d="M326.445757,174.904862 C326.445757,175.279578 326.445757,175.65259 326.346193,175.994944 L272.216505,175.994944 C270.78942,175.994944 269.528274,176.725639 268.798137,177.849785 L267.90372,177.849785 C270.608545,172.912058 275.371028,169.333525 280.57989,167.461651 C284.512673,166.030919 288.710959,165.501208 292.909246,165.571041 C294.269955,165.571041 295.597477,165.6545 296.943252,165.775431 C301.123285,166.167179 305.985332,166.814415 308.98885,163.782626 C310.100649,162.673809 310.731221,161.227748 311.112884,159.711854 C311.330266,158.826163 311.09629,156.169089 311.693675,155.624049 C312.407217,154.976813 315.991525,155.555918 316.92079,155.555918 L326.147064,155.555918 C326.147064,162.026573 326.462351,168.481899 326.445757,174.904862" id="Fill-110" fill="#9C6D36" transform="translate(297.175055, 166.583691) scale(-1, 1) translate(-297.175055, -166.583691) "></path>
                    <path d="M326.446389,180.854077 C326.446389,183.341631 324.552916,185.360515 322.25729,185.360515 L258.582973,185.360515 C257.426781,185.360515 256.371128,184.855794 255.615415,184.044635 C254.863052,183.233476 254.393873,182.097854 254.393873,180.854077 C254.393873,180.042918 254.59495,179.285837 254.930078,178.63691 C254.997103,178.51073 255.047373,178.420601 255.129479,178.312446 C255.868436,177.122747 257.141923,176.347639 258.582973,176.347639 L322.25729,176.347639 C323.396725,176.347639 324.452378,176.852361 325.206416,177.663519 C325.97721,178.474678 326.446389,179.6103 326.446389,180.854077 Z" id="Stroke-111" fill ="#1A4175" stroke="#FFFFFF" stroke-width="1.8" transform="translate(290.420131, 180.854077) scale(-1, 1) translate(-290.420131, -180.854077) "></path>
                    <path d="M364.792989,244.127457 C364.247419,244.164288 363.680421,244.20949 363.204076,244.480702 C362.726084,244.751914 362.365117,245.319449 362.501922,245.85685 C362.594224,246.210095 362.87113,246.477959 363.136498,246.725733 C368.008725,251.255973 374.67095,253.537835 380.650801,256.444153 C382.477062,257.329777 384.370901,258.071423 386.256499,258.818093 C388.214619,259.589874 389.864517,260.388442 391.987463,260.457082 C392.473697,260.47215 392.966524,260.487217 393.442868,260.38342 C395.534497,259.9314 396.676734,257.380001 397.764579,255.751056 C398.422231,254.759962 401.028114,251.764914 399.556226,250.499259 C399.231521,250.22135 398.626614,250.070677 398.242571,249.893218 C394.047776,247.95623 389.85298,246.019243 385.658184,244.082255 C385.527972,244.02366 385.386223,243.993525 385.242825,243.998548 C378.433905,244.242973 371.653005,243.670415 364.792989,244.127457 Z" id="Fill-112" fill="#272223" transform="translate(381.236324, 252.206009) scale(-1, 1) translate(-381.236324, -252.206009) "></path>
                    <path d="M257.396061,151.812589 C257.396061,153.197902 256.306517,154.316166 254.956783,154.316166 L242.760394,154.316166 L242.760394,162.160706 C242.760394,163.362423 241.817206,164.330472 240.646353,164.330472 L239.995879,164.330472 C238.825026,164.330472 237.881838,163.362423 237.881838,162.160706 L237.881838,151.812589 C237.881838,150.427277 238.971382,149.309013 240.321116,149.309013 L254.956783,149.309013 C256.306517,149.309013 257.396061,150.427277 257.396061,151.812589 Z" id="Stroke-113" stroke="#FFFFFF" stroke-width="1.8" transform="translate(247.638950, 156.819742) scale(-1, 1) translate(-247.638950, -156.819742) "></path>
                    <path d="M300.716512,114.090434 C300.89593,114.216323 300.986493,114.435334 301.04459,114.647448 C301.340202,115.749406 300.89593,117.013466 299.980045,117.680849 C299.48622,118.039546 298.806141,118.343058 298.760005,118.953532 C298.727539,119.389831 299.053908,119.7606 299.358064,120.072735 C300.791697,121.54546 301.9263,123.175115 303.347971,124.647841 C303.811039,125.128977 304.79713,126.496921 305.431072,126.705586 C306.360627,127.009098 307.51225,126.264737 308.43326,125.937081 C310.201806,125.307638 311.389299,124.182225 312.810971,122.95093 C313.872098,122.030045 314.340293,120.662515 314.418895,119.282912 C314.500914,117.879167 314.312953,116.459901 313.870389,115.12686 C313.057029,112.686689 311.425183,110.603489 309.589997,108.813455 C307.75481,107.025145 305.697488,105.486889 303.792243,103.774457 C301.251347,101.487766 298.889869,98.8337565 295.742371,97.5283077 C291.453435,95.7520697 286.108497,97.0350999 283.072067,100.572055 C282.000688,101.82232 281.178784,103.462322 281.474396,105.088529 C281.670901,106.185312 282.345853,107.125167 283.024223,108.004663 C285.792381,111.581282 289.238908,114.994073 293.633787,115.958071 C294.891419,116.232267 296.067032,116.287451 297.056392,115.459689 C298.044043,114.631928 298.770258,113.869698 300.193638,113.9473 C300.374764,113.957647 300.567852,113.983515 300.716512,114.090434 Z" id="Fill-114" fill="#00AEEF" transform="translate(297.925602, 111.755365) scale(-1, 1) translate(-297.925602, -111.755365) "></path>
                    <g id="inner-wheelchair"  stroke="#FFFFFF" stroke-width="1.8">
                        <path d="M65,51.5 C59.1036823,63.3484848 46.764978,71.5 32.4996932,71.5 C18.2344085,71.5 5.89570413,63.3484848 0,51.5" id="Stroke-1"></path>
                        <path d="M0,21.5 C5.72170253,9.09147059 18.1258185,0.5 32.5,0.5 C46.8741815,0.5 59.2782975,9.09147059 65,21.5" id="Stroke-3"></path>
                    </g>
                </g>
            </g>
        </g>
    </g>
</svg>