<?xml version="1.0" encoding="utf-8"?>


<svg width="459px" height="325px" viewBox="0 0 459 325" version="1.1" xmlns="http://www.w3.org/2000/svg" xmlns:xlink="http://www.w3.org/1999/xlink">
    <defs>
        <polygon id="path-1" points="0 1.33099688 1.53 1.33099688 1.53 62.4556913 0 62.4556913"></polygon>
    </defs>
    <g id="Homepage" stroke="none" stroke-width="1" fill="none" fill-rule="evenodd">
        <g id="Careers---3.8.19" transform="translate(-303.000000, -275.000000)">
            <g id="Banner" transform="translate(0.000000, -735.000000)">
                <g id="Illus" transform="translate(303.000000, 1009.000000)">
                    <g id="Group-132" transform="translate(0.000000, 0.197128)">
                        <path d="M271.294092,161.74057 C271.294092,165.13912 268.537032,167.891273 265.135842,167.891273 C261.734652,167.891273 258.976062,165.13912 258.976062,161.74057 C258.976062,158.343548 261.734652,155.591395 265.135842,155.591395 C268.537032,155.591395 271.294092,158.343548 271.294092,161.74057 Z" id="Stroke-5" stroke="#D5D5D5" stroke-width="1.71054"></path>
                        <path d="M126.225,66.2760038 L138.465,66.2760038" id="Stroke-7" stroke="#D5D5D5" stroke-width="1.71054"></path>
                        <path d="M105.57,118.232254 L105.57,127.401004" id="Stroke-9" stroke="#D5D5D5" stroke-width="1.71054"></path>
                        <path d="M110.925,122.816629 L101.745,122.816629" id="Stroke-11" stroke="#D5D5D5" stroke-width="1.71054"></path>
                        <path d="M101.745,20.4322538 L121.635,20.4322538" id="Stroke-13" stroke="#D5D5D5" stroke-width="1.71054"></path>
                        <path d="M84.915,185.469754 L100.215,185.469754" id="Stroke-15" stroke="#D5D5D5" stroke-width="1.71054"></path>
                        <path d="M107.865,209.919754 L115.515,209.919754" id="Stroke-17" stroke="#D5D5D5" stroke-width="1.71054"></path>
                        <path d="M100.215,77.35491 C100.215,91.4915944 88.74153,102.951004 74.5875,102.951004 C60.43347,102.951004 48.96,91.4915944 48.96,77.35491 C48.96,63.2182256 60.43347,51.7588163 74.5875,51.7588163 C88.74153,51.7588163 100.215,63.2182256 100.215,77.35491 Z" id="Stroke-19" stroke="#D5D5D5" stroke-width="1.53"></path>
                        <polyline id="Stroke-21" stroke="#D5D5D5" stroke-width="1.53" points="74.5875 65.1387731 74.5875 77.3546044 88.56711 83.1721762"></polyline>
                        <path d="M24.48,84.6135038 L24.48,98.3666288" id="Stroke-23" stroke="#D5D5D5" stroke-width="1.71054"></path>
                        <path d="M16.83,90.7260038 L32.13,90.7260038" id="Stroke-25" stroke="#D5D5D5" stroke-width="1.71054"></path>
                        <path d="M6.12,72.3885038 L6.12,83.0853788" id="Stroke-27" stroke="#D5D5D5" stroke-width="1.71054"></path>
                        <path d="M0,76.9728788 L13.77,76.9728788" id="Stroke-29" stroke="#D5D5D5" stroke-width="1.71054"></path>
                        <path d="M320.535,151.851004 L364.905,151.851004" id="Stroke-31" stroke="#D5D5D5" stroke-width="1.71054"></path>
                        <path d="M329.715,161.019754 L364.905,161.019754" id="Stroke-33" stroke="#D5D5D5" stroke-width="1.71054"></path>
                        <path d="M303.705,63.2197538 L317.475,63.2197538" id="Stroke-35" stroke="#D5D5D5" stroke-width="1.71054"></path>
                        <path d="M347.31,186.997879 L347.31,197.694754" id="Stroke-37" stroke="#D5D5D5" stroke-width="1.71054"></path>
                        <path d="M341.19,191.582254 L353.43,191.582254" id="Stroke-39" stroke="#D5D5D5" stroke-width="1.71054"></path>
                        <path d="M28.305,144.210379 L72.675,144.210379" id="Stroke-41" stroke="#D5D5D5" stroke-width="1.71054"></path>
                        <path d="M37.485,153.379129 L72.675,153.379129" id="Stroke-43" stroke="#D5D5D5" stroke-width="1.71054"></path>
                        <path d="M47.43,209.919754 L47.43,223.672879" id="Stroke-45" stroke="#D5D5D5" stroke-width="1.71054"></path>
                        <path d="M39.78,216.032254 L55.08,216.032254" id="Stroke-47" stroke="#D5D5D5" stroke-width="1.71054"></path>
                        <path d="M29.07,197.694754 L29.07,208.391629" id="Stroke-49" stroke="#D5D5D5" stroke-width="1.71054"></path>
                        <path d="M22.95,202.279129 L36.72,202.279129" id="Stroke-51" stroke="#D5D5D5" stroke-width="1.71054"></path>
                        <path d="M369.541359,189.84065 L361.264059,284.798337 L358.204059,284.798337 L365.165559,189.214118 C366.573159,189.441809 368.041959,189.657275 369.541359,189.84065 Z" id="Stroke-53" stroke="#D5D5D5" stroke-width="1.71054"></path>
                        <path d="M443.7,284.797879 L440.64,284.797879 L432.2709,188.892754 C433.7856,188.632972 435.2544,188.35791 436.6467,188.052285 L443.7,284.797879 Z" id="Stroke-55" stroke="#D5D5D5" stroke-width="1.71054"></path>
                        <path d="M455.94,177.829129 C455.94,181.893941 448.4889,185.54616 436.6467,188.052285 C435.2544,188.35791 433.7856,188.632973 432.2709,188.892754 C422.6319,190.588972 410.7132,191.582254 397.8,191.582254 C387.5337,191.582254 377.8947,190.955723 369.5409,189.840191 C368.0415,189.656816 366.5727,189.442879 365.1651,189.21366 C349.7733,186.738098 339.66,182.566316 339.66,177.829129 C339.66,170.234348 365.6853,164.076004 397.8,164.076004 C429.9147,164.076004 455.94,170.234348 455.94,177.829129 Z" id="Stroke-57" stroke="#D5D5D5" stroke-width="1.71054"></path>
                        <path d="M382.5,258.819754 L382.5,267.988504" id="Stroke-59" stroke="#D5D5D5" stroke-width="1.71054"></path>
                        <path d="M387.855,263.404129 L378.675,263.404129" id="Stroke-61" stroke="#D5D5D5" stroke-width="1.71054"></path>
                        <path d="M410.805,217.560379 L426.105,217.560379" id="Stroke-63" stroke="#D5D5D5" stroke-width="1.71054"></path>
                        <path d="M418.455,226.729129 L426.105,226.729129" id="Stroke-65" stroke="#D5D5D5" stroke-width="1.71054"></path>
                        <path d="M413.865,110.591629 L458.235,110.591629" id="Stroke-67" stroke="#D5D5D5" stroke-width="1.71054"></path>
                        <path d="M423.045,119.760379 L458.235,119.760379" id="Stroke-69" stroke="#D5D5D5" stroke-width="1.71054"></path>
                        <path d="M363.375,133.513504 L383.265,133.513504" id="Stroke-71" stroke="#D5D5D5" stroke-width="1.71054"></path>
                        <path d="M433.755,150.322879 L447.525,150.322879" id="Stroke-73" stroke="#D5D5D5" stroke-width="1.71054"></path>
                        <path d="M362.61,98.3666288 L362.61,112.119754" id="Stroke-75" stroke="#D5D5D5" stroke-width="1.71054"></path>
                        <path d="M354.96,104.479129 L370.26,104.479129" id="Stroke-77" stroke="#D5D5D5" stroke-width="1.71054"></path>
                        <g id="Group-81" transform="translate(396.270000, 0.000000)">
                            <mask id="mask-2" fill="white">
                                <use xlink:href="#path-1"></use>
                            </mask>
                            <g id="Clip-80"></g>
                            <path d="M0,1.33069125 L0,62.4556913" id="Stroke-79" stroke="#D5D5D5" stroke-width="1.71054" mask="url(#mask-2)"></path>
                        </g>
                        <path d="M382.5,90.7260038 L382.5,76.3738538 C382.5,68.809635 388.6965,62.6207288 396.27,62.6207288 C403.8435,62.6207288 410.04,68.809635 410.04,76.3738538 L410.04,90.7260038 L382.5,90.7260038 Z" id="Stroke-82" stroke="#D5D5D5" stroke-width="1.71054"></path>
                        <path d="M217.761993,181.731502 L217.405503,182.593364 C217.119393,183.28102 217.448343,184.075645 218.136843,184.359877 L236.683503,192.040233 C237.370473,192.325992 238.167603,191.997445 238.450653,191.311317 L238.810203,190.447927 C239.094783,189.761798 238.765833,188.965645 238.077333,188.682942 L219.530673,181.001058 C218.843703,180.716827 218.048103,181.045373 217.761993,181.731502" id="Fill-84" fill="#00AEEF"></path>
                        <path d="M219.979269,184.332523 C221.982039,185.023236 223.981749,185.713948 225.984519,186.404661 C227.000439,186.756129 228.184659,187.30167 228.320829,188.368301 C227.968929,189.329492 226.767879,189.610667 225.753489,189.752782 C222.242139,190.241782 219.176019,190.686467 215.657019,190.304436 C211.943709,189.901011 208.182969,189.910179 204.471189,190.334998 C204.223329,190.364033 203.923449,190.373201 203.775039,190.171489 C203.693949,190.061464 203.684769,189.916292 203.677119,189.780289 C203.531769,187.229848 203.384889,184.680936 203.241069,182.130495 C206.948259,181.905861 208.944909,179.954445 212.020209,178.534817 C214.362639,177.452904 218.109609,177.989276 220.380129,179.016176 C222.494589,179.971254 223.487559,180.785745 221.657679,182.084651 C221.169609,182.431536 216.103779,182.993886 219.979269,184.332523" id="Fill-86" fill="#926036"></path>
                        <polygon id="Fill-88" fill="#00AEEF" points="175.987332 304.957515 191.460222 308.299524 191.760102 304.387524 178.516422 300.756699"></polygon>
                        <polygon id="Fill-90" fill="#00AEEF" points="132.443685 307.427271 145.444095 310.673008 147.160755 304.528417 134.068545 302.557136"></polygon>
                        <polyline id="Stroke-92" stroke="#FFFFFF" stroke-width="1.62486" fill="#1A4175" points="142.585902 198.348333 136.914192 227.754042 133.255962 301.747383 147.881232 304.99312 175.887882 217.605764"></polyline>
                        <polyline id="Stroke-94" stroke="#FFFFFF" stroke-width="1.62486" fill="#1A4175" points="168.87681 240.362754 177.48 261.424901 177.64065 299.880167 193.98564 304.864911 197.89785 253.050776 191.6631 219.35562"></polyline>
                        <path d="M147.302892,309.249254 C147.971502,309.713804 148.725792,310.618454 149.219982,310.997429 C150.469992,311.957092 151.749072,312.872438 152.945532,313.902395 C155.203812,315.847698 157.269312,318.069592 158.615712,320.752979 C159.220062,321.957142 159.579612,323.627382 158.539212,324.483132 C158.191902,324.765835 157.748202,324.897254 157.313682,325.005751 C147.163662,327.525629 137.812302,319.658842 129.920562,314.40362 C129.496752,314.120917 129.328452,313.581488 129.518172,313.10777 L132.102342,306.65297 C132.299712,306.162442 132.821442,305.888907 133.337052,306.001988 C133.337052,306.001988 146.378772,308.897785 146.755152,308.980304 C146.924982,309.018507 147.110112,309.114779 147.302892,309.249254" id="Fill-96" fill="#272223"></path>
                        <path d="M173.359098,314.26945 C176.917878,315.181741 180.478188,316.092503 184.038498,317.003266 C189.254268,318.338847 196.111728,321.42566 201.501918,320.219969 C202.556088,319.98311 203.709708,319.463547 204.012648,318.427478 C204.239088,317.649663 203.908608,316.827532 203.539878,316.107785 C200.030058,309.255672 190.081998,307.567094 183.235248,305.696669 C183.230658,305.695141 177.552828,304.142566 177.552828,304.142566 L175.897368,303.697882 C175.309848,303.538957 174.708558,303.898066 174.569328,304.490978 L172.577268,312.982769 C172.442628,313.55276 172.791468,314.124278 173.359098,314.26945" id="Fill-98" fill="#272223"></path>
                        <path d="M177.149826,133.201613 C179.674326,135.574792 182.169756,138.050354 183.904776,141.048535 C188.857386,149.61062 186.672546,160.310551 187.572186,170.159317 C187.619616,170.674295 187.683876,171.212195 187.973046,171.641598 C188.453466,172.353704 189.394416,172.563057 190.245096,172.685307 C192.163716,172.963426 194.105286,173.097901 196.045326,173.091788 C198.390816,173.087204 200.958156,172.93592 202.835466,174.341795 C204.252246,175.402313 204.963696,177.14132 205.540506,178.814617 C207.358146,184.088176 209.068686,190.193035 209.214036,195.77222 C209.226276,196.258163 209.212506,196.78231 208.914156,197.161285 C208.488816,197.700713 207.694746,197.719051 207.010836,197.694601 C201.683376,197.511226 196.346736,197.696129 191.045286,198.243198 C190.477656,198.304323 189.822816,198.421988 189.547416,198.920157 C189.339336,199.297604 189.426546,199.760626 189.522936,200.179332 C190.439406,204.189132 191.605266,207.897892 194.054796,211.261295 C195.535836,213.296757 197.478936,215.255813 197.662536,217.766523 C197.841546,220.209995 196.179966,222.518992 194.041026,223.720098 C188.814546,226.657154 180.711666,225.359776 175.082796,224.528476 C168.343146,223.53061 161.742726,221.586835 155.546226,218.750635 C152.527536,217.36921 149.554746,215.781488 146.204046,215.443773 C143.622936,215.182463 140.850576,214.545235 139.412376,212.008548 C138.144006,209.771373 138.830976,206.976432 139.599036,204.522263 C141.413616,198.716917 144.332856,193.055213 145.881216,187.213192 C147.151116,182.419463 146.075526,177.194804 144.707706,172.556945 C142.066926,163.602132 141.174936,153.226163 141.817536,143.906129 C142.213806,138.184829 143.319996,132.37337 146.263716,127.449751 C148.509756,123.69362 152.025696,120.36842 156.227076,118.93351 C160.890516,117.342732 162.732636,120.825329 166.074156,123.57137 C169.853256,126.678048 173.583396,129.850435 177.149826,133.201613" id="Fill-100" fill="#C2E3ED"></path>
                        <path d="M173.259036,107.192162 C173.545146,107.534462 173.837376,107.887459 173.976606,108.309221 C174.450906,109.757884 172.988226,111.163759 172.989756,112.687299 C172.991286,113.822696 173.803716,114.977959 173.344716,116.014028 C172.968336,116.863665 171.900396,117.189156 171.378666,117.957802 C170.725356,118.922049 171.109386,120.248462 170.752896,121.357881 C169.666596,124.745734 165.968586,122.418399 163.828116,123.59964 C163.572606,123.741756 163.343106,123.929715 163.069236,124.030571 C162.477126,124.246037 161.819226,124.006121 161.273016,123.69744 C159.580836,122.739306 158.359896,121.146999 157.186386,119.595952 C155.575296,117.468803 154.112616,115.665615 154.112616,112.84164 C153.743886,109.195534 153.699516,105.340074 155.359566,102.071415 C156.846726,99.1450556 161.095536,95.9298806 164.574756,97.4106338 C167.933106,98.8379025 170.973216,104.461403 173.259036,107.192162" id="Fill-102" fill="#856140"></path>
                        <path d="M159.103629,108.771021 C159.530499,109.506049 160.111899,110.184536 160.284789,111.017364 C160.457679,111.851721 159.980319,112.907655 159.129639,112.935161 C158.877189,112.942802 158.627799,112.860283 158.375349,112.851114 C157.417569,112.819024 156.759669,113.839811 156.579129,114.781136 C156.397059,115.722461 156.473559,116.737136 156.031389,117.588302 C155.942649,117.757924 155.821779,117.927546 155.639709,117.988671 C155.420919,118.063549 155.182239,117.958108 154.980279,117.843499 C153.766989,117.151258 152.798499,116.041839 152.282889,114.745989 C152.038089,114.131683 151.883559,113.462364 151.478109,112.941274 C150.587649,111.792124 148.863339,111.77073 147.435849,112.053433 C146.006829,112.337664 144.504369,112.814439 143.139609,112.307102 C141.728949,111.782955 140.882859,110.335821 140.399379,108.911608 C139.251879,105.523755 139.657329,101.480336 142.031889,98.8030613 C144.406449,96.1257862 148.886289,95.3372738 151.692309,97.5591675 C152.142129,97.9152206 152.617959,98.3629612 153.190179,98.3125331 C155.749869,98.0878987 157.353309,94.6542019 160.520409,94.8925894 C161.778069,94.985805 165.219039,96.2908238 164.782989,98.0924831 C164.486169,99.3195675 160.338339,100.444267 159.356079,102.053383 C158.144319,104.036889 157.914819,106.723333 159.103629,108.771021" id="Fill-104" fill="#242122"></path>
                        <path d="M328.185,246.594754 L360.315,246.594754" id="Stroke-106" stroke="#D5D5D5" stroke-width="1.71054"></path>
                        <path d="M364.905,246.594754 L412.335,246.594754" id="Stroke-108" stroke="#D5D5D5" stroke-width="1.71054"></path>
                        <polygon id="Fill-110" fill="#EBBC6F" points="284.617332 299.45978 271.173222 305.888602 270.045612 302.370858 282.802752 295.676142"></polygon>
                        <polygon id="Fill-112" fill="#EBBC6F" points="340.425 303.899441 328.185 306.955691 326.56626 301.168682 338.895 299.315066"></polygon>
                        <path d="M339.66,298.551004 L325.89,301.607254 L310.7736,272.725691 L306.459,264.473816 L298.5336,249.345379 L294.525,241.674191 L290.853,234.660097 C296.0703,234.461441 301.2723,234.048847 306.459,233.391754 C312.0129,232.704097 317.5515,231.75666 323.0136,230.53416 L327.6036,249.314816 L333.3411,272.725691 L339.66,298.551004 Z" id="Stroke-114" stroke="#FFFFFF" stroke-width="1.53" fill="#1A4175"></path>
                        <path d="M294.525,241.674497 L289.2159,248.046778 L288.1296,249.359437 L281.52,257.291934 L283.05,295.495059 L278.46,298.551309 L270.4122,302.570278 L269.28,303.135684 L257.346,249.406809 L257.04,248.123184 L264.7206,233.728247 C264.9807,233.789372 265.2408,233.818406 265.5009,233.850497 C273.3804,234.660403 281.3058,234.950747 289.2159,234.721528 C289.7667,234.704719 290.3022,234.690966 290.853,234.660403 L294.525,241.674497 Z" id="Stroke-116" stroke="#FFFFFF" stroke-width="1.53" fill="#1A4175"></path>
                        <path d="M269.28,225.201004 L264.7206,233.727941" id="Stroke-118" stroke="#1A4175" stroke-width="1.53"></path>
                        <path d="M319.303809,234.005602 C316.681389,235.081402 313.852419,235.539839 311.040279,235.905061 C295.995789,237.856477 280.750869,237.33233 265.590099,236.805127 C264.369159,236.763867 262.871289,236.531592 262.458189,235.38397 C262.286829,234.910252 262.358739,234.386105 262.432179,233.887936 C263.324169,227.84573 264.291129,222.072473 266.391819,216.308386 C268.486389,210.558052 271.128699,204.986508 272.600559,199.023764 C276.179229,184.553948 272.369529,169.103077 275.400459,154.511011 C276.378129,149.85023 278.030529,145.356014 279.682929,140.880136 C281.411829,136.234636 283.125429,131.589136 284.840559,126.928355 C285.223059,125.887702 285.619329,124.818014 286.294059,123.93323 C286.921359,123.108042 287.730729,122.481511 288.556929,121.868733 C291.893859,119.454295 295.489359,117.360764 299.237859,115.649264 C299.681559,115.450608 309.198159,128.500795 310.420629,130.166452 C314.201259,135.333042 314.644959,143.017983 314.689329,149.176327 C314.750529,156.389077 314.017659,163.679761 315.180459,170.800823 C315.930159,175.385198 317.460159,179.799952 318.821859,184.233042 C318.944259,184.615073 319.051359,184.997105 319.156929,185.379136 C321.237729,192.798183 323.179299,200.201948 324.550179,207.793673 C325.244799,211.641492 325.827729,215.510705 326.294379,219.392142 C326.626389,222.139711 328.141089,227.179467 326.233179,229.563342 C325.495719,230.481745 324.459909,231.108277 323.447049,231.711886 C322.129719,232.49887 320.777199,233.516602 319.303809,234.005602" id="Fill-120" fill="#00AEEF"></path>
                        <path d="M279.653859,106.374309 C279.840519,106.652428 280.157229,106.808297 280.409679,107.028347 C282.204369,108.583978 279.973629,111.831244 281.252709,113.833087 C282.095739,115.151859 284.008239,115.226737 285.242949,116.1864 C285.925329,116.715131 286.367499,117.486834 286.768359,118.249369 C287.687889,119.991431 288.494199,121.793091 289.184229,123.637537 C289.202589,123.686437 293.726799,120.271078 294.118479,119.905856 C295.470999,118.646681 296.260479,117.387506 297.922059,116.559262 C298.039869,116.501194 298.168389,116.429372 298.202049,116.302537 C298.237239,116.169591 298.151559,116.036644 298.070469,115.923562 C296.070759,113.090419 295.933059,109.091316 294.660099,105.8685 C293.835429,103.776497 292.720059,101.615728 290.732589,100.558266 C289.331109,99.8125406 282.738339,97.9191937 281.589309,99.1692 C280.946709,99.866025 281.359809,101.693662 281.090529,102.576919 C280.781469,103.585481 278.927109,105.290869 279.653859,106.374309" id="Fill-122" fill="#EBBC6F"></path>
                        <path d="M277.469325,96.1803403 C277.608555,93.7720153 279.259425,91.6158309 281.367765,90.4376466 C283.476105,89.2609903 285.979185,88.9553653 288.390465,89.1051216 C289.542555,89.1754153 290.696175,89.3450372 291.845205,89.2533497 C292.867245,89.1723591 293.878575,88.8865997 294.900615,88.9599497 C298.144215,89.1983372 299.943495,92.6763497 302.290515,94.9272778 C303.188625,95.7876122 304.244325,96.5226403 304.891515,97.5831591 C305.583075,98.7170278 305.728425,100.09234 306.193545,101.333178 C306.882045,103.162343 308.240685,104.652265 309.193875,106.359181 C310.778955,109.193853 311.184405,112.661168 310.300065,115.784656 C310.122585,116.414243 309.886965,117.042303 309.479985,117.557281 C309.046995,118.105878 308.444175,118.492493 307.839825,118.843962 C306.550035,119.594272 305.194455,120.233028 303.794505,120.75259 C303.352335,120.9161 302.888745,121.07044 302.419035,121.033765 C301.883535,120.990978 301.400055,120.708275 300.968595,120.390425 C297.930015,118.15325 296.741205,114.24889 295.670205,110.633347 C294.596145,107.019331 293.240565,103.127197 290.052045,101.1116 C287.472465,99.4810903 284.671035,99.7118372 281.897145,100.547722 C279.123255,101.385134 277.297965,99.1449028 277.469325,96.1803403" id="Fill-124" fill="#C2E3ED"></path>
                        <path d="M326.433915,305.613997 C325.803555,306.051041 325.095165,306.903735 324.630045,307.259788 C323.451945,308.164438 322.249365,309.024772 321.121755,309.995132 C318.995055,311.827354 317.051955,313.920885 315.783585,316.445347 C315.214425,317.579216 314.874765,319.151657 315.855495,319.956979 C316.182915,320.224401 316.600605,320.348179 317.010645,320.449035 C326.565495,322.822213 335.370645,315.415391 342.800325,310.467322 C343.199655,310.201429 343.358775,309.694091 343.178235,309.249407 L340.745535,303.170526 C340.560405,302.71056 340.069275,302.450779 339.584265,302.557747 C339.584265,302.557747 327.304485,305.282394 326.951055,305.361857 C326.790405,305.397004 326.615985,305.488691 326.433915,305.613997" id="Fill-126" fill="#272223"></path>
                        <path d="M289.056474,307.418255 C285.993414,309.02737 282.931884,310.636486 279.870354,312.245602 C275.384394,314.603498 269.775414,318.923508 264.578004,318.992273 C263.560554,319.006027 262.388574,318.781392 261.885204,317.896608 C261.508824,317.23493 261.631224,316.41127 261.811764,315.67013 C263.533014,308.62853 272.276964,304.916714 278.138394,301.715292 C278.141454,301.712236 283.003794,299.054827 283.003794,299.054827 L284.423634,298.28618 C284.927004,298.014173 285.557364,298.211302 285.814404,298.724752 L289.490994,306.067392 C289.737324,306.560977 289.544544,307.16153 289.056474,307.418255" id="Fill-128" fill="#272223"></path>
                        <path d="M302.94,159.994535 C301.07952,165.854894 298.69272,170.955775 295.02378,174.229019 C290.63115,176.90935 285.52554,178.819507 280.71063,180.801485 C274.2984,183.435972 267.80814,185.926816 261.25209,188.287769 C259.63182,188.869985 258.01155,189.446088 256.37904,190.002325 C254.92095,190.497438 253.4751,191.046035 251.90685,191.143835 C248.21343,191.371525 244.55214,191.168285 240.94746,192.03626 C240.09066,192.248669 239.18031,192.462607 238.32351,192.273119 C238.11237,192.213522 237.90123,192.129475 237.78189,191.964438 C237.32136,191.275253 238.83912,190.103182 238.64022,189.343703 C238.57137,189.082394 238.32045,188.900547 238.05882,188.836366 C237.04902,188.584225 235.41498,189.61571 234.47097,189.959538 C234.35163,190.00691 234.23382,190.054282 234.11448,190.101653 C233.86509,190.1857 233.64018,190.268219 233.40303,190.362963 C232.87365,190.55245 232.12242,190.683869 231.85926,190.220847 C231.6879,189.912166 231.89751,189.556113 232.0704,189.271882 L232.22799,189.047247 C232.86753,188.136485 233.49483,186.875782 234.51534,186.263003 C235.56951,185.633416 237.07044,185.347657 238.29138,185.127607 C240.99183,184.640135 243.76266,184.661528 246.50136,184.533166 C247.5387,184.484266 248.58522,184.412444 249.57054,184.125157 C250.43652,183.873016 251.23212,183.460422 251.99865,183.02185 C253.13238,182.372397 258.14772,179.511747 259.53237,178.773663 C262.25883,177.321944 264.98835,175.873282 267.71634,174.418507 C271.54287,172.37846 275.36787,170.339941 279.19287,168.298366 L285.79023,156.435532 L302.94,159.994535 Z" id="Fill-130" fill="#EBBC6F"></path>
                    </g>
                </g>
            </g>
        </g>
    </g>
</svg>