<?xml version="1.0" encoding="utf-8"?>

<svg width="500px" height="423px" viewBox="0 0 500 423" version="1.1" xmlns="http://www.w3.org/2000/svg" xmlns:xlink="http://www.w3.org/1999/xlink">
    <g id="Homepage" stroke="none" stroke-width="1" fill="none" fill-rule="evenodd">
        <g id="FAQ---3.8.19" transform="translate(-321.000000, -290.000000)">
            <g id="Banner" transform="translate(-19.000000, -844.000000)">
                <g id="Illus" transform="translate(340.000000, 1135.000000)">
                    <polygon id="Fill-88" fill="#D5D5D5" points="213 401.570728 224.44402 405 225 392 213 392.526838"></polygon>
                    <polygon id="Fill-90" fill="#D5D5D5" points="182 404.668959 195 408 195 393 182.708834 394.026282"></polygon>
                    <path d="M220.052856,413.644489 C216.510515,412.713151 212.968174,411.781813 209.427356,410.848912 C208.862591,410.700461 208.515511,410.116031 208.649472,409.533163 L210.631478,400.849529 C210.770005,400.243221 211.36826,399.875999 211.952815,400.038514 L213.59992,400.493245 C213.59992,400.493245 219.249093,402.080895 219.25366,402.082458 C226.065854,403.995139 235.963705,405.721865 239.45581,412.728778 C239.822679,413.464785 240.151491,414.30549 239.926194,415.100877 C239.624783,416.160353 238.476986,416.691653 237.428136,416.933863 C232.065151,418.166792 225.242301,415.010244 220.052856,413.644489 Z M195.771994,405.391747 C196.437229,405.866792 197.187712,406.79188 197.679408,407.179417 C198.923109,408.160759 200.195733,409.096785 201.386155,410.15001 C203.633037,412.139261 205.688112,414.411351 207.027717,417.155361 C207.629016,418.386727 207.986752,420.094701 206.951603,420.969784 C206.606046,421.258874 206.164585,421.393262 205.732258,421.50421 C195.633466,424.081016 186.329304,416.036505 178.477394,410.662559 C178.055723,410.373469 177.888273,409.821854 178.077035,409.337433 L180.648162,402.736809 C180.844536,402.235199 181.363633,401.955485 181.876641,402.071121 C181.876641,402.071121 194.852538,405.032338 195.227018,405.116721 C195.395991,405.155787 195.580187,405.254234 195.771994,405.391747 Z" id="Fill-101" fill="#272223"></path>
                    <path d="M250,1 L320,1" id="Stroke-17" stroke="#D5D5D5" stroke-width="3.47139006"></path>
                    <path d="M265,16 L320,16" id="Stroke-19" stroke="#D5D5D5" stroke-width="3.47139006"></path>
                    <path d="M0,86 L19,86" id="Stroke-21" stroke="#D5D5D5" stroke-width="3.47139006"></path>
                    <path d="M137,18 L156,18" id="Stroke-21-Copy" stroke="#D5D5D5" stroke-width="3.47139006"></path>
                    <g id="Group" transform="translate(127.000000, 66.000000)" stroke="#D5D5D5" stroke-width="3.47139006">
                        <path d="M6.20307414,-8.34887715e-14 L6.20307414,14.3773542" id="Stroke-23"></path>
                        <path d="M14.4368897,7.19811285 L-4.4408921e-14,7.19811285" id="Stroke-25"></path>
                    </g>
                    <path d="M212,150 L243,150" id="Stroke-31" stroke="#D5D5D5" stroke-width="3.47139006"></path>
                    <path d="M455,92.3312365 L499.9765,92.3312365" id="Stroke-33" stroke="#D5D5D5" stroke-width="3.47139006"></path>
                    <path d="M47,54.3312365 L91.9765005,54.3312365" id="Stroke-33-Copy" stroke="#D5D5D5" stroke-width="3.47139006"></path>
                    <path d="M471,111 L488,111" id="Stroke-35" stroke="#D5D5D5" stroke-width="3.47139006"></path>
                    <path d="M63,73 L80,73" id="Stroke-35-Copy" stroke="#D5D5D5" stroke-width="3.47139006"></path>
                    <path d="M243,52 L265,52" id="Stroke-37" stroke="#D5D5D5" stroke-width="3.47139006"></path>
                    <path d="M0,181 L24,181" id="Stroke-39" stroke="#D5D5D5" stroke-width="3.47139006"></path>
                    <path d="M413,18 L437,18" id="Stroke-39-Copy" stroke="#D5D5D5" stroke-width="3.47139006"></path>
                    <path d="M10,195 L22,195" id="Stroke-41" stroke="#D5D5D5" stroke-width="3.47139006"></path>
                    <path d="M425,33 L437,33" id="Stroke-41-Copy" stroke="#D5D5D5" stroke-width="3.47139006"></path>
                    <path d="M350,31 L350,60" id="Stroke-43" stroke="#D5D5D5" stroke-width="3.47139006"></path>
                    <path d="M336,45 L365,45" id="Stroke-45" stroke="#D5D5D5" stroke-width="3.47139006"></path>
                    <path d="M264,98 L264,115" id="Stroke-47" stroke="#D5D5D5" stroke-width="3.47139006"></path>
                    <path d="M254,105 L273,105" id="Stroke-49" stroke="#D5D5D5" stroke-width="3.47139006"></path>
                    <path d="M490,143 L490,157" id="Stroke-71" stroke="#D5D5D5" stroke-width="3.47139006"></path>
                    <path d="M480,150 L499,150" id="Stroke-73" stroke="#D5D5D5" stroke-width="3.47139006"></path>
                    <path d="M439,163 L439,177" id="Stroke-91" stroke="#D5D5D5" stroke-width="3.10500005"></path>
                    <path d="M433,170 L447,170" id="Stroke-93" stroke="#D5D5D5" stroke-width="3.10500005"></path>
                    <path d="M350,151.590975 C351.075667,153.49846 351.61,155.735863 351.514333,157.947709 C351.498,158.358945 351.467667,158.802709 351.684667,159.144244 C351.96,159.58336 352.524667,159.685588 353.024,159.736702 C356.659333,160.117735 360.329667,160.085208 363.955667,159.639121 C363.337333,155.459382 363.351333,151.175092 364,147" id="Fill-99" fill="#D09A41"></path>
                    <path d="M280.072063,395.39056 C280.324099,393.48667 279.936672,388.90389 280.188708,387 L293.86322,387 C293.279996,391.400892 294.365209,395.639667 293.86322,400.04649 C293.754907,400.98163 293.646594,401.926655 293.313323,402.81237 C293.046707,403.52015 292.642616,404.17455 292.17812,404.783479 C290.020193,407.610647 286.610417,409.417662 283.046504,410.277674 C279.622148,411.104077 276.031156,411.127802 272.513068,410.813452 C271.79237,410.750187 271.019598,410.651335 270.480117,410.192662 C269.873981,409.678631 265.164449,407.505864 265.043639,406.744703 C264.993648,406.444193 264.951989,406.11205 265.124873,405.857012 C265.295675,405.603951 265.624779,405.499167 265.926806,405.410201 C267.720219,404.874423 269.798995,404.799295 271.656979,404.492854 C272.594302,404.336668 273.539958,404.180482 274.437706,403.877994 C276.15405,403.302676 277.651685,402.173785 278.670243,400.746362 C279.145154,400.078123 279.426351,399.37825 279.605484,398.652676 C279.865852,397.608799 279.922091,396.511542 280.072063,395.39056 Z" id="Fill-104" fill="#D09A41"></path>
                    <path d="M263.517666,404.932212 C261.330906,405.712623 258.016631,406.880289 258.000081,409.498693 C257.991805,410.644736 258.620731,411.778985 259.622048,412.419825 C260.54268,413.009556 261.682608,413.172715 262.783229,413.318182 C267.109165,413.882357 271.530267,414.373799 275.818963,413.601252 C279.944222,412.856226 283.713641,411.006438 287.733389,409.927231 C288.792633,409.642194 292.541363,408.458801 293.424756,409.264767 C293.900588,409.699201 293.921277,411.582408 294.055751,412.225214 C294.239878,413.103913 295.162578,413.654328 296.074935,413.428265 L300.293291,412.382476 C301.55735,412.067953 302.287649,410.809861 301.892501,409.626468 L296.588006,393.733228 C296.149413,392.414197 294.655714,391.690794 293.273731,392.127195 C291.32075,392.443684 289.3657,392.760172 287.412719,393.074695 C285.767995,393.34204 284.125339,393.607419 282.480615,393.872798 C281.390338,394.049717 278.878772,393.959291 278.305704,394.910723 C278.113302,395.231144 278.022274,395.594811 277.93952,395.954547 C277.784358,396.644531 277.65609,397.342379 277.554717,398.042193 C277.534028,398.195523 277.515409,398.364579 277.606438,398.496286 C277.852629,398.857987 280.511083,398.419621 280.982778,398.390134 L284.963218,398.142447 C286.471399,398.050056 288.242323,398.181763 289.715334,397.847582 C290.424944,397.688355 291.118004,398.169968 291.192482,398.857987 C292.020017,406.675849 281.593084,407.069003 270.58274,407.959496 C269.804858,408.020435 269.084903,407.544719 268.869744,406.831145 C268.658723,406.139194 268.513904,405.392202 268.232543,404.725807 C267.990489,404.153768 267.111234,404.100692 266.159569,404.23633 C265.125151,404.385729 264.003842,404.759225 263.517666,404.932212 Z" id="Fill-105" fill="#C2E3ED"></path>
                    <path d="M330.885513,396.994267 C330.956104,396.096247 332.264667,393.87482 332.809425,392.013381 C333.440376,389.857417 333.318581,388.039034 333.400341,387 L344.928877,387.629288 C344.574089,392.106204 345.202273,396.563794 344.928877,401.044715 C344.870442,401.99576 344.812006,402.958817 344.524001,403.869818 C344.294432,404.598618 343.922948,405.281368 343.49094,405.918067 C341.481168,408.881321 338.162852,410.871507 334.64001,411.910648 C331.256997,412.909745 327.665285,413.103958 324.127835,412.955796 C323.401562,412.92376 322.625201,412.861692 322.059627,412.423211 C321.427268,411.932672 321.226917,411.103762 321.066219,410.338922 C321.001522,410.03659 320.943086,409.704225 321.101698,409.437932 C321.258222,409.173642 321.581706,409.05351 321.878059,408.949396 C324.190445,408.126492 326.446482,407.019276 328.170337,405.329421 C329.785669,403.747684 330.342895,402.113889 330.597508,400.317917 C330.745685,399.272769 330.791598,398.17156 330.885513,396.994267 Z" id="Fill-106" fill="#D09A41"></path>
                    <path d="M320.521417,407.857959 C318.236354,409.071929 315.640071,409.948356 313.74351,411.720948 C312.442236,412.934918 311.562883,414.869373 312.227097,416.576826 C313.039611,418.665248 316.160163,418.617874 318.186225,418.819215 C323.913504,419.389682 330.275755,418.647483 335.409836,416.057681 C337.013976,415.248369 338.555453,414.294958 340.119907,413.418532 C341.989314,412.372347 343.858722,411.324188 345.728129,410.278003 L346.52811,413.290226 C346.762047,414.160731 347.720771,414.670006 348.629365,414.399577 L352.82561,413.152051 C354.08511,412.777003 348.109273,394.622732 348.109273,394.622732 C347.595447,393.319935 346.05397,392.666563 344.681678,393.169916 C342.390349,393.519303 340.09902,393.868689 337.80769,394.216101 C336.103292,394.476661 334.398894,394.73722 332.694496,394.995805 C332.138896,395.080684 331.044405,395.053049 330.651725,395.443888 C329.912317,396.178192 329.887252,398.367285 330.045995,399.300955 C333.791076,399.445053 337.634326,399.154884 341.396117,399.075927 C342.102105,398.882481 342.826892,399.330564 342.937595,400.017494 C344.184562,407.818481 336.379004,410.919531 325.323392,412.330894 C324.542209,412.431565 323.790269,411.985456 323.535445,411.280761 L322.564188,408.596211 C322.275945,407.800715 321.296333,407.447381 320.521417,407.857959" id="Fill-107" fill="#C2E3ED"></path>
                    <g id="Group-110" transform="translate(390.000000, 301.000000)">
                        <polyline id="Fill-108" points="0.000717782697 4.78648815 28.5180303 100.39885 30.894473 100.39885 7.13004592 0.00587003035"></polyline>
                        <polyline id="Stroke-109" stroke="#D5D5D5" stroke-width="3.10500005" points="0.000717782697 4.78648815 28.5180303 100.39885 30.894473 100.39885 7.13004592 0.00587003035"></polyline>
                    </g>
                    <g id="Group-110-Copy" transform="translate(115.000000, 358.500000) scale(-1, 1) translate(-115.000000, -358.500000) translate(99.000000, 308.000000)">
                        <polyline id="Fill-108" points="0.000717782697 4.78648815 28.5180303 100.39885 30.894473 100.39885 7.13004592 0.00587003035"></polyline>
                        <polyline id="Stroke-109" stroke="#D5D5D5" stroke-width="3.10500005" points="0.000717782697 4.78648815 28.5180303 100.39885 30.894473 100.39885 7.13004592 0.00587003035"></polyline>
                    </g>
                    <path d="M129,169.057557 C136.004801,157.085021 143.588229,156.56421 151,170 L129,169.057557 Z" id="Path-2" fill="#A87829"></path>
                    <path d="M337,307 C332.038355,305.616571 324.280218,302.41613 320,300" id="Path" stroke="#D5D5D5" stroke-width="3.10500005"></path>
                    <path d="M292.132225,262.875648 C291.386172,259.175487 291,255.366019 291,251.460344 C291,246.919957 291.530357,242.499687 292.51875,238.247579 L304.017857,238.247579 L303.65625,215.065182 C315.902679,199.281933 335.911607,189 358.5,189 C395.769643,189 426,216.963015 426,251.460344 C426,281.09649 399.909663,305.640266 369.699151,312" id="Path" stroke="#D5D5D5" stroke-width="3.10500005"></path>
                    <path d="M97.6875,271.162936 C96.5785714,266.70532 96,262.079943 96,257.310772 C96,252.781259 96.5303571,248.371573 97.51875,244.129647 L109.017857,244.129647 M108.65625,221.002765 C120.902679,205.257312 140.911607,195 163.5,195 C200.769643,195 231,222.896054 231,257.310772 C231,286.856977 208.713003,311.615657 178.7992,318" id="Shape" stroke="#D5D5D5" stroke-width="3.10500005" transform="translate(163.500000, 256.500000) scale(-1, 1) translate(-163.500000, -256.500000) "></path>
                    <polygon id="Stroke-113" stroke="#D5D5D5" stroke-width="3.10500005" points="80 245 65.8229471 407 61 407 72.8331006 245"></polygon>
                    <path d="M393,228.139396 C392.968621,223.598253 391.643481,219.696943 391.182458,215.230087 L389.500085,198.925105 C388.377698,188.055117 387.257725,177.185129 386.135339,166.315141 C385.58018,160.94485 382.085092,158.632341 377.001767,157.613879 C371.590174,156.533111 366.456161,156.938099 361.211115,158.368739 C359.535984,158.826448 357.790853,158.967835 356.055378,159.051708 C351.652726,159.26259 347.013528,160.32898 342.902938,158.848016 C338.314429,157.199305 302.465643,171.107905 302.168753,174.513164 C301.652214,180.449002 302.581502,187.599805 302.004619,193.633894 C301.975655,193.945424 302.084273,194.276125 302.291854,194.51097 C302.624949,194.887202 303.211487,194.860842 303.71113,194.803329 C309.373751,194.153909 315.212575,193.449373 320.911403,193.176185 C322.398263,193.101898 324.136152,193.176185 325.00751,194.443871 C325.623012,195.344911 325.574738,196.550291 325.620599,197.659816 C326.045416,208.417174 331.82631,217.015392 330.976676,228.235252 C330.805301,230.499833 331.056329,230.082862 331.227704,232.345047 C331.280806,233.075943 331.353218,233.849974 331.802173,234.429899 C332.253541,235.007427 333.231104,235.235083 333.718678,234.688708 L393,228.139396 Z" id="Fill-114" fill="#C2E3ED"></path>
                    <path d="M184,235.165752 C183.968798,230.642054 182.651125,226.755731 182.192699,222.306036 L180.519806,206.063691 C179.403744,195.235461 177.862797,187.580666 176.746735,176.752436 C176.194704,171.402775 168.087659,167.306641 163.032977,166.292092 C157.651877,165.215475 143.059711,167.357506 137.84422,168.78265 C136.178527,169.2386 131.457894,174.242818 127.370466,172.767543 C124.76394,171.829296 121.736256,182.057321 119.627759,191.205878 C118.045389,198.071626 116.980714,204.329407 117.000265,204.803262 C117.422688,215.519295 123.171009,224.084482 122.326162,235.261239 C122.155752,237.51712 122.405366,237.101752 122.575776,239.355246 C122.628579,240.083334 122.700583,240.854392 123.147008,241.432089 C123.595833,242.007398 124.567887,242.23418 125.052714,241.689904 L184,235.165752 Z" id="Fill-114-Copy" fill="#1A4175"></path>
                    <path d="M129.883264,212.656826 L132.594619,223.627303 C126.018096,224.597581 120.424147,225.162358 115.812771,225.321633 C112.647133,225.431337 109.481495,225.597113 106.313465,225.653185 C105.06299,225.672688 103.657103,225.767765 102.617033,225.141229 C101.493279,224.463497 100.43169,224.090501 99.0999225,223.963731 C97.4429834,223.805269 95.6521503,223.936915 94.3203825,224.904754 C92.3406631,226.343106 92.0250556,229.132045 92.001146,231.348082 C91.9915821,232.293981 92.0370104,233.252069 92.3239263,234.156524 C92.6084512,235.060979 93.1631552,235.914238 93.9904293,236.414004 C95.1094011,237.091736 96.5248527,237.033227 97.8398837,236.952777 C101.411986,236.733367 104.948224,236.687047 108.517936,236.552964 C111.659664,236.433507 114.815739,236.087328 117.959858,236.109269 L137.336246,236.414004 L146.431136,236.414004 C149.180747,236.433507 151.313488,234.093139 150.962016,231.445597 L145.147188,209" id="Fill-115-Copy" fill="#A87829" transform="translate(121.500000, 223.000000) scale(-1, 1) translate(-121.500000, -223.000000) "></path>
                    <path d="M188.894015,212.656826 L190.961997,223.627303 C185.946005,224.597581 181.679434,225.162358 178.162283,225.321633 C175.747813,225.431337 173.333343,225.597113 170.91705,225.653185 C169.963298,225.672688 168.891011,225.767765 168.097737,225.141229 C167.240637,224.463497 166.43095,224.090501 165.415195,223.963731 C164.151428,223.805269 162.785538,223.936915 161.769783,224.904754 C160.259828,226.343106 160.01911,229.132045 160.000874,231.348082 C159.99358,232.293981 160.028228,233.252069 160.247062,234.156524 C160.464073,235.060979 160.887152,235.914238 161.518124,236.414004 C162.371577,237.091736 163.451159,237.033227 164.454149,236.952777 C167.178634,236.733367 169.875764,236.687047 172.598425,236.552964 C174.994659,236.433507 177.401835,236.087328 179.799892,236.109269 L194.578493,236.414004 L201.515273,236.414004 C203.612434,236.433507 205.239101,234.093139 204.971029,231.445597 L200.535991,209" id="Fill-115-Copy-2" fill="#A87829"></path>
                    <path d="M395.659044,211.539476 L398.399188,222.157905 C389.944369,222.438704 381.491966,222.719502 373.037147,223.000301 C366.046637,223.233906 359.056128,223.465152 352.065618,223.696398 C348.866367,223.802582 345.667115,223.963038 342.465448,224.01731 C341.201695,224.036187 339.780879,224.128214 338.729766,223.521784 C337.59408,222.865801 336.521219,222.504774 335.17531,222.382072 C333.500778,222.228695 331.690929,222.356116 330.345021,223.292897 C328.34428,224.685091 328.025322,227.384532 328.001158,229.529455 C327.991493,230.444999 328.037403,231.372342 328.327366,232.247772 C328.614912,233.123203 329.175506,233.949081 330.011564,234.432809 C331.142417,235.088792 332.572898,235.032161 333.901892,234.954292 C337.511924,234.741923 341.08571,234.69709 344.693325,234.567309 C347.868413,234.451686 351.057999,234.116616 354.235503,234.137853 L392.744922,234.399774 L412.382623,234.534274 C415.161429,234.553151 417.316816,232.287887 416.961612,229.725306 L411.085042,208" id="Fill-115" fill="#D09A41"></path>
                    <path d="M395.529322,282.545021 C391.164826,290.376074 382.676966,295.420617 373.658615,295.420617 L373.586275,295.420617 L369.89695,310.14588 L354.753836,370.440185 L350.341113,388 L328.036368,388 L329.917201,370.392141 L336.644794,307.911868 L337.995135,295.420617 L322.273304,295.420617 L320.874736,300.825485 L302.886261,370.344098 L298.304745,388 L276,388 L277.78438,370.296055 L287.140316,276.899936 L287.140316,276.299395 C287.140316,271.278874 288.972922,266.402482 292.15587,262.55902 C293.072173,261.430003 294.133155,260.397073 295.290591,259.460229 C301.3189,254.63188 308.818117,255.06427 315.545711,251.797327 C322.152738,248.578428 328.253387,243.678015 331.243429,237 C349.256018,237.240216 367.244493,237.456411 385.257082,237.696627 C388.102444,237.720649 394.564792,236.543589 397.120795,237.840757 C399.628572,239.089882 400.110837,274.329621 395.529322,282.545021 Z" id="Stroke-116" stroke="#1A4175" stroke-width="3.10500005"></path>
                    <path d="M238.417682,291.844968 C233.912796,300.587299 225.151912,306.218862 215.843473,306.218862 L215.768806,306.218862 L211.960809,322.657663 L194.499084,396 L119.092302,391.523466 C118.826736,366.57038 119.134225,347.830627 120.014768,335.304207 C121.335583,316.514578 123.350317,277.116505 131.719076,269.533252 C132.664853,268.272855 133.759964,267.119725 134.95463,266.073864 C141.176849,260.683653 148.917289,261.166359 155.861285,257.519251 C162.680836,253.925778 168.977722,248.455117 172.063942,241 C190.655932,241.26817 209.223032,241.509522 227.815022,241.777692 C230.751909,241.804509 237.422127,240.490478 240.060348,241.938594 C242.648791,243.333076 243.146569,282.673566 238.417682,291.844968 Z" id="Stroke-116-Copy" stroke="#1A4175" stroke-width="3.10500005" transform="translate(180.500000, 318.500000) scale(-1, 1) translate(-180.500000, -318.500000) "></path>
                    <polygon id="Stroke-118" stroke="#D5D5D5" stroke-width="3.10500005" fill="#F5F5F5" points="56 246 473 246 473 236 56 236"></polygon>
                    <path d="M259.516484,213.27451 C255.503297,213.27451 252.263736,210.06902 252.263736,206.098039 C252.263736,202.127059 255.503297,198.921569 259.516484,198.921569 C263.52967,198.921569 266.769231,202.127059 266.769231,206.098039 C266.769231,210.06902 263.52967,213.27451 259.516484,213.27451 Z M303.637363,212.915686 L303.032967,175 L216,177.392157 L218.78022,236 L304,236 L303.637363,212.915686 Z" id="Stroke-119" stroke="#D5D5D5" stroke-width="3.10500005"></path>
                    <path d="M267,206 C267,209.873333 263.873333,213 260,213 C256.126667,213 253,209.873333 253,206 C253,202.126667 256.126667,199 260,199 C263.873333,199 267,202.126667 267,206 Z" id="Stroke-120" stroke="#C2E3ED" stroke-width="3.10500005"></path>
                    <path d="M267,206 C267,209.873333 263.873333,213 260,213 C256.126667,213 253,209.873333 253,206 C253,202.126667 256.126667,199 260,199 C263.873333,199 267,202.126667 267,206 Z" id="Stroke-121" stroke="#D5D5D5" stroke-width="3.10500005"></path>
                    <path d="M405.386554,177.65592 C408.51678,182.217346 410.966206,187.681006 412.80267,192.850304 C413.897764,195.93513 414.45258,199.381328 414.95894,202.614532 C415.092193,203.466509 416.361727,212.407479 415.898977,212.507993 C409.078864,214.013311 402.120653,214.848536 395.145482,214.999307 C392.175159,215.06153 391.913499,210.918912 391.104292,208.602301 C390.304776,206.312016 389.355048,204.031302 388.698476,201.693153 C386.941964,195.437345 386.106106,188.906321 386.24905,182.392049 C386.360498,177.373523 387.072794,172.869533 382.806286,169.607611 C379.8505,167.348437 376.826876,165.18499 373.74026,163.122057 C371.69786,161.753151 366.854732,160.324414 368.247828,157.201297 C369.061881,155.38247 373.405917,156.114787 374.956494,156.315816 C377.65062,156.662829 380.276909,157.49566 382.750562,158.642 C387.082485,160.652282 390.951657,163.583944 394.668195,166.642445 C398.292667,169.626756 401.837188,172.783378 404.637916,176.602915 C404.892308,176.947535 405.141854,177.299334 405.386554,177.65592" id="Fill-122" fill="#C2E3ED"></path>
                    <path d="M345.030309,142.966921 C344.839033,145.382508 344.480695,147.793311 344.928618,150.192155 C345.359593,152.500116 346.703362,154.762636 348.797706,155.575804 C349.896933,156.003912 351.097852,156.003912 352.267294,155.999129 C356.65452,155.979996 361.509039,155.987171 365.019788,152.818209 C367.121395,150.921615 369.68061,148.635178 371.542517,146.492242 C374.145314,143.49548 374.399541,138.738449 375,134.940478 L353.816866,119 L347.766272,120.595244 C347.766272,120.595244 343.22651,126.969043 343.22651,126.971435 C342.253185,128.33947 344.715552,136.80598 344.979463,138.559074 C345.202214,140.029951 345.146527,141.498436 345.030309,142.966921" id="Fill-123" fill="#D09A41"></path>
                    <path d="M356.497978,133.5737 C359.728813,134.814147 363.248761,135.130291 366.708477,135.019279 C367.804696,134.980666 368.949101,134.913093 369.948949,135.36921 C371.705309,136.168019 372.249805,138.504112 371.363192,140.116209 C370.081459,142.457129 368.158859,144.098186 367.503537,146.859023 C367.103598,148.553173 367.180694,150.317309 367.257791,152.054899 L367.727599,162.526292 C367.79024,163.923603 367.968527,165.538114 369.139433,166.303136 C370.091096,166.923359 371.418606,166.761667 372.314855,167.461529 C372.946085,167.95626 373.220742,168.769548 373.733917,169.384945 C374.675943,170.514378 376.478079,170.803977 377.728492,170.024474 C379.398118,168.431684 380.212452,165.984578 379.829378,163.703991 C379.677593,162.803823 379.381253,161.768509 379.952251,161.054167 C380.28714,160.639076 380.826817,160.465317 381.27976,160.187785 C382.768691,159.273137 383.214406,157.299042 383.130082,155.551799 C383.045757,153.806969 382.575949,152.064553 382.80483,150.331789 C382.973479,149.05997 383.510747,147.86779 383.787813,146.615278 C384.161251,144.925954 384.035968,143.132858 383.457743,141.506281 C382.826513,139.732491 381.77848,139.3536 380.438924,138.180727 C377.564661,135.668462 377.783905,131.230367 376.644319,127.583842 C375.538462,124.038676 373.047274,121.1258 370.616318,118.321523 C369.44782,116.972477 368.226319,115.582405 366.607287,114.831863 C365.335191,114.2406 363.906492,114.088561 362.504295,114.030641 C360.174528,113.934108 357.837533,114.069254 355.524631,114.385399 C353.356286,114.679824 351.190349,115.135941 349.190652,116.019216 C345.634565,117.590287 342.873539,120.355951 341.117179,123.806997 C340.334165,125.346695 339.298177,127.002232 338.741635,128.614329 C338.100769,130.472585 338.141726,132.52632 337.182836,134.283216 C336.457644,135.610542 335.216869,136.607243 334.573593,137.975595 C333.02684,141.272189 335.481889,145.239686 334.544682,148.760719 C334.267615,149.805686 333.703845,150.749294 333.335227,151.765301 C332.966608,152.778895 332.812414,153.963835 333.344864,154.905029 C333.605065,155.365973 334.012232,155.732798 334.274843,156.193742 C334.855478,157.202509 334.660327,158.459849 334.494087,159.613415 C334.055599,162.675917 333.956819,165.786686 334.197746,168.870908 C334.243523,169.450105 334.306164,170.043781 334.576002,170.557818 C335.069903,171.494186 336.185397,171.972023 337.243067,171.99857 C338.303148,172.025116 339.331907,171.677598 340.336574,171.334907 C341.372561,170.980149 342.430232,170.615738 343.295161,169.940008 C344.157681,169.269106 344.810594,168.216898 344.714223,167.126078 C344.663628,166.522748 344.39379,165.931485 344.487751,165.335395 C344.65881,164.249402 345.808033,163.284074 346.304343,162.316333 C346.933164,161.090367 346.974121,159.639962 346.795835,158.298156 C346.550089,156.4761 345.974273,154.651631 346.241702,152.831988 C346.487448,151.159558 347.436702,149.390595 347.446339,147.742298 C347.455976,146.417386 346.817519,145.186593 346.545271,143.89064 C346.309162,142.77086 346.34771,141.612467 346.386259,140.46614 C346.475402,137.883889 346.564545,135.301637 346.653688,132.719385 C346.697055,131.445153 346.61273,127.202538 348.850945,127.690028 C350.110995,127.96756 350.947013,130.108174 351.88422,130.894916 C353.252687,132.041243 354.83317,132.934171 356.497978,133.5737" id="Fill-124" fill="#242221"></path>
                    <polygon id="Stroke-137" stroke="#D5D5D5" stroke-width="3.10500005" points="452 246 466.177053 408 471 408 459.166899 246"></polygon>
                    <text id="?" font-family="Roboto-Light, Roboto" font-size="62.1000011" font-weight="300" letter-spacing="4.52812422" fill="#D5D5D5">
                        <tspan x="400.136084" y="144">?</tspan>
                    </text>
                    <text id="?-copy" font-family="Roboto-Light, Roboto" font-size="62.1000011" font-weight="300" letter-spacing="4.52812422" fill="#D5D5D5">
                        <tspan x="42.1360841" y="168">?</tspan>
                    </text>
                    <text id="?-copy-2" font-family="Roboto-Light, Roboto" font-size="62.1000011" font-weight="300" letter-spacing="4.52812422" fill="#D5D5D5">
                        <tspan x="178.136084" y="95">?</tspan>
                    </text>
                    <path d="M202.80267,202.896708 C203.897764,205.985419 204.45258,209.435957 204.95894,212.673232 C205.092193,213.526282 206.361727,222.478511 205.898977,222.579152 C199.078864,224.086366 194.17557,224.848576 187.200399,224.999537 C184.230076,225.061838 182.809207,218.819132 182,216.499604 C181.200484,214.206434 179.355048,214.091787 178.698476,211.750693 C176.941964,205.487008 176.106106,198.947759 176.24905,192.425284 C176.360498,187.400438 177.072794,182.890777 172.806286,179.624747 C169.8505,177.362727 166.826876,175.196556 163.74026,173.131026 C161.69786,171.760396 156.854732,170.32986 158.247828,167.20281 C159.061881,165.381693 163.405917,166.114932 164.956494,166.316213 C167.65062,166.663663 170.276909,167.497543 172.750562,168.645327 C177.082485,170.65814 180.951657,173.593494 184.668195,176.655846 C188.292667,179.643916 191.837188,182.804513 194.637916,186.628859 C194.892308,186.973913 195.141854,187.326156 195.386554,187.68319 C198.51678,192.250361 200.966206,197.720901 202.80267,202.896708 Z" id="Fill-122-Copy" fill="#1A4175"></path>
                    <path d="M140.8043,202.662623 C141.898836,205.773588 142.453369,209.248987 142.959471,212.509587 C143.092655,213.368782 144.361543,222.385512 143.899028,222.486877 C137.082393,224.004951 130.127729,224.847252 123.156115,224.999301 C120.187307,225.062051 119.92578,220.884332 119.116986,218.548092 C118.317878,216.2384 117.368634,213.938362 116.712397,211.5804 C114.95678,205.271586 114.121349,198.685222 114.264219,192.115753 C114.37561,187.054704 115.087543,182.512551 110.823211,179.222989 C107.868932,176.944672 104.84685,174.762894 101.761807,172.682482 C99.720449,171.301976 92.7909674,173.685642 94.183353,170.536062 C95.5757387,167.386482 108.129171,167.985809 110.767515,168.164463 C130.91684,169.528865 138.968772,197.449525 140.8043,202.662623 Z" id="Fill-122-Copy-2" fill="#1A4175" transform="translate(119.000000, 196.500000) scale(-1, 1) translate(-119.000000, -196.500000) "></path>
                    <path d="M132.45055,165.082952 C136.696524,166.288638 146.926596,168.207322 151.73004,156.582323 C153.221228,152.97344 148.020974,135.395975 148.621566,132 L134.000465,132 L127.948532,133.426395 C127.948532,133.426395 123.407765,139.125559 123.407765,139.127697 C122.434225,140.350933 122.434225,162.238716 132.45055,165.082952 Z" id="Fill-123-Copy" fill="#A87829"></path>
                    <path d="M142.627836,138.482551 C142.883588,139.74972 142.177442,141.353407 140.919054,141.395182 C140.545611,141.406786 140.176695,141.281462 139.803253,141.267537 C138.386435,141.2188 137.413221,142.769108 137.146153,144.198734 C136.876822,145.62836 152.052168,147.263287 151.398078,148.555985 C151.266807,148.813596 146.351941,153.767698 135.756494,149.070138 C125.161047,144.372578 135.079771,149.023722 134.781017,148.84966 C132.986229,147.798328 131.553568,146.113412 130.79084,144.145355 C130.428714,143.212385 130.200122,142.195865 129.600351,141.404465 C128.283117,139.659208 125.732391,139.626716 123.620744,140.056068 C121.506833,140.487741 119.284284,141.211837 117.265431,140.441324 C115.178679,139.645283 113.927081,137.447465 113.211882,135.28446 C111.514416,130.139199 112.114187,123.998306 115.62681,119.932227 C119.139433,115.866148 125.766341,114.668604 129.917211,118.043078 C130.582618,118.58383 131.2865,119.26383 132.13297,119.187243 C135.919451,118.846082 138.334722,114.632168 142.976383,113.993245 C149.574333,113.085039 156.98154,118.373421 156.336502,121.109669 C155.897425,122.973289 142.707052,122.424789 141.254021,124.868614 C139.461496,127.88104 139.122003,131.961043 140.880578,135.070944 C141.512035,136.187259 142.372085,137.217704 142.627836,138.482551 Z" id="Fill-104" fill="#B7B5B5" transform="translate(134.337979, 132.487325) rotate(73.000000) translate(-134.337979, -132.487325) "></path>
                </g>
            </g>
        </g>
    </g>
</svg>