<?xml version="1.0" encoding="utf-8"?>

<svg width="95px" height="65px" viewBox="0 0 95 65" version="1.1" xmlns="http://www.w3.org/2000/svg" xmlns:xlink="http://www.w3.org/1999/xlink">
    <g id="Homepage" stroke="none" stroke-width="1" fill="none" fill-rule="evenodd" stroke-linecap="round">
        <g id="About-Us---3.8.19" transform="translate(-933.000000, -1406.000000)" stroke-width="1.4">
            <g id="Our-Philosophy" transform="translate(228.000000, 899.000000)">
                <g id="4" transform="translate(678.000000, 459.000000)">
                    <g id="icon">
                        <g id="Group-15" transform="translate(27.000000, 48.000000)">
                            <path d="M26.3725,23.4831 C35.1495,25.9621 41.4915,24.1391 43.6755,14.9651 L59.5685,18.4301 C64.9205,19.9771 66.3245,12.3441 61.1345,11.4671 L36.2315,4.7121 C33.2845,4.1371 30.1365,4.4241 26.8445,5.3261 L19.6495,6.7291 L8.1575,3.5391 L0.6995,34.5411 L11.8635,37.8311 L18.6035,43.3401" id="Stroke-1" stroke="black" stroke-linejoin="round"></path>
                            <path d="M44.7113,33.4011 L23.9473,44.3391 C21.8523,45.4381 21.0353,48.0511 22.1343,50.1481 C23.2333,52.2441 25.8473,53.0591 27.9423,51.9611 L29.2373,51.2901 L33.4213,49.1611" id="Stroke-3" stroke="black"></path>
                            <path d="M32.2602,30.2888 L24.8002,34.1008 C22.7042,35.1988 21.8892,37.8128 22.9882,39.9088 C24.0862,42.0058 26.6992,42.8208 28.7962,41.7228 L30.1292,41.0828" id="Stroke-5" stroke="black"></path>
                            <path d="M48.9115,41.0827 L32.2915,49.7507 C30.1945,50.8497 29.3795,53.4637 30.4775,55.5597 C31.5765,57.6547 34.1905,58.4717 36.2865,57.3727 L36.7745,57.1197 L39.8075,55.5167" id="Stroke-7" stroke="black"></path>
                            <path d="M53.0277,48.7077 L39.2347,55.8117 C37.1387,56.9107 36.3227,59.5237 37.4217,61.6197 L37.4217,61.6207 C38.5197,63.7167 41.1337,64.5317 43.2297,63.4337 C43.2297,63.4337 71.9527,48.2017 72.3007,47.9787 C77.3707,44.7217 81.1697,40.3537 83.7447,34.9167" id="Stroke-9" stroke="black"></path>
                            <path d="M11.8637,37.8308 L19.6497,6.7288" id="Stroke-11" stroke="black" stroke-linejoin="round"></path>
                            <polygon id="Stroke-13" stroke="#e50e38" stroke-linejoin="round" points="78.6537 0.6999 94.1027 28.5939 83.7447 34.9169 68.4267 6.8379"></polygon>
                        </g>
                    </g>
                </g>
            </g>
        </g>
    </g>
</svg>