<?xml version="1.0" encoding="utf-8"?>

<svg class = "heartbeat" width="80px" height="74px" viewBox="0 0 80 74" version="1.1" xmlns="http://www.w3.org/2000/svg" xmlns:xlink="http://www.w3.org/1999/xlink">
    <g id="Homepage" stroke="none" stroke-width="1" fill="none" fill-rule="evenodd" stroke-linecap="round">
        <g id="Corporate-Jobs---3.8.19" transform="translate(-269.000000, -1224.000000)" stroke-width="1.35">
            <g id="Benefits" transform="translate(234.000000, 1088.000000)">
                <g id="1" transform="translate(0.000000, 96.000000)">
                    <g id="icon" transform="translate(0.000000, 2.000000)">
                        <g id="Group-11" transform="translate(35.000000, 38.000000)">
                            <path d="M75.2328,34.2007 C72.2218,39.4427 68.3098,43.9597 64.0828,48.2257 C62.2178,50.1067 60.2448,51.8757 58.3728,53.7527 C54.0528,58.0847 49.7558,62.4427 45.4628,66.8057 C43.7348,68.5647 42.0368,70.3637 40.3348,72.1487 C40.1598,72.3327 40.0328,72.5597 39.8318,72.8317 C37.1228,70.0097 34.5408,67.3887 32.0378,64.6967 C27.0628,59.3407 21.7538,54.3257 16.5038,49.2497 C11.7988,44.6987 7.4588,39.8237 4.2288,34.0697 C2.4788,30.9537 1.1528,27.6767 0.7938,24.0927 C-0.1512,14.5397 4.5698,5.1447 14.0878,1.7797 C18.7168,0.1427 23.2288,0.6457 27.6668,2.5417 C31.8928,4.3397 35.6298,6.8947 39.0748,9.9147 C39.2668,10.0807 39.4558,10.2517 39.5598,10.3437 C41.2758,8.8247 42.8808,7.2227 44.6628,5.8487 C49.6688,1.9897 55.3708,0.1427 61.6758,0.8077 C69.8498,1.6747 75.2018,6.2387 77.6828,14.0317 C79.9278,21.0867 78.9038,27.8117 75.2328,34.2007 Z" id="Stroke-1" stroke="#2AABE1"></path>
                            <polyline id="beat-line" stroke="#EF4C01" points="8.0951 39.939 22.8151 39.939 29.3151 24.253 37.3151 51.35 39.7701 39.939 71.4011 39.939"></polyline>
                            <path d="M9.79157251,31 C8.46372344,28.6883101 7.45767232,26.2547741 7.18518212,23.5944691 C6.46805712,16.5045533 10.051087,9.53056037 17.2725098,7.03356292 C20.7863358,5.81848724 24.2093318,6.19248686 27.5769646,7.59879312" id="Stroke-5" stroke="#194275"></path>
                            <path d="M56.0882,49.6646 C52.2992,53.4656 48.5292,57.2886 44.7642,61.1156 C43.2472,62.6586 41.7582,64.2356 40.2652,65.8026 C40.1112,65.9636 40.0002,66.1626 39.8232,66.4006 C37.4472,63.9256 35.1832,61.6256 32.9872,59.2656" id="Stroke-7" stroke="#194275"></path>
                            <path d="M60,6.6212 C66.1822496,7.26200568 70.2290324,10.6380398 72.1058637,16.4027615 C73.8033745,21.6194256 73.0283302,26.5932581 70.2523096,31.3192" id="Stroke-9" stroke="#194275"></path>
                        </g>
                    </g>
                </g>
            </g>
        </g>
    </g>
</svg>