<?xml version="1.0" encoding="utf-8"?>

<svg width="81px" height="83px" viewBox="0 0 81 83" version="1.1" xmlns="http://www.w3.org/2000/svg" xmlns:xlink="http://www.w3.org/1999/xlink">
    <g id="Homepage" stroke="none" stroke-width="1" fill="none" fill-rule="evenodd" stroke-linecap="round" stroke-linejoin="round">
        <g id="About-Us---3.8.19" transform="translate(-940.000000, -1040.000000)" stroke-width="1.35">
            <g id="Our-Philosophy" transform="translate(228.000000, 899.000000)">
                <g id="2" transform="translate(676.000000, 106.000000)">
                    <g id="icon" transform="translate(0.000000, 3.000000)">
                        <g id="Group-16" transform="translate(37.000000, 33.000000)">
                            <path d="M56.9946565,69 C56.9946565,62.1228857 57.0066794,55.2709492 56.9946565,48.3794476 C56.9946565,46.0738879 56.4776718,45.010429 55.2874046,45.010429 C51.7406489,44.9852512 48.1698473,45.010429 44.6110687,45.0356067 C43.5410305,45.0356067 43,46.1254423 43,48.2020047 L43,68.823756" id="Stroke-1" stroke="black"></path>
                            <path d="M10.6601606,70 L10.6601606,39.3762153 C10.6601606,38.0868056 10.081748,37.4791667 8.79236998,37.4791667 L0.899448171,37.4791667 C0.549990565,37.4791667 0.21258322,37.4913194 0.0559298103,37.078125 C-0.112773862,36.6418403 0.128231384,36.3987847 0.405387417,36.1314236 C4.55067765,32.3142361 8.67186736,28.4618056 12.8412581,24.6701389 C13.6004246,23.9786458 13.9016812,23.2251736 13.9016812,22.2274306 C13.8775807,16.1145833 13.8896309,10.0029514 13.8896309,3.87795139 L13.8896309,3.2703125 L25.240978,3.2703125 L25.240978,3.93871528 C25.240978,5.77256944 25.2530283,7.61979167 25.240978,9.46701389 C25.2289278,10.2095486 25.469933,10.7807292 26.156798,11.0845486 C26.8557132,11.3883681 27.446176,11.1696181 27.9763876,10.6713542 C31.6035165,7.29166667 35.2306455,3.9265625 38.8698247,0.548090278 C39.0746791,0.352430556 39.2915839,0.195659722 39.5325891,0 C40.0145996,0.450868056 40.4725096,0.875 40.9304195,1.28940972 C46.7265957,6.63541667 52.5095166,11.9838542 58.2948475,17.3298611 C60.5602968,19.4079861 62.8377964,21.4861111 65.1032457,23.5776042 C69.6461946,27.7690972 74.1891435,31.9751736 78.7079919,36.203125 C78.900796,36.3732639 79.0200936,36.7621528 78.9971981,37.0295139 C78.9610474,37.4439236 78.575439,37.4791667 78.2018808,37.4791667 L70.4415119,37.4791667 C68.9352291,37.4791667 68.3929673,38.0151042 68.3929673,39.5208333 L68.3929673,70" id="Stroke-3" stroke="black"></path>
                            <path d="M32.9957514,30.3769979 C33.0053108,33.177981 32.9957514,35.9705994 32.9957514,38.7703875 C32.9957514,39.538746 32.5261436,39.9904403 31.7494387,39.9904403 L27.5026554,39.9904403 L27.5026554,40 L23.3108389,40 C22.4433193,39.9904403 22,39.5578653 22,38.69869 L22,30.3041054 C22,29.4556847 22.4242004,29.0123551 23.2642366,29.0123551 C26.0651539,29.0039904 28.8672661,28.9944307 31.658624,29.0039904 C32.589475,29.0039904 32.9957514,29.4377604 32.9957514,30.3769979 Z" id="Stroke-5" stroke="black"></path>
                            <path d="M0,70 L79,70" id="Stroke-7" stroke="black"></path>
                            <path d="M43,76 L57,76" id="Stroke-9" stroke="#e50e38"></path>
                            <path d="M46,81 L55,81" id="Stroke-9-Copy" stroke="#e50e38"></path>
                            <path d="M39,8 L65,31" id="Stroke-14" stroke="black"></path>
                        </g>
                    </g>
                </g>
            </g>
        </g>
    </g>
</svg>