<?xml version="1.0" encoding="utf-8"?>

<svg width="607px" height="414px" viewBox="0 0 607 414" version="1.1" xmlns="http://www.w3.org/2000/svg" xmlns:xlink="http://www.w3.org/1999/xlink">
    <g id="Homepage" stroke="none" stroke-width="1" fill="none" fill-rule="evenodd">
        <g id="Locations---3.8.19" transform="translate(-848.000000, -284.000000)">
            <g id="Banner" transform="translate(299.000000, 285.000000)">
                <g id="Illustration" transform="translate(549.000000, 0.000000)">
                    <g id="Group-150-Copy">
                        <path d="M371,80 L371,322" id="Stroke-1" stroke="#D5D5D5" stroke-width="2.3"></path>
                        <path d="M448,321.13 L371,320.87" id="Stroke-2" stroke="#D5D5D5" stroke-width="2.3"></path>
                        <g id="Group-5" transform="translate(524.000000, 319.000000)" fill="#D5D5D5">
                            <polygon id="Clip-4" points="0.661021418 0.8748 82.7973073 0.8748 82.7973073 2.8748 0.661021418 2.8748"></polygon>
                        </g>
                        <path d="M606.797664,320.8748 L524.661021,320.8748" id="Stroke-3" stroke="#D5D5D5" stroke-width="2.3"></path>
                        <polyline id="Stroke-6" stroke="#D5D5D5" stroke-width="2.3" points="431.871795 228 457 228 457 306 387 306 387 228 410.333333 228"></polyline>
                        <g id="Group-149">
                            <path d="M447.133994,174.795985 L447.133994,208.094647 C447.133994,217.005057 439.969019,224.335732 431.093005,224.637479 L431.093005,238.855085 L409.705021,238.855085 L409.705021,224.637479 C400.829008,224.335732 393.664033,217.005057 393.664033,208.094647 L393.664033,174.795985 C393.664033,170.979774 396.800937,167.855806 400.632951,167.855806 L440.165076,167.855806 C443.997089,167.855806 447.133994,170.979774 447.133994,174.795985 Z" id="Stroke-7" stroke="#D5D5D5" stroke-width="2.3"></path>
                            <path d="M393.127907,187.258134 C397.859999,187.13211 402.597437,187.235059 407.318835,187.566981 C411.231054,187.842103 415.157531,188.273423 419.060838,187.907777 C422.671843,187.570531 426.181255,186.557016 429.763742,185.983697 C435.558104,185.055381 441.537828,185.291454 447.237725,186.67594" id="Stroke-9" stroke="#D5D5D5" stroke-width="2.3"></path>
                            <path d="M400.793361,187.38043 C401.910883,188.598068 402.417065,188.81994 403.924918,189.501533 C410.742338,192.584677 416.42263,192.144482 422.181345,187.38043" id="Stroke-11" stroke="#D5D5D5" stroke-width="2.3"></path>
                            <path d="M415.943183,31.6257618 C415.943183,48.04612 402.577475,61.3567099 386.089122,61.3567099 C369.600768,61.3567099 356.23506,48.04612 356.23506,31.6257618 C356.23506,15.2054035 369.600768,1.89481371 386.089122,1.89481371 C402.577475,1.89481371 415.943183,15.2054035 415.943183,31.6257618 Z" id="Stroke-13" stroke="#D5D5D5" stroke-width="2.3"></path>
                            <polyline id="Stroke-15" stroke="#D5D5D5" stroke-width="2.3" points="386.089122 17.4363784 386.089122 31.6255843 402.372507 38.3829407"></polyline>
                            <path d="M87.994089,29.4070343 L139.681718,29.4070343" id="Stroke-17" stroke="#D5D5D5" stroke-width="2.5714"></path>
                            <path d="M98.6880812,40.0569262 L139.681718,40.0569262" id="Stroke-19" stroke="#D5D5D5" stroke-width="2.5714"></path>
                            <path d="M57.6944444,94.2812232 L71.9531007,94.2812232" id="Stroke-21" stroke="#D5D5D5" stroke-width="2.5714"></path>
                            <path d="M33.6329619,188.63061 L33.6329619,199.280502" id="Stroke-23" stroke="#D5D5D5" stroke-width="2.5714"></path>
                            <path d="M39.8711241,193.955556 L29.1771319,193.955556" id="Stroke-25" stroke="#D5D5D5" stroke-width="2.5714"></path>
                            <path d="M545.162256,222.88007 L545.162256,233.529961" id="Stroke-27" stroke="#D5D5D5" stroke-width="2.5714"></path>
                            <path d="M551.400418,228.205015 L540.706426,228.205015" id="Stroke-29" stroke="#D5D5D5" stroke-width="2.5714"></path>
                            <path d="M29.1771319,56.0317639 L52.3474483,56.0317639" id="Stroke-31" stroke="#D5D5D5" stroke-width="2.5714"></path>
                            <path d="M217.213161,1.00732273 L240.383478,1.00732273" id="Stroke-33" stroke="#D5D5D5" stroke-width="2.5714"></path>
                            <path d="M229.689486,15.2071785 L242.16581,15.2071785" id="Stroke-35" stroke="#D5D5D5" stroke-width="2.5714"></path>
                            <path d="M111.164405,84.4314755 L127.205394,84.4314755" id="Stroke-37" stroke="#D5D5D5" stroke-width="2.5714"></path>
                            <path d="M9.57147949,247.729817 L27.3947998,247.729817" id="Stroke-39" stroke="#D5D5D5" stroke-width="2.5714"></path>
                            <path d="M18.4831397,258.379709 L27.3947998,258.379709" id="Stroke-41" stroke="#D5D5D5" stroke-width="2.5714"></path>
                            <path d="M190.478181,68.4566377 L190.478181,89.7564214" id="Stroke-43" stroke="#D5D5D5" stroke-width="2.5714"></path>
                            <path d="M179.784189,79.1065296 L201.172173,79.1065296" id="Stroke-45" stroke="#D5D5D5" stroke-width="2.5714"></path>
                            <path d="M126.314228,118.156133 L126.314228,130.581007" id="Stroke-47" stroke="#D5D5D5" stroke-width="2.5714"></path>
                            <path d="M119.1849,123.481079 L133.443556,123.481079" id="Stroke-49" stroke="#D5D5D5" stroke-width="2.5714"></path>
                            <path d="M530.012433,73.7815837 L581.700062,73.7815837" id="Stroke-51" stroke="#D5D5D5" stroke-width="2.5714"></path>
                            <path d="M540.706426,84.4314755 L581.700062,84.4314755" id="Stroke-53" stroke="#D5D5D5" stroke-width="2.5714"></path>
                            <path d="M562.09441,190.930394 L576.353066,190.930394" id="Stroke-55" stroke="#D5D5D5" stroke-width="2.5714"></path>
                            <path d="M533.577097,137.680935 L556.747414,137.680935" id="Stroke-57" stroke="#D5D5D5" stroke-width="2.5714"></path>
                            <path d="M467.630812,31.1820163 L483.6718,31.1820163" id="Stroke-59" stroke="#D5D5D5" stroke-width="2.5714"></path>
                            <path d="M584.37356,116.381151 L584.37356,128.806025" id="Stroke-61" stroke="#D5D5D5" stroke-width="2.5714"></path>
                            <path d="M577.244232,121.706097 L591.502888,121.706097" id="Stroke-63" stroke="#D5D5D5" stroke-width="2.5714"></path>
                            <path d="M415.943183,73.7815837 L430.201839,73.7815837" id="Stroke-65" stroke="#D5D5D5" stroke-width="2.5714"></path>
                            <path d="M484.562966,82.6564935 L484.562966,95.0813674" id="Stroke-67" stroke="#D5D5D5" stroke-width="2.5714"></path>
                            <path d="M477.433638,87.9814395 L491.692295,87.9814395" id="Stroke-69" stroke="#D5D5D5" stroke-width="2.5714"></path>
                            <path d="M293.853439,151.880791 L293.853439,162.530682" id="Stroke-71" stroke="#D5D5D5" stroke-width="2.5714"></path>
                            <path d="M286.724111,157.205736 L300.982767,157.205736" id="Stroke-73" stroke="#D5D5D5" stroke-width="2.5714"></path>
                            <path d="M412.378519,123.481079 L483.6718,123.481079" id="Stroke-75" stroke="#D5D5D5" stroke-width="2.3"></path>
                            <path d="M412.378519,134.130971 L455.154488,134.130971" id="Stroke-77" stroke="#D5D5D5" stroke-width="2.3"></path>
                            <path d="M327.717748,40.0569262 L327.717748,56.0317639" id="Stroke-79" stroke="#D5D5D5" stroke-width="2.5714"></path>
                            <path d="M318.806087,47.1568541 L336.629408,47.1568541" id="Stroke-81" stroke="#D5D5D5" stroke-width="2.5714"></path>
                            <path d="M306.329763,25.8570704 L306.329763,38.2819442" id="Stroke-83" stroke="#D5D5D5" stroke-width="2.5714"></path>
                            <path d="M299.200435,31.1820163 L315.241423,31.1820163" id="Stroke-85" stroke="#D5D5D5" stroke-width="2.5714"></path>
                            <path d="M597.740159,270.804583 L456.935929,270.804583" id="Stroke-87" stroke="#D5D5D5" stroke-width="2.3"></path>
                            <path d="M576.880458,279.679493 L456.936642,279.679493" id="Stroke-89" stroke="#D5D5D5" stroke-width="2.3"></path>
                            <path d="M256.424466,166.080646 L256.424466,176.730538" id="Stroke-91" stroke="#D5D5D5" stroke-width="2.3"></path>
                            <path d="M251.07747,171.405592 L261.771462,171.405592" id="Stroke-93" stroke="#D5D5D5" stroke-width="2.3"></path>
                            <polygon id="Stroke-95" stroke="#D5D5D5" stroke-width="2.3" points="216.321639 135.017752 330.390889 135.017752 330.390889 94.1931664 216.321639 94.1931664"></polygon>
                            <path d="M242.16581,107.506241 L283.159447,107.506241" id="Stroke-97" stroke="#D5D5D5" stroke-width="2.3"></path>
                            <path d="M243.056976,118.156133 L263.553794,118.156133" id="Stroke-98" stroke="#D5D5D5" stroke-width="2.3"></path>
                            <path d="M189.587015,158.050805 C190.40867,159.508066 190.816824,161.217373 190.743748,162.907156 C190.731272,163.221328 190.708102,163.560349 190.873859,163.821272 C191.084174,164.156743 191.515498,164.234843 191.896917,164.273892 C194.673791,164.564989 197.477399,164.540139 200.247143,164.199343 C199.774825,161.00615 199.785519,157.733084 200.281007,154.543441" id="Fill-99" fill="#EDBE70"></path>
                            <path d="M286.599704,320.113227 L193.437209,319.953479" id="Stroke-100" stroke="#D5D5D5" stroke-width="2.3"></path>
                            <path d="M175.078476,319.918157 L155.098534,319.882657" id="Stroke-101" stroke="#D5D5D5" stroke-width="2.3"></path>
                            <path d="M0.000178233203,319.578425 L77.2999185,319.606825" id="Stroke-102" stroke="#D5D5D5" stroke-width="2.3"></path>
                            <path d="M136.54517,319.638242 L80.8651173,319.668417" id="Stroke-103" stroke="#D5D5D5" stroke-width="2.3"></path>
                            <path d="M137.399798,342.502317 C137.62259,341.565127 137.670713,340.580012 137.799041,339.573597 C138.014703,337.864289 137.683189,333.749881 137.898851,332.040573 L150.375175,333.815555 C149.876122,337.766665 150.029403,339.797245 149.599861,343.753679 C149.50718,344.593246 149.414498,345.441687 149.129325,346.236879 C148.901187,346.872323 148.555414,347.459842 148.157954,348.006536 C146.311458,350.544761 143.393781,352.167094 140.344211,352.939211 C137.414057,353.681154 134.341316,353.702453 131.330958,353.420231 C130.714271,353.363432 130.053026,353.274683 129.591402,352.862887 C129.072743,352.401392 125.04289,350.450686 124.939515,349.767318 C124.896739,349.497521 124.861092,349.199324 125.009026,348.970352 C125.155177,348.743154 125.436786,348.64908 125.695224,348.569206 C127.229812,348.088185 129.008579,348.020736 130.598419,347.745614 C131.400469,347.60539 132.209647,347.465167 132.977832,347.193595 C134.446474,346.677075 135.727971,345.66356 136.599531,344.382023 C137.005903,343.782079 137.246518,343.153736 137.399798,342.502317" id="Fill-104" fill="#EDBE70"></path>
                            <path d="M126.415108,347.788391 C125.523942,347.92329 124.557918,348.260536 124.13907,348.416735 C122.255145,349.121402 119.399849,350.175742 119.38559,352.540018 C119.378461,353.574832 119.92029,354.598997 120.782938,355.177641 C121.576076,355.710136 122.558141,355.857459 123.506342,355.988808 C127.233198,356.498228 131.042042,356.941973 134.736816,356.244405 C138.290786,355.571687 141.538195,353.901429 145.001266,352.926964 C145.91382,352.669591 149.143406,351.601052 149.904462,352.328795 C150.314398,352.721066 150.332221,354.421499 150.448073,355.001918 C150.6067,355.795335 151.40162,356.29233 152.187629,356.088207 L155.821804,355.143916 C156.910809,354.859919 157.539972,353.723931 157.199547,352.655392 L152.629647,338.304662 C152.251793,337.113649 150.964949,336.460456 149.774351,336.854502 C148.09183,337.140274 146.407526,337.426046 144.725005,337.710043 C143.308051,337.951441 141.892879,338.191063 140.475925,338.430686 C139.536636,338.590434 137.372885,338.508785 136.879179,339.367877 C136.713422,339.657199 136.635,339.98557 136.563706,340.310392 C136.430031,340.933411 136.319527,341.563529 136.232193,342.195423 C136.214369,342.333871 136.198328,342.48652 136.276751,342.605444 C136.488848,342.93204 138.779145,342.536219 139.185517,342.509595 L142.614724,342.285947 C143.914044,342.202523 145.43972,342.321447 146.70874,342.0197 C147.32008,341.875926 147.917161,342.310797 147.981325,342.93204 C148.694258,349.991144 139.711305,350.34614 130.225734,351.150207 C129.555577,351.205231 128.935325,350.775686 128.749963,350.131367 C128.568165,349.506574 128.443402,348.83208 128.201004,348.230362 C127.992472,347.713842 127.23498,347.665917 126.415108,347.788391" id="Fill-105" fill="#00AEEF"></path>
                            <path d="M176.499707,343.766104 C176.626253,342.839564 176.665464,341.863324 176.745669,340.819634 C176.875779,339.101452 177.856062,335.157442 177.986172,333.441034 L189.587371,333.81733 C189.284375,337.78619 188.972467,340.438013 188.738981,344.410423 C188.689076,345.253539 188.639171,346.107306 188.393209,346.914922 C188.197152,347.561016 187.879897,348.166285 187.510955,348.730729 C185.794569,351.357702 182.960661,353.122034 179.952084,354.04325 C177.062924,354.928966 173.995531,355.101139 170.974478,354.969791 C170.354226,354.941391 169.691199,354.886366 169.208187,354.497645 C168.66814,354.062775 168.497036,353.327932 168.359797,352.649889 C168.304545,352.381867 168.254639,352.08722 168.390096,351.851147 C168.523771,351.61685 168.800033,351.510351 169.053124,351.418052 C171.027948,350.688534 172.954649,349.706969 174.426855,348.208884 C175.80638,346.806648 176.282263,345.358263 176.499707,343.766104" id="Fill-106" fill="#EDBE70"></path>
                            <path d="M167.954495,350.720306 C166.004623,351.81192 163.789185,352.600012 162.170827,354.193946 C161.060434,355.28556 160.310072,357.025042 160.876854,358.560402 C161.570181,360.438333 164.232985,360.395733 165.961847,360.576781 C170.849002,361.089751 176.277985,360.422358 180.658957,358.093581 C182.027788,357.365839 183.343149,356.508522 184.678116,355.72043 C186.273303,354.77969 187.86849,353.837175 189.463678,352.896434 L190.146311,355.605057 C190.345932,356.387824 191.164022,356.845769 191.939337,356.602596 L195.520042,355.480808 C196.594788,355.143561 191.495536,338.819052 191.495536,338.819052 C191.057082,337.647564 189.741721,337.060045 188.570729,337.512665 C186.615511,337.826837 184.660293,338.141009 182.705074,338.453406 C181.250692,338.687703 179.796309,338.922001 178.341926,339.154524 C177.867825,339.230848 176.933883,339.205998 176.598805,339.557445 C175.967859,340.217738 175.946471,342.186193 176.081929,343.025759 C179.27765,343.155333 182.557141,342.894411 185.767121,342.823411 C186.369549,342.649463 186.988018,343.052384 187.082482,343.670078 C188.146534,350.684807 181.485959,353.473303 172.052076,354.742415 C171.385484,354.832939 170.743844,354.431794 170.5264,353.798125 L169.697615,351.384149 C169.451653,350.668832 168.61574,350.35111 167.954495,350.720306" id="Fill-107" fill="#00AEEF"></path>
                            <g id="Group-110" transform="translate(218.994955, 267.250260)">
                                <polyline id="Fill-108" points="0.000538337023 3.55432288 21.3885227 74.5536019 23.1708548 74.5536019 5.34753444 0.00435893343"></polyline>
                                <polyline id="Stroke-109" stroke="#D5D5D5" stroke-width="2.3" points="0.000538337023 3.55432288 21.3885227 74.5536019 23.1708548 74.5536019 5.34753444 0.00435893343"></polyline>
                            </g>
                            <path d="M181.049466,264.521147 L180.05136,273.751053 C175.898527,272.490816 171.977396,270.715834 168.394909,268.514856 L169.428661,264.521147 L181.049466,264.521147 Z" id="Stroke-111" stroke="#D5D5D5" stroke-width="2.3"></path>
                            <path d="M245.730474,229.979997 C245.730474,252.682017 227.99627,271.567825 204.629897,275.401786 L207.356865,264.521147 L207.410335,264.521147 C214.076257,264.521147 220.350066,260.793684 223.576087,255.007243 C226.962518,248.936805 226.606051,222.897819 224.752426,221.974829 C222.863154,221.016338 218.086504,221.88608 215.983352,221.86833 C202.669332,221.690832 189.373135,221.531083 176.059115,221.353585 C173.849023,226.288035 169.339723,229.908998 164.456133,232.287474 C159.483427,234.701449 153.940374,234.381953 149.484544,237.949666 C148.629025,238.641909 147.844799,239.405152 147.167512,240.239393 C146.34764,236.937927 145.91988,233.512212 145.91988,229.979997 C145.91988,226.625281 146.311993,223.359315 147.042749,220.217597 L155.544473,220.217597 L155.277123,203.08902 C164.33137,191.427389 179.124726,183.830466 195.825177,183.830466 C223.38003,183.830466 245.730474,204.491256 245.730474,229.979997 Z" id="Stroke-112" stroke="#D5D5D5" stroke-width="2.3"></path>
                            <polygon id="Stroke-113" stroke="#D5D5D5" stroke-width="2.3" points="88.885255 221.992579 78.406925 341.803862 74.8422609 341.803862 83.5881642 221.992579"></polygon>
                            <path d="M221.668992,214.892651 C221.645821,211.52906 220.667321,208.639389 220.326895,205.330823 L219.08461,193.253845 C218.255826,185.202527 217.428824,177.151209 216.600039,169.099891 C216.190103,165.122156 213.609286,163.409298 209.855695,162.654931 C205.859706,161.854414 202.068686,162.154386 198.195679,163.21405 C196.95874,163.553072 195.670114,163.657796 194.388617,163.71992 C191.137644,163.876119 187.712002,164.665986 184.67669,163.569047 C181.288477,162.347859 154.817282,172.649855 154.598055,175.172104 C154.216636,179.568734 154.902834,184.865281 154.476856,189.334685 C154.455468,189.565433 154.535673,189.81038 154.688954,189.984329 C154.934915,190.263001 155.368022,190.243476 155.736965,190.200876 C159.918316,189.719856 164.229777,189.198012 168.437863,188.995664 C169.53578,188.940639 170.819059,188.995664 171.46248,189.934629 C171.916975,190.602022 171.881328,191.494838 171.915193,192.316655 C172.228883,200.284549 176.497568,206.653184 175.870188,214.96365 C175.743642,216.641008 175.929005,216.332161 176.05555,218.007744 C176.094761,218.549113 176.148231,219.122433 176.479745,219.551978 C176.813041,219.979749 177.534886,220.148372 177.894917,219.743676 L221.668992,214.892651 Z" id="Fill-114" fill="#00AEEF"></path>
                            <path d="M223.451324,202.467777 L225.472488,210.455196 C219.236108,210.666419 213.001511,210.877641 206.765131,211.088864 C201.608844,211.264587 196.452558,211.438536 191.296271,211.612484 C188.936464,211.692358 186.576656,211.813057 184.215066,211.853881 C183.282906,211.868081 182.234895,211.937306 181.459581,211.481135 C180.621885,210.98769 179.830529,210.716118 178.83777,210.623819 C177.602614,210.508445 176.267648,210.604294 175.274889,211.308962 C173.799118,212.356201 173.56385,214.386781 173.546027,216.000239 C173.538897,216.688932 173.572762,217.3865 173.786641,218.045019 C173.998739,218.703537 174.41224,219.324781 175.028927,219.688652 C175.863058,220.182097 176.918199,220.139497 177.898481,220.080923 C180.561285,219.921175 183.197355,219.88745 185.858376,219.789826 C188.200361,219.702852 190.553039,219.450804 192.896805,219.466779 L221.301831,219.663802 L235.786844,219.764976 C237.836525,219.779176 239.426366,218.075193 239.164363,216.147563 L234.829731,199.805304" id="Fill-115" fill="#EDBE70"></path>
                            <path d="M223.57573,255.007421 C220.349709,260.793862 214.075901,264.521324 207.409979,264.521324 L207.356509,264.521324 L204.629541,275.401964 L193.436496,319.954011 L190.174828,332.929129 L173.688257,332.929129 L175.078476,319.918512 L180.051182,273.75123 L181.049288,264.521324 L169.428483,264.521324 L168.394731,268.515034 L155.098534,319.883012 L151.712103,332.929129 L135.225531,332.929129 L136.544457,319.847512 L143.459905,250.836213 L143.459905,250.392468 C143.459905,246.682755 144.814478,243.079542 147.167156,240.239571 C147.844442,239.405329 148.628668,238.642087 149.484188,237.949844 C153.940018,234.38213 159.48307,234.701627 164.455777,232.287651 C169.339367,229.909176 173.848667,226.288212 176.058758,221.353763 C189.372779,221.531261 202.668976,221.691009 215.982996,221.868507 C218.086148,221.886257 222.862797,221.016516 224.752069,221.975006 C226.605695,222.897997 226.962161,248.936982 223.57573,255.007421 Z" id="Stroke-116" stroke="#1A4175" stroke-width="2.3"></path>
                            <polygon id="Fill-117" fill="#FFFFFF" points="79.0820723 227.316814 287.61492 227.316814 287.61492 220.216887 79.0820723 220.216887"></polygon>
                            <polygon id="Stroke-118" stroke="#D5D5D5" stroke-width="2.3" points="79.0820723 227.316814 287.61492 227.316814 287.61492 220.216887 79.0820723 220.216887"></polygon>
                            <path d="M122.749564,203.355268 C119.790892,203.355268 117.402568,200.976792 117.402568,198.030322 C117.402568,195.083852 119.790892,192.705376 122.749564,192.705376 C125.708235,192.705376 128.09656,195.083852 128.09656,198.030322 C128.09656,200.976792 125.708235,203.355268 122.749564,203.355268 Z M155.277123,203.08902 L154.83154,174.955556 L90.667587,176.730538 L92.7172689,220.217597 L155.544473,220.217597 L155.277123,203.08902 Z" id="Stroke-119" stroke="#D5D5D5" stroke-width="2.3"></path>
                            <path d="M128.09656,198.030322 C128.09656,200.976792 125.708235,203.355268 122.749564,203.355268 C119.790892,203.355268 117.402568,200.976792 117.402568,198.030322 C117.402568,195.083852 119.790892,192.705376 122.749564,192.705376 C125.708235,192.705376 128.09656,195.083852 128.09656,198.030322 Z" id="Stroke-120" stroke="#C2E3ED" stroke-width="2.3"></path>
                            <path d="M128.09656,198.030322 C128.09656,200.976792 125.708235,203.355268 122.749564,203.355268 C119.790892,203.355268 117.402568,200.976792 117.402568,198.030322 C117.402568,195.083852 119.790892,192.705376 122.749564,192.705376 C125.708235,192.705376 128.09656,195.083852 128.09656,198.030322 Z" id="Stroke-121" stroke="#D5D5D5" stroke-width="2.3"></path>
                            <path d="M231.349015,177.118727 C233.651788,180.501842 235.453726,184.554126 236.804733,188.388087 C237.610347,190.676039 238.018501,193.232013 238.391009,195.630014 C238.489037,196.261907 239.422979,202.89324 239.082554,202.967789 C234.065289,204.084253 228.946431,204.703722 223.815098,204.815545 C221.629958,204.861695 221.437467,201.789201 220.842168,200.071019 C220.253998,198.372361 219.555324,196.680803 219.072312,194.946646 C217.780121,190.306843 217.165217,185.462917 217.270374,180.631416 C217.352362,176.909279 217.876367,173.568763 214.73768,171.149462 C212.563235,169.473879 210.338885,167.869296 208.068194,166.339261 C206.565688,165.323972 203.002806,164.264307 204.027647,161.947956 C204.626511,160.59897 207.822232,161.142114 208.962925,161.291212 C210.944878,161.548585 212.876926,162.166279 214.696687,163.016495 C217.883496,164.50748 220.729881,166.681833 223.463978,168.95026 C226.130347,171.163662 228.737899,173.504863 230.798274,176.337735 C230.985419,176.593332 231.168999,176.854254 231.349015,177.118727" id="Fill-122" fill="#00AEEF"></path>
                            <path d="M186.40876,151.97096 C186.267956,153.763691 186.004171,155.552873 186.333902,157.33318 C186.651158,159.046038 187.640352,160.725171 189.182069,161.328665 C189.991248,161.646386 190.875284,161.646386 191.736151,161.642836 C194.965737,161.628637 198.539312,161.633961 201.123694,159.28211 C202.670758,157.87455 204.554683,156.177667 205.925296,154.587283 C207.841303,152.363231 208.028448,148.832791 208.470466,146.01412 L192.876843,134.183865 L188.422796,135.367778 C188.422796,135.367778 185.080923,140.098105 185.080923,140.09988 C184.364426,141.11517 186.177057,147.398606 186.371331,148.699668 C186.535306,149.791282 186.494312,150.881121 186.40876,151.97096" id="Fill-123" fill="#EDBE70"></path>
                            <path d="M194.765937,144.857187 C197.156044,145.769528 199.760031,146.00205 202.31946,145.920401 C203.130421,145.892001 203.977029,145.842302 204.716697,146.177773 C206.016017,146.765292 206.418824,148.483475 205.762926,149.669163 C204.814725,151.390896 203.392424,152.597883 202.90763,154.628463 C202.611763,155.8745 202.668797,157.172012 202.725832,158.449999 L203.073387,166.151646 C203.119727,167.17936 203.25162,168.366823 204.117833,168.929492 C204.821854,169.385663 205.803919,169.266739 206.466947,169.781484 C206.933918,170.145355 207.137104,170.743524 207.51674,171.196144 C208.213632,172.026836 209.546817,172.239834 210.471847,171.666515 C211.707003,170.495027 212.309431,168.695195 212.02604,167.017837 C211.913754,166.355769 211.694527,165.594301 212.116939,165.068907 C212.364684,164.76361 212.763926,164.635811 213.099004,164.431688 C214.200486,163.75897 214.530217,162.307035 214.467835,161.021948 C214.405454,159.738636 214.057899,158.457099 214.227221,157.182662 C214.351984,156.247246 214.749444,155.370405 214.954412,154.449189 C215.230673,153.206702 215.137992,151.88789 214.710233,150.691553 C214.243262,149.386941 213.467947,149.108269 212.476971,148.245627 C210.350648,146.397871 210.512841,143.133679 209.669798,140.451682 C208.851707,137.844233 207.008776,135.70183 205.210403,133.639301 C204.345972,132.647086 203.442329,131.624696 202.244602,131.072677 C201.303531,130.637806 200.246608,130.525982 199.209291,130.483383 C197.485776,130.412384 195.756914,130.511783 194.045875,130.744305 C192.441776,130.960853 190.83946,131.296325 189.360124,131.945968 C186.729402,133.101481 184.686849,135.135611 183.387529,137.673835 C182.808271,138.806273 182.041869,140.023911 181.63015,141.209599 C181.15605,142.576335 181.186349,144.086845 180.476981,145.379032 C179.940499,146.355272 179.022598,147.088339 178.546716,148.094754 C177.402458,150.519379 179.218655,153.43745 178.525328,156.027148 C178.320359,156.795716 177.903294,157.489734 177.630597,158.237001 C177.3579,158.982493 177.243831,159.85401 177.637726,160.546253 C177.830218,160.885274 178.131432,161.155071 178.325706,161.494093 C178.755248,162.236035 178.61088,163.160801 178.487899,164.009242 C178.163514,166.261694 178.090439,168.549646 178.268672,170.818073 C178.302536,171.244069 178.348877,171.680714 178.548498,172.058786 C178.913876,172.747479 179.739096,173.098925 180.521539,173.11845 C181.305766,173.137975 182.066821,172.882377 182.810054,172.63033 C183.576457,172.369407 184.3589,172.101385 184.998758,171.60439 C185.636832,171.110945 186.119844,170.337053 186.048551,169.534761 C186.011122,169.091016 185.811501,168.656145 185.881012,168.217725 C186.007557,167.418983 186.85773,166.70899 187.22489,165.997222 C187.690079,165.095531 187.720379,164.028767 187.588486,163.041877 C187.406688,161.701766 186.980711,160.359879 187.17855,159.021543 C187.360347,157.791481 188.062586,156.490419 188.069716,155.278106 C188.076845,154.303641 187.604527,153.3984 187.403123,152.445235 C187.228455,151.621643 187.256972,150.769652 187.28549,149.926535 C187.351436,148.027305 187.417382,146.128074 187.483328,144.228843 C187.51541,143.291653 187.453029,140.171234 189.108815,140.529781 C190.040975,140.733904 190.659444,142.308313 191.352771,142.886957 C192.365136,143.730073 193.534346,144.386817 194.765937,144.857187" id="Fill-124" fill="#242221"></path>
                            <path d="M420.797543,391.503357 L422.276878,392.17785 C422.294702,392.17785 422.312525,392.1956 422.330348,392.1956 L439.084269,399.774773 C439.102093,399.774773 439.119916,399.792523 439.119916,399.792523 L440.403195,400.378267 L443.967859,396.828303 L424.950376,387.349899 L420.797543,391.503357 Z" id="Fill-125" fill="#1A4175"></path>
                            <polygon id="Fill-126" fill="#1A4175" points="546.451951 390.615866 550.016615 394.16583 552.494057 391.361359 561.726537 380.853465 562.492939 379.965974 558.928275 376.41601 553.723866 382.3267"></polygon>
                            <path d="M422.579875,386.178411 L424.950376,387.349899 L443.967859,396.828303 L451.097187,400.378267 C460.846544,372.954795 471.059306,348.797291 482.145411,330.852223 C483.107871,329.272489 484.088153,327.763754 485.068436,326.290519 C485.834839,327.817004 486.619065,329.343488 487.421114,330.852223 C500.770781,355.968218 519.271388,377.285751 540.213789,396.828303 L553.723866,382.3267 L563.384105,371.978555 C553.509986,362.091906 544.812206,352.081007 537.575938,341.910361 C536.399598,340.295127 535.276729,338.679894 534.20733,337.06466 C532.817111,334.970181 531.498185,332.875702 530.23273,330.763474 C524.44015,321.143072 520.019967,311.362921 517.168236,301.423022 L451.097187,309.854186 L443.21928,330.923222 L422.579875,386.178411 Z" id="Stroke-127" stroke="#1A4175" stroke-width="2.3"></path>
                            <path d="M477.832168,309.854186 C479.98879,315.516379 482.412761,320.983323 485.068436,326.290519" id="Stroke-128" stroke="#1A4175" stroke-width="2.3"></path>
                            <path d="M517.043473,300.979276 C517.079119,301.121275 517.132589,301.281023 517.168236,301.423022" id="Stroke-129" stroke="#1A4175" stroke-width="2.3"></path>
                            <path d="M421.84894,392.104011 C413.7928,393.513347 404.325052,393.618071 394.171106,393.085576 C392.770193,393.135275 392.376298,395.022081 393.639971,395.6238 C397.325834,397.379257 401.009914,399.13294 404.693995,400.888397 C409.281717,403.0734 413.86944,405.258402 418.457163,407.443405 C421.998656,409.131413 427.919563,413.32747 431.774747,410.40585 C432.979604,409.491734 433.981275,407.841001 434.966904,406.694363 C436.465845,404.95488 437.963004,403.213623 439.460163,401.474141 C439.932481,400.925671 439.745336,400.08078 439.084091,399.780808 L422.337299,392.201635 C422.184019,392.130636 422.01648,392.098686 421.84894,392.104011" id="Fill-130" fill="#272223"></path>
                            <path d="M563.322258,380.791873 C564.940616,382.403557 566.558973,384.015241 568.177331,385.626924 C569.385752,386.830362 570.672596,387.989425 571.823982,389.244338 C575.836012,393.612568 568.685296,398.649967 565.99041,401.331965 C563.700113,403.612817 561.411599,405.893668 559.121302,408.17452 C558.255089,409.035387 557.481556,410.219299 556.417504,410.805044 C553.252082,412.546301 548.680401,411.916182 545.192377,411.916182 L538.059484,411.916182 C536.938397,411.916182 536.539155,410.437622 537.510526,409.878503 C541.481562,407.588776 546.470309,405.542222 549.557308,402.095207 C552.013362,399.351085 551.776312,395.40175 552.221895,391.936985 C552.250412,391.722212 552.341311,391.518089 552.48568,391.356566 L561.721724,380.845123 C562.13879,380.369428 562.873111,380.344578 563.322258,380.791873" id="Fill-131" fill="#242223"></path>
                            <path d="M452.682037,255.910532 C452.815712,264.483695 452.812147,273.042658 451.653631,281.503997 C450.921093,286.855567 450.316882,292.223113 449.566521,297.574683 C449.174407,300.382705 448.766253,303.188951 448.292153,305.984548 C448.101444,307.104562 447.903605,308.2228 447.673684,309.333939 C447.523968,310.058132 446.729048,311.488767 447.336823,312.168585 C447.707548,312.582156 448.265418,312.330109 448.773383,312.264434 C449.495227,312.168585 450.222419,312.092261 450.946046,312.007062 C453.008204,311.762114 455.070362,311.517167 457.13252,311.272219 C462.953616,310.583526 468.772931,309.893058 474.594027,309.20259 C481.236778,308.416273 487.877748,307.628181 494.518717,306.840089 C500.252479,306.160271 505.988023,305.480453 511.721786,304.800635 C514.821261,304.433214 517.918954,304.065793 521.018429,303.698371 C521.178839,303.680621 521.339249,303.661097 521.499659,303.641572 L515.261497,240.629712 C514.619857,234.541524 513.996041,228.435586 513.354402,222.347397 C512.285002,211.910503 512.178063,200.976614 508.007406,191.196464 C507.187533,189.279483 506.242897,187.398002 504.959618,185.747269 C501.394954,181.114566 496.422247,177.7776 491.823831,174.245386 C490.718785,173.393395 489.791972,172.931899 488.847336,172.701152 C487.474941,172.346155 486.049075,172.523653 483.98157,172.772151 C483.55381,172.8254 483.108227,172.87865 482.680467,172.967399 C481.218955,173.180397 479.757443,173.464394 478.278107,173.81939 C477.529528,173.979139 476.780948,174.192136 476.032369,174.422884 C475.337259,174.618132 474.64215,174.83113 473.94704,175.061878 C463.598821,178.539067 460.084062,190.807743 458.319553,200.690842 C456.510486,210.817115 453.428834,221.429732 452.8068,231.538254 C452.307747,239.630397 452.557274,247.775789 452.682037,255.910532" id="Fill-132" fill="#00AEEF"></path>
                            <path d="M480.358623,151.540171 C477.943564,149.72614 475.00628,148.833324 472.072562,148.382479 C469.889205,148.047007 467.372552,148.057657 465.837964,149.727915 C464.613502,151.060926 464.383581,153.091506 464.486957,154.944587 C464.720442,159.142419 466.313847,163.221328 466.075015,167.41916 C465.989463,168.920795 465.789841,170.734827 466.932316,171.634742 C467.247789,171.881465 467.627426,172.018139 467.999933,172.145937 C472.129596,173.565923 476.364417,174.638012 480.654491,175.34978 C482.720213,175.690576 484.930305,175.928424 486.817795,174.982358 C491.184508,172.790256 488.131373,166.597344 487.133268,163.027855 C485.910588,158.647199 483.983887,154.264769 480.358623,151.540171" id="Fill-133" fill="#E6BE6F"></path>
                            <path d="M478.126431,155.692564 C475.522444,154.929322 474.187477,151.040337 471.490809,150.992412 C469.628272,150.958687 468.250529,152.825968 466.530579,153.603411 C464.455944,154.542376 461.880474,153.697485 460.459956,151.803579 C459.039437,149.907898 458.759611,147.153126 459.559878,144.868724 C459.679294,144.527928 459.827228,144.187131 460.082101,143.951059 C460.329845,143.723861 460.648883,143.620912 460.953662,143.507313 C461.971373,143.125692 462.93205,142.566573 463.976497,142.2879 C465.181353,141.966629 466.43968,142.028753 467.6784,142.092652 C470.091678,142.218676 472.503173,142.3447 474.916451,142.470724 C475.613343,142.507998 476.324493,142.547048 476.982174,142.799095 C477.884034,143.146992 478.616572,143.864084 479.352675,144.527928 C481.05302,146.061512 483.548285,147.891519 484.758488,149.911448 C486.171878,152.268624 485.909875,155.944612 485.902745,158.649684 C485.900963,159.008231 485.893834,159.389852 485.717383,159.693374 C485.542714,159.998671 485.130996,160.170844 484.870775,159.948971 C484.505397,159.412927 484.728189,158.655009 484.633725,157.994716 C484.52322,157.219049 483.956439,156.594255 483.30767,156.251684 C481.662578,155.385492 479.869552,156.201984 478.126431,155.692564" id="Fill-134" fill="#242221"></path>
                            <path d="M479.356953,162.826217 C479.463893,164.288802 479.401511,165.96616 478.289336,166.9282 C477.369653,167.725167 476.002604,167.758892 474.812006,167.499744 C473.619626,167.240597 472.484281,166.734727 471.274077,166.589179 C469.857123,166.41878 468.383135,166.770227 467.197884,167.560094 C466.378011,168.106788 465.654384,168.960555 465.67399,169.94212 C465.704289,171.502329 467.452757,172.39337 468.96061,172.81049 C472.851441,173.884355 476.97041,174.136402 480.962834,173.541783 C481.64725,173.440609 482.370876,173.293286 482.877059,172.822915 C483.454534,172.285096 483.620291,171.447304 483.698714,170.664537 C484.181726,165.877411 482.558021,161.155959 480.959269,156.615555 C480.576068,155.529266 480.087709,154.325828 479.021874,153.880308 C477.934652,153.425912 479.312395,162.229823 479.356953,162.826217" id="Fill-135" fill="#242221"></path>
                            <path d="M498.841585,232.031522 C499.064376,240.187564 498.372832,247.566164 495.465848,253.073933 C491.484118,258.086482 486.368825,262.373063 481.617128,266.645445 C475.289849,272.328937 468.812855,277.858006 462.20575,283.245076 C460.574916,284.574538 458.938735,285.898675 457.282949,287.196186 C455.801831,288.357025 454.35636,289.581762 452.584722,290.274005 C448.421194,291.899889 444.116862,292.966653 440.311583,295.377078 C439.409723,295.961047 438.445482,296.562766 437.381429,296.630216 C437.11408,296.631991 436.836036,296.601816 436.63285,296.433193 C436.214002,296.063996 436.426099,295.414353 436.773654,294.922683 C436.830689,294.839259 436.887723,294.75406 436.964364,294.67951 C437.360041,294.239315 437.769978,293.793794 437.957123,293.2187 C438.147832,292.659581 438.00881,291.954913 437.513322,291.660266 C436.814648,291.246695 435.962693,291.780965 435.358482,292.302809 C434.244525,293.2187 433.118091,294.154116 432.004134,295.070006 C431.8865,295.17473 431.768866,295.277679 431.651232,295.380628 C431.396358,295.577651 431.170002,295.765799 430.934734,295.971697 C430.403599,296.406568 429.589074,296.844988 429.098932,296.347993 C428.774548,296.017847 428.876141,295.487127 428.958128,295.061131 L429.049027,294.71501 C429.41797,293.321649 429.633632,291.486318 430.564009,290.336129 C431.522904,289.150442 433.137697,288.241651 434.456622,287.517458 C437.3743,285.918199 440.577151,284.941959 443.683755,283.788221 C444.858312,283.351575 446.036434,282.87943 447.05771,282.155238 C447.952441,281.521569 448.706367,280.708627 449.412171,279.869061 C450.456617,278.628348 455.081769,273.163179 456.381089,271.720119 C458.938735,268.878372 461.499946,266.040176 464.055811,263.19843 C467.643645,259.208271 471.229697,255.218111 474.817531,251.227952 L477.630051,233.692905 L498.841585,232.031522 Z" id="Fill-136" fill="#EBBC6F"></path>
                            <polygon id="Stroke-137" stroke="#D5D5D5" stroke-width="2.3" points="278.028291 227.317524 288.506621 347.128808 292.071285 347.128808 283.325382 227.317524"></polygon>
                            <path d="M273.968317,209.118812 C271.932894,209.81993 269.89747,210.521048 267.862047,211.22039 C266.828295,211.577162 265.623438,212.130956 265.486199,213.21192 C265.844447,214.18461 267.063563,214.472157 268.097315,214.614156 C271.667326,215.111151 274.786407,215.561996 278.363548,215.17505 C282.140309,214.765029 285.963411,214.775679 289.738391,215.205225 C289.991482,215.233625 290.296261,215.244275 290.445976,215.040152 C290.529746,214.928328 290.538658,214.781004 290.547569,214.644331 C290.695503,212.058182 290.841654,209.472033 290.989588,206.885884 C287.219956,206.658687 285.188097,204.679582 282.063669,203.240071 C279.680691,202.143133 275.868283,202.686277 273.561945,203.728192 C271.41067,204.697332 270.40187,205.522698 272.262625,206.84151 C272.758113,207.192956 277.909053,207.760951 273.968317,209.118812" id="Fill-138" fill="#926036"></path>
                            <polygon id="Fill-139" fill="#00AEEF" points="318.705029 334.525371 302.96882 337.913811 302.664041 333.948502 316.133124 330.267189"></polygon>
                            <polygon id="Fill-140" fill="#00AEEF" points="362.984039 337.030048 349.764482 340.320864 348.017796 334.088903 361.331817 332.093823"></polygon>
                            <polygon id="Stroke-141" stroke="#1A4175" stroke-width="2.1321" points="351.967554 227 358.438022 256.246181 362.157749 331.269344 347.285971 334.561935 318.806087 245.954835"></polygon>
                            <polyline id="Stroke-142" stroke="#1A4175" stroke-width="2.1321" points="325.935415 269.029601 317.185948 290.387959 317.023755 329.378988 300.401727 334.432362 296.423562 281.896445 302.765099 247.729817"></polyline>
                            <path d="M347.873428,338.877094 C347.192577,339.349239 346.427956,340.26513 345.925339,340.650301 C344.652754,341.622991 343.351651,342.551307 342.136101,343.596771 C339.838675,345.568776 337.739088,347.821228 336.370257,350.542276 C335.755352,351.763463 335.388192,353.456796 336.448679,354.322987 C336.799799,354.612309 337.252511,354.743658 337.694529,354.853707 C348.014232,357.407906 357.524756,349.432912 365.548814,344.104416 C365.981921,343.818644 366.151243,343.270174 365.958751,342.790929 L363.329811,336.246571 C363.131972,335.749576 362.599055,335.470904 362.075049,335.586277 C362.075049,335.586277 348.812717,338.520323 348.431297,338.605522 C348.258411,338.644571 348.069484,338.742195 347.873428,338.877094" id="Fill-143" fill="#272223"></path>
                            <path d="M321.377636,343.968807 L310.516105,346.741329 C305.215449,348.093865 298.239402,351.223159 292.760513,350.000196 C291.685767,349.762348 290.512992,349.235179 290.206431,348.182615 C289.974728,347.396297 290.311589,346.562056 290.685878,345.830763 C294.255889,338.883484 304.372406,337.170626 311.334195,335.274946 C311.33776,335.273171 317.110733,333.700537 317.110733,333.700537 L318.795037,333.247916 C319.3939,333.088168 320.00524,333.452039 320.147827,334.053758 L322.172556,342.662421 C322.308013,343.241065 321.955112,343.821484 321.377636,343.968807" id="Fill-144" fill="#272223"></path>
                            <path d="M317.522452,160.373547 C314.955894,162.778647 312.417853,165.290247 310.653344,168.329016 C305.616474,177.012228 307.839042,187.860918 306.922923,197.846966 C306.8748,198.368811 306.810636,198.91373 306.516551,199.350376 C306.028193,200.072794 305.07108,200.284016 304.206649,200.408265 C302.253213,200.688712 300.280172,200.827161 298.308912,200.821836 C295.92237,200.814736 293.313036,200.662088 291.402376,202.087398 C289.962252,203.163037 289.238625,204.927369 288.652238,206.622477 C286.803959,211.968723 285.064403,218.15986 284.91647,223.818502 C284.903993,224.308398 284.918252,224.840892 285.221248,225.227838 C285.654355,225.772758 286.461751,225.790507 287.158643,225.765658 C292.573368,225.58106 298.002351,225.767433 303.392123,226.324777 C303.969599,226.383351 304.636191,226.502275 304.916017,227.00992 C305.126333,227.391541 305.038998,227.860136 304.94097,228.286132 C304.007028,232.352616 302.821777,236.112028 300.331859,239.521768 C298.825789,241.586072 296.849183,243.572277 296.662038,246.117601 C296.48024,248.597251 298.169891,250.936677 300.346118,252.15609 C305.661032,255.134509 313.900753,253.817473 319.623821,252.972581 C326.476888,251.964392 333.190933,249.992387 339.491476,247.116916 C342.560652,245.716455 345.58527,244.106546 348.989524,243.7622 C351.616681,243.499503 354.432766,242.851634 355.897843,240.279685 C357.188251,238.011258 356.487795,235.178387 355.708916,232.689862 C353.864202,226.804022 350.894837,221.061955 349.319255,215.138841 C348.028847,210.27894 349.121416,204.980619 350.511635,200.276917 C353.19761,191.197884 354.104817,180.677566 353.450701,171.227562 C353.049676,165.42692 351.925025,159.53398 348.930707,154.540956 C346.645757,150.73362 343.070399,147.359379 338.799932,145.907444 C334.057146,144.29221 332.183915,147.826199 328.785008,150.611146 C324.9423,153.758189 321.149497,156.974456 317.522452,160.373547" id="Fill-145" fill="#1A4175"></path>
                            <path d="M276.223323,206.482254 L276.586919,207.355545 C276.877439,208.051338 276.542361,208.857179 275.843687,209.146501 L256.983049,216.935122 C256.282593,217.224444 255.473414,216.890748 255.184676,216.19318 L254.82108,215.319889 C254.53056,214.624096 254.865639,213.818254 255.564313,213.528932 L274.42495,205.742086 C275.123624,205.452764 275.932803,205.786461 276.223323,206.482254" id="Fill-146" fill="#D5D5D5"></path>
                            <path d="M321.479585,134.001752 C321.189065,134.347874 320.891416,134.70642 320.750612,135.134191 C320.265817,136.602101 321.754065,138.029186 321.752282,139.573421 C321.7505,140.723609 320.923498,141.895097 321.392251,142.947661 C321.777235,143.808528 322.85911,144.136899 323.390245,144.916116 C324.056838,145.894131 323.666507,147.239568 324.026538,148.363131 C325.131584,151.799496 328.892304,149.43877 331.068532,150.638658 C331.328752,150.780657 331.56402,150.97413 331.840282,151.075304 C332.44271,151.293627 333.111084,151.050454 333.667172,150.736282 C335.388905,149.765367 336.63119,148.150133 337.82357,146.577499 C339.461533,144.420896 340.947998,142.592665 340.947998,139.729619 C341.322288,136.032331 341.368629,132.123821 339.68076,128.80993 C338.16756,125.84216 333.847187,122.581518 330.311041,124.083153 C326.896092,125.531538 323.803746,131.231005 321.479585,134.001752" id="Fill-147" fill="#856140"></path>
                            <path d="M335.874055,135.602608 C335.439166,136.348101 334.847432,137.035019 334.672764,137.87991 C334.496313,138.724802 334.982889,139.796891 335.84732,139.823515 C336.103976,139.83239 336.357067,139.747191 336.613723,139.740091 C337.588659,139.708142 338.257033,140.742956 338.442396,141.696121 C338.625976,142.651062 338.547553,143.678776 338.998483,144.541418 C339.0876,144.713591 339.210581,144.885764 339.395943,144.947888 C339.620517,145.024213 339.861132,144.917714 340.067883,144.800565 C341.301256,144.101222 342.286886,142.974108 342.810892,141.660622 C343.058636,141.037603 343.215481,140.35956 343.628982,139.82884 C344.534407,138.664452 346.288221,138.643152 347.73904,138.9307 C349.19164,139.220022 350.720881,139.702817 352.107536,139.189847 C353.542313,138.655577 354.403179,137.189442 354.89332,135.744607 C356.060748,132.310017 355.649029,128.208033 353.233969,125.494086 C350.820692,122.778364 346.263269,121.981397 343.409755,124.235624 C342.953478,124.595945 342.468684,125.048566 341.887644,124.997091 C339.285439,124.768118 337.654605,121.287379 334.432149,121.528776 C333.154217,121.624625 329.653717,122.946987 330.097517,124.775218 C330.400514,126.021256 334.617511,127.159019 335.615617,128.790228 C336.848991,130.803057 337.082476,133.525879 335.874055,135.602608" id="Fill-148" fill="#242122"></path>
                        </g>
                    </g>
                </g>
            </g>
        </g>
    </g>
</svg>