<?xml version="1.0" encoding="utf-8"?>

<svg width="82px" height="69px" viewBox="0 0 82 69" version="1.1" xmlns="http://www.w3.org/2000/svg" xmlns:xlink="http://www.w3.org/1999/xlink">
    <g id="Homepage" stroke="none" stroke-width="1" fill="none" fill-rule="evenodd" stroke-linecap="round">
        <g id="Services---3.8.19" transform="translate(-1215.000000, -2230.000000)" stroke-width="1.35">
            <g id="CTA" transform="translate(-210.000000, 2028.000000)">
                <g id="Icon-3" transform="translate(1425.000000, 202.000000)">
                    <path d="M79.1353,67.6169 L2.6853,67.6169 C1.5743,67.6169 0.6753,66.7169 0.6753,65.6069 L0.6753,2.6849 C0.6753,1.5749 1.5743,0.6749 2.6853,0.6749 L79.1353,0.6749 C80.2453,0.6749 81.1453,1.5749 81.1453,2.6849 L81.1453,65.6069 C81.1453,66.7169 80.2453,67.6169 79.1353,67.6169 Z" id="Stroke-1" stroke="#e50e38"></path>
                    <path d="M0.6753,14.1882 C1.3403,14.0782 81.1453,14.1882 81.1453,14.1882" id="Stroke-3" stroke="#e50e38"></path>
                    <path d="M5.2193,8.2028 L48.3343,8.2028" id="Stroke-5" stroke="black"></path>
                    <path d="M70.7857,5.2155 L75.6627,9.9825" id="Stroke-7" stroke="black"></path>
                    <path d="M70.7857,9.9821 L75.6627,5.2151" id="Stroke-9" stroke="black"></path>
                    <path d="M21.6206,28.1052 C21.6206,30.0032 20.0816,31.5422 18.1836,31.5422 C16.2866,31.5422 14.7476,30.0032 14.7476,28.1052 C14.7476,26.2082 16.2866,24.6682 18.1836,24.6682 C20.0816,24.6682 21.6206,26.2082 21.6206,28.1052 Z" id="Stroke-11" stroke="black"></path>
                    <path d="M26.2759,28.1052 L61.0819,28.1052" id="Stroke-13" stroke="#e50e38"></path>
                    <path d="M21.8423,37.9704 C21.8423,39.8684 20.3033,41.4074 18.4053,41.4074 C16.5083,41.4074 14.9693,39.8684 14.9693,37.9704 C14.9693,36.0734 16.5083,34.5344 18.4053,34.5344 C20.3033,34.5344 21.8423,36.0734 21.8423,37.9704 Z" id="Stroke-15" stroke="black"></path>
                    <path d="M26.4976,37.9704 L61.3036,37.9704" id="Stroke-17" stroke="#e50e38"></path>
                    <path d="M22.064,47.8356 C22.064,49.7336 20.525,51.2726 18.627,51.2726 C16.73,51.2726 15.191,49.7336 15.191,47.8356 C15.191,45.9386 16.73,44.3996 18.627,44.3996 C20.525,44.3996 22.064,45.9386 22.064,47.8356 Z" id="Stroke-19" stroke="black"></path>
                    <path d="M26.7193,47.8356 L61.5253,47.8356" id="Stroke-21" stroke="#e50e38"></path>
                    <path d="M51.3364,62.0525 L73.8594,62.0525 C74.8564,62.0525 75.6624,61.2445 75.6624,60.2495 L75.6624,35.7995" id="Stroke-23" stroke="black"></path>
                </g>
            </g>
        </g>
    </g>
</svg>