<?xml version="1.0" encoding="utf-8"?>

<svg width="379px" height="443px" viewBox="0 0 379 443" version="1.1" xmlns="http://www.w3.org/2000/svg" xmlns:xlink="http://www.w3.org/1999/xlink">
    <g id="Homepage" stroke="none" stroke-width="1" fill="none" fill-rule="evenodd">
        <g id="Quiz-Landing---3.8.19" transform="translate(-367.000000, -216.000000)">
            <g id="banner" transform="translate(0.000000, -739.000000)">
                <g id="illus" transform="translate(362.000000, 956.000000)">
                    <path d="M125.550002,1.19811285 L195.328303,1.19811285" id="Stroke-17" stroke="#D5D5D5" stroke-width="3.47139006"></path>
                    <path d="M140.400002,16.0481131 L195.741413,16.0481131" id="Stroke-19" stroke="#D5D5D5" stroke-width="3.47139006"></path>
                    <path d="M36.4500006,126.748115 L55.6991869,126.748115" id="Stroke-21" stroke="#D5D5D5" stroke-width="3.47139006"></path>
                    <path d="M364.500006,300.898118 L383.749193,300.898118" id="Stroke-21-Copy" stroke="#D5D5D5" stroke-width="3.47139006"></path>
                    <path d="M346,228.198113 L383.749193,228.198113" id="Stroke-21-Copy-2" stroke="#D5D5D5" stroke-width="3.47139006"></path>
                    <path d="M11.6544988,183.101327 L11.6544988,197.478681" id="Stroke-23" stroke="#D5D5D5" stroke-width="3.47139006"></path>
                    <path d="M20.0760178,190.290004 L5.63912811,190.290004" id="Stroke-25" stroke="#D5D5D5" stroke-width="3.47139006"></path>
                    <path d="M76.9500014,165.898116 L108.229929,165.898116" id="Stroke-31" stroke="#D5D5D5" stroke-width="3.47139006"></path>
                    <path d="M319.950006,107.848115 L364.476742,107.848115" id="Stroke-33" stroke="#D5D5D5" stroke-width="3.47139006"></path>
                    <path d="M336.150006,126.748115 L352.993044,126.748115" id="Stroke-35" stroke="#D5D5D5" stroke-width="3.47139006"></path>
                    <path d="M108.221949,68.0824931 L129.877284,68.0824931" id="Stroke-37" stroke="#D5D5D5" stroke-width="3.47139006"></path>
                    <path d="M5.51925887,315.808118 L29.5807418,315.808118" id="Stroke-39" stroke="#D5D5D5" stroke-width="3.47139006"></path>
                    <path d="M278.100005,33.5981134 L302.161488,33.5981134" id="Stroke-39-Copy" stroke="#D5D5D5" stroke-width="3.47139006"></path>
                    <path d="M16.3192591,329.308118 L28.3500005,329.308118" id="Stroke-41" stroke="#D5D5D5" stroke-width="3.47139006"></path>
                    <path d="M290.250005,48.4481137 L302.280747,48.4481137" id="Stroke-41-Copy" stroke="#D5D5D5" stroke-width="3.47139006"></path>
                    <path d="M215.295548,46.5164618 L215.295548,75.2711703" id="Stroke-43" stroke="#D5D5D5" stroke-width="3.47139006"></path>
                    <path d="M200.858658,60.893816 L229.732438,60.893816" id="Stroke-45" stroke="#D5D5D5" stroke-width="3.47139006"></path>
                    <path d="M128.67421,113.610782 L128.67421,130.384362" id="Stroke-47" stroke="#D5D5D5" stroke-width="3.47139006"></path>
                    <path d="M119.049617,120.799459 L138.298803,120.799459" id="Stroke-49" stroke="#D5D5D5" stroke-width="3.47139006"></path>
                    <path d="M354.852149,159.13907 L354.852149,173.516424" id="Stroke-71" stroke="#D5D5D5" stroke-width="3.47139006"></path>
                    <path d="M345.227556,166.327747 L364.476742,166.327747" id="Stroke-73" stroke="#D5D5D5" stroke-width="3.47139006"></path>
                    <path d="M304.323035,178.308876 L304.323035,192.68623" id="Stroke-91" stroke="#D5D5D5" stroke-width="3.10500005"></path>
                    <path d="M297.10459,185.497553 L311.54148,185.497553" id="Stroke-93" stroke="#D5D5D5" stroke-width="3.10500005"></path>
                    <path d="M214.092474,167.46859 C215.201708,169.435892 215.752716,171.743457 215.654064,174.024664 C215.637221,174.448796 215.605941,174.906475 215.829713,175.25872 C216.113638,175.711607 216.695926,175.817041 217.210842,175.869758 C220.959621,176.262739 224.744492,176.229191 228.483647,175.769116 C227.846018,171.458306 227.860454,167.039666 228.529364,162.733648" id="Fill-99" fill="#EDBE70"></path>
                    <path d="M345.059606,386.252863 L219.290235,386.037203" id="Stroke-100" stroke="#D5D5D5" stroke-width="3.10500005"></path>
                    <path d="M194.505946,385.989518 L167.533023,385.941594" id="Stroke-101" stroke="#D5D5D5" stroke-width="3.10500005"></path>
                    <path d="M13.1790918,386.145033 L62.5048911,385.56922" id="Stroke-102" stroke="#D5D5D5" stroke-width="3.10500005"></path>
                    <path d="M142.485982,385.611633 L67.3179095,385.652369" id="Stroke-103" stroke="#D5D5D5" stroke-width="3.10500005"></path>
                    <path d="M143.63973,416.478136 C143.940499,415.212928 144.005465,413.883023 144.178707,412.524363 C144.469851,410.216798 144.022308,404.662347 144.313452,402.354781 L161.15649,404.751007 C160.482768,410.085005 160.689697,412.826288 160.109815,418.167475 C159.984695,419.300889 159.859576,420.446285 159.474592,421.519794 C159.166605,422.377643 158.699812,423.170794 158.163241,423.908831 C155.670472,427.335434 151.731607,429.525585 147.614687,430.567943 C143.658979,431.569565 139.51078,431.59832 135.446795,431.21732 C134.614268,431.140641 133.721587,431.020829 133.098395,430.464905 C132.398205,429.841886 126.957904,427.208434 126.818347,426.285887 C126.7606,425.921661 126.712477,425.519095 126.912187,425.209982 C127.109491,424.903265 127.489663,424.776265 127.838554,424.668435 C129.910248,424.019058 132.311584,423.928001 134.457868,423.556586 C135.540635,423.367284 136.633026,423.177983 137.670076,422.81136 C139.652742,422.114058 141.382763,420.745814 142.55937,419.015739 C143.107971,418.205814 143.432801,417.35755 143.63973,416.478136" id="Fill-104" fill="#EDBE70"></path>
                    <path d="M128.810398,423.614335 C127.607324,423.796448 126.303191,424.251731 125.737746,424.462599 C123.194448,425.413901 119.339798,426.837259 119.320549,430.029032 C119.310924,431.426031 120.042393,432.808653 121.206969,433.589823 C122.277705,434.308691 123.603493,434.507577 124.883564,434.684898 C129.91482,435.372615 135.056759,435.971671 140.044704,435.029955 C144.842564,434.121785 149.226566,431.866937 153.901712,430.551409 C155.13366,430.203956 159.493601,428.761428 160.521026,429.743881 C161.07444,430.273447 161.098502,432.569031 161.254901,433.352597 C161.469048,434.42371 162.542191,435.094653 163.603302,434.819087 L168.509438,433.544295 C169.979595,433.160899 170.828965,431.627314 170.369391,430.184786 L164.200027,410.811301 C163.689923,409.203434 161.952684,408.321623 160.345377,408.853585 C158.073973,409.239377 155.800163,409.62517 153.528759,410.008566 C151.615871,410.334452 149.705389,410.657943 147.792501,410.981433 C146.524461,411.197094 143.603397,411.086867 142.936894,412.246641 C142.713122,412.637225 142.607252,413.080527 142.511006,413.519036 C142.330545,414.360112 142.181364,415.210772 142.063462,416.063828 C142.039401,416.250734 142.017746,416.456809 142.123616,416.617356 C142.409948,417.058262 145.501848,416.523903 146.05045,416.48796 L150.679879,416.186036 C152.433962,416.073413 154.493624,416.23396 156.206802,415.826602 C157.032111,415.632508 157.838171,416.219583 157.924792,417.058262 C158.887251,426.588051 146.760264,427.067297 133.954743,428.152787 C133.050031,428.22707 132.212691,427.647183 131.962452,426.777353 C131.717025,425.933882 131.548594,425.023316 131.221358,424.210996 C130.939839,423.513694 129.917226,423.448996 128.810398,423.614335" id="Fill-105" fill="#e50e38"></path>
                    <path d="M196.424608,418.184248 C196.595445,416.933418 196.64838,415.615494 196.756657,414.206514 C196.932306,411.886967 198.255687,406.562554 198.431336,404.245403 L214.092955,404.753403 C213.68391,410.111364 213.262834,413.691325 212.947629,419.054078 C212.880256,420.192285 212.812884,421.34487 212.480836,422.435153 C212.216159,423.307379 211.787865,424.124492 211.289792,424.886492 C208.972672,428.432906 205.146896,430.814754 201.085317,432.058395 C197.184951,433.254112 193.04397,433.486546 188.965549,433.309225 C188.128209,433.270885 187.233122,433.196602 186.581056,432.671829 C185.851993,432.084754 185.621002,431.092716 185.435729,430.177358 C185.361138,429.815528 185.293766,429.417754 185.476634,429.099056 C185.657095,428.782755 186.030048,428.638981 186.371721,428.514377 C189.037733,427.529529 191.638779,426.204416 193.626258,424.182001 C195.488617,422.288983 196.131058,420.333663 196.424608,418.184248" id="Fill-106" fill="#EDBE70"></path>
                    <path d="M184.888571,427.572421 C182.256245,429.0461 179.265402,430.110024 177.08062,432.261835 C175.581589,433.735513 174.568601,436.083815 175.333756,438.15655 C176.269748,440.691757 179.864533,440.634247 182.198497,440.878662 C188.796156,441.571172 196.125283,440.670191 202.039596,437.526343 C203.887518,436.54389 205.663255,435.386513 207.46546,434.322589 C209.618963,433.052589 211.772466,431.780193 213.925968,430.510194 L214.847523,434.166834 C215.117012,435.22357 216.221434,435.841796 217.268108,435.513513 L222.10206,433.999098 C223.552968,433.543815 216.668977,411.505728 216.668977,411.505728 C216.077065,409.924219 214.301328,409.131068 212.720488,409.742105 C210.080943,410.166237 207.441399,410.590369 204.801854,411.012105 C202.838437,411.328407 200.87502,411.644709 198.911603,411.958614 C198.271568,412.061652 197.010746,412.028105 196.55839,412.502557 C195.706614,413.393953 195.67774,416.051368 195.860607,417.184783 C200.174831,417.359707 204.602144,417.007462 208.935617,416.911613 C209.748895,416.676783 210.583828,417.220726 210.711354,418.054612 C212.147825,427.524496 203.156049,431.288967 190.420306,433.002268 C189.520406,433.124476 188.654193,432.582929 188.360643,431.727476 L187.241784,428.468609 C186.909735,427.50293 185.781252,427.074006 184.888571,427.572421" id="Fill-107" fill="#e50e38"></path>
                    <g id="Group-110" transform="translate(253.793194, 314.887856)">
                        <polyline id="Fill-108" points="0.000726754993 4.79833598 28.8745062 100.647364 31.2806545 100.647364 7.21917162 0.00588456023"></polyline>
                        <polyline id="Stroke-109" stroke="#D5D5D5" stroke-width="3.10500005" points="0.000726754993 4.79833598 28.8745062 100.647364 31.2806545 100.647364 7.21917162 0.00588456023"></polyline>
                    </g>
                    <path d="M202.566783,311.203553 L201.21934,323.663927 C195.613014,321.962607 190.319488,319.566381 185.48313,316.595061 L186.878696,311.203553 L202.566783,311.203553 Z" id="Stroke-111" stroke="#D5D5D5" stroke-width="3.10500005"></path>
                    <path d="M289.886145,264.573001 C289.886145,295.220728 265.944969,320.71657 234.400365,325.892417 L238.081772,311.203553 L238.153957,311.203553 C247.152951,311.203553 255.622593,306.171479 259.977722,298.359784 C264.549403,290.164692 264.068174,255.012061 261.56578,253.766023 C259.015262,252.472061 252.566785,253.646212 249.72753,253.62225 C231.753602,253.382627 213.803736,253.166967 195.829808,252.927344 C192.846185,259.588852 186.758629,264.477152 180.165783,267.688095 C173.452629,270.946962 165.969508,270.515641 159.954137,275.332055 C158.799186,276.266583 157.740481,277.29696 156.826145,278.423186 C155.719316,273.966206 155.141841,269.34149 155.141841,264.573001 C155.141841,260.044135 155.671193,255.635079 156.657714,251.39376 L168.135042,251.39376 L167.774119,228.270182 C179.997353,212.526979 199.968383,202.271133 222.513993,202.271133 C259.713045,202.271133 289.886145,230.1632 289.886145,264.573001 Z" id="Stroke-112" stroke="#D5D5D5" stroke-width="3.10500005"></path>
                    <polygon id="Stroke-113" stroke="#D5D5D5" stroke-width="3.10500005" points="78.1450956 253.789985 63.9993498 415.535221 59.1870533 415.535221 70.9940229 253.789985"></polygon>
                    <path d="M257.403143,244.205083 C257.371863,239.664235 256.050888,235.763179 255.591313,231.296615 L253.914228,214.992695 C252.795369,204.123415 251.678916,193.254135 250.560057,182.384856 C250.006643,177.014914 246.522541,174.702556 241.455192,173.68416 C236.060608,172.603462 230.94273,173.008424 225.71417,174.438971 C224.044303,174.89665 222.304658,175.038028 220.574637,175.121896 C216.185823,175.332763 211.561206,176.399084 207.463535,174.918216 C202.889447,173.269613 167.153333,187.177307 166.857377,190.582344 C166.342461,196.517795 167.268828,203.668132 166.693759,209.701829 C166.664885,210.013338 166.773162,210.344017 166.98009,210.578847 C167.312139,210.955055 167.896833,210.928696 168.394906,210.871187 C174.039729,210.22181 179.860202,209.517319 185.541118,209.24415 C187.023306,209.169867 188.755732,209.24415 189.624352,210.511753 C190.23792,211.412734 190.189797,212.618035 190.235514,213.727488 C190.658996,224.484145 196.421721,233.081803 195.574757,244.300932 C195.40392,246.565365 195.65416,246.148422 195.824996,248.410459 C195.877931,249.141308 195.950116,249.915289 196.397659,250.495175 C196.847609,251.072666 197.822099,251.300307 198.308141,250.753968 L257.403143,244.205083 Z" id="Fill-114" fill="#e50e38"></path>
                    <path d="M259.809291,227.431503 L262.537864,238.214518 C254.118751,238.499669 245.702044,238.78482 237.282931,239.069971 C230.321944,239.307197 223.360957,239.542027 216.39997,239.776858 C213.21423,239.884688 210.028489,240.047631 206.840343,240.102744 C205.581927,240.121914 204.167112,240.215367 203.120438,239.599537 C201.989548,238.933386 200.921218,238.566764 199.580994,238.44216 C197.913533,238.286405 196.111328,238.415801 194.771103,239.367103 C192.778812,240.780876 192.461201,243.522158 192.437139,245.700327 C192.427515,246.630063 192.473232,247.57178 192.761969,248.46078 C193.048301,249.349779 193.606527,250.188458 194.439055,250.679685 C195.565132,251.345835 196.989572,251.288326 198.312953,251.20925 C201.907739,250.99359 205.466432,250.948062 209.058812,250.816269 C212.220491,250.698854 215.396606,250.35859 218.560691,250.380156 L256.907477,250.646137 L276.462244,250.782722 C279.229314,250.801892 281.375598,248.501515 281.021895,245.899214 L275.170142,223.837164" id="Fill-115" fill="#EDBE70"></path>
                    <path d="M259.977241,298.360023 C255.622112,306.171719 247.15247,311.203793 238.153476,311.203793 L238.081291,311.203793 L234.399884,325.892657 L219.289273,386.037922 L214.886022,403.554332 L192.62915,403.554332 L194.505946,385.989997 L201.219099,323.664167 L202.566542,311.203793 L186.878456,311.203793 L185.48289,316.595301 L167.533023,385.942073 L162.961342,403.554332 L140.70447,403.554332 L142.48502,385.894148 L151.820875,292.728893 L151.820875,292.129836 C151.820875,287.121725 153.649548,282.257387 156.825663,278.423425 C157.74,277.297199 158.798705,276.266822 159.953656,275.332294 C165.969027,270.515881 173.452148,270.947201 180.165302,267.688334 C186.758148,264.477392 192.845703,259.589091 195.829327,252.927584 C213.803255,253.167206 231.753121,253.382867 249.727049,253.622489 C252.566304,253.646452 259.014781,252.472301 261.565298,253.766263 C264.067693,255.0123 264.548922,290.164931 259.977241,298.360023 Z" id="Stroke-116" stroke="#D5D5D5" stroke-width="3.10500005"></path>
                    <polygon id="Fill-117" fill="#1A4175" points="64.9107988 260.977704 346.430148 260.977704 346.430148 251.392801 64.9107988 251.392801"></polygon>
                    <polygon id="Stroke-118" stroke="#D5D5D5" stroke-width="3.10500005" points="64.9107988 260.977704 346.430148 260.977704 346.430148 251.392801 64.9107988 251.392801"></polygon>
                    <path d="M123.861913,228.629616 C119.867707,228.629616 116.643468,225.418673 116.643468,221.440938 C116.643468,217.463204 119.867707,214.252261 123.861913,214.252261 C127.856119,214.252261 131.080358,217.463204 131.080358,221.440938 C131.080358,225.418673 127.856119,228.629616 123.861913,228.629616 Z M167.774119,228.270182 L167.172582,190.290004 L80.5512439,192.68623 L83.3183144,251.39376 L168.135042,251.39376 L167.774119,228.270182 Z" id="Stroke-119" stroke="#D5D5D5" stroke-width="3.10500005"></path>
                    <path d="M131.080358,221.440938 C131.080358,225.418673 127.856119,228.629616 123.861913,228.629616 C119.867707,228.629616 116.643468,225.418673 116.643468,221.440938 C116.643468,217.463204 119.867707,214.252261 123.861913,214.252261 C127.856119,214.252261 131.080358,217.463204 131.080358,221.440938 Z" id="Stroke-120" stroke="#C2E3ED" stroke-width="3.10500005"></path>
                    <path d="M131.080358,221.440938 C131.080358,225.418673 127.856119,228.629616 123.861913,228.629616 C119.867707,228.629616 116.643468,225.418673 116.643468,221.440938 C116.643468,217.463204 119.867707,214.252261 123.861913,214.252261 C127.856119,214.252261 131.080358,217.463204 131.080358,221.440938 Z" id="Stroke-121" stroke="#D5D5D5" stroke-width="3.10500005"></path>
                    <path d="M270.471175,193.210285 C273.579919,197.777491 276.012535,203.248074 277.836395,208.423922 C278.923974,211.512656 279.474982,214.963221 279.977867,218.200522 C280.110205,219.053579 281.371027,228.005878 280.911452,228.106519 C274.138145,229.613745 267.227687,230.450028 260.300386,230.60099 C257.350448,230.663292 257.090584,226.515426 256.286931,224.195879 C255.492902,221.902691 254.549692,219.619088 253.897626,217.277976 C252.153168,211.014242 251.323047,204.474942 251.46501,197.952415 C251.575693,192.92753 252.2831,188.417833 248.045873,185.151777 C245.110372,182.88974 242.107499,180.723552 239.042066,178.658006 C237.013683,177.287365 232.203793,175.856818 233.587328,172.729743 C234.395794,170.908612 238.710018,171.641857 240.249953,171.84314 C242.925589,172.190593 245.533854,173.024479 247.990532,174.172271 C252.292725,176.185101 256.135344,179.120477 259.826375,182.182854 C263.425973,185.170947 266.946168,188.331569 269.727675,192.155945 C269.980321,192.501002 270.228154,192.853247 270.471175,193.210285" id="Fill-122" fill="#e50e38"></path>
                    <path d="M209.80183,159.260798 C209.611745,161.680986 209.255635,164.096382 209.700772,166.499796 C210.129066,168.812154 211.464479,171.078983 213.545797,171.8937 C214.638188,172.322625 215.831638,172.322625 216.993807,172.317832 C221.353748,172.298662 226.178076,172.305851 229.666991,169.130852 C231.755527,167.230645 234.298826,164.939853 236.149154,162.792835 C238.735763,159.790364 238.988409,155.024271 239.585134,151.219065 L218.533742,135.24822 L212.520778,136.846503 C212.520778,136.846503 208.00925,143.232445 208.00925,143.234841 C207.041978,144.605482 209.489031,153.088121 209.751301,154.844554 C209.972667,156.318233 209.917325,157.789516 209.80183,159.260798" id="Fill-123" fill="#EDBE70"></path>
                    <path d="M221.084019,149.657205 C224.310664,150.888865 227.826046,151.20277 231.281275,151.092544 C232.376073,151.054205 233.518993,150.98711 234.517545,151.439997 C236.271627,152.233148 236.815416,154.552694 235.929954,156.153373 C234.649883,158.477712 232.729777,160.107145 232.075304,162.848427 C231.675884,164.530578 231.75288,166.282219 231.829877,168.007501 L232.299076,178.404725 C232.361636,179.792139 232.539691,181.395214 233.709079,182.154818 C234.659508,182.770648 235.985295,182.610101 236.880382,183.305006 C237.510793,183.796233 237.785094,184.603761 238.297604,185.214798 C239.238408,186.336232 241.038207,186.623779 242.286998,185.849798 C243.954458,184.268289 244.767737,181.838516 244.385159,179.574083 C244.233572,178.680291 243.937615,177.65231 244.507873,176.943027 C244.842327,176.530876 245.381304,176.358348 245.83366,176.082782 C247.32066,175.174612 247.765797,173.2145 247.681582,171.479632 C247.597367,169.747161 247.128168,168.017086 247.356752,166.296596 C247.525183,165.033785 248.061754,163.85005 248.338461,162.606409 C248.711414,160.929051 248.586294,159.148655 248.008818,157.533599 C247.378407,155.772373 246.331733,155.396165 244.993915,154.2316 C242.12338,151.737129 242.342339,147.33047 241.204231,143.709773 C240.099809,140.189717 237.611852,137.297473 235.184048,134.513058 C234.017066,133.173568 232.797149,131.793342 231.180217,131.048116 C229.909771,130.461041 228.482925,130.310079 227.082547,130.252569 C224.755801,130.15672 222.421837,130.290909 220.111935,130.604814 C217.946402,130.897154 215.783274,131.350041 213.786171,132.227059 C210.234696,133.787002 207.47725,136.533077 205.723168,139.959679 C204.94117,141.488471 203.906526,143.132282 203.350706,144.732961 C202.710671,146.578055 202.751575,148.617243 201.793928,150.361695 C201.069678,151.679619 199.830511,152.669261 199.18807,154.027921 C197.643322,157.301165 200.095187,161.24056 199.159196,164.736653 C198.882489,165.774219 198.31945,166.711143 197.951309,167.719954 C197.583169,168.726369 197.429175,169.902916 197.960934,170.837444 C198.220798,171.295123 198.627437,171.659349 198.889707,172.117028 C199.469589,173.118651 199.274691,174.367084 199.108667,175.51248 C198.670748,178.553291 198.572096,181.642026 198.81271,184.704402 C198.858427,185.279496 198.920987,185.868968 199.190476,186.379364 C199.683736,187.309099 200.797783,187.783552 201.854082,187.809911 C202.912787,187.836269 203.940212,187.491213 204.943576,187.150949 C205.97822,186.798703 207.034519,186.436873 207.898326,185.76593 C208.759727,185.099779 209.411794,184.055025 209.315548,182.971931 C209.265019,182.372874 208.99553,181.785799 209.08937,181.193931 C209.260206,180.11563 210.407939,179.15714 210.903606,178.196253 C211.53161,176.97897 211.572515,175.538839 211.39446,174.206537 C211.149033,172.397387 210.573963,170.58584 210.841046,168.779086 C211.086473,167.118502 212.034495,165.362068 212.04412,163.725446 C212.053744,162.409918 211.416115,161.187843 211.14422,159.90107 C210.908418,158.789221 210.946916,157.639033 210.985415,156.500826 C211.074442,153.936864 211.16347,151.372903 211.252497,148.808941 C211.295808,147.543734 211.211593,143.331169 213.446904,143.815207 C214.70532,144.090773 215.540253,146.216225 216.476245,146.997394 C217.842937,148.135602 219.421371,149.022205 221.084019,149.657205" id="Fill-124" fill="#242221"></path>
                    <polygon id="Stroke-137" stroke="#D5D5D5" stroke-width="3.10500005" points="333.488199 260.978663 347.633944 422.723898 352.446241 422.723898 340.639271 260.978663"></polygon>
                    <text id="?" font-family="Roboto-Light, Roboto" font-size="62.1000011" font-weight="300" letter-spacing="4.52812422" fill="#D5D5D5">
                        <tspan x="264.483056" y="159.250002">?</tspan>
                    </text>
                    <text id="?-copy" font-family="Roboto-Light, Roboto" font-size="62.1000011" font-weight="300" letter-spacing="4.52812422" fill="#D5D5D5">
                        <tspan x="20.0860848" y="274.000004">?</tspan>
                    </text>
                    <text id="?-copy-2" font-family="Roboto-Light, Roboto" font-size="62.1000011" font-weight="300" letter-spacing="4.52812422" fill="#D5D5D5">
                        <tspan x="52.4860853" y="97.1500007">?</tspan>
                    </text>
                </g>
            </g>
        </g>
    </g>
</svg>