<?xml version="1.0" encoding="utf-8"?>

<svg width="70px" height="69px" viewBox="0 0 70 69" version="1.1" xmlns="http://www.w3.org/2000/svg" xmlns:xlink="http://www.w3.org/1999/xlink">
    <g id="Homepage" stroke="none" stroke-width="1" fill="none" fill-rule="evenodd" stroke-linecap="round">
        <g id="Corporate-Job-Listings---3.8.19" transform="translate(-423.000000, -1167.000000)" stroke-width="1.4">
            <g id="Group-13" transform="translate(423.000000, 1167.000000)">
                <path d="M52.6718,44.8247 C51.6338,43.2997 50.4348,41.8527 49.0588,40.4917 C46.5648,38.0227 43.6798,36.1267 40.4358,34.7797 C40.2468,34.7017 40.0668,34.6007 39.8228,34.4817" id="Stroke-1" stroke="#2AABE1" stroke-linejoin="round"></path>
                <path d="M18.7646,34.5044 C12.8116,36.9164 8.2186,40.8414 4.9706,46.3144 C2.6036,50.3024 1.2616,54.6294 0.7006,59.3434 C2.1446,59.6474 3.5676,59.9704 4.9986,60.2414 C10.4856,61.2794 20.4236,62.1254 25.9616,62.4104" id="Stroke-3" stroke="#2AABE1" stroke-linejoin="round"></path>
                <path d="M11.7841,43.3764 C9.4171,47.3644 6.8791,51.6914 6.3161,56.4064 C7.7621,56.7094 14.2201,57.7684 15.6511,58.0394" id="Stroke-5" stroke="#194275"></path>
                <path d="M45.9804,17.5083 C46.0194,26.3803 38.2364,34.1563 29.3574,34.1513 C20.3024,34.1513 12.6634,26.5373 12.6244,17.4823 C12.5904,8.6223 20.2234,0.8393 28.8684,0.7023 C37.8654,0.5523 45.9354,8.0613 45.9804,17.5083 Z" id="Stroke-7" stroke="#2AABE1"></path>
                <path d="M36.3847,28.018 C34.3377,29.426 31.9007,30.264 29.3447,30.262 C22.3947,30.262 16.5307,24.418 16.5007,17.468 C16.4917,14.918 17.3097,12.485 18.6857,10.433" id="Stroke-9" stroke="#194275"></path>
                <path d="M64.6396,29.146 C65.4196,29.418 66.0066,29.955 66.5596,30.531 C68.1306,32.173 68.9936,34.142 69.2046,36.396 C69.3256,37.65 69.2606,38.896 69.0616,40.148 C68.5296,43.468 67.2076,46.483 65.5526,49.369 C63.6426,52.7 61.3276,55.723 58.5556,58.387 C56.2616,60.594 53.7236,62.487 50.9846,64.11 C48.4666,65.599 45.8286,66.814 42.9806,67.53 C41.6536,67.862 40.3076,68.061 38.9336,68.064 C36.5156,68.064 34.2926,67.452 32.3866,65.905 C31.6436,65.3 30.9306,64.655 30.5046,63.768 C30.1656,63.057 29.9886,62.294 29.9376,61.514 C29.8816,60.685 29.8796,59.852 29.8666,59.021 C29.8596,58.618 30.0786,58.38 30.4496,58.227 C31.8076,57.668 33.1516,57.075 34.5116,56.523 C36.3776,55.765 38.2556,55.027 40.1306,54.289 C40.4766,54.154 40.8356,54.056 41.1876,53.939 C41.5486,53.817 41.8996,53.848 42.2046,54.065 C42.8266,54.503 43.4526,54.938 44.0316,55.428 C44.6546,55.954 45.2436,56.521 45.8096,57.106 C46.2546,57.569 46.5006,57.565 47.1546,57.274 C48.9296,56.485 50.3086,55.16 51.7106,53.878 C53.5356,52.209 55.2686,50.443 56.8466,48.535 C57.2346,48.063 57.6116,47.576 57.9286,47.056 C58.2116,46.593 58.4226,46.083 58.6376,45.581 C58.7796,45.252 58.6976,44.973 58.4266,44.696 C57.7176,43.969 57.0266,43.222 56.3636,42.451 C55.9576,41.979 55.6126,41.454 55.2596,40.939 C55.0696,40.665 55.0276,40.345 55.1426,40.024 C55.5286,38.952 55.8826,37.865 56.3106,36.808 C57.3456,34.259 58.4156,31.726 59.4666,29.183 C59.6016,28.856 59.8166,28.676 60.1826,28.656 C61.6966,28.57 63.1926,28.636 64.6396,29.146 Z" id="Stroke-11" stroke="#ED4E23" stroke-linejoin="round"></path>
            </g>
        </g>
    </g>
</svg>