<?xml version="1.0" encoding="UTF-8"?>
<svg width="91px" height="75px" viewBox="0 0 91 75" version="1.1" xmlns="http://www.w3.org/2000/svg" xmlns:xlink="http://www.w3.org/1999/xlink">
    <!-- Generator: Sketch 53.2 (72643) - https://sketchapp.com -->
    <title>Group 21</title>
    <desc>Created with Sketch.</desc>
    <g id="Homepage" stroke="none" stroke-width="1" fill="none" fill-rule="evenodd" stroke-linecap="round" stroke-linejoin="round">
        <g id="Location-Details---3.8.19" transform="translate(-261.000000, -994.000000)" stroke-width="1.17">
            <g id="Group-21" transform="translate(261.000000, 994.000000)">
                <path d="M50.9729743,9.1696988 C53.269598,7.24771084 56.2248455,6.09108434 59.4503901,6.09108434 C66.7601228,6.09108434 72.6877366,12.0350602 72.6877366,19.366988 C72.6877366,26.6989157 66.7601228,32.6428916 59.4503901,32.6428916 C55.4472911,32.6428916 51.8595485,30.8609639 49.4322812,28.0453012" id="Stroke-1" stroke="black"></path>
                <path d="M76.6076743,69.4559639 L73.0460604,61.9722289 L73.3217634,69.4604819 C70.7926842,69.84 67.3265752,70.151747 64.7641594,70.2403012 C60.1781198,70.400241 55.608298,70.2195181 51.0763178,69.5255422" id="Stroke-3" stroke="#e50e38"></path>
                <path d="M83.0936317,41.5859639 L90.3880475,71.7287349" id="Stroke-5" stroke="#e50e38"></path>
                <path d="M39.5254446,26.2977108 C37.6811178,27.57 35.485405,28.3272289 33.1824743,28.3254217 C26.9205931,28.3254217 21.6380881,23.0446988 21.6110584,16.7654819 C21.6020485,14.4603614 22.3390584,12.2618675 23.5788208,10.4076506" id="Stroke-7" stroke="#ED4E23"></path>
                <path d="M68.3522624,46.1216566 C66.8962624,46.3511747 50.2288465,48.7014759 50.2288465,48.4773795" id="Stroke-9" stroke="#e50e38"></path>
                <path d="M13.2743772,46.3978916 C14.7511,43.8668675 16.6134465,41.446988 19.1803673,40.0436747 C20.6264564,39.253012 22.209496,38.8283133 23.8429911,38.5978916" id="Stroke-11" stroke="#e50e38"></path>
                <path d="M49.4331822,16.1409036 C49.4331822,24.7306627 42.4901525,31.6948193 33.9253406,31.6948193 C25.3596277,31.6948193 18.416598,24.7306627 18.416598,16.1409036 C18.416598,7.55114458 25.3596277,0.586987952 33.9253406,0.586987952 C42.4901525,0.586987952 49.4331822,7.55114458 49.4331822,16.1409036 Z" id="Stroke-13" stroke="#e50e38"></path>
                <path d="M15.3170119,71.7290964 L19.9607149,56.9107229 L19.9607149,71.0333133 L19.9607149,72.6589157 C20.7256554,72.819759 21.4788832,72.9914458 22.2384178,73.1360241 C27.4632594,74.1281928 32.7412594,74.3983735 38.0444871,74.2140361 C42.0421802,74.0757831 46.0083386,73.6339157 49.9159327,72.7312048 C50.1501901,72.6778916 50.2583089,72.606506 50.2213683,72.3507831 L50.2285762,70.4062048 L50.2285762,52.1043976 C50.2285762,52.328494 66.8959921,49.9772892 68.3519921,49.7477711 C72.6587248,49.0691566 78.917903,48.6119277 81.7217842,44.8293976 C83.3390614,42.6480723 83.6670218,39.3634337 81.9398238,37.2688554 C80.6793386,35.741747 78.5926455,35.0992771 76.5789327,34.9673494 C75.913101,34.9239759 34.9910317,34.4875301 25.8018337,34.5489759 C22.5078139,34.5706627 19.0687347,34.6881325 16.1756554,36.2694578 C13.6087347,37.6727711 11.7463881,40.0926506 10.2696653,42.6236747 C7.09547723,48.065241 5.39440792,54.2215663 3.72487327,60.2992771 C2.67882376,64.1089157 1.63187327,67.9185542 0.585823762,71.7290964" id="Stroke-15" stroke="black"></path>
                <path d="M23.1355337,60.5768675 L23.1355337,68.7175301 L23.1355337,70.3431325 C23.9013752,70.5039759 25.747504,70.6765663 26.5061376,70.820241" id="Stroke-17" stroke="#e50e38"></path>
                <path d="M55.8716574,10.7810241 C57.1934099,10.0283133 58.7223901,9.59819277 60.3504792,9.59819277 C65.369895,9.59819277 69.4387663,13.6798193 69.4387663,18.7129518" id="Stroke-19" stroke="#ED4E23"></path>
            </g>
        </g>
    </g>
</svg>