<?xml version="1.0" encoding="utf-8"?>

<svg width="90px" height="91px" viewBox="0 0 90 91" version="1.1" xmlns="http://www.w3.org/2000/svg" xmlns:xlink="http://www.w3.org/1999/xlink">
    <g id="Homepage" stroke="none" stroke-width="1" fill="none" fill-rule="evenodd" stroke-linecap="round">
        <g id="Location-Details---3.8.19" transform="translate(-428.000000, -3506.000000)" stroke-width="1.4">
            <g id="Group-29" transform="translate(428.000000, 3506.000000)">
                <path d="M15.4309,23.9938 C11.3279,25.6558 8.1639,28.3598 5.9259,32.1308 C4.2939,34.8788 3.3699,37.8608 2.9839,41.1088 C3.9789,41.3178 4.9579,41.5418 5.9459,41.7278 C12.7429,43.0148 19.6109,43.3658 26.5089,43.1268 C31.7089,42.9458 36.8699,42.3748 41.9529,41.2038 C42.2579,41.1338 42.3989,41.0418 42.3509,40.7098 C41.6599,35.8768 39.8179,31.5948 36.3059,28.1188 C34.5859,26.4178 32.5989,25.1108 30.3639,24.1828 C30.2339,24.1298 30.1099,24.0598 29.9419,23.9778" id="Stroke-1" stroke="#2AABE1" stroke-linejoin="round"></path>
                <path d="M34.1848,12.2819 C34.2108,18.3959 28.8488,23.7549 22.7298,23.7499 C16.4908,23.7499 11.2258,18.5039 11.1998,12.2629 C11.1768,6.1589 16.4368,0.7959 22.3928,0.7019 C28.5918,0.5979 34.1538,5.7719 34.1848,12.2819 Z" id="Stroke-3" stroke="#2AABE1"></path>
                <path d="M26.0764,18.3707 C24.9734,19.1287 23.6614,19.5797 22.2844,19.5787 C18.5414,19.5787 15.3834,16.4317 15.3664,12.6877 C15.3614,11.3137 15.8024,10.0037 16.5434,8.8977" id="Stroke-5" stroke="#194275"></path>
                <path d="M76.6438,70.7702 C80.7468,72.4322 83.9118,75.1362 86.1498,78.9082 C87.7808,81.6562 88.7048,84.6372 89.0918,87.8862 C88.0958,88.0952 87.1168,88.3182 86.1288,88.5042 C79.3318,89.7912 72.4638,90.1422 65.5658,89.9032 C60.3658,89.7232 55.2048,89.1512 50.1218,87.9802 C49.8168,87.9102 49.6768,87.8182 49.7238,87.4872 C50.4148,82.6532 52.2568,78.3712 55.7688,74.8962 C57.4888,73.1952 59.4758,71.8872 61.7108,70.9602 C61.8408,70.9062 61.9658,70.8362 62.1328,70.7542" id="Stroke-7" stroke="#ED4E23" stroke-linejoin="round"></path>
                <path d="M57.8899,59.0583 C57.8639,65.1723 63.2269,70.5313 69.3449,70.5263 C75.5839,70.5263 80.8489,65.2803 80.8749,59.0403 C80.8979,52.9363 75.6379,47.5733 69.6819,47.4783 C63.4829,47.3743 57.9219,52.5493 57.8899,59.0583 Z" id="Stroke-9" stroke="#ED4E23" stroke-linejoin="round"></path>
                <path d="M66.0081,65.1393 C67.1091,65.8963 68.4191,66.3463 69.7931,66.3453 C73.5291,66.3453 76.6821,63.2033 76.6981,59.4673 C76.7031,58.0963 76.2641,56.7873 75.5241,55.6853" id="Stroke-11" stroke="#194275"></path>
                <path d="M87.3382,30.4079 C87.2912,34.6869 84.5082,37.3779 80.1832,37.4119 C76.5992,37.4469 73.0042,37.4239 69.4092,37.4239 C65.8722,37.4239 62.3352,37.4469 58.7982,37.4119 C54.4602,37.3779 51.7812,34.7799 51.5502,30.4539 C51.5382,30.0709 51.4802,29.6659 51.5502,29.2949 C52.4312,24.5859 50.7382,20.9909 46.9342,18.1959 C45.7862,17.3489 44.8232,16.2359 43.8962,15.1459 C43.5602,14.7519 43.3272,13.9639 43.5012,13.5459 C43.6522,13.1399 44.4062,12.7809 44.9042,12.7579 C46.7262,12.6649 48.5582,12.6869 50.3782,12.7219 C51.1672,12.7459 51.6662,12.6069 51.9902,11.7369 C53.1732,8.5479 55.5972,7.1439 58.9372,7.1439 C66.0112,7.1559 73.0852,7.1439 80.1592,7.1559 C84.4272,7.1679 87.2912,9.9279 87.3382,14.1609 C87.3962,19.5759 87.4072,24.9919 87.3382,30.4079 Z" id="Stroke-13" stroke="#2AABE1" stroke-linejoin="round"></path>
                <path d="M0.7483,82.2653 C0.7943,86.5433 3.5773,89.2353 7.9033,89.2693 C11.4863,89.3043 15.0813,89.2813 18.6773,89.2813 C22.2143,89.2813 25.7503,89.3043 29.2873,89.2693 C33.6253,89.2353 36.3043,86.6373 36.5353,82.3113 C36.5473,81.9283 36.6053,81.5233 36.5353,81.1523 C35.6543,76.4433 37.3483,72.8483 41.1513,70.0533 C42.2993,69.2063 43.2623,68.0933 44.1893,67.0033 C44.5253,66.6093 44.7583,65.8213 44.5843,65.4033 C44.4333,64.9973 43.6793,64.6373 43.1813,64.6153 C41.3593,64.5223 39.5273,64.5443 37.7073,64.5793 C36.9183,64.6033 36.4203,64.4633 36.0953,63.5943 C34.9123,60.4053 32.4883,59.0013 29.1483,59.0013 C22.0743,59.0133 15.0003,59.0013 7.9263,59.0133 C3.6583,59.0253 0.7943,61.7853 0.7483,66.0173 C0.6893,71.4333 0.6783,76.8493 0.7483,82.2653 Z" id="Stroke-15" stroke="#194275"></path>
                <path d="M62.4817,16.1862 L76.3657,16.1862" id="Stroke-17" stroke="#194275"></path>
                <path d="M62.4817,27.4665 L76.3657,27.4665" id="Stroke-19" stroke="#194275"></path>
                <path d="M60.3577,21.8258 L78.4897,21.8258" id="Stroke-21" stroke="#194275"></path>
                <path d="M12.1936,68.5046 L26.0766,68.5046" id="Stroke-23" stroke="#2AABE1" stroke-linejoin="round"></path>
                <path d="M12.1936,79.7858 L26.0766,79.7858" id="Stroke-25" stroke="#2AABE1" stroke-linejoin="round"></path>
                <path d="M10.0696,74.1452 L28.2016,74.1452" id="Stroke-27" stroke="#2AABE1" stroke-linejoin="round"></path>
            </g>
        </g>
    </g>
</svg>