<?xml version="1.0" encoding="utf-8"?>

<svg width="83px" height="82px" viewBox="0 0 83 82" version="1.1" xmlns="http://www.w3.org/2000/svg" xmlns:xlink="http://www.w3.org/1999/xlink">
    <g id="Homepage" stroke="none" stroke-width="1" fill="none" fill-rule="evenodd" stroke-linecap="round">
        <g id="About-Us---3.8.19" transform="translate(-265.000000, -1389.000000)" stroke-width="1.35">
            <g id="Our-Philosophy" transform="translate(228.000000, 899.000000)">
                <g id="3" transform="translate(2.000000, 460.000000)">
                    <g id="icon">
                        <g id="Group-9" transform="translate(35.000000, 30.000000)">
                            <g id="Group-15-Copy">
                                <path d="M22.2015,41.1269 C15.1065,44.0009 9.6345,48.6779 5.7645,55.1989 C2.9425,59.9509 1.3445,65.1079 0.6755,70.7259 C2.3965,71.0869 4.0915,71.4729 5.7985,71.7959 C17.5545,74.0219 29.4295,74.6279 41.3585,74.2139 C50.3525,73.9019 59.2775,72.9129 68.0675,70.8889 C68.5955,70.7679 68.8375,70.6079 68.7555,70.0349 C67.5595,61.6769 64.3755,54.2709 58.3015,48.2609 C55.3285,45.3189 51.8905,43.0599 48.0255,41.4549 C47.8005,41.3609 47.5855,41.2419 47.2955,41.0999" id="Stroke-5" stroke="black" stroke-linejoin="round"></path>
                                <path d="M13.8832,51.6992 C11.0632,56.4512 8.0372,61.6082 7.3682,67.2252 C9.0892,67.5872 16.7852,68.8482 18.4912,69.1722" id="Stroke-7" stroke="black"></path>
                                <path d="M54.6332,20.873 C54.6802,31.446 45.4042,40.713 34.8242,40.705 C24.0332,40.705 14.9302,31.633 14.8832,20.842 C14.8452,10.285 23.9412,1.01 34.2412,0.847 C44.9622,0.668 54.5782,9.616 54.6332,20.873 Z" id="Stroke-9" stroke="black"></path>
                                <path d="M43.1976,33.3974 C40.7586,35.0754 37.8536,36.0734 34.8086,36.0714 C26.5266,36.0714 19.5406,29.1084 19.5046,20.8264 C19.4936,17.7884 20.4686,14.8874 22.1076,12.4424" id="Stroke-13" stroke="black"></path>
                            </g>
                            <path d="M82,49.75054 C80.7728591,69.6047516 74.0324127,78.1609071 64.5033106,81 C54.9731051,78.1609071 48.2282444,69.6047516 47,49.75054 C53.8375583,49.7883369 59.7845567,47.7904968 64.5033106,43 C69.2154433,47.7904968 75.1624417,49.7883369 82,49.75054 Z" id="Stroke-9" stroke="black" fill="#FFFFFF"></path>
                            <polyline id="Stroke-11" stroke="#e50e38" points="56 60.7168707 62.297011 67 73 57"></polyline>
                        </g>
                    </g>
                </g>
            </g>
        </g>
    </g>
</svg>