<svg xmlns="http://www.w3.org/2000/svg" viewBox="0 0 83.56 83.56"><defs><style>.cls-1,.cls-2{fill:none;}.cls-1{stroke:#e50e38;stroke-miterlimit:10;}.cls-2{stroke:#0b0b0b;stroke-linecap:round;stroke-linejoin:round;stroke-width:1.5px;}</style></defs><g id="Layer_2" data-name="Layer 2"><g id="Layer_1-2" data-name="Layer 1"><path class="cls-1" d="M41.79,55.83V43.76c7-.83,12.37-5.48,12.37-12.59,0-7.74-7-12.37-12.38-12.37A12.25,12.25,0,0,0,29.45,31.17"/><path d="M41.78,59.63a1.73,1.73,0,1,0,1.73,1.73A1.72,1.72,0,0,0,41.78,59.63Z"/><path class="cls-2" d="M9.67,16.24a41.05,41.05,0,1,0,7-6.89"/><path class="cls-2" d="M67.82,17.27A36,36,0,0,0,55.35,8.68"/><path class="cls-2" d="M13.4,63.53A35.77,35.77,0,0,0,57.37,74"/></g></g></svg>