<svg xmlns="http://www.w3.org/2000/svg" xmlns:xlink="http://www.w3.org/1999/xlink" viewBox="0 0 113.58 147.99"><defs><style>.cls-1{fill:none;}.cls-2{fill:#e8505b;}.cls-3{clip-path:url(#clip-path);}.cls-4{fill:#263238;}.cls-5{fill:#455a64;}.cls-6{fill:#fff;}.cls-7{fill:#efefef;}.cls-8{opacity:0.3;}</style><clipPath id="clip-path"><circle class="cls-1" cx="56.79" cy="56.79" r="56.79"/></clipPath></defs><g id="Layer_2" data-name="Layer 2"><g id="Layer_4" data-name="Layer 4"><circle class="cls-2" cx="56.79" cy="56.79" r="56.79"/><g class="cls-3"><path class="cls-4" d="M72.33,17.16c4.1,11.17,8.65,23,18.2,30.12a5.08,5.08,0,0,1-3.68-.52c2.09,3.36,4.2,6.78,5.27,10.59s1,8.12-1.17,11.44l-.75-1.26a19.9,19.9,0,0,1-8.59,22c-3.14,1.9-7.33,2.81-10.4.81-2.34-1.51-3.44-4.3-4.41-6.91Q57.41,58,48,32.6c-1.74-4.73-3.52-9.73-2.65-14.69a14.5,14.5,0,0,1,26.15-5.76"/><path class="cls-5" d="M83.27,79.58a2.28,2.28,0,0,0,.31-.31,12.48,12.48,0,0,0,.79-1,13.41,13.41,0,0,0,1.9-4.23,18.5,18.5,0,0,0,.38-6.87,30.44,30.44,0,0,0-2.38-8.08c-1.19-2.75-2.53-5.26-3.68-7.58a61,61,0,0,1-2.76-6.26,29.74,29.74,0,0,1-1.25-4.44c-.21-1.07-.27-1.67-.3-1.67a2.91,2.91,0,0,0,0,.44c0,.29.07.71.15,1.25a26.69,26.69,0,0,0,1.15,4.5,57.24,57.24,0,0,0,2.71,6.32C81.45,54,82.78,56.5,84,59.23a31,31,0,0,1,2.38,8A18.53,18.53,0,0,1,86,74a14,14,0,0,1-1.78,4.21C83.66,79.12,83.24,79.55,83.27,79.58Z"/><path class="cls-6" d="M59.82,10.86A15.87,15.87,0,0,1,74.94,26.68c0,6.56-.09,13.69-.51,17.92-1,9.85-8.37,11.53-8.37,11.53s.24,6.12.56,11.92c.31,5.53-4.22,10.39-10.13,10.86h0c-5.85.47-10.86-3.54-11.26-9l-2-42.47A15.85,15.85,0,0,1,59.82,10.86Z"/><path class="cls-7" d="M66.1,56.14a26.63,26.63,0,0,1-13.36-2.92s3.63,7,13.44,5.73Z"/><path class="cls-4" d="M54.21,26.63c.16.23,1.14-.18,2.36-.44s2.28-.34,2.33-.62-1.11-.69-2.55-.37S54.05,26.41,54.21,26.63Z"/><path class="cls-4" d="M29.36,70.67s3.47-6.88,1.31-13.06-1.34-10.8,1.78-13.23c2.18-1.71,2.46-4.53,2.25-6.75a44.19,44.19,0,0,1,.24-11.2c.87-5.34,2.43-11,5.63-15.21,4.17-5.45,11.72-10.43,18-7.64C61.47,4.87,63,4.79,66,7.52c0,0,2.8.18,4.27.41,5.09.8,8.39,6.23,9,10.21C80.62,27.35,75.54,30,75,36.24c0,0-.92-13.06-2.07-16.4a11.12,11.12,0,0,0-5-5.75c-3.77.35-5.19,2.58-6.41,6.15S59.66,26.66,56.67,29c-2.81,2.18-4.85,5.85-10,4a11,11,0,0,0-1,6.21c.56,3.17,4.08,4,3.18,9.44s-4.18,9.79-4.08,11.81"/><path class="cls-4" d="M39.87,12.2a64.87,64.87,0,0,1-6.25,8.57c-2.47,2.72-4.94,5.85-5.11,9.52-.13,2.67,1,5.49-.09,8-.9,2.09-3.11,3.25-4.77,4.83a11.34,11.34,0,0,0-3,11.08c.72,2.46,2.3,4.88,1.74,7.39-.48,2.19-2.51,3.75-3.13,5.91s.2,4.24,1.12,6.17c1.4,2.94,3.49,6,6.68,6.69a7.87,7.87,0,0,0,6.25-1.56,15.67,15.67,0,0,0,4.17-5.11A31.21,31.21,0,0,0,41.25,61.5c.49-5.09-.28-10.19-.78-15.27a144.24,144.24,0,0,1,0-28c.22-2.28,1.13-4.49-.58-6"/><path class="cls-6" d="M48.82,34.43c0-.65-1.71-1.84-2.36-1.83-1.49,0-3.91.74-4,4.87-.06,5.91,5.54,4.18,5.56,4A45.79,45.79,0,0,0,48.82,34.43Z"/><path class="cls-7" d="M46.66,39.22s-.1.07-.28.15a1,1,0,0,1-.77,0,2.52,2.52,0,0,1-1.15-2.29,3.38,3.38,0,0,1,.3-1.48,1.2,1.2,0,0,1,.78-.78.52.52,0,0,1,.6.29c.08.17,0,.28.07.29s.13-.09.09-.34a.66.66,0,0,0-.23-.37.77.77,0,0,0-.57-.16,1.45,1.45,0,0,0-1.08.91A3.48,3.48,0,0,0,44,37.09a2.69,2.69,0,0,0,1.48,2.57,1.09,1.09,0,0,0,.94-.15C46.65,39.37,46.68,39.23,46.66,39.22Z"/><path class="cls-5" d="M76.88,32.15a6.32,6.32,0,0,0-.31-1,11.16,11.16,0,0,1-.37-2.78,28.61,28.61,0,0,1,.39-4.17,27.72,27.72,0,0,0,.4-5.16,10.11,10.11,0,0,0-.5-2.66,7.61,7.61,0,0,0-1.24-2.2,8.33,8.33,0,0,0-3.42-2.5,7.81,7.81,0,0,0-2.8-.54,4.73,4.73,0,0,0-.78.06.82.82,0,0,0-.26,0s.37,0,1,0a8.23,8.23,0,0,1,2.72.63A8.41,8.41,0,0,1,75,14.38a7.37,7.37,0,0,1,1.17,2.12,10.25,10.25,0,0,1,.47,2.57,28.45,28.45,0,0,1-.37,5.1A26.81,26.81,0,0,0,76,28.39a10.13,10.13,0,0,0,.48,2.81c.12.32.24.55.31.71A1.31,1.31,0,0,0,76.88,32.15Z"/><path class="cls-2" d="M43.21,41.07a1.79,1.79,0,0,0-.37.51,3.12,3.12,0,0,0-.44,1.66,2.88,2.88,0,0,0,1.28,2.2,3.25,3.25,0,0,0,3.09.36,3.08,3.08,0,0,0,1.79-2.52,2.57,2.57,0,0,0-.25-1.39,2.88,2.88,0,0,0-.76-.94,2.73,2.73,0,0,0-1.61-.61,1.39,1.39,0,0,0-.63.1s.23,0,.62,0a2.72,2.72,0,0,1,1.46.66,2.46,2.46,0,0,1,.87,2.12,2.81,2.81,0,0,1-1.63,2.24,2.93,2.93,0,0,1-2.77-.3,2.64,2.64,0,0,1-1.22-2A3.21,3.21,0,0,1,43,41.64C43.12,41.28,43.24,41.09,43.21,41.07Z"/><path class="cls-5" d="M28.61,37.73a1.9,1.9,0,0,1,.1-.51,6.74,6.74,0,0,1,.59-1.36,12.17,12.17,0,0,1,3.72-4,9,9,0,0,1,3.52-1.43,20.33,20.33,0,0,1,4.32-.21,30.6,30.6,0,0,0,4.68-.06,10.87,10.87,0,0,0,4.61-1.7A41.62,41.62,0,0,0,54,25.3,18.68,18.68,0,0,0,57.34,22c1.86-2.4,3.63-4.45,5-6.27a34.91,34.91,0,0,0,3-4.47c.6-1.12.82-1.79.88-1.78a2.43,2.43,0,0,1-.13.5,10.13,10.13,0,0,1-.55,1.38A29.11,29.11,0,0,1,62.67,16c-1.34,1.86-3.09,4-4.9,6.34a19.32,19.32,0,0,1-3.36,3.41A42.53,42.53,0,0,1,50.46,29a11.33,11.33,0,0,1-4.85,1.77,30.54,30.54,0,0,1-4.77,0,20.05,20.05,0,0,0-4.22.15,8.37,8.37,0,0,0-3.37,1.3A12.67,12.67,0,0,0,29.49,36,14.88,14.88,0,0,0,28.61,37.73Z"/><path class="cls-2" d="M60.38,78.41c2.12-6.52,7.33-13.16,13-10.76,6.36,2.66,8.13,6,11.61,11.27s5.63,11.23,7.73,17.15c.82,2.32,5.13,12.94,3.86,15.05-1.09,1.82-11.89,15.44-14,16-5.29,1.41-5.59-18.21-11-17.21-2.17.4-4.54.74-6.45-.35-2.43-1.37-3.17-4.46-3.67-7.2q-2.67-14.41-5.33-28.85"/><path class="cls-2" d="M66.22,65l8.36,3.6c4.23,3.33,5.43,9,5.28,14.41l3.21,44.6.27,15.42s-24.63,13.37-52.15-3.95L35.77,127,27.43,98c-.59-4.23-1-13,.14-17.16C30.4,70.13,38,66.94,45.75,64.8c0,0,7.78,6.53,15.37,5.15C61.12,70,65.75,69.52,66.22,65Z"/><path class="cls-2" d="M42.9,65.39c-5.72,2.39-11.67,5-15.61,9.71s-5.41,11.43-5.12,17.7S22.42,105,24.23,111c.71,2.35,2.19,8.1,3.48,10.68,1.47,2.95,8.4,6.08,11.72,6,5.48-.13,8.09-10.44,13-12.81,2-1,5-5.11,5.95-7.11,1.15-2.54-2.23-7.36-3.44-9.87L42.16,71.45"/><path class="cls-4" d="M53.47,114.16a1.73,1.73,0,0,1,.16-.48,5,5,0,0,0,.35-1.36,2.54,2.54,0,0,0-.79-1.92,3.14,3.14,0,0,0-2.65-.65l-.22,0,0-.22a16.77,16.77,0,0,0-2-5.81,16.38,16.38,0,0,0-5-5.39,22.38,22.38,0,0,0-7.45-3,42.58,42.58,0,0,0-6.58-1c-1.89-.13-3.43-.12-4.5-.1a11,11,0,0,1-1.65,0A7.1,7.1,0,0,1,24.7,94a36,36,0,0,1,4.53-.09,39.32,39.32,0,0,1,6.68.86,22.13,22.13,0,0,1,7.65,3.09,16.59,16.59,0,0,1,7.16,11.63l-.24-.19a3.5,3.5,0,0,1,3,.83,2.74,2.74,0,0,1,.78,2.19,4,4,0,0,1-.48,1.39C53.59,114,53.49,114.17,53.47,114.16Z"/><path class="cls-4" d="M41.25,118.59a21.21,21.21,0,0,1,4.26-5,21.17,21.17,0,0,1,5.26-3.89c.1.14-2.25,1.87-4.87,4.32S41.39,118.7,41.25,118.59Z"/><g class="cls-8"><path d="M50.51,109.37A27,27,0,0,0,44,112.78a9.79,9.79,0,0,0-3.86,6l2.12-1.93a74.92,74.92,0,0,1,8.77-7.24"/></g><path class="cls-4" d="M80,94.65a6.23,6.23,0,0,1,.39-2.15,28.67,28.67,0,0,1,2-4.86c1.9-3.66,4-6.27,4.19-6.13a15.51,15.51,0,0,1-1.1,1.87c-.7,1.14-1.63,2.73-2.57,4.53a46.14,46.14,0,0,0-2.17,4.72A12.51,12.51,0,0,1,80,94.65Z"/><path class="cls-4" d="M83.34,139.5a5.38,5.38,0,0,1-.17-1.19c-.07-.78-.15-1.9-.22-3.28-.14-2.77-.25-6.6-.27-10.82s0-8.06.13-10.83c0-1.38.09-2.5.14-3.28a4.77,4.77,0,0,1,.14-1.2,5,5,0,0,1,.09,1.21c0,.9,0,2,0,3.28,0,2.91,0,6.66,0,10.81s.07,7.91.1,10.82c0,1.28,0,2.37,0,3.27A4.81,4.81,0,0,1,83.34,139.5Z"/><path class="cls-4" d="M48.74,48.33a10.25,10.25,0,0,0,.17,10.22c1.24,2,3.17,3.55,4.12,5.71,1.15,2.63.63,5.64.29,8.49s-.4,6,1.42,8.24c.76.92,1.79,1.6,2.56,2.52A3.07,3.07,0,0,1,58,86.82a3.59,3.59,0,0,1-2,1.43,15.62,15.62,0,0,1-17-4.39l-.46,3a22.26,22.26,0,0,1-5-27.53"/></g></g></g></svg>