<svg xmlns="http://www.w3.org/2000/svg" xmlns:xlink="http://www.w3.org/1999/xlink" viewBox="0 0 114.07 152.94"><defs><style>.cls-1{fill:none;}.cls-2{fill:#e8505b;}.cls-3{clip-path:url(#clip-path);}.cls-4{fill:#263238;}.cls-5{opacity:0.3;}.cls-6{fill:#fafafa;}.cls-7{fill:#fff;}.cls-8{fill:#efefef;}</style><clipPath id="clip-path" transform="translate(0.49)"><circle class="cls-1" cx="56.79" cy="56.79" r="56.79"/></clipPath></defs><g id="Layer_2" data-name="Layer 2"><g id="Layer_5" data-name="Layer 5"><circle class="cls-2" cx="57.28" cy="56.79" r="56.79"/><g class="cls-3"><path class="cls-2" d="M43.12,62.08H64.87s19.66,7,26.05,11.89,16.2,39.42,16.2,39.42l-19.64-.58L86,142.47c-20.11,14.32-44.25,13.49-62.92.32L21.69,120.1l.14,0L-.49,113s12.57-33,16.4-39.42C19.26,68,38.69,63,43.12,62.08" transform="translate(0.49)"/><path class="cls-4" d="M66.2,63.92a2.26,2.26,0,0,1,0,.39A9.62,9.62,0,0,1,66,65.39a12.34,12.34,0,0,1-1.54,3.74,13.21,13.21,0,0,1-4.22,4.26,13,13,0,0,1-14-.4,13.07,13.07,0,0,1-4-4.49,12.64,12.64,0,0,1-1.32-3.82,9,9,0,0,1-.13-1.09,2,2,0,0,1,0-.39s.07.53.27,1.45a13.49,13.49,0,0,0,1.42,3.72,13.06,13.06,0,0,0,3.94,4.33,12.8,12.8,0,0,0,13.66.39A13.17,13.17,0,0,0,64.22,69a13.69,13.69,0,0,0,1.63-3.63C66.1,64.44,66.16,63.92,66.2,63.92Z" transform="translate(0.49)"/><path class="cls-4" d="M21.88,97.51c.11,0,.19,5.06.2,11.29s-.08,11.3-.19,11.3-.19-5-.2-11.3S21.77,97.51,21.88,97.51Z" transform="translate(0.49)"/><path class="cls-4" d="M87.31,92c.1,0,.19,5.06.19,11.3s-.08,11.29-.18,11.29-.19-5-.2-11.29S87.2,92,87.31,92Z" transform="translate(0.49)"/><path class="cls-4" d="M21.88,97.51a12.52,12.52,0,0,1-.9-1.85c-.5-1.16-1.15-2.79-1.81-4.6s-1.26-3.45-1.72-4.64a11.92,11.92,0,0,1-.67-1.93,13.19,13.19,0,0,1,.89,1.85c.51,1.16,1.16,2.79,1.81,4.6s1.27,3.45,1.72,4.63A14.16,14.16,0,0,1,21.88,97.51Z" transform="translate(0.49)"/><path class="cls-4" d="M22,99.14A36.13,36.13,0,0,1,18.26,96a35.62,35.62,0,0,1-3.49-3.38,35.26,35.26,0,0,1,3.71,3.13A34.77,34.77,0,0,1,22,99.14Z" transform="translate(0.49)"/><path class="cls-4" d="M88.57,83.64a30.08,30.08,0,0,1-.5,4.46,31.39,31.39,0,0,1-.83,4.41,31.78,31.78,0,0,1,.5-4.46A30.29,30.29,0,0,1,88.57,83.64Z" transform="translate(0.49)"/><g class="cls-5"><path d="M21.54,119.89a40.07,40.07,0,0,1-4.7-14.4,25.71,25.71,0,0,1,2.59-14.8l2.53,8Z" transform="translate(0.49)"/></g><path class="cls-6" d="M88.57,117.34s-.22.21-.65.59L86,119.57l-7.06,6L55.52,145.27l-.11.09-.11-.09L55,145,31.4,125l-7.12-6.09-1.93-1.67c-.43-.38-.65-.6-.65-.6l.7.55,2,1.62,7.19,6,23.63,19.93.34.28H55.3l23.5-19.64,7.13-5.91,1.95-1.59Z" transform="translate(0.49)"/><path class="cls-6" d="M89.15,123s-.22.22-.65.59l-1.91,1.65c-1.71,1.44-4.11,3.48-7.06,6L56.1,150.91,56,151l-.11-.09-.33-.28L32,130.63l-7.12-6.09-1.93-1.67c-.43-.38-.65-.6-.65-.6l.7.55,2,1.62,7.19,6,23.63,19.93.34.28h-.22L79.38,131l7.13-5.91,1.95-1.6Z" transform="translate(0.49)"/><path class="cls-7" d="M54.64,72.85h0A10.87,10.87,0,0,0,64.87,61.91c0-3.48-.08-6.46-.08-6.46s8.83-1.38,8.93-10.2S72.3,16.18,72.3,16.18h0a30.65,30.65,0,0,0-30.79,3.88l-1.31,1,3,41.72A10.86,10.86,0,0,0,54.64,72.85Z" transform="translate(0.49)"/><path class="cls-8" d="M64.81,55.32a20.55,20.55,0,0,1-11.5-3.27S56,58.4,64.83,57.6Z" transform="translate(0.49)"/><path class="cls-7" d="M41.29,30.2c-.16-.07-6.06-1.8-5.87,4.23s6.2,4.6,6.21,4.42S41.29,30.2,41.29,30.2Z" transform="translate(0.49)"/><path class="cls-8" d="M39.71,36.63s-.1.07-.27.16a1,1,0,0,1-.79,0,2.58,2.58,0,0,1-1.27-2.29A3.36,3.36,0,0,1,37.62,33a1.23,1.23,0,0,1,.77-.84.53.53,0,0,1,.62.27c.09.17.06.29.09.3s.12-.11.07-.35a.7.7,0,0,0-.25-.37.77.77,0,0,0-.59-.14,1.47,1.47,0,0,0-1.06,1A3.48,3.48,0,0,0,37,34.56a2.71,2.71,0,0,0,1.61,2.56,1.12,1.12,0,0,0,1-.19C39.71,36.77,39.74,36.64,39.71,36.63Z" transform="translate(0.49)"/><path class="cls-4" d="M76.6,10.62a3.26,3.26,0,0,0-1.2-2.91,2.32,2.32,0,0,0-3,.22,2.7,2.7,0,0,0-2.32-3.27C68.65,4.57,67.42,5.66,66,6a6.58,6.58,0,0,1-4.11-.47C60.61,5,59.39,4.31,58.07,3.83a11.29,11.29,0,0,0-14.42,6.62,5,5,0,0,0-5.31,2,8.21,8.21,0,0,0-1.26,5.79,18.13,18.13,0,0,0,1,4c0,.11,0,.22,0,.34.09,4.85.64,10.54,2.71,10.57,3.6.06,2.74-6.74,2.74-6.74C48,24.67,46.31,18,47.42,17s3.42-3.35,12.68,1.39a18,18,0,0,0,11,1.19l.23-.05h0l.08,0a8.39,8.39,0,0,0,2.37-1,4.65,4.65,0,0,0,2-2.18,2.58,2.58,0,0,0-.5-2.76A5.61,5.61,0,0,0,76.6,10.62Z" transform="translate(0.49)"/><path class="cls-6" d="M38.14,21.57s.41.38,1.16.85a5.6,5.6,0,0,0,6.4-.29c.7-.52,1-1,1.08-.94a3.11,3.11,0,0,1-.94,1.13,5.43,5.43,0,0,1-6.67.29A2.92,2.92,0,0,1,38.14,21.57Z" transform="translate(0.49)"/><path class="cls-6" d="M46.26,18.71a3.54,3.54,0,0,1-1.17.89,7.55,7.55,0,0,1-6.9.13A3.55,3.55,0,0,1,37,18.88s.49.29,1.31.64a8.38,8.38,0,0,0,3.36.65A8.25,8.25,0,0,0,45,19.39C45.79,19,46.23,18.67,46.26,18.71Z" transform="translate(0.49)"/></g></g></g></svg>