<?xml version="1.0" encoding="UTF-8"?>
<svg width="62px" height="71px" viewBox="0 0 62 71" version="1.1" xmlns="http://www.w3.org/2000/svg" xmlns:xlink="http://www.w3.org/1999/xlink">
    <!-- Generator: Sketch 53.2 (72643) - https://sketchapp.com -->
    <title>icon</title>
    <desc>Created with Sketch.</desc>
    <g id="Homepage" stroke="none" stroke-width="1" fill="none" fill-rule="evenodd" stroke-linecap="round">
        <g id="Our-Team---3.8.19" transform="translate(-427.000000, -5565.000000)" stroke-width="1.144">
            <g id="Employees" transform="translate(394.000000, 5146.000000)">
                <g id="Employee-3" transform="translate(6.000000, 399.000000)">
                    <g id="icon" transform="translate(27.000000, 20.000000)">
                        <path d="M19.560313,35.7921375 C19.3039362,35.9172625 19.1147478,36.0222625 18.9149507,36.1036375 C15.4971826,37.5071375 12.4586754,39.4846375 9.83037101,42.0588875 C4.4606029,47.3176375 1.64487826,53.7970125 0.588428986,61.1111375 C0.515936232,61.6125125 0.729878261,61.7516375 1.19666087,61.8583875 C7.84212464,63.3730125 14.5759942,64.2252625 21.3602551,64.6111375" id="Stroke-1" stroke="#194275"></path>
                        <path d="M41.745129,35.816025 C48.0166362,38.33165 52.8550855,42.42315 56.2763899,48.129025 C58.7703174,52.2879 60.1839261,56.7994 60.7753609,61.716025 C59.2538971,62.031025 57.7554188,62.368775 56.2463319,62.6514 C50.9287232,63.648025 45.5837087,64.272775 40.2183609,64.598275" id="Stroke-3" stroke="#194275"></path>
                        <path d="M49.0985464,45.0667875 C51.5924739,49.2256625 54.2667493,53.7371625 54.8581841,58.6529125 C53.3367203,58.9687875 46.5330101,60.0721625 45.0248072,60.3556625" id="Stroke-5" stroke="#2AABE1" stroke-linejoin="round"></path>
                        <path d="M13.0736261,18.0938625 C13.0320754,27.3452375 21.231713,35.4538625 30.5859304,35.4468625 C40.1249159,35.4468625 48.1733797,27.5088625 48.2149304,18.0667375 C48.2485246,8.8293625 40.2071333,0.7146125 31.1013362,0.5711125 C21.6233507,0.4144875 13.1213652,8.2439875 13.0736261,18.0938625 Z" id="Stroke-7" stroke="#194275"></path>
                        <path d="M23.1829174,29.0527125 C25.3391348,30.5209625 27.9064391,31.3950875 30.5992797,31.3924625 C37.9201638,31.3924625 44.0979609,25.2998375 44.1289029,18.0530875 C44.1395116,15.3948375 43.2775551,12.8564625 41.8277,10.7179625" id="Stroke-9" stroke="#2AABE1" stroke-linejoin="round"></path>
                        <path d="M38.1553232,64.1270875 C38.0085696,64.3239625 37.9104391,64.5654625 37.7079899,64.7089625 C35.5314391,66.2507125 33.3407435,67.7767125 31.1500478,69.3044625 C30.7796275,69.5625875 30.4870043,69.5582125 30.1042072,69.2913375 C27.9117435,67.7662125 25.7228159,66.2367125 23.5338884,64.7080875 C23.1634681,64.4499625 23.1404826,64.1297125 23.2562942,63.7692125 C24.0165841,61.4259625 24.7680333,59.0818375 25.524787,56.7385875 C26.4671928,53.8204625 27.416671,50.9032125 28.3484681,47.9824625 C28.4280333,47.7330875 28.5332362,47.6298375 28.8709464,47.6342125 C30.0661928,47.6517125 31.2614391,47.6490875 32.4566855,47.6324625 C32.7466565,47.6298375 32.8368304,47.7252125 32.9031348,47.9290875 C34.6031783,53.2140875 36.3102942,58.4973375 38.0138739,63.7823375 C38.0457,63.8812125 38.061613,63.9835875 38.0845986,64.0842125 C38.1084681,64.0990875 38.1323377,64.1122125 38.1553232,64.1270875 Z" id="Stroke-11" stroke="#ED4E23" stroke-linejoin="round"></path>
                        <path d="M30.6408304,38.791375 C31.6813667,38.791375 32.7219029,38.786125 33.7624391,38.79225 C34.5121203,38.7975 34.8215406,39.207875 34.5908014,39.902625 C34.1275551,41.299125 33.6563522,42.693875 33.1798449,44.086875 C32.9208159,44.84375 32.3718159,45.2165 31.5558304,45.2165 C30.9095841,45.215625 30.2624536,45.219125 29.6153232,45.21475 C28.9169174,45.210375 28.3334391,44.814 28.1071203,44.15425 C27.6164681,42.721875 27.1364246,41.286875 26.6643377,39.848375 C26.4601203,39.2245 26.7730768,38.800125 27.4352362,38.794 C28.5031783,38.784375 29.5720043,38.791375 30.6408304,38.791375 Z" id="Stroke-13" stroke="#ED4E23" stroke-linejoin="round"></path>
                    </g>
                </g>
            </g>
        </g>
    </g>
</svg>