<?xml version="1.0" encoding="UTF-8"?>
<svg width="75px" height="63px" viewBox="0 0 75 63" version="1.1" xmlns="http://www.w3.org/2000/svg" xmlns:xlink="http://www.w3.org/1999/xlink">
    <!-- Generator: Sketch 53.2 (72643) - https://sketchapp.com -->
    <title>Group 15</title>
    <desc>Created with Sketch.</desc>
    <g id="Homepage" stroke="none" stroke-width="1" fill="none" fill-rule="evenodd" stroke-linecap="round">
        <g id="Corporate-Job-Listings---3.8.19" transform="translate(-974.000000, -1396.000000)" stroke-width="1.4">
            <g id="Open-Positions" transform="translate(380.000000, 1006.000000)">
                <g id="Group-15" transform="translate(594.000000, 390.000000)">
                    <path d="M35.5659,24.8869 C32.5099,26.1249 30.1529,28.1389 28.4859,30.9489 C27.2709,32.9949 26.5829,35.2159 26.2939,37.6359 C27.0359,37.7909 27.7649,37.9579 28.5009,38.0969 C33.5639,39.0559 38.6789,39.3169 43.8179,39.1389 C47.6919,39.0039 51.5359,38.5779 55.3219,37.7059 C55.5479,37.6539 55.6529,37.5849 55.6179,37.3379 C55.1029,33.7389 53.7309,30.5479 51.1149,27.9599 C49.8349,26.6929 48.3539,25.7189 46.6889,25.0289 C46.5919,24.9889 46.4999,24.9369 46.3749,24.8749" id="Stroke-1" stroke="#2AABE1" stroke-linejoin="round"></path>
                    <path d="M49.5346,16.1632 C49.5556,20.7172 45.5596,24.7082 41.0026,24.7052 C36.3546,24.7052 32.4336,20.7982 32.4136,16.1492 C32.3966,11.6022 36.3146,7.6072 40.7516,7.5372 C45.3696,7.4602 49.5116,11.3142 49.5346,16.1632 Z" id="Stroke-3" stroke="#2AABE1"></path>
                    <path d="M24.5669,36.5441 C22.5729,36.1971 20.5919,35.8541 18.5629,35.5011 C19.4239,29.5391 22.2399,25.1281 27.8469,22.6891" id="Stroke-5" stroke="#ED4E23" stroke-linejoin="round"></path>
                    <path d="M30.9038,20.8664 C27.3488,20.9114 24.7758,19.5064 23.6598,16.0204 C22.7968,13.3224 23.7258,10.2984 25.7678,8.5934 C27.7418,6.9464 31.1468,6.3164 34.0248,8.1324" id="Stroke-7" stroke="#ED4E23" stroke-linejoin="round"></path>
                    <path d="M73.4604,34.7101 C71.8044,42.9791 66.2424,47.5231 57.7494,47.5341 C56.5554,47.5391 55.3664,47.5341 54.1154,47.5341 C54.1154,51.8981 54.1404,55.9261 54.0994,59.9531 C54.0674,62.9681 52.3164,61.0741 51.1234,59.8561 C50.0124,58.7211 48.9004,57.5871 47.7884,56.4521 C45.5644,54.1851 43.3434,51.9141 41.1184,49.6471 C39.6464,48.1461 37.8954,47.4981 35.7784,47.5141 C29.0814,47.5711 22.3844,47.5841 15.6874,47.5231 C8.3294,47.4521 2.6084,42.7441 1.1284,35.5471 C0.7874,33.9021 0.6234,25.6801 0.7334,25.6801 C0.7334,22.5871 0.7304,19.7321 0.7334,16.8781 C0.7464,6.8261 6.8734,0.7281 16.9754,0.7161 C18.1814,0.7111 27.0604,0.8221 29.9054,0.7401 C30.0044,0.7361 30.0954,0.7281 30.1854,0.7111 C39.4744,0.7111 48.7674,0.6791 58.0564,0.7241 C61.9644,0.7421 65.9014,1.8441 68.8124,4.5521 C70.2144,5.8561 71.3094,7.4581 72.1064,9.1941 C73.2794,11.7451 73.3324,14.7141 73.4714,17.4581 C73.5814,19.6691 73.4824,21.9131 73.4854,24.1271 C73.4894,27.5921 73.5564,31.0651 73.4674,34.5281 C73.4664,34.5871 73.4724,34.6521 73.4604,34.7101 Z" id="Stroke-9" stroke="#194275"></path>
                    <path d="M19.1587,44.0041 C11.8017,43.9351 6.0797,39.2261 4.5987,32.0281" id="Stroke-11" stroke="#2AABE1" stroke-linejoin="round"></path>
                    <path d="M54.7104,4.3419 C58.6184,4.3619 62.5554,5.4629 65.4654,8.1699 C66.8674,9.4749 67.9634,11.0759 68.7614,12.8139 C69.9334,15.3639 69.9864,18.3319 70.1244,21.0759" id="Stroke-13" stroke="#2AABE1" stroke-linejoin="round"></path>
                </g>
            </g>
        </g>
    </g>
</svg>