<?xml version="1.0" encoding="UTF-8"?>
<svg width="118px" height="118px" viewBox="0 0 118 118" version="1.1" xmlns="http://www.w3.org/2000/svg" xmlns:xlink="http://www.w3.org/1999/xlink">
    <!-- Generator: Sketch 53.2 (72643) - https://sketchapp.com -->
    <title>Group 15</title>
    <desc>Created with Sketch.</desc>
    <g id="Homepage" stroke="none" stroke-width="1" fill="none" fill-rule="evenodd">
        <g id="Corporate-Jobs---3.8.19" transform="translate(-1600.000000, -5221.000000)">
            <g id="Group-15" transform="translate(1601.000000, 5222.000000)">
           <!--      <g id="Group-14-Copy-7" stroke="#D3D3D3" stroke-width="2">
                    <circle id="Oval-Copy-7" cx="58" cy="58" r="58"></circle>
                </g> -->
                <g id="Group-9" transform="translate(26.000000, 13.000000)" stroke-linecap="round" stroke-linejoin="round">
                    <polygon id="Stroke-1" stroke="#ED4E23" stroke-width="1.024" points="33.2929 34.036 35.5929 38.695 40.7339 39.442 37.0139 43.069 37.8919 48.189 33.2929 45.772 28.6939 48.189 29.5719 43.069 25.8529 39.442 30.9939 38.695"></polygon>
                    <g id="Group-8" transform="translate(0.000000, 0.455500)" stroke-width="1.35">
                        <path d="M71.4697,44.5199 C57.0317,59.1169 42.6397,73.6659 28.1397,88.3249 C28.1397,86.9009 28.0207,85.5829 28.1687,84.2949 C28.3657,82.5779 28.6937,81.2159 28.2597,79.5099 C27.8927,78.0609 27.0747,76.6559 27.5037,75.1179 C27.8717,73.8029 29.1467,71.9289 27.6077,70.6229 C26.8027,69.9379 24.8387,70.4899 26.1347,68.5739 C26.7237,67.7039 28.1287,67.4789 29.0277,67.3159 C30.1887,67.1039 30.1797,67.0689 30.2537,65.8529 C30.2727,65.5359 30.3017,65.2179 30.3467,64.9039 C30.5127,63.7469 30.4817,62.6309 29.9037,61.5579 C28.8427,59.5879 28.7177,56.9979 27.5757,55.1619 C27.0077,54.2479 25.7257,53.9239 24.8177,53.4969 C23.3017,52.7829 23.8587,52.0539 23.1987,51.0069 C22.6427,50.1229 21.6287,50.3649 21.2167,49.4349 C20.8107,48.5209 20.1857,47.6559 20.0007,46.7029 C19.7757,45.5409 19.0667,44.5929 18.8557,43.4599 C18.5067,41.5849 17.2667,40.8699 15.4927,40.7029 C14.3307,40.5939 13.1377,40.4739 12.0387,40.1139 C9.6677,39.3339 7.9827,37.5259 6.2127,35.8769 C5.9827,35.6629 5.8567,35.2859 5.7837,34.9599 C5.4857,33.6199 4.7057,32.5699 3.8297,31.5649 C3.2667,30.9189 2.6977,30.2739 2.1877,29.5849 C1.8877,29.1809 1.6807,28.7029 1.4667,28.2419 C1.2047,27.6739 0.9777,27.0899 0.6747,26.3679 C9.3957,17.7659 18.2357,9.0459 27.1847,0.2189 C27.6677,0.6929 28.0827,1.0819 28.4787,1.4899 C28.8187,1.8409 29.1227,2.2279 29.4677,2.5749 C40.3317,13.4549 51.1937,24.3369 62.0677,35.2069 C65.1007,38.2399 68.1717,41.2339 71.2247,44.2469 C71.3097,44.3319 71.3857,44.4259 71.4697,44.5199 Z" id="Stroke-2" stroke="#2AABE1"></path>
                        <polyline id="Stroke-4" stroke="#194275" points="16.2383 18.8461 26.7973 8.6981 43.3893 25.5651"></polyline>
                        <path d="M41.4795,67.1313 L61.7925,46.2653" id="Stroke-6" stroke="#194275"></path>
                    </g>
                </g>
            </g>
        </g>
    </g>
</svg>