<?xml version="1.0" encoding="utf-8"?>

<svg width="56px" height="75px" viewBox="0 0 56 75" version="1.1" xmlns="http://www.w3.org/2000/svg" xmlns:xlink="http://www.w3.org/1999/xlink">
    <g id="Homepage" stroke="none" stroke-width="1" fill="none" fill-rule="evenodd">
        <g id="Corporate-Job-Listings---3.8.19" transform="translate(-980.000000, -1165.000000)">
            <g id="Group-23" transform="translate(980.000000, 1165.000000)">
                <path d="M15.8876,42.2927 C15.8876,44.1897 14.3496,45.7287 12.4506,45.7287 C10.5536,45.7287 9.0156,44.1897 9.0156,42.2927 C9.0156,40.3947 10.5536,38.8557 12.4506,38.8557 C14.3496,38.8557 15.8876,40.3947 15.8876,42.2927 Z" id="Stroke-1" stroke="#194275" stroke-width="1.35" stroke-linecap="round"></path>
                <path d="M16.1093,52.158 C16.1093,54.055 14.5713,55.595 12.6723,55.595 C10.7753,55.595 9.2373,54.055 9.2373,52.158 C9.2373,50.26 10.7753,48.721 12.6723,48.721 C14.5713,48.721 16.1093,50.26 16.1093,52.158 Z" id="Stroke-3" stroke="#194275" stroke-width="1.35" stroke-linecap="round"></path>
                <path d="M16.331,62.0232 C16.331,63.9202 14.793,65.4602 12.894,65.4602 C10.997,65.4602 9.459,63.9202 9.459,62.0232 C9.459,60.1262 10.997,58.5862 12.894,58.5862 C14.793,58.5862 16.331,60.1262 16.331,62.0232 Z" id="Stroke-5" stroke="#194275" stroke-width="1.35" stroke-linecap="round"></path>
                <path d="M27.6376,42.2927 C27.6376,44.1897 26.0986,45.7287 24.2006,45.7287 C22.3036,45.7287 20.7646,44.1897 20.7646,42.2927 C20.7646,40.3947 22.3036,38.8557 24.2006,38.8557 C26.0986,38.8557 27.6376,40.3947 27.6376,42.2927 Z" id="Stroke-7" stroke="#194275" stroke-width="1.35" stroke-linecap="round"></path>
                <path d="M27.8593,52.158 C27.8593,54.055 26.3203,55.595 24.4223,55.595 C22.5253,55.595 20.9863,54.055 20.9863,52.158 C20.9863,50.26 22.5253,48.721 24.4223,48.721 C26.3203,48.721 27.8593,50.26 27.8593,52.158 Z" id="Stroke-9" stroke="#194275" stroke-width="1.35" stroke-linecap="round"></path>
                <path d="M28.081,62.0232 C28.081,63.9202 26.542,65.4602 24.644,65.4602 C22.747,65.4602 21.208,63.9202 21.208,62.0232 C21.208,60.1262 22.747,58.5862 24.644,58.5862 C26.542,58.5862 28.081,60.1262 28.081,62.0232 Z" id="Stroke-11" stroke="#194275" stroke-width="1.35" stroke-linecap="round"></path>
                <path d="M39.3876,42.2927 C39.3876,44.1897 37.8486,45.7287 35.9506,45.7287 C34.0536,45.7287 32.5146,44.1897 32.5146,42.2927 C32.5146,40.3947 34.0536,38.8557 35.9506,38.8557 C37.8486,38.8557 39.3876,40.3947 39.3876,42.2927 Z" id="Stroke-13" stroke="#194275" stroke-width="1.35" stroke-linecap="round"></path>
                <path d="M39.6093,52.158 C39.6093,54.055 38.0703,55.595 36.1723,55.595 C34.2753,55.595 32.7363,54.055 32.7363,52.158 C32.7363,50.26 34.2753,48.721 36.1723,48.721 C38.0703,48.721 39.6093,50.26 39.6093,52.158 Z" id="Stroke-15" stroke="#194275" stroke-width="1.35" stroke-linecap="round"></path>
                <path d="M39.831,62.0232 C39.831,63.9202 38.292,65.4602 36.394,65.4602 C34.497,65.4602 32.958,63.9202 32.958,62.0232 C32.958,60.1262 34.497,58.5862 36.394,58.5862 C38.292,58.5862 39.831,60.1262 39.831,62.0232 Z" id="Stroke-17" stroke="#194275" stroke-width="1.35" stroke-linecap="round"></path>
                <polygon id="Clip-20" points="0 74.7524 55.913 74.7524 55.913 0.0004 0 0.0004"></polygon>
                <polygon id="Stroke-19" stroke="#2AABE1" stroke-width="1.403" stroke-linecap="round" stroke-linejoin="round" points="0.702 74.0504 48.144 74.0504 48.144 7.4634 0.702 7.4634"></polygon>
                <polyline id="Stroke-21" stroke="#194275" stroke-width="1.35" stroke-linecap="round" points="7.7958 0.6746 55.2378 0.6746 55.2378 67.2616"></polyline>
                <polygon id="Stroke-22" stroke="#ED4E23" stroke-width="1.4" stroke-linecap="round" stroke-linejoin="round" points="6.244 31.1034 41.715 31.1034 41.715 13.0894 6.244 13.0894"></polygon>
            </g>
        </g>
    </g>
</svg>