<?xml version="1.0" encoding="utf-8"?>
<!-- Generator: Adobe Illustrator 24.2.3, SVG Export Plug-In . SVG Version: 6.00 Build 0)  -->
<svg version="1.1" id="Layer_1" xmlns="http://www.w3.org/2000/svg" xmlns:xlink="http://www.w3.org/1999/xlink" x="0px" y="0px"
	 viewBox="0 0 70 69" style="enable-background:new 0 0 70 69;" xml:space="preserve">
<style type="text/css">
	.st0{fill:none;stroke:#2AABE1;stroke-width:1.4;stroke-linecap:round;}
	.st1{fill:none;stroke:#194275;stroke-width:1.4;stroke-linecap:round;}
	.st2{fill:none;stroke:#ED4E23;stroke-width:1.4;stroke-linecap:round;stroke-linejoin:round;}
</style>
<desc>Created with Sketch.</desc>
<circle class="st0" cx="31" cy="6" r="2"/>
<path class="st0" d="M36.2,6c0-2.9-2.4-5.3-5.3-5.3S25.7,3.1,25.7,6v2.8h-3.4c-0.8,0-1.5,0.7-1.5,1.5v3.9c0,0.8,0.7,1.5,1.5,1.5
	h17.4c0.8,0,1.5-0.7,1.5-1.5v-3.9c0-0.8-0.7-1.5-1.5-1.5h-3.4L36.2,6z"/>
<path class="st0" d="M23.2,65.7H12.3c-2.7,0-5-2.2-5-5V15.6c0-2.7,2.2-5,5-5h8.5"/>
<path class="st0" d="M41.2,10.6h8.3c2.7,0,5,2.2,5,5v9.9"/>
<line class="st1" x1="12.6" y1="40.2" x2="47.6" y2="40.2"/>
<line class="st1" x1="31.1" y1="28.4" x2="47.6" y2="28.4"/>
<line class="st1" x1="31.1" y1="34.3" x2="47.6" y2="34.3"/>
<line class="st1" x1="12.6" y1="46" x2="47.6" y2="46"/>
<line class="st1" x1="12.6" y1="51.9" x2="26.5" y2="51.9"/>
<desc>Created with Sketch.</desc>
<g id="Homepage_6_">
	<g id="Corporate-Job-Listings---3.8.19_7_" transform="translate(-423.000000, -1167.000000)">
		<g id="Group-13_6_" transform="translate(423.000000, 1167.000000)">
			<path id="Stroke-11_3_" class="st2" d="M60.7,29.3c0.8,0.3,1.4,0.8,1.9,1.4c1.6,1.6,2.4,3.6,2.6,5.9c0.1,1.3,0.1,2.5-0.1,3.8
				c-0.5,3.3-1.9,6.3-3.5,9.2c-1.9,3.3-4.2,6.4-7,9c-2.3,2.2-4.8,4.1-7.6,5.7c-2.5,1.5-5.2,2.7-8,3.4c-1.3,0.3-2.7,0.5-4,0.5
				c-2.4,0-4.6-0.6-6.5-2.2c-0.7-0.6-1.5-1.3-1.9-2.1c-0.3-0.7-0.5-1.5-0.6-2.3C26,60.8,26,60,26,59.1c0-0.4,0.2-0.6,0.6-0.8
				c1.4-0.6,2.7-1.2,4.1-1.7c1.9-0.8,3.7-1.5,5.6-2.2c0.3-0.1,0.7-0.2,1.1-0.4c0.4-0.1,0.7-0.1,1,0.1c0.6,0.4,1.2,0.9,1.8,1.4
				c0.6,0.5,1.2,1.1,1.8,1.7c0.4,0.5,0.7,0.5,1.3,0.2c1.8-0.8,3.2-2.1,4.6-3.4c1.8-1.7,3.6-3.4,5.1-5.3c0.4-0.5,0.8-1,1.1-1.5
				c0.3-0.5,0.5-1,0.7-1.5c0.1-0.3,0.1-0.6-0.2-0.9c-0.7-0.7-1.4-1.5-2.1-2.2c-0.4-0.5-0.8-1-1.1-1.5c-0.2-0.3-0.2-0.6-0.1-0.9
				c0.4-1.1,0.7-2.2,1.2-3.2c1-2.5,2.1-5.1,3.2-7.6c0.1-0.3,0.4-0.5,0.7-0.5C57.8,28.7,59.3,28.8,60.7,29.3z"/>
		</g>
	</g>
</g>
<path class="st1" d="M17.1,25.2h-3c-0.8,0-1.5,0.7-1.5,1.5v1.5c0,0.8,0.7,1.5,1.5,1.5h2.5l0.7,0v3.2c0,0.8,0.7,1.5,1.5,1.5h1.5
	c0.8,0,1.5-0.7,1.5-1.5v-3.2l0.7,0H25c0.8,0,1.5-0.7,1.5-1.5v-1.5c0-0.8-0.7-1.5-1.5-1.5h-2.6l-0.6,0V22c0-0.8-0.7-1.5-1.5-1.5h-1.5
	c-0.8,0-1.5,0.7-1.5,1.5v3.2L17.1,25.2z"/>
</svg>
