<?xml version="1.0" encoding="UTF-8"?>
<svg width="77px" height="77px" viewBox="0 0 77 77" version="1.1" xmlns="http://www.w3.org/2000/svg" xmlns:xlink="http://www.w3.org/1999/xlink">
    <!-- Generator: Sketch 53.2 (72643) - https://sketchapp.com -->
    <title>Group 21</title>
    <desc>Created with Sketch.</desc>
    <g id="Homepage" stroke="none" stroke-width="1" fill="none" fill-rule="evenodd" stroke-linecap="round">
        <g id="Our-Team---3.8.19" transform="translate(-1213.000000, -2640.000000)" stroke-width="1.56">
            <g id="Group-21" transform="translate(1213.000000, 2640.000000)">
                <path d="M74.863981,26.4321968 C74.0098857,24.1449587 72.5719175,22.4886413 70.7069016,21.6490222 C69.8503937,21.2641968 68.9528698,21.0687683 68.0372508,21.0687683 C64.1322984,21.0687683 60.1622032,24.7083238 58.1620762,30.1284508 C55.6854413,36.8417841 57.1258222,43.4175937 61.5121079,45.4237524 C62.3927429,45.8278794 63.3373143,46.0329587 64.3192825,46.0329587 C68.2966159,46.0329587 72.3390921,42.6937841 74.3790286,37.7248317 C75.9195365,33.9646413 76.1004889,29.742419 74.863981,26.4321968 Z" id="Stroke-1" stroke="#194275"></path>
                <path d="M18.3010413,30.129054 C16.2997079,24.708927 12.330819,21.0681651 8.42466032,21.0681651 C7.51024762,21.0681651 6.61151746,21.2635937 5.75621587,21.6496254 C3.88999365,22.4892444 2.4520254,24.1443556 1.59793016,26.4328 C0.361422222,29.7430222 0.542374603,33.9652444 2.08408889,37.7254349 C4.12281905,42.6943873 8.16650159,46.0335619 12.1438349,46.0335619 C13.1245968,46.0335619 14.0691683,45.8284825 14.9510095,45.4243556 C19.3360889,43.4181968 20.7776762,36.841181 18.3010413,30.129054 Z" id="Stroke-3" stroke="#194275"></path>
                <path d="M26.9869968,29.3773778 C27.3489016,29.3930603 27.7144254,29.3834095 28.0715048,29.3484254 C30.1765841,29.1409333 32.0777905,28.0612508 33.5724571,26.2251873 C35.9863619,23.2623937 36.6558857,18.623981 36.1480127,13.8528698 C35.3711238,6.49896508 31.4963302,1.01007619 26.289727,0.784488889 C26.289727,0.784488889 25.5478222,0.785695238 25.1690286,0.821885714 C22.8721397,1.04988571 20.7839492,2.24296508 19.1300444,4.27325079 C16.7342349,7.21915556 15.5821714,11.6006159 16.0490286,15.995346 C16.8162667,23.2660127 21.6211556,29.143346 26.9869968,29.3773778 Z" id="Stroke-5" stroke="#194275"></path>
                <path d="M20.1483238,18.6734413 C21.6357524,21.999346 24.0182921,24.5712825 26.747054,25.7209333" id="Stroke-7" stroke="#2AABE1"></path>
                <path d="M38.2305333,35.1111556 C25.7484381,35.1111556 13.2663429,49.9480444 13.2663429,64.1962349 C13.2663429,68.4486159 15.3979619,71.8674095 17.4921841,73.2691873 C20.0773905,74.9990921 21.9001841,75.6782667 25.6905333,75.6782667 C30.1950413,75.6782667 31.4110413,74.1027746 33.5197397,72.7130603 C35.0433587,71.7081714 36.3606921,70.8396 38.2317397,70.8396 C40.101581,70.8396 41.4189143,71.7081714 42.9425333,72.7130603 C45.0512317,74.1027746 46.2672317,75.6782667 50.7717397,75.6782667 C54.5620889,75.6782667 56.3848825,74.9990921 58.9688825,73.2691873 C61.0643111,71.8674095 63.1959302,68.4486159 63.1959302,64.1962349 C63.1959302,49.9480444 50.7138349,35.1111556 38.2305333,35.1111556 Z" id="Stroke-9" stroke="#194275"></path>
                <path d="M20.7891365,55.0806984 C20.3126286,56.0542222 19.8843746,57.048254 19.5079937,58.0591746" id="Stroke-11" stroke="#ED4E23" stroke-linejoin="round"></path>
                <path d="M34.1674286,40.9214159 C29.743746,43.1688444 25.7229841,46.9977968 22.7565714,51.5988127" id="Stroke-13" stroke="#ED4E23" stroke-linejoin="round"></path>
                <path d="M48.4280444,29.3113905 C48.7863302,29.3463746 49.151854,29.3560254 49.5125524,29.3403429 C54.8783937,29.1075175 59.6832825,23.2301841 60.4505206,15.9607238 C60.9185841,11.5647873 59.7653143,7.18212063 57.3682984,4.23742222 C55.7156,2.20593016 53.7046159,1.07316825 51.4089333,0.845168254 C51.0301397,0.808977778 50.2098222,0.784850794 50.2098222,0.784850794 C45.003219,1.0104381 41.1284254,6.46313651 40.3527429,13.8158349 C39.8436635,18.5881524 40.5131873,23.2265651 42.9258857,26.1893587 C44.4217587,28.0254222 46.3241714,29.1051048 48.4280444,29.3113905 Z" id="Stroke-15" stroke="#194275"></path>
                <path d="M56.6886413,17.1690032 C56.943181,13.0481143 55.7899111,9.01287619 53.5388635,6.24671746 C52.8958794,5.45776508 52.1998159,4.80392381 51.4542921,4.2864" id="Stroke-17" stroke="#2AABE1"></path>
                <path d="M43.4341206,68.0453333 C45.5283429,69.968254 48.2812317,71.1577143 51.114946,71.3688254 C52.8376127,71.4954921 54.6193905,71.2578413 56.1418032,70.4423492 C57.2830095,69.8295238 58.2601524,68.8668571 58.8174857,67.7075556" id="Stroke-19" stroke="#ED4E23" stroke-linejoin="round"></path>
            </g>
        </g>
    </g>
</svg>