<?xml version="1.0" encoding="UTF-8"?>
<svg width="72px" height="41px" viewBox="0 0 72 41" version="1.1" xmlns="http://www.w3.org/2000/svg" xmlns:xlink="http://www.w3.org/1999/xlink">
    <!-- Generator: Sketch 51.3 (57544) - http://www.bohemiancoding.com/sketch -->
    <title>Group 14 Copy 6</title>
    <desc>Created with Sketch.</desc>
    <defs></defs>
    <g id="Homepage" stroke="none" stroke-width="1" fill="none" fill-rule="evenodd" stroke-linecap="round" stroke-linejoin="round">
        <g id="Corporate-Jobs---3.8.19" transform="translate(-1025.000000, -5256.000000)">
            <g id="Open-Jobs" transform="translate(356.000000, 4821.000000)">
                <g id="Group-4" transform="translate(0.000000, 397.000000)">
                    <g id="Group-14-Copy-5" transform="translate(646.000000, 0.000000)">
                        <g id="Group-14-Copy-6" transform="translate(23.000000, 38.000000)">
                            <g id="Group-9">
                                <polygon id="Stroke-1" stroke="#ED4E23" stroke-width="1.024" points="40.0268 15.5651 41.8848 19.3311 46.0418 19.9351 43.0348 22.8671 43.7448 27.0051 40.0268 25.0511 36.3088 27.0051 37.0188 22.8671 34.0118 19.9351 38.1688 19.3311"></polygon>
                                <g id="Group-8" transform="translate(0.000000, 0.649600)" stroke-width="1.35">
                                    <path d="M70.8149,32.3852 C66.9479,33.7442 64.5189,37.4402 60.1869,37.1932 C59.7159,37.1662 58.9949,37.4432 58.7749,37.8102 C57.7439,39.5332 56.1269,39.3232 54.5269,39.3102 C37.4909,39.1722 20.4559,39.0442 3.4189,38.9082 C0.9899,38.8892 0.6249,38.5292 0.6799,36.0842 C0.9139,25.7592 1.1819,15.4342 1.3839,5.1082 C1.4099,3.7812 1.8779,2.9852 3.0959,2.4912 C4.7699,1.8142 6.3999,1.0312 8.0579,0.3132 C9.3069,-0.2268 10.3679,-0.0868 10.6629,1.4312 C10.9699,3.0182 12.0049,3.1552 13.3299,3.1762 C27.9489,3.4082 42.5679,3.6722 57.1859,3.9432 C58.6599,3.9702 60.1329,4.0732 61.6039,4.1892 C63.6849,4.3532 65.0259,5.5882 65.3249,7.5372 C65.6359,9.5802 66.4999,11.0182 68.2909,12.0012 C69.5559,12.6962 69.4029,13.3522 68.6859,14.6932 C67.1679,17.5292 65.9129,20.5862 65.1439,23.6992 C64.8589,24.8562 66.0619,26.5422 66.9019,27.7732 C67.9779,29.3512 69.3719,30.7132 70.8149,32.3852 Z" id="Stroke-2" stroke="#2AABE1"></path>
                                    <path d="M39.5649,7.4487 C44.0019,7.5287 48.4389,7.6097 52.8759,7.6917 C54.3489,7.7197 55.8229,7.8237 57.2939,7.9387 C59.3749,8.1027 60.7149,9.3387 61.0139,11.2877 C61.3259,13.3297 62.1889,14.7677 63.9799,15.7517" id="Stroke-4" stroke="#194275"></path>
                                    <path d="M34.4184,33.5903 C17.3824,33.4523 24.7204,33.3233 7.6844,33.1883 C5.2544,33.1693 4.8894,32.8093 4.9444,30.3633 C5.1784,20.0383 5.0344,28.2413 5.2364,17.9153" id="Stroke-6" stroke="#194275"></path>
                                </g>
                            </g>
                        </g>
                    </g>
                </g>
            </g>
        </g>
    </g>
</svg>