<?xml version="1.0" encoding="UTF-8"?>
<svg width="78px" height="87px" viewBox="0 0 78 87" version="1.1" xmlns="http://www.w3.org/2000/svg" xmlns:xlink="http://www.w3.org/1999/xlink">
    <!-- Generator: Sketch 53.2 (72643) - https://sketchapp.com -->
    <title>Group 21</title>
    <desc>Created with Sketch.</desc>
    <g id="Homepage" stroke="none" stroke-width="1" fill="none" fill-rule="evenodd" stroke-linecap="round">
        <g id="Our-Team---3.8.19" transform="translate(-509.000000, -1405.000000)" stroke-width="1.56">
            <g id="Group-21" transform="translate(509.000000, 1405.000000)">
                <path d="M14.6748766,53.3128333 C11.8270797,57.7012222 8.77354844,62.4610833 8.09739219,67.6473611" id="Stroke-1" stroke="#194275"></path>
                <polyline id="Stroke-3" stroke="#ED4E23" stroke-linejoin="round" points="67.4878531 42.0600917 76.717025 42.7707861 76.0023688 51.9333694"></polyline>
                <path d="M53.8457391,20.85285 C53.8926609,31.4499611 44.5287391,40.7391556 33.8461922,40.7319889 C22.9506922,40.7319889 13.7600203,31.6374889 13.7130984,20.8217944 C13.6733953,10.2390167 22.8568484,0.942655556 33.2578641,0.779016667 C44.0811766,0.59985 53.7903953,9.56893333 53.8457391,20.85285 Z" id="Stroke-5" stroke="#2AABE1"></path>
                <path d="M42.2997094,33.4062222 C39.8369125,35.088 36.9061,36.0889444 33.8309125,36.0865556 C25.4691938,36.0865556 18.4140687,29.1062222 18.377975,20.8060278 C18.3659437,17.759 19.3513031,14.8529167 21.0068031,12.4019167" id="Stroke-7" stroke="#194275"></path>
                <path d="M60.2538234,53.32215 C59.1625891,51.6200667 57.9245734,49.9968167 56.5301516,48.4583722 C53.6546828,45.2835389 50.3292453,42.8456778 46.5899328,41.1149278 C46.3721672,41.0134 46.1640266,40.8844 45.8836984,40.7315111" id="Stroke-9" stroke="#2AABE1" stroke-linejoin="round"></path>
                <path d="M66.0355609,68.1862944 C65.5723578,65.8344333 64.5376703,62.2248222 63.7580453,60.0413778" id="Stroke-11" stroke="#2AABE1" stroke-linejoin="round"></path>
                <path d="M22.1461625,76.1659 C28.1244906,76.6233722 34.124475,76.6890667 40.1401,76.4573444 C48.8411,76.1217056 57.474725,75.0526778 65.9796156,72.8692333 C66.4885375,72.7390389 66.7231469,72.5658444 66.6437406,71.9483167 C66.4813187,70.67265 66.2791938,69.4196778 66.0349594,68.1858167" id="Stroke-13" stroke="#2AABE1" stroke-linejoin="round"></path>
                <path d="M5.73830469,73.8482 C8.02544531,74.3307556 10.3186016,74.7428389 12.6141641,75.0904222" id="Stroke-15" stroke="#2AABE1" stroke-linejoin="round"></path>
                <path d="M21.6069219,40.7606556 C14.7442969,43.8626278 9.45054687,48.9067667 5.70401563,55.9420444 C2.97653125,61.0697944 1.4293125,66.6323222 0.78203125,72.6929333 C2.44715625,73.0835167 4.08701562,73.4991833 5.73890625,73.8479611" id="Stroke-17" stroke="#2AABE1" stroke-linejoin="round"></path>
                <polyline id="Stroke-19" stroke="#ED4E23" stroke-linejoin="round" points="5.73830469 85.65385 43.5705703 53.27485 53.3591953 64.6531278 75.7433359 43.3609611"></polyline>
            </g>
        </g>
    </g>
</svg>