<?xml version="1.0" encoding="utf-8"?>
<!-- Generator: Adobe Illustrator 24.0.1, SVG Export Plug-In . SVG Version: 6.00 Build 0)  -->
<svg version="1.1" id="Layer_1" xmlns="http://www.w3.org/2000/svg" xmlns:xlink="http://www.w3.org/1999/xlink" x="0px" y="0px"
	 viewBox="0 0 70 69" style="enable-background:new 0 0 70 69;" xml:space="preserve">
<style type="text/css">
	.st0{fill:none;stroke:#194275;stroke-width:1.0639;stroke-linecap:round;}
	.st1{fill:none;stroke:#2AABE1;stroke-width:1.0639;stroke-linecap:round;stroke-linejoin:round;}
	.st2{fill:none;stroke:#ED4E23;stroke-width:1.0639;stroke-linecap:round;stroke-linejoin:round;}
</style>
<title>Group 13</title>
<desc>Created with Sketch.</desc>
<g>
	<path class="st0" d="M60.5,47c0-5.1-4.2-9.3-9.3-9.3c-5.1,0-9.3,4.2-9.3,9.3c0,4.4,3,8,7.1,9c-0.8,4.6-4.7,8.1-9.6,8.1
		c-5.3,0-9.7-4.3-9.7-9.7V36.7c8.7-1,15.4-8.4,15.4-17.3v-16h-7.7V2c0-1.1-0.9-2-2-2s-2,0.9-2,2v6.7c0,1.1,0.9,2,2,2s2-0.9,2-2V7.4
		h3.7v12c0,7.4-6,13.4-13.4,13.4s-13.4-6-13.4-13.4v-12H18v1.3c0,1.1,0.9,2,2,2s2-0.9,2-2V2c0-1.1-0.9-2-2-2s-2,0.9-2,2v1.3h-7.7v16
		c0,8.9,6.7,16.3,15.4,17.3v17.8c0,7.6,6.2,13.8,13.8,13.8c7,0,12.8-5.3,13.7-12.1C57.3,55.2,60.5,51.5,60.5,47z"/>
	<path class="st1" d="M51.2,52.2c-2.9,0-5.2-2.3-5.2-5.2c0-2.9,2.3-5.2,5.2-5.2c2.9,0,5.2,2.3,5.2,5.2
		C56.4,49.9,54.1,52.2,51.2,52.2z"/>
	<line class="st2" x1="43.1" y1="7.9" x2="43.1" y2="19.7"/>
	<path class="st2" d="M42.7,23.1c0,0-0.2,1.6-1.1,2.9"/>
</g>
</svg>
