<?xml version="1.0" encoding="utf-8"?>
<!-- Generator: Adobe Illustrator 24.0.1, SVG Export Plug-In . SVG Version: 6.00 Build 0)  -->
<svg version="1.1" id="Layer_1" xmlns="http://www.w3.org/2000/svg" xmlns:xlink="http://www.w3.org/1999/xlink" x="0px" y="0px"
	 viewBox="0 0 89.7 90.3" style="enable-background:new 0 0 89.7 90.3;" xml:space="preserve">
<style type="text/css">
	.st0{fill:none;stroke:#194275;stroke-width:1.7091;stroke-linecap:round;}
	.st1{fill:none;stroke:#2AABE1;stroke-width:1.7091;stroke-linecap:round;}
	.st2{fill:none;stroke:#ED4E23;stroke-width:1.7091;stroke-linecap:round;stroke-linejoin:round;}
</style>
<g>
	<title>Group 15</title>
	<desc>Created with Sketch.</desc>
	<line class="st0" x1="27.4" y1="11.2" x2="27.4" y2="19.2"/>
	<line class="st0" x1="60.6" y1="11.2" x2="60.6" y2="19.2"/>
	<line class="st0" x1="35.7" y1="15.1" x2="60.6" y2="15.1"/>
	<path class="st0" d="M70,15.1h8.4c5.1,0,9.3,4.2,9.3,9.3v45.3c0,5.1-4.2,9.3-9.3,9.3H12c-5.1,0-9.3-4.2-9.3-9.3V24.4
		c0-5.1,4.2-9.3,9.3-9.3h15.1"/>
	<path class="st1" d="M20.2,49.6h-4c-2.6,0-4.6-2.1-4.6-4.6v-4c0-2.6,2.1-4.6,4.6-4.6h4c2.6,0,4.6,2.1,4.6,4.6v4
		C24.8,47.5,22.7,49.6,20.2,49.6z"/>
	<path class="st1" d="M73.7,49.6h-4c-2.6,0-4.6-2.1-4.6-4.6v-4c0-2.6,2.1-4.6,4.6-4.6h4c2.6,0,4.6,2.1,4.6,4.6v4
		C78.5,47.5,76.4,49.6,73.7,49.6z"/>
	<path class="st1" d="M37.6,49.6h-4c-2.6,0-4.6-2.1-4.6-4.6v-4c0-2.6,2.1-4.6,4.6-4.6h4c2.6,0,4.6,2.1,4.6,4.6v4
		C42.3,47.5,40.2,49.6,37.6,49.6z"/>
	<path class="st1" d="M20.2,69.6h-4c-2.6,0-4.6-2.1-4.6-4.6v-4c0-2.6,2.1-4.6,4.6-4.6h4c2.6,0,4.6,2.1,4.6,4.6v4
		C24.8,67.5,22.7,69.6,20.2,69.6z"/>
	<path class="st1" d="M78.5,62.3v2.6c0,2.6-2.1,4.6-4.6,4.6h-4c-2.6,0-4.6-2.1-4.6-4.6v-4c0-2.6,2.1-4.6,4.6-4.6h5.4"/>
	<path class="st1" d="M37.6,69.6h-4c-2.6,0-4.6-2.1-4.6-4.6v-4c0-2.6,2.1-4.6,4.6-4.6h4c2.6,0,4.6,2.1,4.6,4.6v4
		C42.3,67.5,40.2,69.6,37.6,69.6z"/>
	<path class="st1" d="M55.7,49.6h-4c-2.6,0-4.6-2.1-4.6-4.6v-4c0-2.6,2.1-4.6,4.6-4.6h4c2.6,0,4.6,2.1,4.6,4.6v4
		C60.4,47.5,58.2,49.6,55.7,49.6z"/>
	<path class="st1" d="M55.7,69.6h-4c-2.6,0-4.6-2.1-4.6-4.6v-4c0-2.6,2.1-4.6,4.6-4.6h4c2.6,0,4.6,2.1,4.6,4.6v4
		C60.4,67.5,58.2,69.6,55.7,69.6z"/>
	<line class="st2" x1="5.9" y1="30.9" x2="83.4" y2="30.9"/>
	<polyline class="st2" points="67.9,62.9 71.8,66.1 80.2,55.1 	"/>
</g>
</svg>
