<?xml version="1.0" encoding="UTF-8"?>
<svg width="54px" height="87px" viewBox="0 0 54 87" version="1.1" xmlns="http://www.w3.org/2000/svg" xmlns:xlink="http://www.w3.org/1999/xlink">
    <!-- Generator: Sketch 53.2 (72643) - https://sketchapp.com -->
    <title>Group 15</title>
    <desc>Created with Sketch.</desc>
    <g id="Homepage" stroke="none" stroke-width="1" fill="none" fill-rule="evenodd" stroke-linecap="round">
        <g id="Our-Team---3.8.19" transform="translate(-502.000000, -3884.000000)" stroke-width="1.56">
            <g id="Group-15" transform="translate(502.000000, 3884.000000)">
                <path d="M31.9021455,45.6558472 L31.9021455,5.91906944 C31.9021455,3.090625 29.5689409,0.776986111 26.7153727,0.776986111 C23.8630091,0.776986111 21.5298045,3.090625 21.5298045,5.91906944 L21.5298045,45.6558472" id="Stroke-1" stroke="#2AABE1"></path>
                <path d="M42.2748477,45.6558472 L42.2748477,12.9889861 C42.2748477,10.1605417 39.9416432,7.84690278 37.088075,7.84690278 C34.2357114,7.84690278 31.9025068,10.1605417 31.9025068,12.9889861" id="Stroke-3" stroke="#2AABE1"></path>
                <path d="M42.2748477,26.7710833 C42.2748477,23.9426389 44.6080523,21.6278056 47.4616205,21.6278056 C50.3139841,21.6278056 52.6471886,23.9426389 52.6471886,26.7710833 L52.6471886,59.9073611 C52.6471886,74.0495833 40.9787568,85.6225556 26.7157341,85.6225556 C12.4527114,85.6225556 0.783075,74.0495833 0.783075,59.9073611 L0.783075,37.6715833 C0.783075,34.8431389 3.11627955,32.5283056 5.96864318,32.5283056 C8.82221136,32.5283056 11.1554159,34.8431389 11.1554159,37.6715833" id="Stroke-5" stroke="#2AABE1"></path>
                <path d="M9.07215455,69.2647583 C7.1762,66.1317306 6.08488182,62.4719528 6.08488182,58.5708972 L6.08488182,51.1557861" id="Stroke-7" stroke="#194275"></path>
                <path d="M47.7882932,57.9642389 C47.7882932,69.4571833 38.3049068,78.85985 26.715975,78.85985" id="Stroke-9" stroke="#194275"></path>
                <path d="M11.1554159,52.5461194 L11.1554159,15.4956472 C11.1554159,12.6672028 13.4886205,10.3535639 16.3421886,10.3535639 C19.1945523,10.3535639 21.5289614,12.6672028 21.5289614,15.4956472" id="Stroke-11" stroke="#2AABE1"></path>
                <path d="M26.6781523,69.2647583 C23.8161523,66.8591472 20.8794705,64.5550639 19.2075614,61.1329806 C18.1355159,58.9399806 19.0810841,56.565425 21.2167432,55.7352861 C23.4752659,54.856175 25.7723341,55.9777583 26.5721523,58.3487306 C26.5986523,58.425175 26.6287659,58.4992306 26.6143114,58.4633972 C27.0539705,57.8243694 27.4201523,57.0527583 27.9971295,56.4961472 C29.294425,55.2407861 31.3325159,55.1129806 32.8225386,56.0625639 C34.3523114,57.0396194 35.0991295,58.8993694 34.4077205,60.6444528 C33.931925,61.8412861 33.2212432,62.9855639 32.4238341,64.0068139 C30.8229932,66.0540917 28.8222432,67.7036194 26.6781523,69.2647583 Z" id="Stroke-13" stroke="#ED4E23" stroke-linejoin="round"></path>
            </g>
        </g>
    </g>
</svg>