<?xml version="1.0" encoding="UTF-8"?>
<svg width="80px" height="69px" viewBox="0 0 80 69" version="1.1" xmlns="http://www.w3.org/2000/svg" xmlns:xlink="http://www.w3.org/1999/xlink">
    <!-- Generator: Sketch 51.3 (57544) - http://www.bohemiancoding.com/sketch -->
    <title>Group 7</title>
    <desc>Created with Sketch.</desc>
    <defs></defs>
    <g id="Homepage" stroke="none" stroke-width="1" fill="none" fill-rule="evenodd" stroke-linecap="round" stroke-linejoin="round">
        <g id="Corporate-Jobs---3.8.19" transform="translate(-1016.000000, -4992.000000)">
            <g id="Open-Jobs" transform="translate(356.000000, 4821.000000)">
                <g id="Group-3" transform="translate(32.000000, 142.000000)">
                    <g id="Group-20" transform="translate(614.000000, 0.000000)">
                        <g id="Group-7" transform="translate(14.000000, 28.000000)">
                            <g id="Group-6" transform="translate(0.000000, 0.810000)" stroke-width="1.35">
                                <path d="M76.7317,61.4316 C76.3367,62.2286 76.3097,63.2316 76.2247,64.1496 C76.0317,66.1586 75.0527,67.2486 72.9957,67.6116 C66.6427,68.7266 67.0087,69.3236 64.0217,63.1746 C63.6147,62.3326 62.6567,61.5076 61.7747,61.2096 C60.2007,60.6786 59.3547,59.7806 58.8597,58.2266 C58.5087,57.1316 57.7767,56.1496 57.1887,55.1346 C56.4037,53.7736 55.5897,52.4286 54.5277,50.6456 C53.5167,50.5036 52.5507,49.4336 52.0797,47.8066 C51.9347,47.2956 51.7247,46.7916 51.4717,46.3216 C48.4717,40.7776 47.8797,34.9516 49.3257,28.8476 C49.5397,27.9566 49.6357,26.8866 49.3217,26.0736 C49.0197,25.2846 48.1987,24.6166 47.4647,24.0836 C46.1577,23.1256 44.5307,22.5176 43.4307,21.3826 C41.7117,19.6116 40.2537,17.5706 38.8257,15.5486 C38.0197,14.4126 37.1697,14.2236 35.9147,14.5856 C32.9597,15.4406 29.9677,16.1526 27.0117,17.0056 C25.3297,17.4896 23.7187,17.3966 22.4997,16.1766 C17.9817,11.6516 12.5217,10.3146 6.3617,11.1236 C5.7657,11.2006 5.1537,11.1606 4.5497,11.1236 C2.4447,11.0066 1.5747,9.9686 2.0937,7.9756 C2.3597,6.9566 2.2307,6.3806 1.4657,5.5436 C0.8417,4.8596 0.4667,3.3576 0.7977,2.5516 C1.1277,1.7466 2.4767,0.8576 3.3667,0.8656 C10.8067,0.9536 18.2477,1.1916 25.6797,1.5336 C26.5977,1.5776 27.8617,2.2856 28.2767,3.0556 C28.9937,4.3876 30.0007,4.5976 31.2237,4.6816 C37.7067,5.1286 44.1967,5.5476 50.6787,6.0306 C52.1077,6.1356 53.5247,6.4616 54.9827,6.6916 C54.9427,5.4026 55.0307,3.8806 57.0157,3.6226 C59.8227,3.2566 62.5197,4.4486 63.0997,6.4166 C63.7037,8.4666 64.2427,10.5516 64.5887,12.6586 C65.1407,16.0276 66.4047,19.0556 68.3007,21.8776 C69.4577,23.5966 70.5767,25.3646 71.4857,27.2206 C71.9207,28.1026 72.2267,29.3906 71.8967,30.2286 C71.3127,31.7136 71.5707,32.8976 72.1507,34.2426 C73.9617,38.4136 76.0277,42.5166 77.3687,46.8406 C78.8617,51.6566 79.0797,56.6446 76.7317,61.4316 Z" id="Stroke-2" stroke="#2AABE1"></path>
                                <path d="M58,10.19 C59.812,14.362 61.877,18.464 63.218,22.789 C64.712,27.604 68.848,33.903 66.5,38.69" id="Stroke-4" stroke="#194275"></path>
                            </g>
                            <polygon id="Stroke-1" stroke="#ED4E23" stroke-width="1.024" points="68.015 44 69.873 47.766 74.03 48.37 71.023 51.301 71.733 55.44 68.015 53.486 64.298 55.44 65.008 51.301 62 48.37 66.157 47.766"></polygon>
                        </g>
                    </g>
                </g>
            </g>
        </g>
    </g>
</svg>