<?xml version="1.0" encoding="UTF-8"?>
<svg width="50px" height="76px" viewBox="0 0 50 76" version="1.1" xmlns="http://www.w3.org/2000/svg" xmlns:xlink="http://www.w3.org/1999/xlink">
    <!-- Generator: Sketch 51.3 (57544) - http://www.bohemiancoding.com/sketch -->
    <title>Group 7</title>
    <desc>Created with Sketch.</desc>
    <defs></defs>
    <g id="Homepage" stroke="none" stroke-width="1" fill="none" fill-rule="evenodd" stroke-linecap="round" stroke-linejoin="round">
        <g id="Corporate-Jobs---3.8.19" transform="translate(-749.000000, -5493.000000)">
            <g id="Open-Jobs" transform="translate(356.000000, 4821.000000)">
                <g id="Group-2" transform="translate(33.000000, 652.000000)">
                    <g id="Group-19" transform="translate(323.000000, 0.000000)">
                        <g id="Group-7" transform="translate(37.000000, 20.000000)">
                            <polygon id="Stroke-1" stroke="#ED4E23" stroke-width="1.024" points="22.9656 6.5052 24.8236 10.2722 28.9806 10.8752 25.9726 13.8072 26.6826 17.9462 22.9656 15.9912 19.2476 17.9462 19.9576 13.8072 16.9496 10.8752 21.1066 10.2722"></polygon>
                            <g id="Group-6" transform="translate(0.000000, 0.593300)" stroke-width="1.35">
                                <path d="M20.9881,74.3182 C19.5681,74.3872 18.9431,73.9252 18.6281,72.5512 C15.7131,59.8392 12.8251,47.1192 9.8571,34.4182 C9.4861,32.8332 8.7411,31.3272 8.0991,29.8132 C5.4351,23.5342 3.0261,17.1612 0.8801,10.6842 C0.4081,9.2612 0.7741,8.2342 1.7381,7.3582 C4.5641,4.7912 7.4541,2.2822 10.9451,0.6382 C11.7541,0.2572 12.7271,0.1062 13.6311,0.0822 C14.7091,0.0532 15.3611,1.1502 15.2591,2.3582 C14.9191,6.3292 13.8431,10.1482 12.9051,13.9952 C12.7661,14.5612 12.8111,15.0042 13.1171,15.5102 C14.3811,17.6062 15.5821,19.7392 16.8491,21.8332 C17.0681,22.1942 17.4571,22.5182 17.8421,22.7022 C19.1891,23.3412 20.5941,23.8642 21.9261,24.5322 C22.4411,24.7902 22.9641,25.2392 23.2381,25.7362 C24.7571,28.4862 26.3191,31.2232 27.6351,34.0712 C28.8421,36.6812 29.8771,39.3872 30.7621,42.1252 C31.4931,44.3832 32.6071,46.1372 34.7841,47.2542 C36.2421,48.0022 37.5511,49.0432 38.9101,49.9792 C39.2881,50.2402 39.5961,50.3372 40.0191,50.0712 C42.1281,48.7482 43.2461,49.5332 43.8981,51.7362 C45.5241,57.2362 47.3221,62.6842 49.0461,68.1552 C49.5521,69.7652 48.9951,70.6512 47.3101,70.9632 C42.6791,71.8192 38.0541,72.7122 33.4151,73.5202 C32.1001,73.7492 30.7451,73.7542 29.4071,73.8352 C26.6011,74.0062 23.7951,74.1582 20.9881,74.3182 Z" id="Stroke-2" stroke="#2AABE1"></path>
                                <path d="M37.1873,68.0535 C35.8733,68.2825 34.5173,68.2875 33.1793,68.3685 C30.3743,68.5395 27.5673,68.6925 24.7603,68.8525 C23.3403,68.9215 22.7153,68.4595 22.4003,67.0855 C20.5963,59.2205 18.8033,51.3535 16.9963,43.4895" id="Stroke-4" stroke="#194275"></path>
                            </g>
                        </g>
                    </g>
                </g>
            </g>
        </g>
    </g>
</svg>