<svg xmlns="http://www.w3.org/2000/svg" viewBox="0 0 1862.94 319.05"><defs><style>.cls-1,.cls-2{fill:#fff;}.cls-2{stroke:#fff;stroke-miterlimit:10;stroke-width:3px;}</style></defs><g id="Layer_2" data-name="Layer 2"><g id="_01_ShortLogo" data-name="01_ShortLogo"><path class="cls-1" d="M897.1,0h-334c7.72,7.12,12.28,17.5,12.29,29.87V288.26c0,12.61-5,23.31-13.2,30.5H879.44c30.23,0,40.39-10.16,40.39-22.7V22.7A22.7,22.7,0,0,0,897.1,0ZM810.39,68A22.37,22.37,0,1,1,788,90.37,22.37,22.37,0,0,1,810.39,68ZM681.84,68a22.37,22.37,0,1,1-22.38,22.37A22.37,22.37,0,0,1,681.84,68Zm92.38,145.2c-.54.51-1.09,1.05-1.62,1.58a90.46,90.46,0,0,0-6.44,7.13,91.5,91.5,0,0,0-20,44.16,91.39,91.39,0,0,0-20-44.16,92.47,92.47,0,0,0-6.44-7.13c-.53-.53-1.08-1.07-1.63-1.58a99.69,99.69,0,0,0-16.65-12.92,26.15,26.15,0,0,1,5.42-4.6,2.3,2.3,0,0,1,.23-.15c.43-.28.9-.55,1.38-.82s.93-.51,1.43-.74c.33-.17.7-.32,1.05-.47,0,0,0,0,.06,0,.28-.12.58-.25.88-.35L712,193c.41-.16.84-.31,1.28-.44s.84-.27,1.29-.39.75-.18,1.15-.26a21.3,21.3,0,0,1,2.84-.47c.42-.05.83-.08,1.27-.11s1.16-.05,1.77-.05a29.47,29.47,0,0,1,4.11.28l1.45.23,1,.18,1,.24c.53.13,1.08.26,1.64.43s1.13.33,1.7.53,1.75.62,1.75.62c8,3.2,11.69,10.33,11.86,10.17.17.16,3.82-7,11.87-10.17,0,0,1.17-.44,1.75-.62s1.13-.36,1.69-.53,1.12-.3,1.65-.43l1-.24,1-.18,1.45-.23a29.44,29.44,0,0,1,4.1-.28c.62,0,1.2,0,1.78.05s.85.06,1.27.11a21.57,21.57,0,0,1,2.84.47c.4.08.78.16,1.15.26s.86.25,1.29.39.87.28,1.28.44a1,1,0,0,1,.18.09c.3.1.6.23.89.35,0,0,.05,0,.06,0,.35.15.72.3,1,.47.5.23,1,.48,1.43.74s.95.54,1.38.82a2.3,2.3,0,0,1,.23.15,26.43,26.43,0,0,1,5.42,4.6A100.17,100.17,0,0,0,774.22,213.2Zm-46-38.65A17.88,17.88,0,1,1,755,190a2.59,2.59,0,0,1-.52.29,17.8,17.8,0,0,1-16.45.17.72.72,0,0,1-.19-.11,6.54,6.54,0,0,1-.64-.35.07.07,0,0,1-.06,0A17.83,17.83,0,0,1,728.24,174.55Zm59.24,18a30.43,30.43,0,0,0-16.85-5,36.31,36.31,0,0,0-8.23,1,21.49,21.49,0,1,0-32.57,0,36.45,36.45,0,0,0-8.23-1,30.43,30.43,0,0,0-16.85,5,218.59,218.59,0,0,0-27.64-29.9,230.75,230.75,0,0,0-32.74-25l1.13-1.26a61.87,61.87,0,0,1,45.55-20.52,66.83,66.83,0,0,1,7.91.62c1.07.16,2.22.35,3.34.54.73.12,1.5.27,2.26.42s1.58.35,2.38.54c1.23.31,2.5.62,3.81,1s2.61.77,3.91,1.23,4,1.42,4,1.42c18.61,7.4,27,23.87,27.41,23.51.4.36,8.81-16.11,27.42-23.51,0,0,2.69-1,4-1.42s2.61-.85,3.91-1.23,2.58-.69,3.8-1c.81-.19,1.62-.38,2.38-.54s1.54-.3,2.27-.42c1.12-.19,2.27-.38,3.34-.54a66.5,66.5,0,0,1,7.9-.62,61.86,61.86,0,0,1,45.54,20.52l1.13,1.27a230.51,230.51,0,0,0-32.46,24.71A217,217,0,0,0,787.48,192.52Z"/><path class="cls-1" d="M414.9,45.21V79.53h-45V45.23H266.4V79.51H221.46V45.06H131c.53-8.09.17-16,1.74-23.41C135.37,9,147.14.28,160.06,0c1.62,0,3.24,0,4.86,0H533.05c18.18,0,30.31,12.09,30.32,30.19q0,22.82,0,45.65v3.68H518.44V45.21Z"/><path class="cls-1" d="M518.17,182H479c-7.44,0-14.89.1-22.34,0-15.28-.28-27.87-12.28-28-27.5-.28-31.4-.1-62.8-.1-94.21a14.31,14.31,0,0,1,.19-1.54h44.66V137h3.92q28,0,56,0c18,0,30.08,12.14,30.08,30.06q0,60.87,0,121.73c0,17.9-12.17,30.16-30.06,30.17q-66.53,0-133.06,0c-18.28,0-30.37-12.18-30.38-30.52q0-22.67,0-45.33V239.4h45v34.31H518.17Z"/><path class="cls-1" d="M414.69,199.17H370V182.22H325.14V318.68c-1.21.13-2.12.31-3,.31-13.06,0-26.12-.05-39.17.06-2.47,0-3.07-.76-3.07-3.13,0-27.81.06-239,.06-254.47,0-.85.1-1.7.16-2.8H325v78.18h44.91v-17h44.82Z"/><path class="cls-1" d="M131.45,58.61h45V273.76h44.93V239.35h45v3.32c0,8,0,38.6,0,46,0,17.81-12.57,30.32-30.44,30.35q-36.91.06-73.81,0c-18,0-30.61-12.55-30.62-30.53q0-113.31,0-226.62Z"/><path class="cls-1" d="M119.56,288.46V273.77H101V19.4A19.4,19.4,0,0,0,81.6,0H17.54a1.24,1.24,0,0,0-1.23,1.24V43.79a1.44,1.44,0,0,0,1.44,1.44h38V273.77H0V319H133.33C124.76,312,119.56,301.2,119.56,288.46Z"/><path class="cls-1" d="M677.11,162.62a218,218,0,0,0-31.2-23.4L644,138.06l.35-.4A230.75,230.75,0,0,1,677.11,162.62Z"/><path class="cls-1" d="M848.19,138.06l-1.89,1.16a217.3,217.3,0,0,0-30.92,23.16,230.51,230.51,0,0,1,32.46-24.71Z"/><path class="cls-2" d="M1030.13,150H986.79l1.09-5.43v-7h14.34V72.5h-10.7v-7L990.43,60h24.27v77.54H1029v7Z"/><path class="cls-2" d="M1090.41,109.6v32.3a8.13,8.13,0,0,1-8.13,8.13H1049.5a8,8,0,0,1-8-8V123.3l-1.09-5.43H1055l-1.09,5.43v12.22a2,2,0,0,0,2,2h19.94a2,2,0,0,0,2-2V115.39a3.12,3.12,0,0,0-2.38-3L1049,105.77a9.06,9.06,0,0,1-7.21-8.87V69a8.13,8.13,0,0,1,8.13-8.13h31a8,8,0,0,1,8,8v13l1.08,5.43h-14.64l1.09-5.43V75.32a2,2,0,0,0-2-2h-18.19a2,2,0,0,0-2,2V91.11a3.11,3.11,0,0,0,2.38,3l26.59,6.59A9.07,9.07,0,0,1,1090.41,109.6Z"/><path class="cls-2" d="M1158.65,60.82l-1.08,5.43v4.87h-22.39V144.6l1.08,5.43h-14.64l1.09-5.43V71.12h-22.39V66.25l-1.09-5.43Z"/><path class="cls-2" d="M1245.45,114.6h14.64L1259,120v22a8,8,0,0,1-8,8h-37a8.12,8.12,0,0,1-8.12-8.13V68.15A8.13,8.13,0,0,1,1214,60h37a8,8,0,0,1,8,8V84.59l1.09,5.43h-14.64l1.08-5.43V74.53a2,2,0,0,0-2-2h-24.1a2,2,0,0,0-2,2v61a2,2,0,0,0,2,2h24.1a2,2,0,0,0,2-2V120Z"/><path class="cls-2" d="M1329.74,144.68l1.09,5.43h-14.65l1.09-5.43V107.62h-29.1v37.06l1.09,5.43h-14.65l1.09-5.43V65.54l-1.09-5.43h14.65l-1.09,5.43V96.69h29.1V65.54l-1.09-5.43h14.65l-1.09,5.43Z"/><path class="cls-2" d="M1402.33,68.85V142a8,8,0,0,1-8,8h-39.12a8.13,8.13,0,0,1-8.13-8.13V69a8.13,8.13,0,0,1,8.13-8.13h39.12A8,8,0,0,1,1402.33,68.85Zm-12.47,66.67V75.32a2,2,0,0,0-2-2h-26.26a2,2,0,0,0-2,2v60.2a2,2,0,0,0,2,2h26.26a2,2,0,0,0,2-2Z"/><path class="cls-2" d="M1432.12,144.6l1.08,5.43h-14.74l1.09-5.43.07-79.15L1418.54,60h14.66l-1.08,5.43Z"/><path class="cls-2" d="M1489.16,114.6h14.65l-1.09,5.43v22a8,8,0,0,1-8,8h-37a8.13,8.13,0,0,1-8.13-8.13V68.15a8.13,8.13,0,0,1,8.13-8.13h37a8,8,0,0,1,8,8V84.59l1.09,5.43h-14.65l1.09-5.43V74.53a2,2,0,0,0-2-2h-24.1a2,2,0,0,0-2,2v61a2,2,0,0,0,2,2h24.1a2,2,0,0,0,2-2V120Z"/><path class="cls-2" d="M1567.27,144.6l1.09,5.43h-50l1.09-5.43V65.45L1518.33,60h50l-1.09,5.43v7h-35.38v23h32.83v12h-32.83v27.84h35.38Z"/><path class="cls-2" d="M1039.77,185.18l-1.09,5.43v7H1003.3v23h33.92v12H1003.3v37.06l1.09,5.43H989.74l1.09-5.43V190.61l-1.09-5.43Z"/><path class="cls-2" d="M1093.12,269.71V240.33H1064.7v29.38l1.1,5.48H1051l1.1-5.48V193.29a8.11,8.11,0,0,1,8.1-8.11h37.28a8.2,8.2,0,0,1,8.2,8.2v76.23l1.09,5.48c0,.05-14.77.1-14.77.1Zm0-41.1V199.82a2,2,0,0,0-2-2h-24.32a2,2,0,0,0-2,2v28.79Z"/><path class="cls-2" d="M1194.65,270.07l1.08,5.43h-14.64l1.09-5.43V208.93l-18.28,46.92v4.66h-10.69v-4.66l-17.6-44.07v58.29l1.08,5.43h-14.64l1.09-5.43V190.7l-1.09-5.43h14.64l21.87,54.15,21.86-54.15h15.31l-1.08,5.43Z"/><path class="cls-2" d="M1224.68,269.76l1.09,5.43H1211l1.09-5.43.08-79.15-1.09-5.43h14.67l-1.09,5.43Z"/><path class="cls-2" d="M1290.42,275.27h-49l1.08-5.43V190.7l-1.08-5.43h14.64L1255,190.7v72.1h34.36v7Z"/><path class="cls-2" d="M1316.42,236v33.76l1.08,5.43h-14.64l1.08-5.43V236l-20.43-44.59-3.25-5.42H1296l-.51,5.38,14.69,32.07h0l14.69-32.07-.5-5.38h15.72l-3.25,5.42Z"/><path class="cls-2" d="M1435.54,234.76v32.3a8.13,8.13,0,0,1-8.13,8.13h-32.78a8,8,0,0,1-8-8V248.46l-1.09-5.43h14.64l-1.08,5.43v12.22a2,2,0,0,0,2,2H1421a2,2,0,0,0,2-2V240.55a3.13,3.13,0,0,0-2.38-3l-26.59-6.58a9.07,9.07,0,0,1-7.2-8.87v-28A8.12,8.12,0,0,1,1395,186h31a8,8,0,0,1,8,8v13l1.08,5.43h-14.64l1.08-5.43v-6.53a2,2,0,0,0-2-2h-18.2a2,2,0,0,0-2,2v15.79a3.11,3.11,0,0,0,2.38,3l26.58,6.59A9.06,9.06,0,0,1,1435.54,234.76Z"/><path class="cls-2" d="M1499.84,269.76l1.08,5.43h-50l1.08-5.43V190.61l-1.08-5.43h50l-1.08,5.43v7h-35.39v23h32.83v12h-32.83v27.84h35.39Z"/><path class="cls-2" d="M1556.43,268.67l-13.57-32.3h-15.33v33.39l1.08,5.43H1514l1.09-5.43V191.4L1514,186h42.93a8,8,0,0,1,7.95,8v33.84a8.71,8.71,0,0,1-8.71,8.71l14.94,33.28,1.08,5.43h-16.81Zm-4-46V200.24a1.79,1.79,0,0,0-1.79-1.79h-23.06v26h23.06A1.79,1.79,0,0,0,1552.38,222.66Z"/><path class="cls-2" d="M1636.32,191.09l-14.83,78.36,1.08,5.42h-29.85l1.08-5.42L1579,191.09l-2.18-5.42h15.73l-.2,5.37,13.47,70.48h3.71L1623,191l-.2-5.37h15.72Z"/><path class="cls-2" d="M1662.89,269.76l1.09,5.43h-14.75l1.09-5.43.07-79.15-1.08-5.43H1664l-1.09,5.43Z"/><path class="cls-2" d="M1719.93,239.76h14.65l-1.09,5.43v22a8,8,0,0,1-8,8h-37a8.12,8.12,0,0,1-8.12-8.13V193.31a8.12,8.12,0,0,1,8.12-8.13h37a8,8,0,0,1,8,8v16.54l1.09,5.43h-14.64l1.08-5.43V199.69a2,2,0,0,0-2-2h-24.1a2,2,0,0,0-2,2v61a2,2,0,0,0,2,2H1719a2,2,0,0,0,2-2V245.19Z"/><path class="cls-2" d="M1798,269.76l1.09,5.43h-50l1.09-5.43V190.61l-1.09-5.43h50l-1.09,5.43v7h-35.38v23h32.83v12h-32.83v27.84H1798Z"/><path class="cls-2" d="M1861.44,234.76v32.3a8.13,8.13,0,0,1-8.13,8.13h-32.78a8,8,0,0,1-8-8V248.46l-1.09-5.43h14.64l-1.08,5.43v12.22a2,2,0,0,0,2,2h19.93a2,2,0,0,0,2-2V240.55a3.13,3.13,0,0,0-2.38-3L1820,230.93a9.07,9.07,0,0,1-7.2-8.87v-28a8.12,8.12,0,0,1,8.13-8.12h31a8,8,0,0,1,8,8v13l1.09,5.43h-14.64l1.08-5.43v-6.53a2,2,0,0,0-2-2h-18.2a2,2,0,0,0-2,2v15.79a3.11,3.11,0,0,0,2.38,3l26.58,6.59A9.06,9.06,0,0,1,1861.44,234.76Z"/></g></g></svg>