<svg id="Layer_1" data-name="Layer 1" xmlns="http://www.w3.org/2000/svg" viewBox="0 0 460 230"><defs><style>.cls-1{fill:#f5f5f5;}.cls-2{fill:#e0e0e0;}.cls-3{fill:#fff;}.cls-4{fill:#263238;}.cls-5{fill:#e8505b;}.cls-6{fill:#ffbe9d;}.cls-7{fill:#eb996e;}.cls-8{fill:#455a64;}.cls-9{fill:none;stroke:#e0e0e0;stroke-linecap:round;stroke-miterlimit:10;stroke-width:2px;}</style></defs><rect class="cls-1" x="154.35" y="33.29" width="212.17" height="141.44" rx="11.09"/><rect class="cls-2" x="157.81" y="36.74" width="204.68" height="134.15" rx="11.09"/><rect class="cls-3" x="160.89" y="78.04" width="196.77" height="74.11"/><rect class="cls-1" x="116.73" y="76.34" width="212.17" height="141.44" rx="11.09"/><rect class="cls-2" x="120.18" y="79.8" width="204.68" height="134.15" rx="11.09"/><rect class="cls-3" x="123.26" y="121.09" width="196.77" height="74.11"/><path class="cls-4" d="M300.37,59.26l.51.17c.34.11.85.27,1.52.44a17.79,17.79,0,0,0,6,.42,24.23,24.23,0,0,0,4.28-.82,27.62,27.62,0,0,0,4.86-1.86,30.12,30.12,0,0,0,9.76-7.93,9.08,9.08,0,0,0,1.73-3.1,4.77,4.77,0,0,0-.27-3.59,4,4,0,0,0-3.14-1.9,7.32,7.32,0,0,0-3.9.75,13.66,13.66,0,0,1-2,.77,3.9,3.9,0,0,1-2.17,0A2.31,2.31,0,0,1,316,41.13a2.71,2.71,0,0,1,.36-2.2,4.1,4.1,0,0,1,1.71-1.49,15.32,15.32,0,0,1,2.12-.84,29.46,29.46,0,0,0,4.19-1.87,29.28,29.28,0,0,0,3.93-2.59A9.11,9.11,0,0,0,330,30.51a3.29,3.29,0,0,0,.83-2.12,2.21,2.21,0,0,0-1.23-1.84,5.21,5.21,0,0,0-2.32-.58,13.58,13.58,0,0,1-2.52-.27,2.8,2.8,0,0,1-2-1.6,1.53,1.53,0,0,1,.12-1.35,3.22,3.22,0,0,1,1-.91c.7-.49,1.39-1,2-1.54a31.66,31.66,0,0,0,3.76-3.57,16.61,16.61,0,0,0,3-4.25,5.28,5.28,0,0,0,.46-2.53,3.85,3.85,0,0,0-1.05-2.31,5.1,5.1,0,0,0-4.78-1.42A8.36,8.36,0,0,0,323,8.91c-2.33,2.6-3.42,6-5.32,8.82a13.9,13.9,0,0,1-1.58,2,5,5,0,0,1-1,.83,1.34,1.34,0,0,1-1.33.09,1.66,1.66,0,0,1-.73-1.11,4.19,4.19,0,0,1-.05-1.27,3.54,3.54,0,0,0-.08-1.18,2.15,2.15,0,0,0-.6-1,2.92,2.92,0,0,0-2.12-.77,3.37,3.37,0,0,0-2.06.95,5.26,5.26,0,0,0-1.26,1.92,8.72,8.72,0,0,0-.5,2.25c-.13,1.54-.07,3.09-.09,4.6s0,3,0,4.49a13.92,13.92,0,0,1-.37,4.37,2.55,2.55,0,0,1-1.46,1.6,3.17,3.17,0,0,1-2.13-.08,8.49,8.49,0,0,1-3.35-2.38,9.7,9.7,0,0,1-1.14-1.65,17.12,17.12,0,0,0-.94-1.69,2.69,2.69,0,0,0-1.41-1.11,2.49,2.49,0,0,0-1.74.17,3.63,3.63,0,0,0-1.36,1.12,3.89,3.89,0,0,0-.66,1.6,24.7,24.7,0,0,0-.2,3.42c-.05,1.12-.05,2.21,0,3.27a42,42,0,0,0,.54,5.95,29.47,29.47,0,0,0,1.25,5c.24.77.57,1.46.84,2.14s.61,1.28.94,1.85a19.42,19.42,0,0,0,3.75,4.72,8.14,8.14,0,0,0,.69.6l.52.41.41.34s-.15-.1-.43-.32l-.53-.4a7.59,7.59,0,0,1-.7-.59,18.9,18.9,0,0,1-3.8-4.71c-.35-.56-.64-1.2-1-1.85s-.61-1.37-.85-2.14a29,29,0,0,1-1.28-5.06,40.79,40.79,0,0,1-.56-6c0-1.06,0-2.16,0-3.28a24.05,24.05,0,0,1,.2-3.45,4.05,4.05,0,0,1,.69-1.68,3.68,3.68,0,0,1,1.43-1.19,2.71,2.71,0,0,1,1.9-.2,3,3,0,0,1,1.53,1.2,17,17,0,0,1,1,1.71,9.23,9.23,0,0,0,1.11,1.61,8.28,8.28,0,0,0,3.25,2.3,2.82,2.82,0,0,0,2,.07,2.3,2.3,0,0,0,1.32-1.45,14,14,0,0,0,.34-4.28c0-1.47,0-3,0-4.49s0-3,.09-4.62a9.09,9.09,0,0,1,.51-2.33,5.67,5.67,0,0,1,1.34-2,3.57,3.57,0,0,1,2.22-1,3.25,3.25,0,0,1,2.33.84,2.33,2.33,0,0,1,.68,1.1,3.6,3.6,0,0,1,.09,1.26,4.34,4.34,0,0,0,0,1.2,1.44,1.44,0,0,0,.59.92,1.07,1.07,0,0,0,1.06-.09,4.19,4.19,0,0,0,.92-.78,14.06,14.06,0,0,0,1.55-2c1.87-2.79,3-6.19,5.34-8.86a8.75,8.75,0,0,1,4.51-2.78,5.41,5.41,0,0,1,5.05,1.51,4.15,4.15,0,0,1,1.13,2.48,5.53,5.53,0,0,1-.48,2.67,17,17,0,0,1-3.07,4.34,34,34,0,0,1-3.8,3.6c-.67.54-1.36,1-2.06,1.54a3,3,0,0,0-.89.83A1.25,1.25,0,0,0,323,24a2.57,2.57,0,0,0,1.81,1.43,14.36,14.36,0,0,0,2.47.26,5.51,5.51,0,0,1,2.44.61,2.8,2.8,0,0,1,1,.85,2.26,2.26,0,0,1,.41,1.22,3.57,3.57,0,0,1-.89,2.31,9.37,9.37,0,0,1-1.77,1.68,27.82,27.82,0,0,1-4,2.6,29.42,29.42,0,0,1-4.23,1.89,15.92,15.92,0,0,0-2.09.82,3.89,3.89,0,0,0-1.61,1.39,2.47,2.47,0,0,0-.34,2,2.07,2.07,0,0,0,1.45,1.32,3.69,3.69,0,0,0,2,0,13.29,13.29,0,0,0,1.93-.75,7.43,7.43,0,0,1,4-.76,4.8,4.8,0,0,1,1.93.61A3.76,3.76,0,0,1,329,42.88a5,5,0,0,1,.28,3.76,9.23,9.23,0,0,1-1.78,3.17,30.2,30.2,0,0,1-9.85,7.95,27,27,0,0,1-4.89,1.84,24.61,24.61,0,0,1-4.31.81,17.37,17.37,0,0,1-6-.49c-.67-.18-1.17-.34-1.51-.46Z"/><path class="cls-4" d="M331,7.24s0,0-.15.14l-.45.39c-.39.35-1,.85-1.71,1.53a55.31,55.31,0,0,0-5.8,6.14c-1.13,1.38-2.31,3-3.54,4.65s-2.54,3.54-3.83,5.52A68.11,68.11,0,0,0,311.78,32c-.59,1.14-1.12,2.34-1.66,3.56S309,38,308.49,39.27A139.77,139.77,0,0,0,303,53.69,67.68,67.68,0,0,0,300.38,66a50.21,50.21,0,0,0-.22,8.48c.07,1,.14,1.78.21,2.31,0,.25.05.45.06.59a.83.83,0,0,1,0,.21s0-.07,0-.2,0-.35-.09-.6c-.08-.52-.17-1.3-.25-2.3a47,47,0,0,1,.13-8.52,66.15,66.15,0,0,1,2.57-12.36,136.88,136.88,0,0,1,5.48-14.45c.55-1.25,1.1-2.49,1.63-3.71s1.07-2.43,1.67-3.58a67.14,67.14,0,0,1,3.8-6.4c1.3-2,2.61-3.81,3.85-5.51s2.43-3.27,3.58-4.65a53.43,53.43,0,0,1,5.88-6.09c.74-.67,1.34-1.16,1.75-1.49l.47-.37C331,7.27,331,7.23,331,7.24Z"/><path class="cls-4" d="M311.62,31.86a2.53,2.53,0,0,1-.14-.64c-.08-.41-.17-1-.26-1.77-.2-1.5-.41-3.58-.62-5.87s-.45-4.36-.67-5.85c-.11-.75-.2-1.35-.27-1.77a2.82,2.82,0,0,1-.08-.65,2.85,2.85,0,0,1,.18.63c.1.41.23,1,.36,1.75.27,1.49.54,3.57.75,5.86s.4,4.31.54,5.88c.07.7.13,1.3.17,1.78A3.17,3.17,0,0,1,311.62,31.86Z"/><path class="cls-4" d="M331,28.43a3.87,3.87,0,0,1-.77.09c-.49,0-1.21.09-2.1.19-1.77.17-4.21.5-6.88,1s-5.08,1-6.8,1.47c-.87.21-1.56.41-2.05.54a3.75,3.75,0,0,1-.75.17,6.09,6.09,0,0,1,.72-.28c.48-.16,1.16-.38,2-.62,1.71-.49,4.12-1.07,6.8-1.55a66.74,66.74,0,0,1,6.92-.9c.89-.07,1.61-.09,2.11-.1A4.59,4.59,0,0,1,331,28.43Z"/><path class="cls-4" d="M303,53.26a1.31,1.31,0,0,1-.13-.24l-.32-.7c-.28-.61-.66-1.51-1.12-2.62-.91-2.22-2.07-5.33-3.31-8.78s-2.37-6.56-3.23-8.8l-1-2.65c-.11-.29-.2-.53-.28-.72a1.09,1.09,0,0,1-.08-.26s.06.08.13.24l.33.7c.28.61.66,1.5,1.11,2.61.91,2.23,2.07,5.34,3.31,8.79s2.37,6.56,3.23,8.8l1,2.65q.17.42.27.72A.87.87,0,0,1,303,53.26Z"/><path class="cls-4" d="M328.76,45.22a.86.86,0,0,1-.26.1l-.75.25-2.76.86c-2.33.73-5.53,1.78-9.07,2.94s-6.76,2.18-9.1,2.87c-1.17.34-2.12.61-2.79.78l-.76.19a1.07,1.07,0,0,1-.27,0,1,1,0,0,1,.26-.11l.74-.24,2.76-.86c2.33-.73,5.54-1.78,9.08-2.94s6.75-2.18,9.1-2.87c1.17-.34,2.12-.61,2.78-.78l.76-.19A1.1,1.1,0,0,1,328.76,45.22Z"/><path class="cls-5" d="M286.76,25a6.36,6.36,0,0,1,4.38,2.29,11.24,11.24,0,0,1,2.2,4.54c.82,3.17.27,6.91-.66,10.05-3.42-1.26-5.5-4.93-6.44-6.86-1.49-3-2.32-9.47.52-10"/><path class="cls-5" d="M297.58,45.72a5.37,5.37,0,0,1-.21-5.4,7.15,7.15,0,0,1,4.34-3.43,3,3,0,0,1,2.53.14,2.29,2.29,0,0,1,.87,2.17,4.68,4.68,0,0,1-1,2.21c-1.69,2.24-3.73,4.1-6.53,4.31"/><path class="cls-4" d="M297.86,56.31a6.31,6.31,0,0,1-.14-.66c-.09-.47-.2-1.08-.34-1.81a18.73,18.73,0,0,1-.32-6.07,11.6,11.6,0,0,1,2.29-5.6,8.67,8.67,0,0,1,1.32-1.3,3.67,3.67,0,0,1,.41-.29c.09-.06.15-.09.15-.08a11.81,11.81,0,0,0-1.74,1.78,12,12,0,0,0-2.2,5.53,20.14,20.14,0,0,0,.26,6c.11.77.21,1.39.26,1.82A3.15,3.15,0,0,1,297.86,56.31Z"/><path class="cls-4" d="M287.82,29.79a1.21,1.21,0,0,1,.14.26l.35.77c.29.67.71,1.64,1.22,2.84,1,2.41,2.36,5.76,3.77,9.48s2.61,7.14,3.44,9.61c.42,1.24.75,2.25,1,2.94l.24.81a.87.87,0,0,1,.07.28l-.11-.27c-.08-.2-.17-.46-.29-.79-.26-.71-.61-1.7-1-2.91-.87-2.46-2.09-5.85-3.5-9.58s-2.74-7.08-3.71-9.5l-1.15-2.87c-.13-.32-.23-.58-.31-.79A1.55,1.55,0,0,1,287.82,29.79Z"/><path class="cls-5" d="M293.85,49.27a12.57,12.57,0,0,0-9.72-6.16c-1-.08-2.24.08-2.7,1s.14,2,.82,2.74a10.77,10.77,0,0,0,11.64,2.7"/><path class="cls-4" d="M285.65,45.84a2.51,2.51,0,0,1,.63,0A4.48,4.48,0,0,1,287,46a8.66,8.66,0,0,1,1,.19,11,11,0,0,1,1.16.33c.41.13.83.31,1.28.5a14.16,14.16,0,0,1,2.7,1.63,13.78,13.78,0,0,1,2.22,2.24,10.54,10.54,0,0,1,.78,1.14,8.63,8.63,0,0,1,.58,1,9.44,9.44,0,0,1,.4.91,4.87,4.87,0,0,1,.24.7,2.77,2.77,0,0,1,.16.61c-.05,0-.28-.86-.95-2.15a11.39,11.39,0,0,0-.59-1,13.52,13.52,0,0,0-.79-1.1,13.35,13.35,0,0,0-4.84-3.81,11.48,11.48,0,0,0-1.26-.51,11.15,11.15,0,0,0-1.13-.36C286.55,46,285.64,45.89,285.65,45.84Z"/><rect class="cls-1" x="138.46" y="53.53" width="212.17" height="141.44" rx="11.09"/><rect class="cls-5" x="141.92" y="56.99" width="204.68" height="134.15" rx="11.09"/><rect class="cls-3" x="145" y="98.28" width="196.77" height="74.11"/><path class="cls-6" d="M137.11,125.47l-9.56,17.59.79-42.7A14.9,14.9,0,0,1,131,92.8a15.54,15.54,0,0,1,2.3-2.75,16.5,16.5,0,0,1,3.65-2.56c1.28-.5,1.32-2.27.13-2.58s-4.73,1-7.83,4.16-2.39-3.68-2.18-6.18.5-10.26-.22-10.92c-1-1-2.31,0-2.46,2.52s-1.14,10-2.45,9.84-.05-12.86-.05-12.86.7-2.68-.81-2.9c-2.73-.38-3.06,13.21-3.06,14.51,0,.9-1.44.8-1.39-.17s1.54-12.67-1.23-13.09c-2.14-.32-.38,11.19-2,13.47s-.44-8.88-2.49-9.11c-.76-.08-1.35,0-1.12,6.46.12,3.48,1.66,8.7,1.4,15.44l-.06,1.74h0c-1.61,12.63-8.87,78.7,16.14,76.93,0,0,19-2.64,29.54-37.19Z"/><path class="cls-7" d="M115.71,93.2c0,.07.42.12,1,.44a4,4,0,0,1,1.85,2l.2.5.22-.49a6.45,6.45,0,0,1,1.3-1.87,7.35,7.35,0,0,1,3.85-2.07c1.13-.24,1.86-.11,1.87-.2a3.57,3.57,0,0,0-1.92-.14A7,7,0,0,0,120,93.48a6.46,6.46,0,0,0-1.36,2H119a3.88,3.88,0,0,0-2.15-2.12A2,2,0,0,0,115.71,93.2Z"/><polyline class="cls-6" points="251.26 133.69 261.89 153.72 271.6 172.39 249.65 172.39 236.04 144.35"/><path class="cls-8" d="M168,172.39c2.09-7.12.72-8.25-1.54-15.32l-4.83-15.18L151,157.52h0l-22.49-18.06h0L136,122.63C150,91.05,172.54,93.29,172.54,93.29l28.81-5.5s18.42-1.71,30.36,9.14c3.89,3.54,21.57,35.34,21.57,35.34l-21.72,15.22-5.32-9.08-1.47,12.32c-1.17,6.73-1.09,15.33,1.47,21.66"/><path class="cls-4" d="M198.45,26.3c-.69,8.33,10.47,14.25,9.48,22.55-.28,2.3-1.47,4.81-.26,6.78,1.47,2.39,5,1.88,7.63,2.91,3.2,1.27,4.83,5.12,4.35,8.52s-2.69,6.35-5.28,8.61A25.91,25.91,0,0,1,199.75,82a13.48,13.48,0,0,1-7.36-1.1,7.07,7.07,0,0,1-4-5.94"/><path class="cls-6" d="M199.55,92.55c-1.48-7.11-2.91-14.62-2.91-14.62s8.83-3.46,8.2-15.81c-.61-11.77-8.06-37.67-8.06-37.67h0a35.08,35.08,0,0,0-36.32,16.84h0l13,57.54c1.51,6.68,7.09.52,14.24-1.15l1.57,1.1C196.48,97.1,201,99.32,199.55,92.55Z"/><path class="cls-4" d="M197.75,45.71a1.58,1.58,0,0,1-1.15,1.86,1.49,1.49,0,0,1-1.87-1,1.57,1.57,0,0,1,1.14-1.86A1.51,1.51,0,0,1,197.75,45.71Z"/><path class="cls-4" d="M199.46,44.17c-.15.24-1.49-.37-3.14,0s-2.68,1.43-2.9,1.27,0-.47.45-1a4.32,4.32,0,0,1,2.27-1.26,4.14,4.14,0,0,1,2.55.26C199.28,43.74,199.53,44.06,199.46,44.17Z"/><path class="cls-4" d="M180.94,49.58a1.56,1.56,0,0,1-1.15,1.85,1.49,1.49,0,0,1-1.87-1,1.56,1.56,0,0,1,1.14-1.86A1.5,1.5,0,0,1,180.94,49.58Z"/><path class="cls-4" d="M182.62,48c-.15.24-1.49-.37-3.14,0s-2.68,1.44-2.9,1.27,0-.47.46-1A4.28,4.28,0,0,1,179.31,47a4.08,4.08,0,0,1,2.55.27C182.45,47.58,182.7,47.9,182.62,48Z"/><path class="cls-4" d="M191.37,58.67a10.51,10.51,0,0,1,2.57-1.05c.41-.14.79-.3.8-.61a2.1,2.1,0,0,0-.54-1.18l-1.92-2.94c-2.7-4.2-4.74-7.69-4.57-7.79s2.49,3.2,5.18,7.4l1.88,3a2.5,2.5,0,0,1,.57,1.61,1.1,1.1,0,0,1-.57.76,2.91,2.91,0,0,1-.69.25A11.43,11.43,0,0,1,191.37,58.67Z"/><path class="cls-7" d="M196.64,77.93a31.06,31.06,0,0,1-16.9-.88s5.62,7.38,17.33,3.73Z"/><path class="cls-5" d="M191.51,62.79a3,3,0,0,0-2.89-.54,2.75,2.75,0,0,0-1.66,1.4,1.76,1.76,0,0,0,.28,2,2,2,0,0,0,2.28.09A6.24,6.24,0,0,0,191.36,64a1.79,1.79,0,0,0,.37-.58.56.56,0,0,0-.14-.62"/><path class="cls-4" d="M186.76,60.83c.26-.07.65,1.72,2.45,2.66s3.66.35,3.73.6c.05.1-.35.43-1.15.63a4.59,4.59,0,0,1-3.1-.4,3.91,3.91,0,0,1-1.93-2.25C186.53,61.33,186.64,60.85,186.76,60.83Z"/><path class="cls-6" d="M167.64,53.53a7.2,7.2,0,0,0-3.79,1.06,5.08,5.08,0,0,0-2.27,3.15,5.28,5.28,0,0,0,.77,3.82,8.85,8.85,0,0,0,2.86,2.75,6,6,0,0,0,2.64,1,2.9,2.9,0,0,0,2.57-1"/><path class="cls-7" d="M168.57,61.42c.16,0-.23.91-1.46.84a2.57,2.57,0,0,1-1.71-.95,5.87,5.87,0,0,1-1.09-2,3.41,3.41,0,0,1,.06-2.36,2.31,2.31,0,0,1,1.47-1.35c1.2-.28,1.75.47,1.61.53s-.63-.22-1.37.14a2.19,2.19,0,0,0-.81,2.75c.42,1.28,1.18,2.38,1.94,2.53S168.47,61.33,168.57,61.42Z"/><path class="cls-4" d="M193.3,21.82a8.86,8.86,0,0,1-1.83,10.47c-2.85,2.57-7,2.94-10.68,4s-7.64,3.79-7.47,7.63c.1,2.33,1.75,4.56,1.16,6.82-.7,2.63-4.06,3.76-5,6.31-1.53,4.1,4.05,7.8,3.81,12.17-.15,2.59-2.34,4.7-2.59,7.28C170.35,80.19,174,84.1,172,87.2c-1.54,2.38-5.13,2-7.76,1s-5.51-2.51-8.15-1.47c-1.58.62-2.7,2-4.12,3a7.88,7.88,0,0,1-12.14-8c.42-2.24,1.78-4.18,2.88-6.18s2-4.35,1.31-6.54c-.51-1.67-1.83-3-2.87-4.36s-1.86-3.26-1.19-4.87c1.18-2.84,5.71-2.59,7.35-5.19,2.26-3.57-3-8.11-1.63-12.11,1.52-4.54,9.56-3.73,11.09-8.26.55-1.65,0-3.46.15-5.2.4-4,4.55-6.49,8.47-7.17s8-.17,11.86-1.19c2.1-.55,4.07-1.55,6.14-2.23a9.81,9.81,0,0,1,6.41-.28c2,.76,3.68,2.9,3.27,5"/><path class="cls-4" d="M191.52,30.26a14.89,14.89,0,0,0,10.9,7.29,36.82,36.82,0,0,0-1-8.95,14.22,14.22,0,0,0-4.73-7.51,8.93,8.93,0,0,0-8.5-1.51"/><path class="cls-6" d="M206,88.06c1,.13,4.2,10-17.64,13.73-20.67,3.51-24.56-7.3-24.56-7.3S177.72,84.28,206,88.06Z"/><path class="cls-4" d="M193.48,42.36c.13.25,1.25-.12,2.65-.27s2.58-.08,2.64-.35-1.15-.8-2.75-.61S193.35,42.14,193.48,42.36Z"/><path class="cls-4" d="M176.79,45c.05-.05,0-.14,0-.29l0,.25A11.14,11.14,0,0,1,179.3,44c1.56-.34,2.87,0,3-.23s-.23-.38-.8-.58a4.47,4.47,0,0,0-2.36-.14,3.88,3.88,0,0,0-2.59,1.61l-.09.21.08,0C176.65,45,176.74,45,176.79,45Z"/><path class="cls-5" d="M167.35,44a25.58,25.58,0,0,1-3.81-.24,25.79,25.79,0,0,1-3.78-.54,25.48,25.48,0,0,1,3.81.24A25.24,25.24,0,0,1,167.35,44Z"/><path class="cls-5" d="M165.5,46.1a9,9,0,0,1-2.88.16,9.14,9.14,0,0,1-2.85-.47c0-.08,1.29.09,2.86.18S165.49,46,165.5,46.1Z"/><path class="cls-8" d="M193.48,28.63a1.7,1.7,0,0,1-.12.35,3.16,3.16,0,0,1-.56.88,5.45,5.45,0,0,1-3.49,1.55,10.48,10.48,0,0,1-2.67-.05c-.95-.12-2-.3-3-.37a7.42,7.42,0,0,0-3.25.35,6.56,6.56,0,0,0-2.72,2.19c-.77.95-1.42,2-2.18,2.88a9,9,0,0,1-1.24,1.23,6.07,6.07,0,0,1-1.45.84,14.64,14.64,0,0,1-3,.77,17.38,17.38,0,0,0-2.55.61,5.35,5.35,0,0,0-2.92,2.28,3.48,3.48,0,0,0-.38,1.33,1.23,1.23,0,0,1,0-.36,3,3,0,0,1,.29-1,5.3,5.3,0,0,1,2.94-2.42,16,16,0,0,1,2.59-.66,14.49,14.49,0,0,0,2.91-.78,6.55,6.55,0,0,0,2.57-2c.74-.89,1.39-1.91,2.17-2.89a6.9,6.9,0,0,1,2.85-2.27,7.58,7.58,0,0,1,3.37-.35c2.16.19,4,.7,5.65.48a5.4,5.4,0,0,0,3.42-1.42A4.77,4.77,0,0,0,193.48,28.63Z"/><path class="cls-8" d="M146.56,90.25a4,4,0,0,0,.5-.14,2,2,0,0,0,1-1,3,3,0,0,0,0-2.28c-.27-.88-.79-1.82-1.19-2.93a15,15,0,0,1-.8-8.17,10.73,10.73,0,0,1,2.06-4.43,9.19,9.19,0,0,1,1.88-1.8,11.18,11.18,0,0,1,2.38-1.23,7.38,7.38,0,0,0,2.24-1.29,2.76,2.76,0,0,0,.87-2.2c-.09-1.64-1-3.14-1-4.76a4.9,4.9,0,0,1,.59-2.23A8.62,8.62,0,0,1,156.46,56a30.57,30.57,0,0,1,2.89-2.55,9,9,0,0,0,3.21-4.36,4.39,4.39,0,0,0,0-2s0,0,0,.12.06.22.09.39a4,4,0,0,1-.05,1.51,6,6,0,0,1-1,2.18,12.48,12.48,0,0,1-2.17,2.32,29.42,29.42,0,0,0-2.84,2.56,8.26,8.26,0,0,0-1.24,1.7,4.69,4.69,0,0,0-.55,2.11,7.83,7.83,0,0,0,.43,2.29,10.79,10.79,0,0,1,.55,2.45,3.1,3.1,0,0,1-1,2.44,8.13,8.13,0,0,1-2.34,1.34,10.8,10.8,0,0,0-2.32,1.19,9.22,9.22,0,0,0-1.83,1.75,10.57,10.57,0,0,0-2,4.31,15,15,0,0,0,.73,8c.39,1.1.9,2,1.16,2.95a4.09,4.09,0,0,1,.18,1.31,2.52,2.52,0,0,1-.28,1.07,2,2,0,0,1-1.08,1A1,1,0,0,1,146.56,90.25Z"/><path class="cls-3" d="M311.31,65.05H284.12a3.22,3.22,0,0,1,1,2.43v21A3.22,3.22,0,0,1,284.05,91h25.82c2.47,0,3.29-.83,3.29-1.85V66.9A1.85,1.85,0,0,0,311.31,65.05Zm-7.06,5.53a1.83,1.83,0,1,1-1.82,1.83A1.82,1.82,0,0,1,304.25,70.58Zm-10.46,0A1.83,1.83,0,1,1,292,72.41,1.83,1.83,0,0,1,293.79,70.58Zm7.52,11.83-.13.12A7.82,7.82,0,0,0,299,86.71a7.82,7.82,0,0,0-2.16-4.18l-.13-.12a8.63,8.63,0,0,0-1.35-1.06,2.07,2.07,0,0,1,.44-.37h0a.41.41,0,0,1,.11-.07l.11-.06.09,0h0l.07,0h0l.11,0,.1,0,.1,0,.23,0H297l.34,0,.12,0h.08l.08,0,.13,0,.14,0,.14,0a2.24,2.24,0,0,1,1,.83,2.24,2.24,0,0,1,1-.83l.14,0,.14,0,.13,0,.08,0h.08l.12,0,.34,0h.24l.24,0,.09,0,.1,0,.11,0h0l.08,0,.09,0,.11.06.12.07h0a2.51,2.51,0,0,1,.45.37A8.27,8.27,0,0,0,301.31,82.41Zm-3.74-3.15a1.46,1.46,0,1,1,2.18,1.26l-.05,0a1.41,1.41,0,0,1-.68.18,1.46,1.46,0,0,1-.66-.16h0l-.05,0h0A1.45,1.45,0,0,1,297.57,79.26Zm4.82,1.46a2.53,2.53,0,0,0-1.37-.4,3.07,3.07,0,0,0-.67.08,1.78,1.78,0,0,0,.42-1.14,1.75,1.75,0,1,0-3.5,0,1.73,1.73,0,0,0,.43,1.14,3.22,3.22,0,0,0-.67-.08,2.54,2.54,0,0,0-1.38.4,17.2,17.2,0,0,0-2.25-2.43c-.2-.19-.42-.37-.63-.55a18.13,18.13,0,0,0-2-1.48l.09-.11a5.09,5.09,0,0,1,3.71-1.67c.21,0,.42,0,.64,0l.27,0,.19,0,.19,0,.31.08.32.1.33.11A5.22,5.22,0,0,1,299,76.87,5.22,5.22,0,0,1,301.25,75l.33-.11.32-.1.31-.08.19,0,.19,0,.27,0c.22,0,.44,0,.64,0a5.09,5.09,0,0,1,3.71,1.67l.09.11a19,19,0,0,0-2.64,2A17.49,17.49,0,0,0,302.39,80.72Z"/><path class="cls-3" d="M272.06,68.73v2.79H268.4V68.73H260v2.79h-3.66v-2.8h-7.37a13.1,13.1,0,0,1,.14-1.91,2.3,2.3,0,0,1,2.23-1.76h30.36a2.33,2.33,0,0,1,2.47,2.46v4h-3.66V68.73Z"/><path class="cls-3" d="M280.46,79.86h-3.19c-.6,0-1.21,0-1.82,0a2.29,2.29,0,0,1-2.28-2.24c0-2.55,0-5.11,0-7.67a.74.74,0,0,1,0-.12h3.64V76.2h4.87a2.31,2.31,0,0,1,2.45,2.44v9.91A2.33,2.33,0,0,1,281.7,91H270.86a2.34,2.34,0,0,1-2.47-2.49v-4h3.67v2.79h8.4Z"/><path class="cls-3" d="M272,81.26H268.4V79.88h-3.65V91l-.25,0h-3.19c-.2,0-.25-.06-.25-.25,0-2.27,0-19.46,0-20.72,0-.07,0-.14,0-.23h3.65v6.37h3.66V74.8H272Z"/><path class="cls-3" d="M249,69.82h3.66V87.34h3.66V84.53H260v4A2.37,2.37,0,0,1,257.48,91h-6A2.38,2.38,0,0,1,249,88.53V69.82Z"/><path class="cls-3" d="M248,88.53V87.34H246.5V66.63a1.58,1.58,0,0,0-1.58-1.58h-5.21a.09.09,0,0,0-.1.1v3.46a.11.11,0,0,0,.11.12h3.1V87.34h-4.54V91h10.85A3.14,3.14,0,0,1,248,88.53Z"/><path class="cls-3" d="M292.77,77.74a17.35,17.35,0,0,0-1.91-1.36l-.15-.09,0,0A18.13,18.13,0,0,1,292.77,77.74Z"/><path class="cls-3" d="M307.33,76.29l-.15.09a18,18,0,0,0-2.52,1.89,19,19,0,0,1,2.64-2Z"/><path class="cls-4" d="M259.07,164.49a1.54,1.54,0,0,1-.89-.19c-.43-.25-.67-.49-.72-.71s-.09-.37-.1-.43a4.35,4.35,0,0,1,.44-2.31,31.89,31.89,0,0,1,1.83-3.49c.17-.28.32-.55.46-.81,1.74-3.06,3.73-6.44,6-10.17q4.13-6.9,4.07-7.23A.15.15,0,0,0,270,139a2.4,2.4,0,0,0-.4.05l-1.54.29q-3.61.68-6.09,1.21-4.34.9-7.55,1.45a4.86,4.86,0,0,0-1.09.29,6.79,6.79,0,0,0-1,.53,9.28,9.28,0,0,0-1.16,1.41c-.36.55-.71,1.11-1.05,1.69s-.63,1.07-.94,1.53a21.75,21.75,0,0,0-1.4,2.2,14,14,0,0,0-.95,2.45c-.24,1-.67,1.61-1.3,1.72a1.86,1.86,0,0,1-.62,0c-.51-.1-.79-.27-.87-.51a4.14,4.14,0,0,1-.13-.5,2.83,2.83,0,0,1,0-1,5,5,0,0,1,.4-1.22,37.27,37.27,0,0,1,2.32-4,20.36,20.36,0,0,0,1.8-3.05.93.93,0,0,0-.38,0c-.26,0-1.44.32-3.55.82-1.88.45-3.26.75-4.16.9l-1.15.18a3.62,3.62,0,0,1-2-.19,2.1,2.1,0,0,1-1-1.62c-.07-.44,0-.72.09-.86a.88.88,0,0,1,.44-.24,3.4,3.4,0,0,1,1.15.12,6.61,6.61,0,0,0,.84.13,16.29,16.29,0,0,0,2-.21c.81-.14,1.85-.35,3.13-.64q2.59-.57,5.4-1.28l.74-.14a2.1,2.1,0,0,0,.52-.15,1.41,1.41,0,0,0,.54-.62,28.2,28.2,0,0,1,1.78-2.74c1.69-2.37,3.19-4.41,4.5-6.1q3.07-4,5.17-7.12c.47-.83.94-1.28,1.41-1.36a1.85,1.85,0,0,1,1.12.27,1.26,1.26,0,0,1,.68.83c.11.64-.42,1.56-1.57,2.78a146.83,146.83,0,0,0-9.25,12.37,1.44,1.44,0,0,0-.13.55c0,.15.21.19.56.13a1.77,1.77,0,0,0,.35-.07c1.86-.35,3.72-.72,5.57-1.13,2.72-.6,5.54-1.14,8.47-1.64l1.9-.33a2.63,2.63,0,0,0,1.26-.46,2.79,2.79,0,0,0,.63-.91l.3-.54q1.88-2.91,3.93-5.68,1.77-2.45,3.52-4.91a7.36,7.36,0,0,0,1.59-3.1.81.81,0,0,1,.09-.52,1.24,1.24,0,0,1,.81-.54,1.77,1.77,0,0,1,.46,0,2,2,0,0,1,1,.54,1.54,1.54,0,0,1,.49.88,1.1,1.1,0,0,1,0,.26,6.85,6.85,0,0,1-1,2.08c-.5.76-1,1.48-1.54,2.16l-.66.88c-.52.74-1,1.47-1.59,2.2q-2.16,2.88-4.1,5.82a6.45,6.45,0,0,0-.66,1.17,5,5,0,0,0,.68.16,1.2,1.2,0,0,1,.62.2,1.61,1.61,0,0,1,.45.81l0,.17c.08.5,0,.84-.29,1a2,2,0,0,1-.83.31,3,3,0,0,1-.43,0,9.52,9.52,0,0,0-1.54.1,1.45,1.45,0,0,0-.93.52q-2.94,4.16-5.6,8.64T263,156.77q-1.25,2.16-2.11,3.91a17.94,17.94,0,0,0-1,2.77,1.6,1.6,0,0,1-.45.88A1.13,1.13,0,0,1,259.07,164.49Z"/><path class="cls-4" d="M283.36,148.16a4.58,4.58,0,0,1-4.95-2.21,4.63,4.63,0,0,1-.61-1.61,4.35,4.35,0,0,1,0-1.08,6.22,6.22,0,0,1,.89-2.57,10.86,10.86,0,0,1,1.75-2.21,6.19,6.19,0,0,1,3.33-1.89,3.92,3.92,0,0,1,2.07.18c.74.34,1.15.66,1.22,1s.12.47.13.51a2.92,2.92,0,0,1-.35,1.77,7.69,7.69,0,0,1-1.87,2.05,6.34,6.34,0,0,1-2.75,1.45,3.93,3.93,0,0,1-1,.05,3.82,3.82,0,0,0-.71,0l-.11,0q-.4.16-.39.42c0,.16,0,.27,0,.31a2.16,2.16,0,0,0,.33.8,1.77,1.77,0,0,0,.69.65,3.26,3.26,0,0,0,1.78.15,10.32,10.32,0,0,0,3.15-1.22,44.69,44.69,0,0,0,5.07-3.33l.82-.58c.11-.1.45-.34,1-.71a4.21,4.21,0,0,1,1.41-.66.4.4,0,0,1,.51.27c.06.5-.69,1.45-2.24,2.84a33,33,0,0,1-6.31,4.66A10.22,10.22,0,0,1,283.36,148.16Zm-1.51-7.23a3.31,3.31,0,0,0,1.07-.56l.52-.38c.77-.61,1.15-1,1.13-1.05s0,0-.07,0a2.21,2.21,0,0,0-.63.27c-1.32.73-2.06,1.31-2.22,1.73A.44.44,0,0,0,281.85,140.93Z"/><path class="cls-4" d="M307.37,147.51a1.81,1.81,0,0,1-.87-.2,3.1,3.1,0,0,1-1.34-1.21,3.8,3.8,0,0,1-.25-.8,7.86,7.86,0,0,1,1-3.86,12.27,12.27,0,0,0,.87-2.35c0-.05,0-.07-.08-.06-.21,0-.66.42-1.35,1.15-1.39,1.3-2.76,2.61-4.14,3.95a21.64,21.64,0,0,1-2,1.77,6.67,6.67,0,0,1-1.9,1.1c-.5.14-.81.22-.94.24a3.59,3.59,0,0,1-2.22-.35A4.11,4.11,0,0,1,293,146a3.68,3.68,0,0,1-.91-1.8,5.44,5.44,0,0,1,.47-2.87q2.69-6.72,11.46-16.19,2.67-2.9,5.4-5.64a9.6,9.6,0,0,1,1.07-.94,2.7,2.7,0,0,1,1.2-.54c.46-.07.76,0,.92.16a1.22,1.22,0,0,1,.56.79,1.36,1.36,0,0,1-.1.7,19,19,0,0,1-2.24,3.46q-1.49,1.91-2.93,3.58L306.86,128q-1.65,2-3.44,3.85c-1.2,1.23-2.41,2.46-3.64,3.66-.86.85-1.72,1.7-2.57,2.56a9.06,9.06,0,0,0-1.92,2.74,10.26,10.26,0,0,0-.83,3.31,4.09,4.09,0,0,0,.05.65.81.81,0,0,0,1,.78,2.85,2.85,0,0,0,1-.4,14.43,14.43,0,0,0,2.09-1.57c.71-.63,1.4-1.26,2.07-1.88.28-.28.56-.54.83-.78q4.26-4,8-8.2t7.45-8.74q2.76-3.42,5.61-6.78a2.66,2.66,0,0,1,1.48-1.13,1.61,1.61,0,0,1,.95.16,1.4,1.4,0,0,1,.72.89.53.53,0,0,1,0,.25,2.58,2.58,0,0,1-.67,1.27c-.33.4-.69.8-1.09,1.2s-.47.49-.68.72c-1.38,1.55-2.73,3.14-4.05,4.74q-2.65,3.18-5,6.6-1.77,2.63-3.41,5.32a39.09,39.09,0,0,0-2.16,4,9.47,9.47,0,0,0-1.21,4.76c0,.13,0,.26.07.38a3,3,0,0,1,.1.44c.07.4,0,.62-.08.66Z"/><path class="cls-4" d="M315.88,143.57a1.48,1.48,0,0,1-.95-.11,4.35,4.35,0,0,1-1.1-1.05,3,3,0,0,1-.6-1.28l0-.25a9.76,9.76,0,0,1,1.18-3.61,26.08,26.08,0,0,1,2.49-3.88,16.28,16.28,0,0,1,2.65-2.81,3.67,3.67,0,0,1,1.51-.69,3.14,3.14,0,0,1,2,.42,13,13,0,0,1,1.71,1.11c.45.31.71.54.76.7s.08.27.1.34a3.62,3.62,0,0,1,0,1,2.07,2.07,0,0,0,0,.5.65.65,0,0,0,.32.51,2.7,2.7,0,0,0,1.12.24,8.44,8.44,0,0,0,1.73-.1,8.09,8.09,0,0,0,2.59-1,17.6,17.6,0,0,1,1.92-.9,3.85,3.85,0,0,1,.55-.15c.58-.09.9.06,1,.48a1.16,1.16,0,0,1-.07.53,2.77,2.77,0,0,1-1,1.2,12.65,12.65,0,0,1-2.65,1.45,11.61,11.61,0,0,1-2.63.8,4.54,4.54,0,0,1-2,0,8.9,8.9,0,0,1-1.29-.51,2.2,2.2,0,0,0-1.11-.31c-.24,0-.48.27-.69.68a19.53,19.53,0,0,1-2.29,2.78,15.61,15.61,0,0,1-4.45,3.72A4,4,0,0,1,315.88,143.57Zm.26-2.81q1.19-.19,4-3.13c.73-.76,1.26-1.34,1.6-1.74a2,2,0,0,0,.73-1.61c-.05-.32-.31-.58-.77-.8a2.06,2.06,0,0,0-1.21-.19,1.94,1.94,0,0,0-1.17.74c-.23.3-.54.75-.94,1.33-.73,1-1.35,1.94-1.86,2.8a4.34,4.34,0,0,0-.84,2.25.46.46,0,0,0,.17.29A.68.68,0,0,0,316.14,140.76Z"/><path class="cls-4" d="M335.67,138.63a1,1,0,0,1-1.12-.4,2.26,2.26,0,0,1-.42-.89,1.86,1.86,0,0,1,.14-1,2.54,2.54,0,0,1,.89-.92,2.85,2.85,0,0,1,1-.39,1.39,1.39,0,0,1,1.53.66,1.42,1.42,0,0,1,.11.35,1.33,1.33,0,0,1-.14.83,3.33,3.33,0,0,1-.87,1.12A2.76,2.76,0,0,1,335.67,138.63ZM339.2,133a1.25,1.25,0,0,1-.94-.25,2.08,2.08,0,0,1-.9-1.45,2.46,2.46,0,0,1,.05-1q1.05-2.88,5.23-8.75c1.15-1.62,2.19-3.06,3.13-4.34.42-.57,1.73-2.37,3.93-5.43a2.4,2.4,0,0,1,.87-.91,3.12,3.12,0,0,1,.4-.13,1.75,1.75,0,0,1,1.27.45,1.22,1.22,0,0,1,.47.7,1.61,1.61,0,0,1-.38,1.16,10.49,10.49,0,0,1-.71.86c-.9,1-1.77,2-2.59,3.14s-1.57,2.07-2.32,3.1a67.06,67.06,0,0,0-6,9.23,5.43,5.43,0,0,0-.4,1,4.16,4.16,0,0,0-.09.66,4.92,4.92,0,0,1-.18,1.08c-.18.53-.35.81-.54.86Z"/><line class="cls-9" x1="25.37" y1="28.63" x2="115.71" y2="28.63"/><line class="cls-9" x1="357.49" y1="207.51" x2="421.22" y2="207.51"/><line class="cls-9" x1="420.52" y1="174.79" x2="441.26" y2="174.79"/><line class="cls-9" x1="393.29" y1="103.82" x2="434.78" y2="103.82"/><line class="cls-9" x1="30.33" y1="117.02" x2="72.3" y2="117.02"/><line class="cls-9" x1="82.54" y1="55.55" x2="103.28" y2="55.55"/><line class="cls-9" x1="72.17" y1="158.15" x2="92.91" y2="158.15"/><line class="cls-9" x1="385.81" y1="157.22" x2="393.29" y2="157.22"/><line class="cls-9" x1="389.55" y1="153.47" x2="389.55" y2="160.96"/><line class="cls-9" x1="417.6" y1="29.79" x2="430.89" y2="29.79"/><line class="cls-9" x1="424.24" y1="23.15" x2="424.24" y2="36.44"/><line class="cls-9" x1="30.33" y1="205.03" x2="43.62" y2="205.03"/><line class="cls-9" x1="36.97" y1="198.38" x2="36.97" y2="211.67"/><line class="cls-9" x1="33.23" y1="74.23" x2="40.72" y2="74.23"/><line class="cls-9" x1="36.97" y1="70.49" x2="36.97" y2="77.97"/><path class="cls-3" d="M184.48,143.56c-.6,0-.6,0-.52.7l0,.36h0l.09.69a.26.26,0,0,0,.17.25h.11a2.49,2.49,0,0,0,.54-.07c.13-.07.11-.23.06-.65l-.12-.94C184.82,143.6,184.76,143.54,184.48,143.56Zm.2,1.55a.07.07,0,0,1-.06.09h-.12a.08.08,0,0,1-.08-.07c0-.38-.09-.76-.14-1.14a.06.06,0,0,1,.06-.08h.12s.07,0,.08.07C184.59,144.36,184.63,144.73,184.68,145.11Z"/><path class="cls-3" d="M203.68,142.36a.09.09,0,0,0-.07,0,1.93,1.93,0,0,0-.33,0,1.93,1.93,0,0,1-.06-.44s.29-.06.32-.06l.09,0h0s0-.05,0-.06a.25.25,0,0,1,0-.07.61.61,0,0,1-.05-.12.05.05,0,0,1,0,0,0,0,0,0,1,0,0,3.25,3.25,0,0,0-.57.07.19.19,0,0,0-.08.16v0c0,.14,0,.28.05.43l0,.22c0,.09,0,.17.1.2a.39.39,0,0,0,.15,0h.13s.06,0,.08,0a2.87,2.87,0,0,1,0,.41,3.48,3.48,0,0,1-.36.05s0,.33,0,.35a2.63,2.63,0,0,0,.6-.09.21.21,0,0,0,.07-.19s-.1-.72-.11-.76A.25.25,0,0,0,203.68,142.36Z"/><path class="cls-3" d="M176.41,145.07a.13.13,0,0,0-.07,0,2.17,2.17,0,0,0-.36,0,1.57,1.57,0,0,1-.06-.45s.31,0,.34,0h.11s0,0,0-.07a.25.25,0,0,0,0-.07l-.05-.12a.08.08,0,0,1,0,0h0a4.75,4.75,0,0,0-.6,0,.18.18,0,0,0-.09.16s0,0,0,0,0,.29.05.43l0,.23c0,.09,0,.18.11.21a.29.29,0,0,0,.16,0h.13s.07,0,.08,0a2,2,0,0,1,.06.43l-.38,0a2.35,2.35,0,0,0,0,.35,2,2,0,0,0,.64-.05.21.21,0,0,0,.07-.19s-.1-.73-.11-.77A.25.25,0,0,0,176.41,145.07Z"/><path class="cls-3" d="M215,140.88a.16.16,0,0,0,0-.07s0,0-.06,0a1.65,1.65,0,0,0-.32,0,1.39,1.39,0,0,1-.06-.42,1,1,0,0,1,.31-.06H215s0,0,0-.06a.14.14,0,0,1,0-.06l-.05-.11,0,0v0a4.27,4.27,0,0,0-.54.07.17.17,0,0,0-.08.16v0c0,.14,0,.27,0,.4l0,.22c0,.08,0,.16.1.19a.65.65,0,0,0,.14,0l.12,0h.08a2.6,2.6,0,0,1,.05.39,3.17,3.17,0,0,1-.35.06s0,.3,0,.32a2.52,2.52,0,0,0,.58-.09.16.16,0,0,0,0-.09A7.53,7.53,0,0,0,215,140.88Z"/><path class="cls-3" d="M186.06,145.41l.34,0c-.08-.65-.17-1.3-.25-2l-.33,0C185.9,144.09,186,144.74,186.06,145.41Z"/><path class="cls-3" d="M182.63,144.51h-.21l-.09-.78-.37,0c.08.66.17,1.33.25,2l.37,0c0-.29-.08-.58-.11-.87l.21,0,.11.88.36,0c-.08-.67-.17-1.33-.25-2l-.37,0Z"/><path class="cls-3" d="M180.88,143.86l-.27,0-.19,0h0l-.13.13a.73.73,0,0,0,0,.2c.05.44.11.88.16,1.33,0,0,0,.08,0,.11l.16.17a3.23,3.23,0,0,0,.49,0,1.44,1.44,0,0,0,.08-.26.22.22,0,0,1,0-.08h-.31s0,0,0,0,0-.05,0-.06v-.17l0-.23,0-.23c0-.13-.06-.5-.06-.52s0,0,0-.05h0l.31,0v-.14A.58.58,0,0,0,180.88,143.86Z"/><path class="cls-3" d="M211.92,142v-.05l-.28,0h0s0,0,0,0-.05-.36-.07-.48l0-.22,0-.21v-.15s0-.05,0-.07h.16l.16,0v-.07a2.43,2.43,0,0,0-.14-.22s-.38,0-.44.05l-.11.19a.45.45,0,0,0,0,.11c.06.41.11.83.16,1.24a.49.49,0,0,0,0,.17l.14.1h0a.55.55,0,0,0,.18,0l.24,0s.08-.18.08-.21V142Z"/><path class="cls-3" d="M187.77,143.26l-.26,0a.63.63,0,0,0-.19,0h0l-.12.14a.66.66,0,0,0,0,.2c.05.44.12.89.16,1.33l0,.12.15.17.48-.05a1.78,1.78,0,0,0,.08-.27.22.22,0,0,1,0-.08l-.17,0h-.19s0-.05,0-.07v-.05l0-.11,0-.23,0-.23a5,5,0,0,1-.06-.53s0,0,0-.05h0l.3,0v-.14A.58.58,0,0,0,187.77,143.26Z"/><path class="cls-3" d="M189.33,144.23l.31,0,0-.29-.31,0-.06-.49h.06l.3,0v-.07l-.09-.28-.31,0h-.06l-.32,0c.09.66.17,1.32.25,2l.18,0h0l.52-.05.05-.27,0-.15-.4,0Z"/><path class="cls-3" d="M204.72,141.33h0l-.17,0,.24,1.92.3-.05h.06l.29,0,0-.28v-.07l-.29,0h-.06l-.06-.47.3,0,0-.28-.29,0-.06-.45.38,0,0-.14-.11-.24Z"/><path class="cls-3" d="M212.74,140.27h0l-.17,0,.24,1.83.3,0h.06l.28,0,0-.27v-.06l-.28,0h-.07l-.05-.44.28,0,0-.27-.29,0-.05-.42.37-.05,0-.13-.11-.23Z"/><path class="cls-3" d="M192,142.82h-.2l-.15,0,.25,2,.35,0c0-.28-.07-.56-.1-.85l.28,0,0-.31-.28,0-.06-.44.31,0,0-.27,0-.14h-.07Z"/><path class="cls-3" d="M193.48,142.67l-.09,1.93v.09l.39,0v-.29l.24,0,0,.18,0,.11.36-.05v-.1l-.54-1.84Zm.29,1.43,0-.75h0l.18.74Z"/><path class="cls-3" d="M195.77,143.38l-.33-.93-.35,0c.08.66.16,1.32.25,2l.35,0-.08-.67.29.64.13-.75.09.73.35,0c-.08-.65-.16-1.31-.25-2l-.35,0Z"/><path class="cls-3" d="M197.41,144.22l.35,0-.24-2-.36,0C197.25,142.91,197.33,143.56,197.41,144.22Z"/><path class="cls-3" d="M210,142.53l.37-.05-.24-1.87-.37,0Z"/><path class="cls-3" d="M199.31,143.74v0l-.28,0-.21-1.69-.35,0c.08.66.17,1.31.25,2l.16,0h.19l.27,0h0v-.13h0v-.09Z"/><path class="cls-3" d="M200.52,142.06a.45.45,0,0,0,0,.11c0,.08,0,.17,0,.25v.4h0l0-.08-.07-.21-.07-.23-.06-.18a.39.39,0,0,1,0-.14v-.09l-.38.05,0,.13h0c.16.46.32.91.47,1.37l.06.42.38,0-.06-.46.12-1.4h0l0-.13-.37.05A1.36,1.36,0,0,1,200.52,142.06Z"/><path class="cls-3" d="M207.2,142.19s-.13-1-.13-1a1.62,1.62,0,0,0-.1-.18h0l-.43.06-.33,0,0,.33c.06.53.13,1.05.2,1.57l.33,0-.08-.62h0c.09.2.17.4.26.59l.37-.05-.28-.56A.83.83,0,0,0,207.2,142.19Zm-.35-.14-.21,0-.08-.65.21,0Z"/><path class="cls-3" d="M208.54,140.92h0l0,1.09c-.09-.35-.17-.7-.26-1.06h0v-.1l-.38.05,0,.1h0l.45,1.51,0,.22.21,0,0,0,0,0,.16,0,0-.22c0-.53,0-1.06.05-1.58h0l0-.1-.37,0Z"/><path class="cls-3" d="M174.43,144.29l-.35,0-.1.36h.15c.05.41.11.82.16,1.22h-.13l.05.36.62,0-.05-.36h-.15C174.57,145.34,174.5,144.81,174.43,144.29Z"/><path class="cls-3" d="M177.87,144.07h0l-.32,0h-.16l-.06.37.27,0c.07.53.13,1.07.2,1.6l.32,0c-.06-.53-.13-1.07-.2-1.6l.28,0-.15-.35Z"/><path class="cls-3" d="M198.18,153.76a1.26,1.26,0,0,1-.41,1.11l0,0a1,1,0,0,1-.48.21.84.84,0,0,1-.5-.06h0l0,0h0a1.21,1.21,0,0,1-.66-1,1.16,1.16,0,0,1,.92-1.35A1.13,1.13,0,0,1,198.18,153.76Z"/><path class="cls-3" d="M193.88,148.59a1.43,1.43,0,0,1-1.16,1.67,1.47,1.47,0,0,1-1.55-1.36,1.42,1.42,0,0,1,1.17-1.66A1.46,1.46,0,0,1,193.88,148.59Z"/><path class="cls-3" d="M201.56,147.58a1.46,1.46,0,0,1-1.14,1.67,1.4,1.4,0,0,1-1.51-1.3,1.44,1.44,0,0,1,1.14-1.67A1.4,1.4,0,0,1,201.56,147.58Z"/><path class="cls-3" d="M199.63,155h0l-.09,0-.09,0-.07,0h-.15l-.08,0h-.32l-.11,0-.24.05-.08,0-.06,0-.06,0-.09,0-.1,0-.1.06a1.77,1.77,0,0,0-.62.79,1.67,1.67,0,0,0-.8-.58l-.11,0-.11,0H196l-.25,0-.11,0h-.07l-.17.06-.07,0-.07,0-.07,0h0l0,0h0l-.06,0-.08.07-.07.06h0a1.68,1.68,0,0,0-.28.36,6.07,6.07,0,0,1,1.11.73l.11.09a5.77,5.77,0,0,1,.44.42,6.31,6.31,0,0,1,1.58,2.77h0a6.63,6.63,0,0,1,.82-3.13,4.86,4.86,0,0,1,.33-.54.83.83,0,0,1,.08-.12,6.65,6.65,0,0,1,.88-1A1.63,1.63,0,0,0,199.63,155Z"/><path class="cls-3" d="M190.64,152.23l.12.07a13.88,13.88,0,0,1,2.09,1.36,14.41,14.41,0,0,0-2.2-1.45Z"/><path class="cls-3" d="M201.13,152.48a14,14,0,0,1,1.63-1.81l.11-.09,0,0A15.82,15.82,0,0,0,201.13,152.48Z"/><path class="cls-3" d="M202.77,150.48a3.54,3.54,0,0,0-2.87-.95,4.35,4.35,0,0,0-.46.11l-.2.07-.13,0-.14.06-.21.1-.23.11-.23.13a4.11,4.11,0,0,0-1.44,1.8,4,4,0,0,0-1.84-1.36l-.26-.07-.24-.05-.24,0-.15,0h-.34a3.93,3.93,0,0,0-.49,0,3.63,3.63,0,0,0-2.59,1.7l-.06.1a15.24,15.24,0,0,1,4.12,3.26,1.74,1.74,0,0,1,1-.47,1.67,1.67,0,0,1,.5,0,1.47,1.47,0,0,1-.43-.89,1.41,1.41,0,0,1,1.11-1.62,1.35,1.35,0,0,1,1.46,1.25,1.55,1.55,0,0,1-.19,1,1.74,1.74,0,0,1,.48-.14,1.71,1.71,0,0,1,1,.17,15.46,15.46,0,0,1,1.4-2.26,15.82,15.82,0,0,1,1.71-1.93Z"/><path class="cls-3" d="M201,113.34c.12.94.23,1.86.35,2.79-1.09,0-2.16.09-3.26.15-.11-.93-.23-1.86-.35-2.81-2.53.12-5.05.3-7.61.52.12,1,.24,1.88.35,2.83-1.11.09-2.21.2-3.34.31-.12-.93-.24-1.87-.36-2.83-2.26.24-4.51.51-6.83.83a15.9,15.9,0,0,1-.11-1.92,2.24,2.24,0,0,1,1.85-2l.36,0c2.61-.84,25.05-2,26.91-1.39a2.62,2.62,0,0,1,2.43,2.46l.45,3.56c0,.09,0,.18,0,.29-1.05,0-2.09,0-3.15,0-.12-.91-.23-1.81-.35-2.72C205.88,113.25,203.45,113.27,201,113.34Z"/><path class="cls-3" d="M209.68,124.06c-.94,0-1.85.08-2.77.12l-1.59.08a2.36,2.36,0,0,1-2.28-2.11c-.34-2.53-.64-5.07-1-7.62v-.12c1.07,0,2.12,0,3.2-.06.26,2.08.52,4.15.78,6.27h.28c1.32,0,2.64-.08,3.95-.1a2.43,2.43,0,0,1,2.41,2.3q.6,4.68,1.2,9.32a2,2,0,0,1-1.79,2.49l-9.44.95a2.28,2.28,0,0,1-2.5-2.25c-.16-1.23-.31-2.45-.46-3.68l0-.31,3.25-.26c.06.47.11.93.17,1.39s.12.9.17,1.37c2.47-.22,4.9-.42,7.33-.61C210.29,128.85,210,126.47,209.68,124.06Z"/><path class="cls-3" d="M202.49,125.82l-3.22.23q-.09-.67-.18-1.38l-3.27.25c.47,3.73.93,7.45,1.4,11.19l-.22,0-2.87.3c-.19,0-.24,0-.26-.24-.29-2.29-2.46-19.71-2.62-21,0-.07,0-.14,0-.23l3.31-.25c.27,2.15.54,4.28.8,6.43,1.11-.08,2.18-.16,3.28-.22-.06-.47-.11-.93-.17-1.39,1.09-.07,2.16-.13,3.24-.18Q202.1,122.61,202.49,125.82Z"/><path class="cls-3" d="M180.08,116.22l3.41-.43q1.13,8.82,2.24,17.71l3.36-.33c-.11-.95-.23-1.89-.35-2.85l3.34-.32c0,.11,0,.19,0,.28.09.65.4,3.18.48,3.79a2.24,2.24,0,0,1-2,2.73q-2.74.28-5.52.54a2.42,2.42,0,0,1-2.63-2.3c-.8-6.23-1.58-12.42-2.38-18.55C180.1,116.41,180.09,116.33,180.08,116.22Z"/><path class="cls-3" d="M181.59,135.13c-.06-.41-.11-.81-.16-1.21l-1.41.13q-1.4-10.88-2.78-21.52a.66.66,0,0,0-.76-.59c-1.61.26-3.22.55-4.83.85a.32.32,0,0,0-.25.36l.36,2.69c.77-.13,1.54-.27,2.32-.39q1.24,9.35,2.48,18.93c-1.29.13-2.59.25-3.88.36l.48,3.64c3.19-.24,6.38-.52,9.59-.81A3.3,3.3,0,0,1,181.59,135.13Z"/><path class="cls-3" d="M214.81,139.08c-13.6,1.75-27.38,3.5-41,4.28-.17-1.34-.35-2.68-.53-4,13.63-1,27.42-2.62,41-4C214.48,136.58,214.64,137.83,214.81,139.08Z"/></svg>