<svg id="Layer_1" data-name="Layer 1" xmlns="http://www.w3.org/2000/svg" viewBox="0 0 580 390"><defs><style>.cls-1{fill:#f5f5f5;}.cls-2{fill:#e0e0e0;}.cls-3{fill:#fff;}.cls-4{fill:#fafafa;}.cls-5{fill:#ebebeb;}.cls-6{fill:#263238;}.cls-7{fill:#b78876;}.cls-8{fill:#aa6550;}.cls-9{fill:#e8505b;}.cls-10{opacity:0.6;}.cls-11{fill:#455a64;}.cls-12{opacity:0.3;}.cls-13{fill:#ffbe9d;}.cls-14{fill:#eb996e;}.cls-15{fill:#995037;}.cls-16{opacity:0.2;}</style></defs><polygon class="cls-1" points="227.12 353.9 227.12 372.93 254.94 372.93 285.62 372.93 285.62 353.9 227.12 353.9"/><polygon class="cls-2" points="224.67 348.58 224.67 353.9 287.67 353.9 287.67 348.58 254.94 348.58 224.67 348.58"/><polygon class="cls-2" points="256.17 372.93 285.62 372.93 285.62 353.9 287.67 353.9 287.67 348.58 254.94 348.58 254.94 353.41 256.17 372.93"/><rect class="cls-2" x="235.3" y="356.97" width="11.86" height="2.86"/><rect class="cls-3" x="233.78" y="363.41" width="15.23" height="6.05"/><polygon class="cls-1" points="232.5 329.58 232.5 348.6 260.31 348.6 291 348.6 291 329.58 232.5 329.58"/><polygon class="cls-2" points="230.04 324.26 230.04 329.58 293.04 329.58 293.04 324.26 260.31 324.26 230.04 324.26"/><polygon class="cls-2" points="261.54 348.6 291 348.6 291 329.58 293.04 329.58 293.04 324.26 260.31 324.26 260.31 329.09 261.54 348.6"/><rect class="cls-2" x="240.68" y="332.65" width="11.86" height="2.86"/><rect class="cls-3" x="239.15" y="339.09" width="15.23" height="6.05"/><path class="cls-1" d="M34.49,237.1s-3.07,2.31-3.07,5.37v15.67H54.26V241.77s-.32-4-3-4.67Z"/><path class="cls-2" d="M33.16,257.29a42.71,42.71,0,0,1-.34-4.82,3.87,3.87,0,0,1,2.68-3.55,8.64,8.64,0,0,1,3.69.32,9.8,9.8,0,0,0,5.91-.89c1.55-.76,3-2,4.67-2.12a2.54,2.54,0,0,1,2.73,1.51,3.71,3.71,0,0,1,0,1.59c-.36,2.41.11,5.41.11,7.73-6.4.3-13,.09-19.42.23"/><polyline class="cls-2" points="29.98 260.35 33.42 258.14 54.26 258.14 57.61 260.35 29.98 260.35"/><path class="cls-1" d="M29.33,209.4v23.31H57.61v27.64H30V267H77.65V209.4a5,5,0,0,0-5-5H34.3A5,5,0,0,0,29.33,209.4Z"/><path class="cls-2" d="M77.65,209.93c0,.11-10.82.2-24.16.2s-24.16-.09-24.16-.2,10.82-.21,24.16-.21S77.65,209.82,77.65,209.93Z"/><path class="cls-2" d="M64.24,267c-.12,0-.21-14-.21-31.18s.09-31.19.21-31.19.2,14,.2,31.19S64.35,267,64.24,267Z"/><path class="cls-2" d="M26.77,250.58l-.28-7.06A9.5,9.5,0,0,1,28,237.76a5.07,5.07,0,0,1,4.16-2.53H51.26v1.87H32.54s-3.37.35-3.82,5a46,46,0,0,0,0,8.52Z"/><rect class="cls-2" x="44.11" y="357.38" width="8.36" height="15.08"/><rect class="cls-2" x="81.07" y="357.38" width="8.36" height="15.08"/><rect class="cls-2" x="25.72" y="266.97" width="69.28" height="90.41"/><rect class="cls-1" x="13.03" y="266.97" width="67.48" height="90.41"/><rect class="cls-1" x="19" y="357.38" width="8.36" height="15.08"/><rect class="cls-1" x="67.1" y="357.38" width="8.36" height="15.08"/><path class="cls-2" d="M75.15,347.05s0-.13,0-.4V345.5c0-1,0-2.51,0-4.43,0-3.85,0-9.42,0-16.33l.1.09-57.92,0h0l.14-.13c0,7.8,0,15.34,0,22.31l-.13-.13,41.49.06,12.06,0L74,347h0l-3.21,0-12,0-41.58.06H17.1v-.13c0-7,0-14.51,0-22.31v-.14h.14l57.92,0h.09v.1c0,6.94,0,12.52,0,16.38,0,1.92,0,3.4,0,4.42v1.13C75.15,346.93,75.15,347.05,75.15,347.05Z"/><path class="cls-2" d="M47.94,335.9s0-.16-.11-.42a1.8,1.8,0,0,0-.64-.9,1.65,1.65,0,0,0-1.55-.21,1.63,1.63,0,0,0,0,3.05,1.65,1.65,0,0,0,1.55-.21,1.8,1.8,0,0,0,.64-.9c.08-.26.08-.42.11-.41a.81.81,0,0,1,0,.44,1.81,1.81,0,0,1-.63,1,1.85,1.85,0,0,1-1.76.3,1.87,1.87,0,0,1,0-3.53,1.86,1.86,0,0,1,1.76.3,1.8,1.8,0,0,1,.63,1A.85.85,0,0,1,47.94,335.9Z"/><path class="cls-2" d="M75.15,320.33s0-.14,0-.4v-1.16c0-1,0-2.51,0-4.43,0-3.84,0-9.41,0-16.33l.1.09-57.92,0h0l.14-.14c0,7.8,0,15.34,0,22.32l-.13-.13,41.49.06,12.06,0,3.24,0h0l-3.21,0-12,0-41.58.06H17.1v-.13c0-7,0-14.52,0-22.32v-.14h.14l57.92.05h.09V298c0,6.94,0,12.53,0,16.39,0,1.91,0,3.39,0,4.41V320C75.15,320.2,75.15,320.33,75.15,320.33Z"/><path class="cls-2" d="M47.94,309.17s0-.16-.11-.41a1.72,1.72,0,0,0-.64-.9,1.68,1.68,0,0,0-1.55-.22,1.64,1.64,0,0,0-1.06,1.53,1.62,1.62,0,0,0,1.06,1.52,1.65,1.65,0,0,0,1.55-.21,1.76,1.76,0,0,0,.64-.9c.08-.26.08-.41.11-.41a.85.85,0,0,1,0,.44,1.8,1.8,0,0,1-2.39,1.32,1.86,1.86,0,0,1,0-3.52,1.85,1.85,0,0,1,1.76.29,1.8,1.8,0,0,1,.63,1A.85.85,0,0,1,47.94,309.17Z"/><path class="cls-2" d="M75.15,294s0-.14,0-.4v-1.15c0-1,0-2.51,0-4.43,0-3.85,0-9.42,0-16.33l.1.09-57.92,0h0l.14-.13c0,7.8,0,15.33,0,22.31l-.13-.13,41.49.06,12.06,0L74,294h0l-3.21,0-12,0-41.58.06H17.1V294c0-7,0-14.51,0-22.31v-.14h.14l57.92,0h.09v.1c0,6.94,0,12.52,0,16.38,0,1.92,0,3.4,0,4.41v1.14C75.15,293.84,75.15,294,75.15,294Z"/><path class="cls-2" d="M47.94,282.8s0-.15-.11-.41a1.8,1.8,0,0,0-.64-.9,1.65,1.65,0,0,0-1.55-.21,1.63,1.63,0,0,0,0,3.05,1.65,1.65,0,0,0,1.55-.21,1.8,1.8,0,0,0,.64-.9c.08-.26.08-.42.11-.42a.85.85,0,0,1,0,.44,1.8,1.8,0,0,1-.63,1,1.85,1.85,0,0,1-1.76.29,1.87,1.87,0,0,1-1.25-1.76A1.89,1.89,0,0,1,45.55,281a1.82,1.82,0,0,1,2.39,1.32A.83.83,0,0,1,47.94,282.8Z"/><path class="cls-2" d="M77,267c0,.12-10.51.21-23.47.21S30,267.09,30,267s10.51-.2,23.47-.2S77,266.86,77,267Z"/><rect class="cls-4" x="274.7" y="131.35" width="60.93" height="54.51"/><path class="cls-2" d="M335.63,185.86s0-.35,0-1,0-1.65,0-2.92c0-2.56,0-6.3,0-11.06,0-9.53-.05-23.14-.08-39.52l.14.14-60.92,0h0l.17-.17c0,19.83,0,38.5,0,54.51l-.15-.14,44.07.07,12.43,0,3.29,0h0l-3.26,0-12.4,0L274.7,186h-.14v-.15c0-16,0-34.68,0-54.51v-.16h.17l60.92,0h.14v.13c0,16.42,0,30.06-.07,39.6,0,4.75,0,8.49,0,11,0,1.26,0,2.23,0,2.89S335.63,185.86,335.63,185.86Z"/><path class="cls-2" d="M298.07,141c0,.09-3.21.16-7.17.16s-7.16-.07-7.16-.16,3.21-.16,7.16-.16S298.07,141,298.07,141Z"/><path class="cls-2" d="M323.88,145.13c0,.09-8.81.16-19.67.16s-19.68-.07-19.68-.16,8.81-.16,19.68-.16S323.88,145,323.88,145.13Z"/><rect class="cls-2" x="283.85" y="152.06" width="2.57" height="2.57"/><rect class="cls-2" x="290.16" y="152.06" width="2.57" height="2.57"/><rect class="cls-2" x="296.6" y="151.95" width="2.57" height="2.57"/><rect class="cls-2" x="302.8" y="152.06" width="2.57" height="2.57"/><rect class="cls-2" x="309.12" y="152.06" width="2.57" height="2.57"/><rect class="cls-2" x="315.44" y="152.06" width="2.57" height="2.57"/><rect class="cls-5" x="321.76" y="152.06" width="2.57" height="2.57"/><rect class="cls-5" x="283.85" y="157.52" width="2.57" height="2.57"/><rect class="cls-2" x="290.16" y="157.52" width="2.57" height="2.57"/><rect class="cls-5" x="296.48" y="157.52" width="2.57" height="2.57"/><rect class="cls-2" x="302.8" y="157.52" width="2.57" height="2.57"/><rect class="cls-2" x="309.12" y="157.52" width="2.57" height="2.57"/><rect class="cls-2" x="315.56" y="157.4" width="2.57" height="2.57"/><rect class="cls-2" x="321.76" y="157.52" width="2.57" height="2.57"/><rect class="cls-2" x="283.85" y="162.98" width="2.57" height="2.57"/><rect class="cls-2" x="290.28" y="162.86" width="2.57" height="2.57"/><rect class="cls-2" x="296.48" y="162.98" width="2.57" height="2.57"/><rect class="cls-5" x="302.8" y="162.98" width="2.57" height="2.57"/><rect class="cls-2" x="309.12" y="162.98" width="2.57" height="2.57"/><rect class="cls-2" x="315.44" y="162.98" width="2.57" height="2.57"/><rect class="cls-2" x="321.76" y="162.98" width="2.57" height="2.57"/><rect class="cls-2" x="283.85" y="168.44" width="2.57" height="2.57"/><rect class="cls-2" x="290.16" y="168.44" width="2.57" height="2.57"/><rect class="cls-2" x="296.48" y="168.44" width="2.57" height="2.57"/><rect class="cls-2" x="302.92" y="168.32" width="2.57" height="2.57"/><rect class="cls-2" x="309.12" y="168.44" width="2.57" height="2.57"/><rect class="cls-5" x="315.44" y="168.44" width="2.57" height="2.57"/><rect class="cls-2" x="321.76" y="168.44" width="2.57" height="2.57"/><rect class="cls-2" x="283.85" y="173.89" width="2.57" height="2.57"/><rect class="cls-5" x="290.16" y="173.89" width="2.57" height="2.57"/><rect class="cls-2" x="296.48" y="173.89" width="2.57" height="2.57"/><rect class="cls-2" x="302.8" y="173.89" width="2.57" height="2.57"/><rect class="cls-2" x="309.12" y="173.89" width="2.57" height="2.57"/><rect class="cls-2" x="315.56" y="173.78" width="2.57" height="2.57"/><rect class="cls-2" x="321.76" y="173.89" width="2.57" height="2.57"/><path class="cls-2" d="M515.46,172.38s0-.59,0-1.73,0-2.82,0-5c0-4.39,0-10.83,0-19,0-16.41,0-39.9-.09-68.23l.17.17-118.15,0h0l.2-.21c0,33.94,0,66,0,94l-.18-.18,85.36.09,24.18.05,6.41,0h0l-6.38,0-24.13.05-85.48.09h-.19v-.18c0-28,0-60.08,0-94v-.2h.22l118.15,0h.17v.17c0,28.38-.06,51.9-.09,68.33,0,8.2,0,14.62,0,19,0,2.18,0,3.85,0,5S515.46,172.38,515.46,172.38Z"/><rect class="cls-2" x="412.57" y="95.79" width="4.27" height="47.72"/><rect class="cls-5" x="420.82" y="111.99" width="4.27" height="31.51"/><rect class="cls-2" x="429.07" y="101.72" width="4.27" height="42.03"/><rect class="cls-5" x="437.32" y="97.63" width="4.27" height="45.88"/><rect class="cls-2" x="445.57" y="112.96" width="4.27" height="30.54"/><rect class="cls-5" x="453.82" y="118.95" width="4.27" height="24.55"/><rect class="cls-2" x="462.07" y="100.68" width="4.27" height="42.82"/><rect class="cls-5" x="470.32" y="108.4" width="4.27" height="35.1"/><rect class="cls-2" x="478.56" y="102.24" width="4.27" height="41.27"/><rect class="cls-5" x="486.81" y="115.39" width="4.27" height="28.12"/><rect class="cls-2" x="495.06" y="110.04" width="4.27" height="33.47"/><path class="cls-2" d="M501.08,146.83c0,.1-20.27.18-45.26.18s-45.27-.08-45.27-.18,20.26-.18,45.27-.18S501.08,146.73,501.08,146.83Z"/><path class="cls-2" d="M418.67,150.59a29.73,29.73,0,0,1-6.35,0,28.09,28.09,0,0,1,6.35,0Z"/><path class="cls-2" d="M429.18,150.78a42.22,42.22,0,0,1-7.57,0,39.89,39.89,0,0,1,7.57,0Z"/><path class="cls-2" d="M438.16,150.78a42.33,42.33,0,0,1-7.58,0,40,40,0,0,1,7.58,0Z"/><path class="cls-2" d="M447.13,150.78a42.33,42.33,0,0,1-7.58,0,40,40,0,0,1,7.58,0Z"/><path class="cls-2" d="M456.1,150.78a42.33,42.33,0,0,1-7.58,0,40,40,0,0,1,7.58,0Z"/><path class="cls-2" d="M465.07,150.78a42.33,42.33,0,0,1-7.58,0,40,40,0,0,1,7.58,0Z"/><path class="cls-2" d="M474,150.78a42.33,42.33,0,0,1-7.58,0,40,40,0,0,1,7.58,0Z"/><path class="cls-2" d="M483,150.78a42.33,42.33,0,0,1-7.58,0,40,40,0,0,1,7.58,0Z"/><path class="cls-2" d="M492,150.78a42.33,42.33,0,0,1-7.58,0,40,40,0,0,1,7.58,0Z"/><path class="cls-2" d="M501,150.78a42.33,42.33,0,0,1-7.58,0,40,40,0,0,1,7.58,0Z"/><rect class="cls-5" x="393.51" y="77.81" width="125.3" height="3.53"/><polygon class="cls-2" points="288.36 176.59 287.54 173.7 289.2 173.78 289.34 176.45 288.36 176.59"/><polyline class="cls-2" points="285.95 176.5 284.06 186.75 279.29 200.28 306.19 196.4 295.33 184.59 290.8 175.8 285.95 176.5"/><path class="cls-2" d="M233.06,248.37c0-.14,0-.28,0-.43a8.54,8.54,0,0,1,17.07,0c0,.15,0,.29,0,.43Z"/><path class="cls-2" d="M241.57,239.75a.34.34,0,0,1-.33-.26l-11.31-43.1a.34.34,0,0,1,.66-.17l11.31,43.1a.34.34,0,0,1-.24.42Z"/><path class="cls-2" d="M238.58,240.81a.33.33,0,0,1-.32-.25L227,197.46a.34.34,0,0,1,.24-.42.33.33,0,0,1,.41.24l11.31,43.11a.33.33,0,0,1-.24.41Z"/><path class="cls-2" d="M226.42,196.73a2.14,2.14,0,1,0,2.13-2.13A2.13,2.13,0,0,0,226.42,196.73Z"/><polygon class="cls-2" points="228.75 197.01 228.36 196.45 268.44 168.8 291.89 182.14 291.55 182.73 268.48 169.6 228.75 197.01"/><rect class="cls-2" x="226.42" y="184.23" width="48.01" height="0.68" transform="matrix(0.82, -0.57, 0.57, 0.82, -60.53, 175.37)"/><path class="cls-2" d="M267.18,170.27a1.92,1.92,0,1,0,1.92-1.92A1.92,1.92,0,0,0,267.18,170.27Z"/><polygon class="cls-2" points="288.69 69.16 254.35 80.69 331.94 80.69 299.7 69.16 288.69 69.16"/><path class="cls-2" d="M298.33,79.91a20.45,20.45,0,0,0-.25,2,10.06,10.06,0,0,0,1.28,5.33c.53,1,1.23,2.15,1.77,3.46a7.55,7.55,0,0,1,.45,4.45,8,8,0,0,1-2.42,4.33,7.41,7.41,0,0,1-5,1.89,7.8,7.8,0,0,1-5-1.72A7.85,7.85,0,0,1,287,91,14.73,14.73,0,0,1,289,87.65,13.64,13.64,0,0,0,290.7,85a5.93,5.93,0,0,0,.54-2.3,4.45,4.45,0,0,0-.46-2,1.93,1.93,0,0,1,.28.46,3.56,3.56,0,0,1,.34,1.5,6,6,0,0,1-.49,2.38,12.87,12.87,0,0,1-1.66,2.76,14.51,14.51,0,0,0-2,3.27,7.53,7.53,0,0,0,2.17,8.28,7.39,7.39,0,0,0,4.77,1.62,7,7,0,0,0,4.68-1.78,7.71,7.71,0,0,0,2.32-4.1,7.27,7.27,0,0,0-.4-4.26c-.51-1.27-1.19-2.39-1.71-3.45a10,10,0,0,1-1.18-5.47,8.32,8.32,0,0,1,.25-1.52A1.72,1.72,0,0,1,298.33,79.91Z"/><path class="cls-2" d="M295.5,80.64s-.07.51-.21,1.44a37.87,37.87,0,0,0-.4,3.94,31.66,31.66,0,0,0,.26,5.83,1.36,1.36,0,0,0,.32.66.64.64,0,0,0,.6.21c.42-.09.64-.74.56-1.24a2.45,2.45,0,0,0-4.84-.07,1.09,1.09,0,0,0,.65,1.23,1,1,0,0,0,1.12-.65,5,5,0,0,0,.26-1.52c0-.52.06-1,.06-1.52a25.71,25.71,0,0,0-.11-2.72,26.15,26.15,0,0,0-.66-3.9c-.22-.91-.37-1.41-.34-1.42a2.19,2.19,0,0,1,.15.35c.09.23.21.58.34,1a23.49,23.49,0,0,1,1,6.66c0,.5,0,1,0,1.54a5,5,0,0,1-.28,1.66,1.6,1.6,0,0,1-.6.72,1.14,1.14,0,0,1-1,.14,1.48,1.48,0,0,1-.91-1.65A2.88,2.88,0,0,1,294.24,89,2.9,2.9,0,0,1,297,91.42a1.86,1.86,0,0,1-.13,1,1.09,1.09,0,0,1-.75.69,1,1,0,0,1-1-.33,1.7,1.7,0,0,1-.41-.84,30.33,30.33,0,0,1,.35-9.88c.1-.46.18-.82.25-1S295.48,80.63,295.5,80.64Z"/><path class="cls-2" d="M294.21,10.18a5.77,5.77,0,0,1,0,.6c0,.42,0,1,0,1.69,0,1.52,0,3.65.06,6.25,0,5.31,0,12.58.06,20.6s0,15.3-.06,20.61c0,2.6-.05,4.73-.06,6.25,0,.7,0,1.27,0,1.69a5.77,5.77,0,0,1,0,.6,2.58,2.58,0,0,1,0-.6c0-.42,0-1,0-1.69,0-1.52,0-3.65-.07-6.25,0-5.31,0-12.58-.06-20.61s.05-15.29.06-20.6c0-2.6.05-4.73.07-6.25,0-.7,0-1.27,0-1.69A2.58,2.58,0,0,1,294.21,10.18Z"/><polygon class="cls-2" points="288.69 69.16 290.82 59.62 297.9 59.62 299.7 69.16 288.69 69.16"/><rect class="cls-2" x="170.65" y="66.9" width="3.86" height="82.97"/><rect class="cls-1" x="114.67" y="67.55" width="55.39" height="82.44" rx="0.06"/><path class="cls-5" d="M170.65,150.63H114.08s0,0,0-.06V67a.06.06,0,0,1,0-.06h56.57a.06.06,0,0,1,0,.06v83.61S170.68,150.63,170.65,150.63Zm-55.28-1.28h54a.06.06,0,0,0,.06-.06v-81a.06.06,0,0,0-.06,0h-54s-.06,0-.06,0v81.05A.06.06,0,0,0,115.37,149.35Z"/><rect class="cls-4" x="120.25" y="72.63" width="44.33" height="72.22" rx="0.06"/><rect class="cls-5" x="129.92" y="93.1" width="24.89" height="29.18" rx="0.06"/><path class="cls-2" d="M152.84,118.71c0,.09-1.2.63-3.53.36a8.65,8.65,0,0,1-4-1.59,8,8,0,0,1-3.08-4.85,7,7,0,0,1,2.36-6.64,6.25,6.25,0,0,1,1.79-1,4.85,4.85,0,0,1,2.24-.26,4,4,0,0,1,2.24,1,2.93,2.93,0,0,1,.88,2.61,4.32,4.32,0,0,1-1.23,2.24,8.19,8.19,0,0,1-1.88,1.38,10.34,10.34,0,0,1-4.47,1.28,9,9,0,0,1-4.77-1.09,8.63,8.63,0,0,1-3.51-3.64,7.43,7.43,0,0,1-.63-5.09,7.65,7.65,0,0,1,2.69-4.2A6.62,6.62,0,0,1,140.21,98a5.41,5.41,0,0,1,2.53-.08,4.1,4.1,0,0,1,2.3,1.3,3.74,3.74,0,0,1,.9,2.45,4.53,4.53,0,0,1-.6,2.34,6.12,6.12,0,0,1-1.41,1.71,9.58,9.58,0,0,1-3.53,1.87,8.88,8.88,0,0,1-3.71.29,7.58,7.58,0,0,1-3.23-1.24,7,7,0,0,1-3.08-4.88,5.89,5.89,0,0,1,1.14-4.19,5,5,0,0,1,2.11-1.69c.58-.22.91-.21.93-.15s-.26.2-.74.52A5.55,5.55,0,0,0,132.18,98a5.22,5.22,0,0,0-.67,3.58,5.83,5.83,0,0,0,2.74,3.84,6.74,6.74,0,0,0,5.66.54,8,8,0,0,0,2.83-1.6,3.51,3.51,0,0,0,1.32-2.65,1.92,1.92,0,0,0-1.71-1.89,3.72,3.72,0,0,0-1.62.08,4.57,4.57,0,0,0-1.54.81,5.53,5.53,0,0,0-1.93,3.08,5.38,5.38,0,0,0,.47,3.7,6.71,6.71,0,0,0,2.68,2.78,6.85,6.85,0,0,0,3.68.86,8.27,8.27,0,0,0,3.63-1,6.07,6.07,0,0,0,1.44-1,2.41,2.41,0,0,0,.74-1.19,1,1,0,0,0-.3-1,2.18,2.18,0,0,0-1.2-.52,2.9,2.9,0,0,0-1.41.12,4.41,4.41,0,0,0-1.31.72,5.46,5.46,0,0,0-2,5.07,7,7,0,0,0,2.37,4.2,8.41,8.41,0,0,0,3.41,1.71C151.56,118.78,152.82,118.53,152.84,118.71Z"/><path class="cls-6" d="M568.22,372.46c0,.12-125.48.21-280.23.21s-280.26-.09-280.26-.21,125.46-.2,280.26-.2S568.22,372.35,568.22,372.46Z"/><path class="cls-7" d="M403.72,150.59h0c1.66-2.41,2.57-4.21,3.74-5.73,1.45-1.87,1.92-2.74,1.55-3s-.29-.22-3.4,2.8c0,0,4.4-4.35,2.71-4.16-.75.08-4.45,3.67-4.45,3.67,3.24-2.61,4-4.1,3.62-4.57-.61-.68-5.06,3.7-5.06,3.7a47.3,47.3,0,0,0,3.89-4c.43-.76-.61-.57-1.43-.18s-5.85,3.82-7.33,4.72a1,1,0,0,1-1.52-.31,6.43,6.43,0,0,0-3.52-3.82A.77.77,0,0,0,392,141a9.47,9.47,0,0,1,1.33,2.17,6.06,6.06,0,0,1,.56,1.95c.09.78.13,1.45.15,2l-2.24,12.5,7.88,5.54Z"/><path class="cls-8" d="M403.78,146.53a11.83,11.83,0,0,0,2.22-2,11.42,11.42,0,0,0,1.93-2.26,12,12,0,0,0-2.22,2A11.21,11.21,0,0,0,403.78,146.53Z"/><path class="cls-8" d="M402.49,145.46a13,13,0,0,0,2.48-2,12.49,12.49,0,0,0,2.22-2.27,25.87,25.87,0,0,0-4.7,4.25Z"/><path class="cls-8" d="M401.16,144.34a11.56,11.56,0,0,0,2.38-1.84,11.31,11.31,0,0,0,2.12-2.13,23.21,23.21,0,0,0-4.5,4Z"/><path class="cls-7" d="M349.61,112.1A11.6,11.6,0,0,1,362.09,123c.32,5.39.61,11.21.58,14.15-.08,6.3-6.38,7.27-6.38,7.27s.9,11,.81,12.71l-16.67.77-1.51-33.67a11.61,11.61,0,0,1,10.69-12.09Z"/><path class="cls-8" d="M356.3,144.29a14.59,14.59,0,0,1-8.21-2.33s1.94,4.53,8.23,4Z"/><path class="cls-7" d="M339.5,126.35c-.11,0-4.33-1.28-4.19,3s4.43,3.28,4.44,3.15S339.5,126.35,339.5,126.35Z"/><path class="cls-8" d="M338.38,131s-.07.05-.2.11a.73.73,0,0,1-.56,0,1.84,1.84,0,0,1-.91-1.64,2.39,2.39,0,0,1,.17-1.08.88.88,0,0,1,.55-.59.38.38,0,0,1,.45.19c.06.12,0,.21.06.21s.09-.07.05-.25a.51.51,0,0,0-.18-.26.59.59,0,0,0-.42-.1,1,1,0,0,0-.76.69,2.52,2.52,0,0,0-.22,1.21,1.94,1.94,0,0,0,1.15,1.83.77.77,0,0,0,.68-.14C338.37,131.05,338.39,131,338.38,131Z"/><path class="cls-6" d="M360.49,127a.9.9,0,0,1-.87.9.86.86,0,0,1-.93-.81.9.9,0,0,1,.87-.9A.86.86,0,0,1,360.49,127Z"/><path class="cls-6" d="M360.46,125.21c-.11.11-.79-.39-1.76-.39s-1.68.49-1.78.37.06-.27.37-.49a2.53,2.53,0,0,1,1.43-.44,2.4,2.4,0,0,1,1.4.45C360.42,124.94,360.52,125.15,360.46,125.21Z"/><path class="cls-6" d="M351,127a.89.89,0,0,1-.86.9.85.85,0,0,1-.93-.81.89.89,0,0,1,.86-.9A.85.85,0,0,1,351,127Z"/><path class="cls-6" d="M351,125.39c-.11.11-.8-.39-1.76-.39s-1.68.49-1.79.37.07-.26.38-.49a2.49,2.49,0,0,1,1.42-.44,2.37,2.37,0,0,1,1.4.45C350.9,125.12,351,125.33,351,125.39Z"/><path class="cls-6" d="M354.46,132.56a7.36,7.36,0,0,1,1.57-.28c.25,0,.48-.07.53-.24a1.36,1.36,0,0,0-.17-.74l-.73-1.88A31.39,31.39,0,0,1,354,124.5a31.83,31.83,0,0,1,2,4.78c.25.66.48,1.29.7,1.89a1.37,1.37,0,0,1,.13,1,.61.61,0,0,1-.41.36,1.64,1.64,0,0,1-.42.06A6.06,6.06,0,0,1,354.46,132.56Z"/><path class="cls-6" d="M351.61,133.23c.16,0,.16,1.05,1.06,1.79s2,.63,2,.78-.25.2-.73.22a2.69,2.69,0,0,1-1.69-.59,2.3,2.3,0,0,1-.82-1.5C351.42,133.49,351.54,133.23,351.61,133.23Z"/><path class="cls-6" d="M351.2,121.59c-.1.27-1.06.14-2.2.28s-2.05.44-2.2.21.09-.36.46-.62a3.79,3.79,0,0,1,1.63-.57,3.72,3.72,0,0,1,1.72.2C351,121.26,351.24,121.47,351.2,121.59Z"/><path class="cls-6" d="M360.11,122.4c-.17.22-.84,0-1.64,0s-1.48.14-1.64-.09,0-.33.34-.54a2.36,2.36,0,0,1,1.33-.36,2.34,2.34,0,0,1,1.31.44C360.09,122.07,360.18,122.3,360.11,122.4Z"/><path class="cls-6" d="M339.09,126.24a6.57,6.57,0,0,0,0,2,2.21,2.21,0,0,0,1.1,1.57,2.32,2.32,0,0,0,2.92-1.39,7.33,7.33,0,0,0,.24-3.58,17.69,17.69,0,0,1,.07-4.93,7.07,7.07,0,0,1,2.37-4.22,4.47,4.47,0,0,1,4.64-.67,24.94,24.94,0,0,1,2.45,1.81,3.78,3.78,0,0,0,2.6.65,2.44,2.44,0,0,0,2-1.66,2.67,2.67,0,0,0-1-2.64,6.12,6.12,0,0,0-2.75-1.11,14.85,14.85,0,0,0-8.17.64,10.62,10.62,0,0,0-5.93,5.52c-1.26,3-.41,5.28-.59,8.56"/><path class="cls-2" d="M403.07,154.21l-10.3-2.49L386,170.17l-18.79-16.82h0c-2-1.46-5.44-1.64-8.06-2l-.2,0c-1-.12-1.52-.27-2.13-.34-4.53,3.41-12.28,3.62-16.73.11,0,0-3.37.76-5.38,1.15-6.35,1.21-10.91,5.84-12.18,10.1l7.94,18.32L332,198.1l-4.4,15.57a2.72,2.72,0,0,0,2.26,3.42l39.35.6.64-.32a7.32,7.32,0,0,0,1.06-5c-1.7-7.46-.52-29.69-.87-36.51,7.71,7.49,16.23,13.72,22.45,9.86C397.62,182.54,403.07,154.21,403.07,154.21Z"/><polygon class="cls-9" points="340.36 150.69 340.36 150.69 340.36 150.69 340.36 150.69"/><polygon class="cls-2" points="338.79 152.27 339.7 145.97 348.28 149.12 350.7 153.39 352.2 148.71 356.91 147.09 358.92 151.27 355.47 156.16 348.99 157.47 338.79 152.27"/><path class="cls-6" d="M350.85,154.36s-.13-.07-.32-.25-.47-.47-.79-.85a13.22,13.22,0,0,1-2.07-3.57H348l-2,5c-.35.85-.68,1.68-1,2.46l-.1.26-.2-.19c-1.73-1.68-3.23-3.14-4.28-4.2l-1.23-1.25a2.31,2.31,0,0,1-.41-.48s.19.12.5.39l1.3,1.17c1.1,1,2.63,2.44,4.38,4.09l-.31.07c.32-.78.65-1.61,1-2.47l2-5,.17-.41.15.41a14.07,14.07,0,0,0,1.91,3.56C350.48,153.92,350.88,154.33,350.85,154.36Z"/><path class="cls-6" d="M358.92,151.27a6.41,6.41,0,0,1-1,1.39,14,14,0,0,1-3.28,2.89l-.19.11-.08-.21c-.28-.76-.6-1.59-.95-2.45-.51-1.28-1-2.5-1.37-3.58l.33,0c-.28,1.42-.63,2.58-.84,3.4a7.59,7.59,0,0,1-.38,1.29,6.07,6.07,0,0,1,.18-1.33c.15-.84.45-2,.7-3.42l.11-.63.23.6c.39,1.07.89,2.27,1.4,3.56.35.86.67,1.69.94,2.46l-.27-.09a15.72,15.72,0,0,0,3.3-2.72A14.88,14.88,0,0,1,358.92,151.27Z"/><path class="cls-6" d="M385.76,177.28a17.6,17.6,0,0,1-.2-3.73,17.66,17.66,0,0,1,.2-3.74,19,19,0,0,1,.19,3.74A18.91,18.91,0,0,1,385.76,177.28Z"/><path class="cls-6" d="M388.38,177.76c0,.35-.52-.65-1.68-3.85a17.13,17.13,0,0,1-1-4.08,34.8,34.8,0,0,1,1.41,3.95A38.66,38.66,0,0,1,388.38,177.76Z"/><path class="cls-9" d="M363,350.16l-.6,14.29s14.32,5.4,14.47,8.05l-27.74-.16,0-22.29Z"/><path class="cls-2" d="M353.82,363.2a1.12,1.12,0,0,0-.79,1.28,1.09,1.09,0,0,0,1.27.8,1.2,1.2,0,0,0,.83-1.37,1.12,1.12,0,0,0-1.41-.68"/><g class="cls-10"><path class="cls-3" d="M349.12,372.34l.09-2.25,26.56,1s1.23.54,1.09,1.41Z"/></g><path class="cls-6" d="M362.84,364.31c0,.13-.68.19-1.35.62s-1,1-1.15.95.08-.84.9-1.35S362.87,364.19,362.84,364.31Z"/><path class="cls-6" d="M365.74,365.53c0,.13-.55.36-1,.93s-.6,1.17-.73,1.17-.22-.78.37-1.47S365.74,365.4,365.74,365.53Z"/><path class="cls-6" d="M367.38,369c-.13,0-.31-.65,0-1.39s1-1,1-.92-.33.51-.61,1.12S367.51,369,367.38,369Z"/><path class="cls-6" d="M362.62,361c-.06.12-.68-.07-1.45,0s-1.36.28-1.43.17.51-.6,1.41-.64S362.68,360.93,362.62,361Z"/><path class="cls-6" d="M362.68,358.16a2.74,2.74,0,0,1-1.39,0,6.45,6.45,0,0,1-1.45-.46,6,6,0,0,1-.79-.42,2,2,0,0,1-.42-.33.59.59,0,0,1-.06-.72.73.73,0,0,1,.6-.31,2,2,0,0,1,.52.08,4.35,4.35,0,0,1,.86.3,4.75,4.75,0,0,1,1.28.85c.64.6.85,1.1.81,1.13s-.37-.38-1-.88a5.24,5.24,0,0,0-1.23-.7,6.24,6.24,0,0,0-.8-.26c-.29-.07-.54-.08-.62.05s0,.07,0,.16a1.39,1.39,0,0,0,.31.24,6.82,6.82,0,0,0,.73.42,7.55,7.55,0,0,0,1.34.53A7.47,7.47,0,0,1,362.68,358.16Z"/><path class="cls-6" d="M362.51,358.35a2.18,2.18,0,0,1-.36-1.35,4.64,4.64,0,0,1,.55-2.36,1.15,1.15,0,0,1,.9-.69.62.62,0,0,1,.57.39,1.87,1.87,0,0,1,.14.51,3.22,3.22,0,0,1,0,.93,3.34,3.34,0,0,1-.6,1.44c-.55.71-1.12.87-1.13.82a8.72,8.72,0,0,0,.85-1,3.22,3.22,0,0,0,.45-1.3,3.16,3.16,0,0,0,0-.81c0-.29-.15-.53-.26-.5s-.38.22-.49.45a4.21,4.21,0,0,0-.35.75,4.83,4.83,0,0,0-.28,1.39C362.44,357.82,362.58,358.33,362.51,358.35Z"/><path class="cls-9" d="M315.14,346l-4.5,17.87L303,377a1.89,1.89,0,0,0,.79,2.65h0a1.89,1.89,0,0,0,1.73,0c3.43-1.85,16-8.72,16.27-10.05.3-1.54,6-18.54,6-18.54Z"/><g class="cls-10"><path class="cls-3" d="M303.79,379.6l18.34-11.28-.21.76a2.82,2.82,0,0,1-1.14,1.59c-1.5,1-5.69,3.73-15.21,8.92a1.9,1.9,0,0,1-1.78,0Z"/></g><g class="cls-10"><path class="cls-3" d="M320.06,361.58a1.15,1.15,0,0,0-.7,1.36,1.11,1.11,0,0,0,1.34.7,1.19,1.19,0,0,0,.73-1.44,1.15,1.15,0,0,0-1.47-.58"/></g><path class="cls-6" d="M310,373a5.75,5.75,0,0,0-1.18-1.82,5.52,5.52,0,0,0-1.93-.95c0-.05.26-.13.69-.07a2.93,2.93,0,0,1,1.51.72,3,3,0,0,1,.9,1.42C310.09,372.69,310.05,373,310,373Z"/><path class="cls-6" d="M308.08,375c-.11.05-.52-.68-1.37-1.2a15.17,15.17,0,0,0-1.67-.71,2.14,2.14,0,0,1,1.89.36C307.89,374,308.18,375,308.08,375Z"/><path class="cls-6" d="M313.2,370.56a18.9,18.9,0,0,0-2-2,18.56,18.56,0,0,0-2.47-1.35,4.23,4.23,0,0,1,2.71,1A4.15,4.15,0,0,1,313.2,370.56Z"/><path class="cls-6" d="M315,365.24c-.07.09-.94-.59-2.21-1s-2.36-.37-2.37-.49a3.65,3.65,0,0,1,2.5.11A3.59,3.59,0,0,1,315,365.24Z"/><path class="cls-6" d="M316.48,360a9.65,9.65,0,0,0-2.28-1.08,8.65,8.65,0,0,0-2.52-.06c0-.05.24-.22.72-.34a4,4,0,0,1,1.9,0,4.22,4.22,0,0,1,1.7.86C316.36,359.73,316.51,360,316.48,360Z"/><path class="cls-6" d="M314.51,358a1.63,1.63,0,0,1,.16-.68,4.85,4.85,0,0,1,1-1.61,2.11,2.11,0,0,1,1.16-.74.74.74,0,0,1,.78.39,1.17,1.17,0,0,1,.06.88,2.68,2.68,0,0,1-2.91,1.76,3.1,3.1,0,0,1-2.5-2.38,1.07,1.07,0,0,1,.19-.87.72.72,0,0,1,.85-.17,2.63,2.63,0,0,1,1,.93,5.54,5.54,0,0,1,.83,1.71,1.66,1.66,0,0,1,.1.69,8.61,8.61,0,0,0-1.16-2.23,2.5,2.5,0,0,0-.89-.79.4.4,0,0,0-.47.09.73.73,0,0,0-.09.58,2.74,2.74,0,0,0,2.19,2,2.3,2.3,0,0,0,2.49-1.45.87.87,0,0,0,0-.62.42.42,0,0,0-.43-.22,1.89,1.89,0,0,0-1,.61A7.16,7.16,0,0,0,314.51,358Z"/><path class="cls-6" d="M350.24,154a9.37,9.37,0,0,1-1.7-1.63,4.54,4.54,0,0,1,.91.76A4.37,4.37,0,0,1,350.24,154Z"/><path class="cls-6" d="M369.17,217.6l-2.75,142.32a1.75,1.75,0,0,1-1.76,1.71l-16.58-.15a1.75,1.75,0,0,1-1.73-1.78l2.57-122.49L327.36,358.79a3.13,3.13,0,0,1-3.19,2.58l-13.91-.48a3.12,3.12,0,0,1-3-3.61L329.11,217Z"/><path class="cls-11" d="M317,353.84s0-.12,0-.34l.15-1c.14-.87.35-2.14.61-3.75.55-3.28,1.33-8,2.3-13.81,1.95-11.68,4.63-27.78,7.59-45.56s5.55-33.93,7.39-45.6c.91-5.83,1.64-10.55,2.15-13.83l.6-3.76.16-1c0-.22.07-.33.07-.33a3,3,0,0,1,0,.34c0,.23-.07.56-.13,1-.12.88-.29,2.15-.52,3.77-.45,3.27-1.16,8-2,13.85-1.77,11.69-4.33,27.82-7.28,45.62s-5.68,33.9-7.7,45.54c-1,5.81-1.85,10.52-2.42,13.79-.3,1.61-.52,2.87-.68,3.75-.08.41-.15.73-.19,1S317,353.84,317,353.84Z"/><path class="cls-11" d="M359.49,354.36c-.11,0,.08-29,.42-64.68s.69-64.68.8-64.67-.08,29-.42,64.68S359.59,354.36,359.49,354.36Z"/><path class="cls-11" d="M366.92,354.86c0,.1-4.52.19-10.09.19s-10.1-.09-10.1-.19,4.52-.2,10.1-.2S366.92,354.75,366.92,354.86Z"/><path class="cls-11" d="M328.34,354.09a3.7,3.7,0,0,1-.81.07l-2.2.08-7.29.18c-2.84.05-5.42.08-7.29.06-.93,0-1.68,0-2.21-.05a3.13,3.13,0,0,1-.81-.07,3.35,3.35,0,0,1,.81-.08l2.21-.07L318,354c2.84-.06,5.42-.08,7.28-.06.94,0,1.69,0,2.21,0A2.74,2.74,0,0,1,328.34,354.09Z"/><path class="cls-11" d="M351.81,219.28a16.18,16.18,0,0,1-.05,2.47c-.09,1.51-.23,3.61-.42,5.92-.1,1.15-.17,2.25-.31,3.26a6.19,6.19,0,0,1-.88,2.57,3.53,3.53,0,0,1-1.34,1.25,1.3,1.3,0,0,1-.65.19,4.07,4.07,0,0,0,1.75-1.59,6.37,6.37,0,0,0,.75-2.47c.12-1,.17-2.09.27-3.25.19-2.31.38-4.4.54-5.91A14.63,14.63,0,0,1,351.81,219.28Z"/><g class="cls-12"><path d="M330.42,205.72a7.4,7.4,0,0,0,6.46,1.85c1.63-.32,3.18-1.21,4.84-1.1s3.31,1.39,5,2.14c3.09,1.4,6.7.95,10,.08a7.41,7.41,0,0,0,4.06-2.17,7.19,7.19,0,0,0,1.25-3.37,34.88,34.88,0,0,0,.49-6.69,6.37,6.37,0,0,0-1.08-4,4.63,4.63,0,0,0-3-1.51,11.57,11.57,0,0,0-3.42.19,56.54,56.54,0,0,0-24.75,10.61"/></g><path class="cls-2" d="M346.37,198.33s-20.82,9.31-22.94,9.78c-7,1.54-15.06-5.1-12.83-12.67.83-2.81,12-33.94,12-33.94l10.66,14.73-4.51,15.07,11.81-.78Z"/><path class="cls-6" d="M339.63,190.64a4.75,4.75,0,0,1-.82.12l-2.28.19c-1.94.15-4.65.34-7.74.53l-.25,0,.07-.25c.22-.75.46-1.53.69-2.33,1.06-3.52,2-6.7,2.75-9,.35-1.09.65-2,.88-2.71a6.08,6.08,0,0,1,.36-1,5.18,5.18,0,0,1-.23,1c-.2.71-.45,1.64-.76,2.75-.66,2.31-1.59,5.5-2.64,9-.24.8-.48,1.58-.7,2.34l-.19-.24c3.09-.18,5.8-.32,7.74-.41l2.29-.08A4.81,4.81,0,0,1,339.63,190.64Z"/><path class="cls-6" d="M344,199.55c0,.09-4.53,2.06-10.2,4.4s-10.31,4.16-10.35,4.07S328,206,333.7,203.61,344,199.45,344,199.55Z"/><path class="cls-11" d="M341.53,190l-1.65-8a1,1,0,0,1,1-1.24l20.69.1a1,1,0,0,1,1,1.15l-2.14,18.31a1.42,1.42,0,0,1-1.42,1.26l-13.5-.1a1.44,1.44,0,0,1-1.37-1.08Z"/><path class="cls-7" d="M339.7,185.74h0a2.19,2.19,0,0,1,2,1.39,4.79,4.79,0,0,0,1.38,2.22c1,.55,2.77,1,3.7.54s4.61-3.78,5.26-3.41,1.2,1.2.55,1.94-4.06,3-3.41,3.7,7.85-2.52,9-2.23,1.75,1,1.1,1.41-5.54,2.29-5.81,2.94c0,0,7.38-1.94,7.66-1.48s.74,1.2,0,1.48-7.11,1.94-7.66,2.22a14,14,0,0,1-2.85.83,30.17,30.17,0,0,0-3,.94,6.48,6.48,0,0,1-4.59-.12l-.75-.31a2.91,2.91,0,0,1-1.82-2.89l.15-2.52-.81-2.08Z"/><path class="cls-4" d="M352.12,183.8a.75.75,0,1,1-1.5,0,.75.75,0,0,1,1.5,0Z"/><path class="cls-11" d="M441.12,248.5h-62v-2.3h59.69a2.31,2.31,0,0,1,2.31,2.3Z"/><rect class="cls-11" x="379.12" y="212.08" width="47.5" height="35.93" rx="3.34"/><rect class="cls-4" x="381.1" y="213.79" width="43.54" height="31.99"/><path class="cls-6" d="M424.63,245.79v-.59c0-.39,0-1,0-1.71,0-1.5,0-3.69,0-6.49,0-5.59,0-13.58,0-23.21l.05.05H381.1l.06-.06c0,11.62,0,22.57,0,32l0,0,31.49,0,8.88,0h-8.84l-31.53,0H381V213.74h43.65v0c0,9.64,0,17.64,0,23.24,0,2.79,0,5,0,6.48,0,.74,0,1.31,0,1.7S424.63,245.79,424.63,245.79Z"/><path class="cls-2" d="M418.12,222.4h-2.29l-6.32,0-21.46,0,.05-.06v14.78l-.05-.06,21.31,0,6.27,0h0l-6.27,0-21.31,0H388V222.35h.05l21.46,0,6.32,0h2.29Z"/><path class="cls-2" d="M418.12,224.89s-6.73.05-15,.05-15,0-15-.05,6.73,0,15,0S418.12,224.86,418.12,224.89Z"/><path class="cls-2" d="M417.9,226.87s-6.73.06-15,.06-15,0-15-.06,6.73-.05,15-.05S417.9,226.84,417.9,226.87Z"/><path class="cls-2" d="M418.12,229s-6.73,0-15,0-15,0-15,0,6.73-.05,15-.05S418.12,228.93,418.12,229Z"/><path class="cls-2" d="M418.12,231s-6.73.05-15,.05-15,0-15-.05,6.73-.06,15-.06S418.12,231,418.12,231Z"/><path class="cls-2" d="M418.12,233s-6.73.05-15,.05-15,0-15-.05,6.73-.05,15-.05S418.12,233,418.12,233Z"/><path class="cls-2" d="M388.05,235.06s6.73-.05,15-.05,15,0,15,.05-6.73.06-15,.06S388.05,235.09,388.05,235.06Z"/><path class="cls-2" d="M394,237.4S394,234,394,229.9s0-7.5.05-7.5.06,3.36.06,7.5S394,237.4,394,237.4Z"/><path class="cls-2" d="M400,237.4s0-3.36,0-7.5,0-7.5,0-7.5.06,3.36.06,7.5S400.06,237.4,400,237.4Z"/><path class="cls-2" d="M406.06,237.4S406,234,406,229.9s0-7.5.05-7.5.06,3.36.06,7.5S406.09,237.4,406.06,237.4Z"/><path class="cls-2" d="M412.09,237.4s0-3.36,0-7.5,0-7.5,0-7.5.05,3.36.05,7.5S412.12,237.4,412.09,237.4Z"/><path class="cls-2" d="M418.12,237.4s-.05-3.36-.05-7.5,0-7.5.05-7.5.05,3.36.05,7.5S418.15,237.4,418.12,237.4Z"/><path class="cls-9" d="M418.12,224.89a1.64,1.64,0,0,1-.23.18l-.67.48-2.53,1.74c-2.14,1.47-5.15,3.52-8.57,5.83l0,0-.05,0-2.56-.86L400,231.09h.09l-6,4h0l-4.36,1.51-1.2.4-.31.1-.11,0s0,0,.1-.05l.31-.12,1.18-.45L394,235h0l6-4.09,0,0,.05,0,3.47,1.16,2.56.87H406c3.42-2.3,6.45-4.33,8.62-5.77l2.56-1.69.69-.44Z"/><circle class="cls-9" cx="394" cy="235.06" r="0.37"/><circle class="cls-9" cx="400.03" cy="231" r="0.37"/><circle class="cls-9" cx="406.06" cy="232.99" r="0.37"/><circle class="cls-9" cx="412.15" cy="228.98" r="0.37"/><path class="cls-11" d="M418.12,235.06s0,0-.12-.06l-.32-.2-1.21-.79L412,231.1h.1l-6,4.05-.08.06-.06-.08c-1-1.34-2.07-2.79-3.17-4.28L400,227h.16l-6.05,6.09h0l-4.48,1.46-1.22.38-.32.1c-.08,0-.11,0-.12,0l.11,0,.31-.12,1.21-.42L394,233l0,0,6-6.12.08-.08.08.09,2.86,3.86c1.1,1.5,2.17,2.94,3.16,4.28l-.14,0,6-4,0,0,.05,0,4.38,3,1.19.82.31.22Z"/><circle class="cls-11" cx="400.03" cy="226.93" r="0.37"/><circle class="cls-11" cx="394" cy="233.03" r="0.37"/><circle class="cls-11" cx="406.06" cy="235.06" r="0.37"/><circle class="cls-11" cx="412.09" cy="231.36" r="0.37"/><path class="cls-2" d="M391.49,238.86a3.39,3.39,0,0,1-1.16,0,3.39,3.39,0,0,1,1.16,0Z"/><path class="cls-2" d="M397.65,238.86a3.39,3.39,0,0,1-1.16,0,3.39,3.39,0,0,1,1.16,0Z"/><path class="cls-2" d="M403.81,238.86a3.39,3.39,0,0,1-1.16,0,3.39,3.39,0,0,1,1.16,0Z"/><path class="cls-2" d="M410,238.86a3.39,3.39,0,0,1-1.16,0,3.39,3.39,0,0,1,1.16,0Z"/><path class="cls-2" d="M416.13,238.86a3.39,3.39,0,0,1-1.16,0,3.39,3.39,0,0,1,1.16,0Z"/><path class="cls-2" d="M387.2,237.09a1.87,1.87,0,0,1-.94,0,2.23,2.23,0,0,1,.94,0Z"/><path class="cls-2" d="M387.2,234.73a2.23,2.23,0,0,1-.94,0,1.87,1.87,0,0,1,.94,0Z"/><path class="cls-2" d="M387.2,232.36a2.23,2.23,0,1,1-.47-.05A1.1,1.1,0,0,1,387.2,232.36Z"/><path class="cls-2" d="M387.2,230a1.87,1.87,0,0,1-.94,0,2.23,2.23,0,0,1,.94,0Z"/><path class="cls-2" d="M387.2,227.63a2.23,2.23,0,0,1-.94,0,1.87,1.87,0,0,1,.94,0Z"/><path class="cls-2" d="M387.2,225.26a2.23,2.23,0,1,1-.47,0A1.1,1.1,0,0,1,387.2,225.26Z"/><path class="cls-2" d="M387.2,222.89a1.87,1.87,0,0,1-.94,0,2.23,2.23,0,0,1,.94,0Z"/><rect class="cls-9" x="387.89" y="217.29" width="8.64" height="0.61"/><path class="cls-6" d="M412,219.08s-5.4,0-12.06,0-12.07,0-12.07,0,5.4-.06,12.07-.06S412,219.05,412,219.08Z"/><path class="cls-6" d="M403.14,241.81s-3.29.06-7.35.06-7.36,0-7.36-.06,3.3-.05,7.36-.05S403.14,241.78,403.14,241.81Z"/><path class="cls-6" d="M392,242.92a20.44,20.44,0,0,1-3.13,0,24.52,24.52,0,0,1,3.13,0Z"/><path class="cls-6" d="M416.48,241.62s-2.34,0-5.23,0-5.23,0-5.23,0,2.34-.06,5.23-.06S416.48,241.59,416.48,241.62Z"/><path class="cls-6" d="M410.79,242.34a12.78,12.78,0,0,1-1.63,0,13,13,0,0,1-1.64,0,11.89,11.89,0,0,1,1.64-.06A11.68,11.68,0,0,1,410.79,242.34Z"/><polygon class="cls-6" points="153.82 372.46 166.81 257.57 177.83 261.46 159.83 372.46 153.82 372.46"/><rect class="cls-11" x="148.28" y="248.37" width="332.34" height="14.53"/><path class="cls-6" d="M218.68,248.59l-.11.15c-.07.1-.18.25-.34.44a7.21,7.21,0,0,1-1.67,1.34,9.43,9.43,0,0,1-3.21,1.07,22,22,0,0,1-4.48.2,42.69,42.69,0,0,1-5.39-.62,47.6,47.6,0,0,0-6.14-.73c-4.36-.16-9.09,1-13.82,2.68s-9.17,3.62-13.41,4.79a36.19,36.19,0,0,1-6.12,1.22,25.86,25.86,0,0,1-5.43,0,18.35,18.35,0,0,1-7.45-2.39A11.47,11.47,0,0,1,148.8,255s.06,0,.16.1l.45.33a13.62,13.62,0,0,0,1.78,1.15,18.73,18.73,0,0,0,7.4,2.24,26.16,26.16,0,0,0,5.37,0,36.78,36.78,0,0,0,6-1.24c4.2-1.18,8.61-3.11,13.37-4.82s9.54-2.85,14-2.67a47.14,47.14,0,0,1,6.18.78,45,45,0,0,0,5.35.66,22.52,22.52,0,0,0,4.43-.13,9.63,9.63,0,0,0,3.17-1A8.67,8.67,0,0,0,218.68,248.59Z"/><path class="cls-6" d="M182.32,248.81a8.49,8.49,0,0,1-1,.85,21.76,21.76,0,0,1-3,2,27.08,27.08,0,0,1-5,2,27.4,27.4,0,0,1-6.48,1,24.9,24.9,0,0,1-11.59-2.39,7.28,7.28,0,0,1-2.79-2.29,3.73,3.73,0,0,1-.46-.87c-.07-.22-.1-.33-.08-.34a8.92,8.92,0,0,0,.67,1.12,7.67,7.67,0,0,0,2.79,2.12,25.76,25.76,0,0,0,11.45,2.24,27.26,27.26,0,0,0,6.38-1,28.1,28.1,0,0,0,4.93-1.91,30.75,30.75,0,0,0,3.08-1.82A9.68,9.68,0,0,1,182.32,248.81Z"/><path class="cls-6" d="M260.31,258l.51.18a9.18,9.18,0,0,0,1.54.41,9,9,0,0,0,5.81-.91v.19a13.86,13.86,0,0,0-7.22-2.81,14,14,0,0,0-9.38,2.43,1.5,1.5,0,0,0-.72.95,1,1,0,0,0,.62.94,4.38,4.38,0,0,0,1.29.45l1.41.32c1.91.42,3.87.84,5.9,1.14a35.13,35.13,0,0,0,6.28.43,25.06,25.06,0,0,0,3.22-.31c.54-.09,1.07-.2,1.6-.34a8.25,8.25,0,0,0,1.55-.5,5.06,5.06,0,0,0,2-1.46,2.29,2.29,0,0,0,.38-2.23,3.74,3.74,0,0,0-1.58-1.76,12.47,12.47,0,0,0-2.2-1.08,30.09,30.09,0,0,0-9.23-1.92,38.24,38.24,0,0,0-15.76,2.45,38.82,38.82,0,0,0-9.49,5.18c-1,.78-1.79,1.4-2.29,1.86l-.58.5a1,1,0,0,1-.21.15,1.31,1.31,0,0,1,.18-.19l.56-.52c.48-.48,1.24-1.12,2.25-1.93a38.49,38.49,0,0,1,25.36-7.87,30.46,30.46,0,0,1,9.36,1.92,12.22,12.22,0,0,1,2.27,1.11,4.19,4.19,0,0,1,1.75,2,2.7,2.7,0,0,1-.45,2.62,5.47,5.47,0,0,1-2.17,1.58,8.53,8.53,0,0,1-1.62.53c-.54.14-1.09.25-1.63.34a22.88,22.88,0,0,1-3.28.31,34.93,34.93,0,0,1-6.35-.44c-2-.3-4-.73-5.92-1.16l-1.42-.33a4.65,4.65,0,0,1-1.39-.5,1.74,1.74,0,0,1-.58-.51,1.08,1.08,0,0,1-.21-.78,1.83,1.83,0,0,1,.87-1.2,14.3,14.3,0,0,1,9.62-2.44,14.09,14.09,0,0,1,7.33,2.93l.13.11-.15.08a9.07,9.07,0,0,1-5.95.83A6.7,6.7,0,0,1,260.31,258Z"/><path class="cls-6" d="M303.07,249a2.26,2.26,0,0,1,.33.74,5.57,5.57,0,0,1,.22,2.18,10.75,10.75,0,0,1-3.24,6.34,16.12,16.12,0,0,1-3,2.57,13.07,13.07,0,0,1-2.92,1.41,12.57,12.57,0,0,1-2.11.53,2.54,2.54,0,0,1-.8.07c0-.07,1.12-.23,2.81-.87a14.08,14.08,0,0,0,2.81-1.46,16.82,16.82,0,0,0,2.93-2.53,11,11,0,0,0,3.25-6.09A7.78,7.78,0,0,0,303.07,249Z"/><path class="cls-6" d="M362.75,262.14a15.63,15.63,0,0,0-1.52-1.48,10.78,10.78,0,0,0-5.2-2.35,11.36,11.36,0,0,0-4,.12,17.17,17.17,0,0,1-4.64.42,9.18,9.18,0,0,1-4.61-2.26,15.57,15.57,0,0,0-4.64-2.75,17,17,0,0,0-10.31-.16,24.37,24.37,0,0,0-7.62,3.86,42.15,42.15,0,0,0-4.42,3.77l-1.13,1.12a3,3,0,0,1-.41.37,2.64,2.64,0,0,1,.35-.43q.36-.42,1.08-1.17a35.74,35.74,0,0,1,4.36-3.89,24.12,24.12,0,0,1,7.69-4,17.31,17.31,0,0,1,10.55.14,16,16,0,0,1,4.74,2.82,9,9,0,0,0,4.42,2.21,16.9,16.9,0,0,0,4.54-.39,11.59,11.59,0,0,1,4.06-.06,10.74,10.74,0,0,1,5.25,2.5A7.19,7.19,0,0,1,362.75,262.14Z"/><path class="cls-6" d="M416,248.51a4.46,4.46,0,0,1-.36.5,17.2,17.2,0,0,1-1.14,1.35,31.47,31.47,0,0,1-4.85,4.31,39.08,39.08,0,0,1-8.42,4.66,34.52,34.52,0,0,1-5.43,1.74,28.4,28.4,0,0,1-6.07.78,30.07,30.07,0,0,1-11.52-2.4,38,38,0,0,1-8.37-4.75,31.86,31.86,0,0,1-4.82-4.35c-.54-.55-.88-1-1.14-1.34a4,4,0,0,1-.37-.5,2.56,2.56,0,0,1,.43.44c.28.29.65.76,1.19,1.3a36.45,36.45,0,0,0,4.88,4.22,39.25,39.25,0,0,0,8.34,4.63,30.09,30.09,0,0,0,11.37,2.34,28.38,28.38,0,0,0,6-.76,35.28,35.28,0,0,0,5.38-1.7,39.54,39.54,0,0,0,8.39-4.55,33.29,33.29,0,0,0,4.9-4.18c.56-.53.91-1,1.19-1.3A3.12,3.12,0,0,1,416,248.51Z"/><path class="cls-6" d="M408.43,248.37a1.57,1.57,0,0,1-.29.23,9.41,9.41,0,0,1-.86.58,32.94,32.94,0,0,1-3.33,1.89,35.24,35.24,0,0,1-5.26,2.14,23.27,23.27,0,0,1-6.86,1.17,28.1,28.1,0,0,1-12.18-3.08,25.59,25.59,0,0,1-3.3-1.94c-.38-.24-.65-.47-.84-.61s-.28-.23-.27-.24a12.47,12.47,0,0,1,1.19.72,35.11,35.11,0,0,0,3.34,1.81A29.11,29.11,0,0,0,391.83,254a23.43,23.43,0,0,0,6.75-1.12,38.28,38.28,0,0,0,5.25-2c1.45-.69,2.59-1.31,3.37-1.76A9.71,9.71,0,0,1,408.43,248.37Z"/><path class="cls-6" d="M442.22,249.86h-.39l-1.09-.07-.78-.06H439c-.67,0-1.43,0-2.27,0l-1.33.08L434,250c-1,.09-2,.32-3.13.5a48,48,0,0,0-6.95,2.08,47.42,47.42,0,0,0-6.5,3.2c-.94.6-1.86,1.14-2.65,1.74l-1.17.84-1,.83c-.67.52-1.22,1-1.72,1.5l-.69.63-.55.56-.77.77c-.18.18-.28.26-.29.25a1.44,1.44,0,0,1,.23-.3l.72-.83.52-.59.68-.66a20.76,20.76,0,0,1,1.69-1.55c.32-.28.67-.56,1-.86l1.16-.87c.79-.61,1.71-1.16,2.65-1.78a45.43,45.43,0,0,1,6.55-3.26,43.83,43.83,0,0,1,7-2.06c1.11-.18,2.16-.4,3.16-.47l1.44-.15,1.34,0a21.37,21.37,0,0,1,2.29,0l.94,0,.79.09,1.08.15A1.74,1.74,0,0,1,442.22,249.86Z"/><path class="cls-6" d="M456.45,247a.77.77,0,0,1,0,.28,5.62,5.62,0,0,1-.07.78,10.84,10.84,0,0,1-.77,2.79,16.31,16.31,0,0,1-6.21,7.13,32.57,32.57,0,0,1-8.74,3.73c-1.17.33-2.12.57-2.78.72a6.57,6.57,0,0,1-1,.2,5,5,0,0,1,1-.35l2.74-.85a35.18,35.18,0,0,0,8.6-3.8,16.65,16.65,0,0,0,6.16-6.9A17,17,0,0,0,456.45,247Z"/><path class="cls-6" d="M368.72,261.85a14.47,14.47,0,0,0-1.82-2.18,17.09,17.09,0,0,0-6.7-3.74,36.64,36.64,0,0,0-5.23-1.15c-1.9-.31-4-.54-6.11-.91a51.49,51.49,0,0,1-6.63-1.67,44.62,44.62,0,0,0-7.08-1.71,29.53,29.53,0,0,0-13.79,1.91,48.72,48.72,0,0,0-5.61,2.52c-1.72.88-3.3,1.75-4.73,2.56-2.86,1.61-5.14,3-6.71,3.95l-1.8,1.11-.47.28c-.11.06-.17.09-.17.08l.14-.12.45-.31c.4-.28,1-.68,1.77-1.17,1.54-1,3.8-2.42,6.65-4.08,1.42-.82,3-1.71,4.71-2.6a50.19,50.19,0,0,1,5.64-2.58,29.65,29.65,0,0,1,14-1.95,42.82,42.82,0,0,1,7.14,1.73,53.17,53.17,0,0,0,6.59,1.68c2.13.37,4.18.62,6.1.94a36.07,36.07,0,0,1,5.26,1.22,16.76,16.76,0,0,1,6.72,3.9A8.56,8.56,0,0,1,368.72,261.85Z"/><path class="cls-6" d="M293.87,248.59a3.28,3.28,0,0,1-.05.93,11,11,0,0,1-.65,2.45,14,14,0,0,1-5.11,6.53,34,34,0,0,1-7.57,3.49c-1,.34-1.84.58-2.42.73a3.34,3.34,0,0,1-.9.18,5.19,5.19,0,0,1,.86-.34l2.36-.84a39,39,0,0,0,7.45-3.56,14.49,14.49,0,0,0,5.06-6.3A20.5,20.5,0,0,0,293.87,248.59Z"/><path class="cls-6" d="M216.72,262.9a6.09,6.09,0,0,1,.81-.77c.53-.49,1.34-1.15,2.36-1.94a68.76,68.76,0,0,1,8.48-5.46c3.45-1.9,6.68-3.42,9-4.49,1.17-.54,2.12-1,2.79-1.25a5.68,5.68,0,0,1,1-.4,6.12,6.12,0,0,1-1,.55l-2.73,1.36c-2.3,1.14-5.5,2.7-8.94,4.59a83.27,83.27,0,0,0-8.51,5.33c-1,.76-1.87,1.38-2.43,1.83A5.59,5.59,0,0,1,216.72,262.9Z"/><path class="cls-6" d="M232.37,249.18s-.76-.1-2.14,0a15.18,15.18,0,0,0-5.54,1.68,50.74,50.74,0,0,0-7.21,4.84,37.15,37.15,0,0,1-4.33,2.81,24.27,24.27,0,0,1-5.19,2,47.55,47.55,0,0,1-10.62,1.28c-3.28.1-6.24,0-8.71.13a43.46,43.46,0,0,0-5.82.57l-1.57.31a2.16,2.16,0,0,1-.55.1,3.73,3.73,0,0,1,.53-.17c.35-.12.88-.24,1.55-.4a38.75,38.75,0,0,1,5.85-.7c2.48-.14,5.44-.1,8.71-.22a48.79,48.79,0,0,0,10.52-1.29,24.39,24.39,0,0,0,5.11-2,37.28,37.28,0,0,0,4.3-2.76,49.12,49.12,0,0,1,7.3-4.79,14.75,14.75,0,0,1,5.66-1.58,10.35,10.35,0,0,1,1.6.05A2.7,2.7,0,0,1,232.37,249.18Z"/><path class="cls-6" d="M439.65,248.31c0,.12-13.89.21-31,.21s-31-.09-31-.21,13.88-.2,31-.2S439.65,248.2,439.65,248.31Z"/><rect class="cls-6" x="264.93" y="241.85" width="44.79" height="6.69"/><rect class="cls-2" x="264.93" y="243.39" width="11.84" height="3.6"/><rect class="cls-9" x="268.93" y="235.15" width="44.79" height="6.69"/><rect class="cls-2" x="283.34" y="236.76" width="30.37" height="3.35"/><rect class="cls-6" x="262.24" y="228.46" width="44.79" height="6.69" transform="translate(569.27 463.61) rotate(180)"/><rect class="cls-2" x="295.19" y="230.01" width="11.84" height="3.6" transform="translate(602.21 463.61) rotate(180)"/><path class="cls-9" d="M419.62,347.34,425,360.6S413.28,370.48,414,373l26.09-9.43-7.48-21Z"/><path class="cls-2" d="M432.62,356.55a1.13,1.13,0,0,1,1.17.95,1.09,1.09,0,0,1-.93,1.18,1.21,1.21,0,0,1-1.24-1c0-.55.56-1.19,1.11-1.11"/><g class="cls-10"><path class="cls-3" d="M440.11,363.6l-.84-2.09-24.69,9.82s-1,.93-.56,1.7Z"/></g><path class="cls-6" d="M424.49,360.62c.05.13.71-.05,1.48.14s1.31.59,1.4.5-.35-.76-1.29-1S424.42,360.51,424.49,360.62Z"/><path class="cls-6" d="M422.16,362.74c0,.13.65.15,1.28.53s1,.91,1.08.86,0-.8-.84-1.26S422.12,362.62,422.16,362.74Z"/><path class="cls-6" d="M421.79,366.58c.13,0,.08-.72-.5-1.3s-1.28-.64-1.29-.51.48.36.95.84S421.66,366.61,421.79,366.58Z"/><path class="cls-6" d="M423.61,357.46c.09.1.61-.29,1.35-.5s1.38-.19,1.41-.32-.68-.39-1.54-.13S423.51,357.39,423.61,357.46Z"/><path class="cls-6" d="M422.58,354.77a2.61,2.61,0,0,0,1.3-.48,6.5,6.5,0,0,0,1.22-.92,6.67,6.67,0,0,0,.61-.67,2,2,0,0,0,.28-.44.59.59,0,0,0-.19-.7.69.69,0,0,0-.66-.09,1.87,1.87,0,0,0-.47.24,5.9,5.9,0,0,0-.71.57,5,5,0,0,0-.92,1.23,2.34,2.34,0,0,0-.38,1.34c.07,0,.22-.48.67-1.17a5.49,5.49,0,0,1,.93-1.08,4.76,4.76,0,0,1,.66-.5c.25-.17.49-.26.6-.16s.06.05,0,.15a1.28,1.28,0,0,1-.21.33,7.22,7.22,0,0,1-.55.65,7.34,7.34,0,0,1-1.09.94C423,354.49,422.55,354.7,422.58,354.77Z"/><path class="cls-6" d="M422.81,354.89a2.25,2.25,0,0,0-.11-1.39,4.85,4.85,0,0,0-.69-1.36,5.53,5.53,0,0,0-.62-.67,1.15,1.15,0,0,0-1.08-.36.64.64,0,0,0-.41.56,2.2,2.2,0,0,0,0,.53,3.18,3.18,0,0,0,.32.88,3.14,3.14,0,0,0,1,1.14c.76.5,1.34.46,1.34.41a12.53,12.53,0,0,1-1.14-.67,3.42,3.42,0,0,1-.86-1.08,3.16,3.16,0,0,1-.25-.77c-.06-.29,0-.55.08-.56a.78.78,0,0,1,.61.26,5.35,5.35,0,0,1,.58.59,5,5,0,0,1,.73,1.22C422.7,354.37,422.74,354.9,422.81,354.89Z"/><path class="cls-9" d="M444.17,344.91l5.34,13.26s-11.68,9.89-10.93,12.43l26.08-9.43-7.47-21Z"/><path class="cls-2" d="M457.17,354.13a1.12,1.12,0,0,1,1.18.95,1.09,1.09,0,0,1-.93,1.17,1.19,1.19,0,0,1-1.24-1c0-.56.55-1.2,1.1-1.12"/><g class="cls-10"><path class="cls-3" d="M464.66,361.17l-.84-2.09-24.69,9.83s-1,.92-.55,1.69Z"/></g><path class="cls-6" d="M449,358.19c0,.13.71,0,1.49.14s1.3.6,1.4.5-.36-.76-1.3-1S449,358.09,449,358.19Z"/><path class="cls-6" d="M446.72,360.31c0,.14.64.16,1.27.54s1,.9,1.08.85-.05-.8-.84-1.26S446.68,360.19,446.72,360.31Z"/><path class="cls-6" d="M446.35,364.15c.12,0,.07-.71-.51-1.29s-1.28-.65-1.29-.52.49.37,1,.85S446.22,364.18,446.35,364.15Z"/><path class="cls-6" d="M448.16,355c.1.09.62-.29,1.35-.51s1.39-.18,1.41-.32-.67-.39-1.54-.13S448.06,355,448.16,355Z"/><path class="cls-6" d="M447.13,352.34a2.66,2.66,0,0,0,1.31-.48,6,6,0,0,0,1.21-.91,6.67,6.67,0,0,0,.61-.67,1.84,1.84,0,0,0,.28-.45.59.59,0,0,0-.19-.7.75.75,0,0,0-.66-.09,1.53,1.53,0,0,0-.46.25,4.64,4.64,0,0,0-.72.57,4.94,4.94,0,0,0-.91,1.22,2.31,2.31,0,0,0-.39,1.34c.07,0,.22-.48.67-1.17a5.5,5.5,0,0,1,.93-1.07,5.12,5.12,0,0,1,.67-.51c.25-.17.48-.26.6-.16s.05.06,0,.16a1.47,1.47,0,0,1-.21.33,5.76,5.76,0,0,1-.55.64,7.85,7.85,0,0,1-1.08.94A9.83,9.83,0,0,0,447.13,352.34Z"/><path class="cls-6" d="M447.36,352.46c.06,0,.14-.54-.11-1.38a4.52,4.52,0,0,0-.69-1.37,4.83,4.83,0,0,0-.62-.67,1.16,1.16,0,0,0-1.07-.36.63.63,0,0,0-.42.56,2.16,2.16,0,0,0,0,.53,3.07,3.07,0,0,0,.32.88,3.27,3.27,0,0,0,1,1.15c.76.49,1.35.45,1.34.4a11.36,11.36,0,0,1-1.14-.67,3.21,3.21,0,0,1-.86-1.08,2.7,2.7,0,0,1-.24-.76c-.06-.29,0-.56.07-.57a.83.83,0,0,1,.62.27,4,4,0,0,1,.57.59,5,5,0,0,1,.73,1.21C447.25,351.94,447.29,352.47,447.36,352.46Z"/><path class="cls-13" d="M462.16,173.09l-2.49,20.4,3.87,9.41-15.32.54L445,196.09s-7.6-.86-7.9-5.72c-.19-3.11,4.81-25.74,4.81-25.74Z"/><path class="cls-6" d="M457.25,197.37a7.7,7.7,0,0,0,3.51-4.08c.79-2,1.31-4.18,2.21-6.16s2.32-4,3.26-6.07,1.41-4.56.5-6.66c0,0-.33-2.7-4-3.68,0,0-2-5.72-6.76-6.25-6.4-.73-6.18-2.61-10.35-4.21a4.06,4.06,0,0,0-5.42,2,6.17,6.17,0,0,0-3.17,3.53l0,.07a5.6,5.6,0,0,0,2.61,6.14l.78.45a5.51,5.51,0,0,1,2,1.57,4.7,4.7,0,0,1,.23,3.67,10.09,10.09,0,0,0-.58,3.7c.06.43.31.93.74.91s.63-.7.78-1.19a2.16,2.16,0,0,1,3.64-.79,2.26,2.26,0,0,1,.09,2.84c-.7.92-1.94,1.5-2.38,2.58-.75,1.84,1.13,4,1.76,5.2a9,9,0,0,0,.76,1.23,18.32,18.32,0,0,0,5.35,4.66,4.93,4.93,0,0,0,5,.25"/><path class="cls-13" d="M394.18,222h0c-2.69-1.15-4.43-2.18-6.23-2.84-2.22-.81-3.08-1.29-2.9-1.7s.12-.34,4.37.55c0,0-6.05-1.33-4.52-2.07.68-.33,5.72.72,5.72.72-4.12-.47-5.6-1.3-5.5-1.92.15-.9,6.26.42,6.26.42a46,46,0,0,1-5.45-1.33c-.76-.42.22-.81,1.12-.91s7,.1,8.72.07a1,1,0,0,0,1.12-1.07,6.38,6.38,0,0,1,.94-5.11c.52-.48,1.35.09,1.18.85a9.09,9.09,0,0,0,0,2.54,6,6,0,0,0,.56,2c.34.71.66,1.29.95,1.78l8.57,9.38-3.7,8.89Z"/><path class="cls-14" d="M392,218.64a11.94,11.94,0,0,1-2.94-.5,11.67,11.67,0,0,1-2.84-.87,11,11,0,0,1,2.94.49A11.29,11.29,0,0,1,392,218.64Z"/><path class="cls-14" d="M392.47,217a12.76,12.76,0,0,1-3.15-.35,13.47,13.47,0,0,1-3.09-.73,24.69,24.69,0,0,1,6.24,1.08Z"/><path class="cls-14" d="M393,215.38a11.53,11.53,0,0,1-3-.28,11.23,11.23,0,0,1-2.93-.67,12.12,12.12,0,0,1,3,.28A11.73,11.73,0,0,1,393,215.38Z"/><path class="cls-6" d="M450.3,262l-36.65,5.53a17.87,17.87,0,0,0-12.28,7.89h0a17.88,17.88,0,0,0-2.19,14.74l19.35,61.7L436,345.23l-10.73-54.56L482,286.88V262l-31.66-1.14"/><path class="cls-6" d="M476.11,262l-36.65,5.53a17.85,17.85,0,0,0-12.28,7.89h0A17.88,17.88,0,0,0,425,290.14l16.87,58L461.38,343l-10.3-52.35L489,288.14v-24.9l-12.84-2.4"/><path class="cls-9" d="M403.29,216.27c.75-.1,25.65,19.3,25.65,19.3l-15.89,6.33-16.11-16S395.92,217.29,403.29,216.27Z"/><path class="cls-9" d="M483.79,208.65c-4.15-6-11.21-8.09-13.66-8.65a7,7,0,0,0-1.58-.18H447.37a14.89,14.89,0,0,0-10.3,4.1,50.55,50.55,0,0,0-8.13,10.48l-10.67,14.82-6.56,11,1.34,1.68a11,11,0,0,0,13.17,3.35c2.16-1,3.74-2.89,5.21-5.05,2.68-3.93,5.48-8.19,7.33-11.44l10.69,30.58L443.73,263l24.1,9.75L492.93,262,486,237.29h0s11,1.07,12-3.25S488.87,216,483.79,208.65Z"/><path class="cls-4" d="M481.31,219.85a100.8,100.8,0,0,1,5,9.27c.21.41.8,0,.61-.36a77.22,77.22,0,0,0-5.22-9.14c-.16-.25-.55,0-.39.23Z"/><path class="cls-4" d="M486.29,218.07a104.58,104.58,0,0,1,5,9.26c.2.41.8,0,.61-.36a79.14,79.14,0,0,0-5.22-9.13c-.16-.25-.56,0-.4.23Z"/><path class="cls-4" d="M476.49,220.56c1.05,4.11,1.89,8.27,2.56,12.46.1.58,1,.34.9-.25a82.73,82.73,0,0,0-3.09-12.31.19.19,0,0,0-.37.1Z"/><path class="cls-4" d="M465.13,221.73a49.72,49.72,0,0,1,2.07,12.35c0,.58.93.59.91,0a41.26,41.26,0,0,0-2.53-12.47c-.1-.28-.54-.16-.45.12Z"/><path class="cls-4" d="M474.42,231.75a55.36,55.36,0,0,1-2.74-11.64c-.06-.54-.87-.57-.86,0A23.37,23.37,0,0,0,474,231.94c.14.22.54.08.45-.19Z"/><path class="cls-4" d="M460.06,222.06a53.59,53.59,0,0,0,1.71,11.75.43.43,0,0,0,.82-.23c-.74-3.86-1.45-7.7-2.08-11.58,0-.25-.45-.19-.45.06Z"/><path class="cls-4" d="M454,222.76c1.06,4.3,1.84,8.63,2.62,13,.07.41.79.32.74-.1a70.54,70.54,0,0,0-3-13,.17.17,0,0,0-.32.09Z"/><path class="cls-4" d="M448.41,223.76a52.13,52.13,0,0,0,1.31,12c.12.42.71.23.65-.18a111.69,111.69,0,0,1-1.44-11.83c0-.33-.53-.34-.52,0Z"/><path class="cls-4" d="M430.63,234.74a86.4,86.4,0,0,0,9-10.7c.25-.32-.29-.74-.56-.44a87.22,87.22,0,0,0-8.69,11,.15.15,0,0,0,.23.17Z"/><path class="cls-4" d="M426.73,231.25a38,38,0,0,0,7.74-9.51c.24-.41-.37-.76-.64-.37-2.3,3.36-4.87,6.41-7.38,9.6a.2.2,0,0,0,.28.28Z"/><path class="cls-4" d="M429.08,219.82c-2.22,2.48-4.51,4.92-6.61,7.51-.27.34.2.84.5.49,2.23-2.49,4.27-5.15,6.38-7.74.15-.18-.11-.45-.27-.26Z"/><path class="cls-4" d="M442.76,224.36c.94,4,1.5,8,2.37,12,.09.37.74.3.69-.1a90.78,90.78,0,0,0-2.53-12.09.28.28,0,0,0-.53.15Z"/><g class="cls-12"><path d="M474.91,232.93a5.85,5.85,0,0,0-4.5,2.25,13.79,13.79,0,0,0-2.33,4.62,47.81,47.81,0,0,0-2.51,16.35c0,1.7.06,3.65-1.22,4.76-1.1.95-2.73.88-4.09,1.4-2.16.85-4,3.74-3.39,6L469,272.88Z"/></g><path class="cls-6" d="M461.3,258.53a4.11,4.11,0,0,1-1.38.54,15.77,15.77,0,0,1-3.53.55,16,16,0,0,1-3.56-.24,4.12,4.12,0,0,1-1.42-.41,45.19,45.19,0,0,0,5,.24A48.29,48.29,0,0,0,461.3,258.53Z"/><polygon class="cls-11" points="417.68 291.69 408.03 372.57 412.2 372.57 422.44 291.69 417.68 291.69"/><polygon class="cls-11" points="456.09 291.69 464.94 372.57 469.49 372.57 460.86 291.69 456.09 291.69"/><polyline class="cls-11" points="503.75 291.69 511.12 372.57 516.18 372.57 507.77 291.69 501.66 291.69"/><path class="cls-11" d="M479.12,222.21h35.73a5.56,5.56,0,0,1,5.5,6.35l-8.46,59a4.78,4.78,0,0,1-4.73,4.1h-46.3Z"/><path class="cls-11" d="M412.91,291.69c.09-.89,0-5.36,0-5.36l44.31.83a6.8,6.8,0,0,0,6.84-5.7l8.83-54a6.31,6.31,0,0,1,6.23-5.29h0L469.49,283a10.36,10.36,0,0,1-10.23,8.73Z"/><path class="cls-6" d="M479.12,222.21s0,.07,0,.19l-.06.55c-.07.51-.17,1.21-.3,2.09-.27,1.85-.67,4.46-1.15,7.68l-4,25.32c-.79,4.94-1.54,9.64-2.23,13.93-.34,2.14-.67,4.17-1,6.07a42,42,0,0,1-1.08,5.28,14.73,14.73,0,0,1-1.82,4.05,10.42,10.42,0,0,1-2.29,2.46,7.44,7.44,0,0,1-1.85,1,4,4,0,0,1-.71.21,9.6,9.6,0,0,0,2.46-1.38,12.1,12.1,0,0,0,3.93-6.46,41.12,41.12,0,0,0,1-5.25c.3-1.9.62-3.94.95-6.08.68-4.29,1.42-9,2.2-13.94l4.08-25.3L478.6,225c.15-.87.27-1.57.37-2.08l.1-.54C479.1,222.27,479.11,222.21,479.12,222.21Z"/><path class="cls-6" d="M481.1,222.6a17.27,17.27,0,0,1-2.15-3,18.14,18.14,0,0,1-1.81-3.27,33.41,33.41,0,0,1,4,6.31Z"/><path class="cls-6" d="M413.67,235.68a32.46,32.46,0,0,1,2.77-4.32,30.66,30.66,0,0,1,3.11-4.07,33,33,0,0,1-2.78,4.31A32.82,32.82,0,0,1,413.67,235.68Z"/><path class="cls-6" d="M443.56,221.38a6.92,6.92,0,0,1-.48.91l-1.41,2.41c-1.2,2-2.9,4.82-4.86,7.84s-3.81,5.71-5.19,7.63c-.68,1-1.26,1.72-1.66,2.24a4.45,4.45,0,0,1-.66.79,5.78,5.78,0,0,1,.53-.88l1.56-2.32c1.31-1.95,3.12-4.66,5.08-7.68l4.95-7.77c.64-1,1.15-1.8,1.52-2.35A4.19,4.19,0,0,1,443.56,221.38Z"/><path class="cls-6" d="M229.33,130.17c-1.62-2.39-.62-6,1.82-7.57a7.31,7.31,0,0,1,8.12.58c2.31,1.74,3,4.77,2.58,7.36-.28,1.93-3.3,5.86-6.18,4.13"/><path class="cls-6" d="M212,146.52c-6.39-12.37,7-19.42,14.57-17.68,7.12,1.63,10.29,5,11.68,9.62a23.21,23.21,0,0,1,0,14.3c-.79,2.25-2.32,4.58-4.68,5"/><path class="cls-13" d="M231.4,135.66a2.38,2.38,0,0,1,2.26,2.31h0l.25,32.31c.14,3.81-5.31,6.24-9.39,6.35h0c-4.12.12-4.36-1.89-4.6-5.51-.4-6.05-.51-8.32-.51-8.28s-5.25-.61-6.67-7.34c-.7-3.35-.81-8.89-.75-13.43.06-4.08,2.5-9.21,6.58-9Z"/><path class="cls-6" d="M213.78,146.2a.88.88,0,0,0,.89.84.83.83,0,0,0,.85-.83.87.87,0,0,0-.88-.84A.84.84,0,0,0,213.78,146.2Z"/><path class="cls-6" d="M213.34,144.89c.11.11.75-.41,1.68-.46s1.65.39,1.74.27-.07-.25-.38-.45a2.41,2.41,0,0,0-1.4-.36,2.3,2.3,0,0,0-1.33.51C213.37,144.63,213.28,144.84,213.34,144.89Z"/><path class="cls-6" d="M222.6,145.76a.87.87,0,0,0,.88.84.84.84,0,0,0,.86-.83.88.88,0,0,0-.89-.84A.83.83,0,0,0,222.6,145.76Z"/><path class="cls-6" d="M222.55,144.61c.12.11.75-.42,1.69-.46s1.64.39,1.74.27-.07-.25-.38-.46a2.45,2.45,0,0,0-1.41-.35,2.3,2.3,0,0,0-1.33.5C222.58,144.35,222.5,144.56,222.55,144.61Z"/><path class="cls-6" d="M219.5,151.72a6.9,6.9,0,0,0-1.54-.2c-.24,0-.46-.05-.51-.21a1.16,1.16,0,0,1,.12-.71c.2-.59.4-1.21.62-1.86a32.69,32.69,0,0,0,1.35-4.84,30.13,30.13,0,0,0-1.74,4.72c-.2.65-.4,1.27-.59,1.87a1.41,1.41,0,0,0-.07.94.56.56,0,0,0,.41.33,1.53,1.53,0,0,0,.41,0A5.75,5.75,0,0,0,219.5,151.72Z"/><path class="cls-14" d="M219.41,162.84a17.32,17.32,0,0,0,9-2.88s-2,4.77-8.79,4.48Z"/><path class="cls-14" d="M220,154a1.67,1.67,0,0,1,1.48-.7,1.51,1.51,0,0,1,1.09.52,1,1,0,0,1,.13,1.11,1.13,1.13,0,0,1-1.21.37,3.59,3.59,0,0,1-1.23-.66.78.78,0,0,1-.28-.26.32.32,0,0,1,0-.35"/><path class="cls-6" d="M222.29,152.23c-.16,0-.11,1-.94,1.78s-1.92.71-1.92.85.25.19.71.18a2.57,2.57,0,0,0,1.6-.65,2.25,2.25,0,0,0,.73-1.49C222.48,152.47,222.36,152.22,222.29,152.23Z"/><path class="cls-6" d="M222.05,143c.1.25,1,.08,2.14.16s2,.33,2.14.1-.11-.35-.48-.58a3.49,3.49,0,0,0-1.61-.47,3.45,3.45,0,0,0-1.65.28C222.2,142.66,222,142.87,222.05,143Z"/><path class="cls-6" d="M213.55,142.16c.17.21.81,0,1.58-.09s1.44.07,1.58-.16-.05-.32-.35-.51a2.31,2.31,0,0,0-2.55.21C213.55,141.84,213.47,142.06,213.55,142.16Z"/><path class="cls-6" d="M213.92,133.52a6.57,6.57,0,0,0,2.75,6.3,13.23,13.23,0,0,0,3.87,1.52l2.59.7a21.12,21.12,0,0,0,5.82,1c-.1,2.22-.35,3.71.84,5.58,1.07,1.68,2.63,2.86,4.64,2.38a66.93,66.93,0,0,0,.76-13.27,6.22,6.22,0,0,0-.68-3.31c-1-1.58-3.17-1.89-5-2l-7.93-.62a16.33,16.33,0,0,0-3.89,0,5.39,5.39,0,0,0-3.35,1.81"/><path class="cls-11" d="M239.47,143.09s0,0-.07,0l-.22,0a2.12,2.12,0,0,1-.84-.19,3.53,3.53,0,0,1-1.11-.79,14.67,14.67,0,0,1-1.13-1.39,6.8,6.8,0,0,0-1.56-1.44,8.48,8.48,0,0,0-2.21-1,18.74,18.74,0,0,0-5.59-.61,25.84,25.84,0,0,1-5.68-.39,8.23,8.23,0,0,1-4.1-2.18,6.05,6.05,0,0,1-1.07-1.45,4.54,4.54,0,0,1-.46-1.28,3.36,3.36,0,0,1-.06-1.15s0,.42.16,1.13a5.22,5.22,0,0,0,.49,1.23A6.13,6.13,0,0,0,217.1,135a8,8,0,0,0,4,2.07,26.55,26.55,0,0,0,5.63.37,18.62,18.62,0,0,1,5.66.64,8.82,8.82,0,0,1,2.27,1.07,6.94,6.94,0,0,1,1.58,1.51,17.27,17.27,0,0,0,1.09,1.4,3.68,3.68,0,0,0,1,.8A2.45,2.45,0,0,0,239.47,143.09Z"/><path class="cls-11" d="M238.39,138.93a1.87,1.87,0,0,0-.14-1,3.91,3.91,0,0,0-2-1.68,13.41,13.41,0,0,0-3.87-1,32.74,32.74,0,0,0-4.94,0,23.2,23.2,0,0,1-5-.18,10.17,10.17,0,0,1-3.8-1.47,6.42,6.42,0,0,1-1.94-2,5.29,5.29,0,0,1-.34-.66l-.09-.25s.16.32.52.86a6.59,6.59,0,0,0,1.95,1.84,9.87,9.87,0,0,0,3.74,1.39,23.32,23.32,0,0,0,4.93.16,32,32,0,0,1,5,0,13.06,13.06,0,0,1,3.93,1.12,3.87,3.87,0,0,1,2,1.81,1.42,1.42,0,0,1,.1.74A.59.59,0,0,1,238.39,138.93Z"/><path class="cls-11" d="M241.36,125.92s.08.15.11.45a2.78,2.78,0,0,1-.22,1.25,7.07,7.07,0,0,1-2.83,3,6.67,6.67,0,0,1-2.15.83,6.4,6.4,0,0,1-1.88.06,8.21,8.21,0,0,1-1.24-.23,1.8,1.8,0,0,1-.43-.15c0-.05.64.12,1.68.19a6.94,6.94,0,0,0,1.82-.12,6.67,6.67,0,0,0,2.06-.82,7.28,7.28,0,0,0,2.79-2.85A3.25,3.25,0,0,0,241.36,125.92Z"/><path class="cls-11" d="M238.91,122.93a1.31,1.31,0,0,1,0,.45,7.49,7.49,0,0,1-.23,1.22,8.12,8.12,0,0,1-5.55,5.6,7.72,7.72,0,0,1-1.22.24,1.2,1.2,0,0,1-.45,0s.64-.1,1.61-.43a8.85,8.85,0,0,0,3.37-2.09,8.7,8.7,0,0,0,2.05-3.39C238.81,123.57,238.86,122.92,238.91,122.93Z"/><path class="cls-11" d="M238.24,152.35a2.81,2.81,0,0,1,0-.36c0-.24,0-.59,0-1a11.21,11.21,0,0,0-.69-3.68,7.27,7.27,0,0,0-1.32-2.2,6,6,0,0,0-2.42-1.62c-2-.74-4.33-.62-6.76-.73a20.53,20.53,0,0,1-6.77-1.29,11.33,11.33,0,0,1-4.58-3.24,8.67,8.67,0,0,1-1.77-3.35,6.69,6.69,0,0,1-.18-1,1.39,1.39,0,0,1,0-.36s.05.49.29,1.35a8.8,8.8,0,0,0,1.81,3.25,11.27,11.27,0,0,0,4.53,3.14,20.79,20.79,0,0,0,6.69,1.25c2.41.11,4.81,0,6.84.77a6.07,6.07,0,0,1,2.5,1.71,7.32,7.32,0,0,1,1.33,2.27,10.85,10.85,0,0,1,.62,3.75c0,.44,0,.79,0,1A2.19,2.19,0,0,1,238.24,152.35Z"/><path class="cls-9" d="M236.69,134.85a13.2,13.2,0,0,1-1-1,16.13,16.13,0,0,0-5.57-3.85c-.8-.34-1.32-.5-1.31-.54a5.34,5.34,0,0,1,1.38.36,13.46,13.46,0,0,1,5.64,3.9A4.9,4.9,0,0,1,236.69,134.85Z"/><path class="cls-13" d="M232.94,146.92c.09,0,3.55-1.79,3.79,2.27s-3.88,3.47-3.9,3.35S232.94,146.92,232.94,146.92Z"/><path class="cls-14" d="M234,150.93s.08,0,.2.09a.7.7,0,0,0,.53,0,1.74,1.74,0,0,0,.71-1.62,2.42,2.42,0,0,0-.25-1,.85.85,0,0,0-.57-.51.36.36,0,0,0-.41.22c0,.12,0,.2,0,.2s-.09-.06-.07-.23a.42.42,0,0,1,.14-.26.53.53,0,0,1,.39-.13,1,1,0,0,1,.77.58,2.44,2.44,0,0,1,.32,1.12,1.85,1.85,0,0,1-.93,1.82.75.75,0,0,1-.65-.07C234,151,234,150.94,234,150.93Z"/><path class="cls-13" d="M173.17,183.25s-2.73-5.36-3.42-5.88-6.79-2.64-7.31-2.47-7.85,1.55-7,2.41,6-.17,6-.17l.7.33s-4.42.78-5.35,1.34-.54,1.55.27,1.46a47.46,47.46,0,0,1,4.89-.75c.23.15-4.18,1.1-4.65,1.39-.63.39-.68,1.53.13,1.46.47,0,4.62-1.18,4.62-1.18a34.23,34.23,0,0,0-3.58,1.62c-.49.48-.08,1.19.63,1,.49-.12,2.81-1.27,3.46-1.42,0,0,.62.15,1.2,1.39s4.64,4.32,4.64,4.32Z"/><path class="cls-13" d="M171.49,183.35a1.45,1.45,0,0,1-1.71,0c-.53-.31-.94-.79-1.44-1.13-1.52-1-3.67-.75-5.13-1.85-.2-.15-.41-.4-.3-.63s.39-.25.62-.25l6.07,0"/><path class="cls-14" d="M169.6,179.57a2.59,2.59,0,0,0-.66-.07l-1.79-.07-2.65-.06h-.76a1.2,1.2,0,0,0-.89.2.52.52,0,0,0-.09.57,1.06,1.06,0,0,0,.31.38,3.74,3.74,0,0,0,.77.46,23.81,23.81,0,0,0,3.15.85,4.45,4.45,0,0,1,1.25.54c.36.24.66.52,1,.76a2.12,2.12,0,0,0,1.72.57c.44-.09.59-.34.57-.34a1.7,1.7,0,0,1-.59.21,2.07,2.07,0,0,1-1.54-.63c-.29-.24-.58-.54-1-.81a4.72,4.72,0,0,0-1.32-.61,26.31,26.31,0,0,1-3.1-.86,3.15,3.15,0,0,1-.69-.41c-.2-.15-.3-.36-.2-.45s.38-.1.64-.1h.77l2.65,0c.76,0,1.37,0,1.79,0A2,2,0,0,0,169.6,179.57Z"/><path class="cls-14" d="M155.47,177.33a3.26,3.26,0,0,0,1.34.35,8.21,8.21,0,0,0,1.52,0c.56-.07,1.17-.17,1.82-.27l1.37-.22h-.09a18.72,18.72,0,0,0,3.19.94,20,20,0,0,0-3.08-1.25l0,0h0l-1.36.21-1.8.29a8.23,8.23,0,0,1-1.47,0C156,177.39,155.48,177.28,155.47,177.33Z"/><path class="cls-9" d="M194.57,337.66l6.61,12.26s-10.25,10.83-9.25,13.21l24.24-11.95-9.51-19.53Z"/><path class="cls-2" d="M208.15,345.17a1.12,1.12,0,0,1,1.25.79,1.07,1.07,0,0,1-.78,1.24,1.17,1.17,0,0,1-1.31-.85,1.1,1.1,0,0,1,.95-1.19"/><g class="cls-10"><path class="cls-3" d="M216.17,351.18l-1-1.93-22.85,12.18s-.84,1-.35,1.7Z"/></g><path class="cls-6" d="M200.72,350c.07.11.68-.12,1.45,0s1.33.44,1.42.34-.43-.7-1.37-.8S200.65,349.89,200.72,350Z"/><path class="cls-6" d="M198.7,352.29c0,.13.64.08,1.29.38s1,.78,1.14.71-.14-.77-.95-1.13S198.65,352.18,198.7,352.29Z"/><path class="cls-6" d="M198.76,356.05c.12,0,0-.7-.63-1.2s-1.31-.48-1.31-.36.51.3,1,.72S198.63,356.09,198.76,356.05Z"/><path class="cls-6" d="M199.53,347c.1.08.56-.35,1.26-.64s1.31-.33,1.32-.46-.69-.31-1.5,0S199.43,347,199.53,347Z"/><path class="cls-6" d="M198.24,344.53a2.53,2.53,0,0,0,1.21-.61,5.82,5.82,0,0,0,1.08-1,6.58,6.58,0,0,0,.51-.72,1.41,1.41,0,0,0,.23-.46.58.58,0,0,0-.26-.66.71.71,0,0,0-.65,0,1.8,1.8,0,0,0-.42.28,5.35,5.35,0,0,0-.63.63,5.09,5.09,0,0,0-.76,1.29,2.29,2.29,0,0,0-.22,1.34c.07,0,.16-.49.52-1.21a5.8,5.8,0,0,1,.78-1.14,6.34,6.34,0,0,1,.59-.56c.23-.19.44-.3.57-.22s.05,0,0,.15a1.53,1.53,0,0,1-.17.34,7.32,7.32,0,0,1-.46.68,7.51,7.51,0,0,1-.95,1C198.65,344.21,198.21,344.47,198.24,344.53Z"/><path class="cls-6" d="M198.48,344.62a2.13,2.13,0,0,0-.26-1.33,4.46,4.46,0,0,0-.82-1.25,4.82,4.82,0,0,0-.67-.58,1.13,1.13,0,0,0-1.08-.23.64.64,0,0,0-.34.59,1.77,1.77,0,0,0,.1.5,2.72,2.72,0,0,0,.4.82,3,3,0,0,0,1.14,1,1.79,1.79,0,0,0,1.33.25c0-.08-.51-.11-1.17-.53a3.06,3.06,0,0,1-1-.95,2.85,2.85,0,0,1-.32-.71c-.09-.28-.1-.54,0-.56a.77.77,0,0,1,.62.19,5.39,5.39,0,0,1,.63.51,4.61,4.61,0,0,1,.83,1.1C198.31,344.13,198.41,344.64,198.48,344.62Z"/><path class="cls-9" d="M201,348.27,198.53,362s-14.77,2-15.48,4.53l26.38,5.83,4.8-21.18Z"/><path class="cls-2" d="M206.94,362.63a1.09,1.09,0,0,1,.47,1.39,1.07,1.07,0,0,1-1.38.49,1.18,1.18,0,0,1-.49-1.48,1.11,1.11,0,0,1,1.49-.35"/><g class="cls-10"><path class="cls-3" d="M209.43,372.33l.4-2.15-25.44-4.78s-1.29.25-1.34,1.1Z"/></g><path class="cls-6" d="M198.13,361.74c0,.13.61.33,1.15.89s.76,1.17.89,1.14.1-.81-.57-1.47S198.13,361.62,198.13,361.74Z"/><path class="cls-6" d="M195.11,362.28c-.06.11.45.46.77,1.1s.32,1.24.44,1.27.38-.69,0-1.48S195.14,362.15,195.11,362.28Z"/><path class="cls-6" d="M192.81,365.24c.11.05.43-.55.25-1.33s-.71-1.19-.79-1.1.21.56.34,1.2S192.68,365.2,192.81,365.24Z"/><path class="cls-6" d="M199.05,358.68c0,.13.66.09,1.37.3s1.24.56,1.33.47-.35-.68-1.2-.92S199,358.57,199.05,358.68Z"/><path class="cls-6" d="M199.61,355.93a2.53,2.53,0,0,0,1.32.28,6.11,6.11,0,0,0,1.48-.11,7.13,7.13,0,0,0,.84-.24,1.77,1.77,0,0,0,.47-.22.59.59,0,0,0,.21-.68.7.7,0,0,0-.5-.41,1.91,1.91,0,0,0-.51-.05,4.92,4.92,0,0,0-.88.11,4.4,4.4,0,0,0-1.4.53c-.73.43-1,.86-1,.9s.43-.28,1.16-.62a5.68,5.68,0,0,1,1.33-.4,5.09,5.09,0,0,1,.81-.07c.29,0,.53,0,.57.18s0,.08-.06.15a1.2,1.2,0,0,1-.34.16,6.43,6.43,0,0,1-.79.24,7,7,0,0,1-1.38.21A8.53,8.53,0,0,0,199.61,355.93Z"/><path class="cls-6" d="M199.73,356.15s.4-.37.63-1.2a4,4,0,0,0,.14-1.48,4,4,0,0,0-.16-.88,1.07,1.07,0,0,0-.69-.85.64.64,0,0,0-.64.24,2.26,2.26,0,0,0-.24.46,3.17,3.17,0,0,0-.2.89,3.11,3.11,0,0,0,.27,1.49c.36.79.87,1.07.89,1a10.45,10.45,0,0,1-.59-1.15,3.15,3.15,0,0,1-.14-1.34,2.59,2.59,0,0,1,.19-.75c.1-.28.26-.48.36-.43s.3.29.36.54a3.72,3.72,0,0,1,.17.79,5.11,5.11,0,0,1,0,1.37C199.91,355.66,199.67,356.12,199.73,356.15Z"/><path class="cls-6" d="M213.14,222.19,172.6,274.4a18.93,18.93,0,0,0-3,17.7L199,352l9.85-16.73L192,287.94,214,261.56l9.78-40.38Z"/><path class="cls-6" d="M197.38,359.92l18.15-126.7.9-11.34,22.27-1.21s7.78,12.13,8.15,19.54-20.26,59.34-20.26,59.34l-3,20.71-12.46,43.87Z"/><path class="cls-11" d="M216.25,224.24c.11,0-4,30.4-9.23,67.86s-9.53,67.84-9.64,67.82,4-30.4,9.23-67.87S216.13,224.22,216.25,224.24Z"/><path class="cls-11" d="M191.92,288c0,.06-.5-.33-1.33-.76a8.36,8.36,0,0,0-7.05-.28c-.87.37-1.34.72-1.39.66a3.76,3.76,0,0,1,1.26-.92,7.7,7.7,0,0,1,3.7-.79,7.53,7.53,0,0,1,3.62,1.07A3.47,3.47,0,0,1,191.92,288Z"/><path class="cls-11" d="M240,228.46a1.76,1.76,0,0,1-.48.28,7,7,0,0,1-1.44.51,10.57,10.57,0,0,1-2.25.32,11.08,11.08,0,0,1-5.38-1.24,9.43,9.43,0,0,1-1.88-1.27,7.53,7.53,0,0,1-1.07-1.08c-.23-.29-.34-.45-.32-.47s.57.56,1.57,1.33a11.49,11.49,0,0,0,1.87,1.15,12.53,12.53,0,0,0,2.53.9,13,13,0,0,0,2.68.3A11.37,11.37,0,0,0,238,229C239.26,228.72,240,228.39,240,228.46Z"/><path class="cls-11" d="M175,303a12.29,12.29,0,0,1-.7-1.25c-.43-.81-1-2-1.77-3.46a54.2,54.2,0,0,1-2.3-5.29,28.76,28.76,0,0,1-1-3.28,18.57,18.57,0,0,1-.51-3.65,15.82,15.82,0,0,1,.33-3.67,19.57,19.57,0,0,1,1.06-3.27,28.78,28.78,0,0,1,2.85-5c.94-1.35,1.77-2.39,2.36-3.09.29-.36.53-.62.69-.81s.25-.27.26-.26a11,11,0,0,1-.83,1.17c-.54.73-1.34,1.79-2.24,3.15a29.93,29.93,0,0,0-2.75,5,20,20,0,0,0-1,3.2,15.6,15.6,0,0,0-.31,3.58,18.84,18.84,0,0,0,.49,3.57,28.68,28.68,0,0,0,1,3.24c.71,2,1.52,3.81,2.2,5.3l1.66,3.51.43,1C174.93,302.82,175,302.94,175,303Z"/><polygon class="cls-9" points="208.35 175.28 193.29 192.6 173.77 181.81 166.95 188.64 192.29 206 203.6 205.83 213.25 186.81 208.35 175.28"/><path class="cls-9" d="M202.84,188.07l8.38,35.29L239.33,221,243,193.19l7.52-11.84a14,14,0,0,0-14.23-11.23l-2-4.7-14.81,1.24L217.66,171s-12.2.87-11.91,11.94Z"/><g class="cls-12"><path d="M210,218.06a14.68,14.68,0,0,0,12.58-2.41,4.43,4.43,0,0,1,1.68-1,3.89,3.89,0,0,1,2,.29,37.84,37.84,0,0,0,9.32,1.66,6.58,6.58,0,0,0,3.24-.43,2.55,2.55,0,0,0,1.5-2.66,86.21,86.21,0,0,0-14.63-4,20,20,0,0,0-7.81-.21,22.44,22.44,0,0,0-7.19,3.58,3.22,3.22,0,0,0-1.44,1.48c-.44,1.3.87,2.66.6,4"/></g><path class="cls-9" d="M231,180.89c.79.72,11.25,18.64,11.25,18.64l-16.71,3.65-.57,8.24,16.42,2.38,7.39.78a9.46,9.46,0,0,0,8.56-3.69h0a9.49,9.49,0,0,0,1.17-9.49L250,179.69Z"/><path class="cls-6" d="M246.88,199.47c0,.11-4.74,1-10.62,2.06s-10.67,1.76-10.69,1.65,4.74-1,10.62-2.05S246.86,199.36,246.88,199.47Z"/><path class="cls-6" d="M242.92,200.14a5.8,5.8,0,0,1-.45-.9c-.28-.66-.64-1.5-1.07-2.49-.9-2.11-2.11-5-3.42-8.28l-1.83-4.58a8.22,8.22,0,0,1-.73-4,4.12,4.12,0,0,1,1.21-2.46,2.76,2.76,0,0,1,.6-.44c.16-.08.24-.11.25-.1s-.31.19-.74.65a4.1,4.1,0,0,0-1,2.39,8.26,8.26,0,0,0,.79,3.82l1.86,4.57c1.31,3.24,2.48,6.18,3.3,8.32.39,1,.71,1.87,1,2.54A4.35,4.35,0,0,1,242.92,200.14Z"/><path class="cls-6" d="M251.49,214.64a5.29,5.29,0,0,1-1.06,0c-.67,0-1.65,0-2.86-.09-2.41-.13-5.75-.43-9.4-.94s-6.95-1.07-9.33-1.49l-2.81-.51a6.24,6.24,0,0,1-1-.23,4.83,4.83,0,0,1,1.05.08c.67.07,1.64.21,2.84.38,2.39.34,5.69.86,9.34,1.37s7,.85,9.36,1.05l2.85.22A5.15,5.15,0,0,1,251.49,214.64Z"/><path class="cls-6" d="M207.93,203.52a10.34,10.34,0,0,0-.44-3c-.26-.9-.67-1.95-1-3.18a6.18,6.18,0,0,1-.22-2,8.2,8.2,0,0,1,.44-2.1,33.94,33.94,0,0,1,3.55-6.52l1.21-1.88a3.57,3.57,0,0,1,.47-.68,3,3,0,0,1-.33.76c-.24.47-.62,1.14-1.11,2a40.09,40.09,0,0,0-3.4,6.49,7.63,7.63,0,0,0-.43,2,5.87,5.87,0,0,0,.18,1.88c.28,1.2.67,2.26.9,3.19a8.11,8.11,0,0,1,.29,2.24,3.68,3.68,0,0,1-.07.62C208,203.45,207.94,203.53,207.93,203.52Z"/><path class="cls-6" d="M221.68,171.58a8.4,8.4,0,0,1-.05-2.56,8.21,8.21,0,0,1,.35-2.54A7.88,7.88,0,0,1,222,169,8,8,0,0,1,221.68,171.58Z"/><path class="cls-6" d="M227.18,171.09a15.95,15.95,0,0,1-.8-5,8,8,0,0,1,.6,2.46A8.19,8.19,0,0,1,227.18,171.09Z"/><path class="cls-6" d="M231.93,170.18a5.77,5.77,0,0,1-.8-2,5.67,5.67,0,0,1-.41-2.12,5.77,5.77,0,0,1,.8,2A5.67,5.67,0,0,1,231.93,170.18Z"/><g class="cls-12"><path d="M235.87,183.35c.09,5.38,1,9.84,1.13,15.22a3.39,3.39,0,0,0,.26,1.52c.6,1.17,2,.82,3.28.74a12.73,12.73,0,0,0,2-.42,1.78,1.78,0,0,0-.17-1.19c-2.17-5.59-4.33-10.28-6.5-15.87"/></g><polygon class="cls-11" points="135.72 162.32 135 164.66 146.38 164.66 145.77 163.07 135.72 162.32"/><polygon class="cls-6" points="146.74 169.76 146.55 169.6 134.82 169.6 134.64 169.76 146.74 169.76"/><path class="cls-6" d="M144.77,182.76,147.18,165h-13l2.41,17.76S141.56,183.48,144.77,182.76Z"/><path class="cls-11" d="M147.33,165.27H134.05v-.21a1.06,1.06,0,0,1,1.06-1.06h11.16a1.06,1.06,0,0,1,1.06,1.06Z"/><polygon class="cls-2" points="145.81 176.69 135.57 176.69 134.64 169.76 146.74 169.76 145.81 176.69"/><path class="cls-6" d="M142.12,174.34c.67-1.18,1-2.62-.3-3.46,0,0-1.26-.82-2.64.71-1.08,1.18-1.59,2.57-.72,3.63C139.52,176.5,141.46,175.52,142.12,174.34Zm-2.06-.19a2.87,2.87,0,0,0-1.11,1.31c-.12-.84.23-1.31,1.48-2.27a3.19,3.19,0,0,0,1.3-2.15C142.39,172.63,141,173.54,140.06,174.15Z"/><polygon class="cls-6" points="135.57 162.81 137.78 163.13 137.78 163.59 135.33 163.59 135.57 162.81"/><path class="cls-8" d="M139.51,174.51s-19,19.15-20.73,19.69c0,0-5.78-11.26-6.3-11.67l-11.1,6.24,6.51,14a10.38,10.38,0,0,0,17.62,3l18.71-22.06,3.77-4.19a9.83,9.83,0,0,0,1.5-3.81,6.93,6.93,0,0,0-.16-2.55,2.53,2.53,0,0,0-.11-2,1.44,1.44,0,0,0-1-.67c.82-2-1.42-3.06-2.55-1.37"/><path class="cls-8" d="M138.81,175.21a4.43,4.43,0,0,0-1.72-2.34,4.89,4.89,0,0,0-2.64-1s.22-1.37,2.48-1.07,2.87,1.76,5.66,1.07l.61,2.61Z"/><path class="cls-15" d="M148.38,170.17c.1.05-.23.86-1,1.62s-1.55,1.1-1.59,1,.61-.58,1.3-1.29S148.27,170.11,148.38,170.17Z"/><path class="cls-15" d="M149.25,173.12c.1,0-.07.62-.53,1.17s-1,.83-1.07.74.33-.48.75-1S149.14,173.07,149.25,173.12Z"/><path class="cls-15" d="M117.19,201.87a12.66,12.66,0,0,1,.24-4.14,12.93,12.93,0,0,1,1.17-4c.12,0-.38,1.82-.77,4.05S117.31,201.87,117.19,201.87Z"/><polygon class="cls-11" points="48.73 163.66 48.02 166 59.39 166 58.78 164.41 48.73 163.66"/><polygon class="cls-6" points="59.75 171.1 59.56 170.94 47.83 170.94 47.65 171.1 59.75 171.1"/><path class="cls-6" d="M57.78,184.1l2.41-17.76h-13l2.4,17.76S54.57,184.82,57.78,184.1Z"/><path class="cls-11" d="M60.34,166.61H47.06v-.21a1.06,1.06,0,0,1,1.07-1.06H59.28a1.06,1.06,0,0,1,1.06,1.06Z"/><polygon class="cls-2" points="58.82 178.03 48.58 178.03 47.65 171.1 59.75 171.1 58.82 178.03"/><path class="cls-6" d="M55.13,175.68c.67-1.18,1-2.62-.29-3.46,0,0-1.27-.82-2.65.71-1.08,1.18-1.59,2.57-.71,3.63C52.53,177.84,54.47,176.86,55.13,175.68Zm-2.06-.19A2.82,2.82,0,0,0,52,176.8c-.12-.84.24-1.31,1.48-2.27a3.2,3.2,0,0,0,1.3-2.16C55.4,174,54,174.88,53.07,175.49Z"/><polygon class="cls-6" points="48.58 164.15 50.8 164.47 50.8 164.93 48.34 164.93 48.58 164.15"/><path class="cls-8" d="M48.73,210.61s-2.26-2.67-1.67-21.69l-.14-10.18,8.87-2.67,6.12,34.38Z"/><path class="cls-8" d="M55.48,176.69A5.87,5.87,0,0,1,57.42,174a4.84,4.84,0,0,1,2.64-1s-.23-1.37-2.49-1.07-2.87,1.77-5.66,1.07l-3.23,5.78Z"/><path class="cls-8" d="M52.53,173.45c-.14-.36-4.75-4-4.75-4s-2.38.09-1.48,2.24a1.94,1.94,0,0,0-.9,2.87s-1,.74-.3,2.83a19.3,19.3,0,0,0,2,3.95Z"/><path class="cls-8" d="M53.79,193.77l-5.16,12.32a7,7,0,0,0,4.52,8.77h0a7,7,0,0,0,8.76-4.41L66,198.31Z"/><path class="cls-15" d="M49.09,205.09a7,7,0,0,1,.42-1.71c.32-1,.81-2.45,1.43-4s1.26-2.89,1.75-3.86a7.07,7.07,0,0,1,.88-1.52,8.14,8.14,0,0,1-.62,1.64c-.42,1-1,2.37-1.63,3.9s-1.15,2.91-1.54,3.92A7.83,7.83,0,0,1,49.09,205.09Z"/><path class="cls-15" d="M52.73,195.91c0,.12-.88.24-1.76.85s-1.33,1.38-1.44,1.32a2.44,2.44,0,0,1,1.21-1.66A2.37,2.37,0,0,1,52.73,195.91Z"/><path class="cls-6" d="M74.62,130.09c.51,1.48-1.24,2.74-2.77,3.09s-3.37.57-4.07,2c-.61,1.21,0,2.76-.55,4-1,2.36-5.29,1.87-6.12,4.31-.57,1.68,1,3.42.81,5.18-.17,1.52-1.56,2.55-2.78,3.47s-2.51,2.19-2.31,3.7c.22,1.75,2.36,3,2.16,4.72s-2.52,2.53-2.86,4.23c-.39,2,2.14,3.33,2.95,5.22.62,1.45.24,3.31,1.29,4.48s3,1,4.56.63l15.74-3.33c-1.07-2.49-.07-5.4,1.45-7.64s3.54-4.13,4.84-6.5,1.73-5.54,0-7.64"/><path class="cls-6" d="M102.29,142.67a16.66,16.66,0,0,0-.51-2.49,2.53,2.53,0,0,0-.63-1c-.31-.29-.72-.1-1,.32a7.72,7.72,0,0,0,0,6.38c.26.42.67.61,1,.31a2.47,2.47,0,0,0,.63-1,16.43,16.43,0,0,0,.51-2.48,2,2,0,0,1,0,.69,6.77,6.77,0,0,1-.29,1.89,2.77,2.77,0,0,1-.69,1.19.84.84,0,0,1-.83.19,1.38,1.38,0,0,1-.67-.56,7.71,7.71,0,0,1,0-6.8,1.38,1.38,0,0,1,.67-.56.82.82,0,0,1,.83.19,2.77,2.77,0,0,1,.69,1.19,6.76,6.76,0,0,1,.29,1.88A2.06,2.06,0,0,1,102.29,142.67Z"/><path class="cls-6" d="M76.62,157.16c-2.85-4.81-3.66-11.22-4.38-16.76-.34-2.61-.93-6.32.9-8s2.15-4.45,4.41-5.8a6.94,6.94,0,0,1,7.45.09"/><path class="cls-8" d="M84.51,174.2h0a7.73,7.73,0,0,0,8.32-7.38c.18-4.2.33-8.45.33-8.45s6.37-.58,6.85-6.87.31-20.85.31-20.85h0A22,22,0,0,0,78.13,132l.32,22.18,0,11.93C78.45,170.12,80.52,173.88,84.51,174.2Z"/><path class="cls-6" d="M93.75,143.79a3.23,3.23,0,0,0-4.3-1,3.67,3.67,0,0,0-1.24,4.58,4.8,4.8,0,0,0,3.09,2.34,2.42,2.42,0,0,1,1.88,2.62c-.18,1.58-2.81,2.16-4,3.47-1.86,2-5.91,2.88-8.64,3.19s-2.36.34-3.92-1.87A8.5,8.5,0,0,1,75.1,152l-.24-13.94a19.93,19.93,0,0,1,.33-5A6.69,6.69,0,0,1,77.84,129c1.53-1,3.47-1.09,5.22-1.65,2.19-.7,4-2.14,6.09-3.18s4.55-1.65,6.59-.62c1.47.74,2.45,2.21,3.88,3,2,1.17,4.81.91,5.79,3.91a5.08,5.08,0,0,1,0,3.2c-1.4,4.08-6.45,5.71-10.08,3.93-.07.69.6,2.23-.13,4.41-.24.7-.32,1.76-1.41,1.78"/><path class="cls-15" d="M92.61,147.72s0,.11-.09.27a.94.94,0,0,1-.7.35,1.74,1.74,0,0,1-1.63-1.75,1.82,1.82,0,0,1,1.46-1.89c.65-.14,1,.1,1,.14s-.39,0-.91.16a1.58,1.58,0,0,0-1.09,1.57A1.48,1.48,0,0,0,91.82,148C92.35,148.05,92.56,147.68,92.61,147.72Z"/><path class="cls-6" d="M102.31,142.37a23.9,23.9,0,0,1-4.24.9,24.07,24.07,0,0,1-4.31.5,22.16,22.16,0,0,1,4.24-.91A22.47,22.47,0,0,1,102.31,142.37Z"/><path class="cls-6" d="M77.13,163.31a1.82,1.82,0,0,0,2.19.87,5.09,5.09,0,0,0,2.11-1.43,5.61,5.61,0,0,1,2.1-1.47c1.68-.51,3.74.61,5.15-.43s1.12-3.1,2.39-4.08c.67-.52,1.6-.59,2.28-1.09,1.28-.94,1.07-3.05,0-4.22a8.61,8.61,0,0,0-4.22-2.07l-13.54,5.77Z"/><path class="cls-11" d="M93.21,138.84s0,0-.11.08a2.59,2.59,0,0,1-.36.2,7,7,0,0,1-1.48.54,18,18,0,0,1-2.46.39,25.24,25.24,0,0,0-3.23.44,6.18,6.18,0,0,0-3.35,1.83c-.91,1.06-1.25,2.59-2,4.06a5.23,5.23,0,0,1-1.57,2,8.39,8.39,0,0,1-2.36,1.17c-1.66.55-3.5.89-4.88,2.06a3.46,3.46,0,0,0-1.25,2.22,15.4,15.4,0,0,0,0,2.63,4.83,4.83,0,0,1-.51,2.59,4.72,4.72,0,0,1-1.82,1.76c-1.42.84-2.9,1.28-4.09,2a4.84,4.84,0,0,0-1.46,1.34,3.56,3.56,0,0,0-.55,1.72,12.51,12.51,0,0,0,.44,3.21,8.46,8.46,0,0,1,.23,2.48A3.71,3.71,0,0,1,62,173.1a1.63,1.63,0,0,1-.35.43,3.67,3.67,0,0,0,.64-2,8.69,8.69,0,0,0-.29-2.42,12.33,12.33,0,0,1-.51-3.27,3.79,3.79,0,0,1,.58-1.88,5.12,5.12,0,0,1,1.54-1.46c1.23-.8,2.72-1.26,4.07-2.07a4.38,4.38,0,0,0,1.68-1.63,4.44,4.44,0,0,0,.45-2.39,14.32,14.32,0,0,1,0-2.7,3.93,3.93,0,0,1,1.38-2.47c1.5-1.26,3.4-1.59,5-2.14a7.71,7.71,0,0,0,2.25-1.09,4.77,4.77,0,0,0,1.47-1.84c.7-1.4,1-3,2-4.11a6.29,6.29,0,0,1,3.53-1.89,24.31,24.31,0,0,1,3.28-.39,17,17,0,0,0,2.44-.32A10.4,10.4,0,0,0,93.21,138.84Z"/><path class="cls-11" d="M89.56,141.1s-.48,0-1.31.19a5.94,5.94,0,0,0-3,1.81A5.56,5.56,0,0,0,84,145.22a9.48,9.48,0,0,0-.25,2.83,7.28,7.28,0,0,1-.47,3.23,3.28,3.28,0,0,1-1.18,1.33,13.73,13.73,0,0,1-1.56.83,3.93,3.93,0,0,0-1.34,1,2.37,2.37,0,0,0-.53,1.45c-.08,1.05.15,2.22-.37,3.23a5.27,5.27,0,0,1-2.1,2.09c-.8.47-1.57.82-2.22,1.21a5.43,5.43,0,0,0-1.56,1.29,3.64,3.64,0,0,0-.68,1.37,3.17,3.17,0,0,0,0,1.3s-.08-.1-.14-.32a2.42,2.42,0,0,1,0-1,3.62,3.62,0,0,1,.64-1.47,5.54,5.54,0,0,1,1.6-1.4c.66-.43,1.43-.79,2.19-1.26a5,5,0,0,0,1.94-2c.45-.87.24-1.95.31-3.09a2.82,2.82,0,0,1,.61-1.68,4.39,4.39,0,0,1,1.48-1.06c1.06-.52,2.13-1,2.56-2a7.23,7.23,0,0,0,.46-3,9.36,9.36,0,0,1,.3-2.93A5.61,5.61,0,0,1,85,142.9a6,6,0,0,1,3.21-1.77,3.9,3.9,0,0,1,1-.07C89.45,141.07,89.56,141.08,89.56,141.1Z"/><path class="cls-2" d="M67.9,220l4.39-12.74-3.05-15.46-2.39,6.82-14.74-5.42s9.54-19.09,10-20.09c4.37-9.17,16-9.17,16-9.17l14.8.39a16.15,16.15,0,0,1,12.72,4.93c4.24,4.27,13.9,22.95,13.9,22.95L104,197.05l-3.09-5.76.9,12.16L104.85,222Z"/><path class="cls-9" d="M105.1,168.72c0,.11-9,.21-20.08.21s-20.08-.1-20.08-.21,9-.2,20.08-.2S105.1,168.61,105.1,168.72Z"/><path class="cls-6" d="M98.81,168.28c0,.05-.41.06-1.09.34a5,5,0,0,0-2.25,2,6.7,6.7,0,0,0-.92,4.37,16.69,16.69,0,0,0,1.75,5.34c1.72,3.68,3.23,7,4.32,9.46.5,1.16.93,2.13,1.26,2.89a5.89,5.89,0,0,1,.41,1.08,5,5,0,0,1-.57-1c-.37-.74-.83-1.69-1.39-2.82-1.16-2.4-2.72-5.72-4.44-9.4a16.85,16.85,0,0,1-1.76-5.5,7,7,0,0,1,1.07-4.58,5,5,0,0,1,2.46-2,3,3,0,0,1,.85-.19C98.71,168.26,98.81,168.26,98.81,168.28Z"/><path class="cls-6" d="M72.43,207.94c-.12,0-1.89-8-4-17.91S64.83,172,65,172s1.89,8,4,17.91S72.55,207.92,72.43,207.94Z"/><path class="cls-6" d="M94.68,195.91a4,4,0,0,1,0,1.07A10.25,10.25,0,0,1,94,199.8a13.72,13.72,0,0,1-6.47,6.91,19.17,19.17,0,0,1-9.34,1.87,21.67,21.67,0,0,1-2.88-.3,4.7,4.7,0,0,1-1-.24c0-.08,1.51.19,3.93.22a20,20,0,0,0,9.13-2,14,14,0,0,0,6.38-6.62A16.45,16.45,0,0,0,94.68,195.91Z"/><path class="cls-9" d="M110.12,175.36c0,.12-11,.21-24.55.21S61,175.48,61,175.36s11-.2,24.55-.2S110.12,175.25,110.12,175.36Z"/><path class="cls-9" d="M113.75,181.54c0,.12-12.44.21-27.78.21s-27.78-.09-27.78-.21,12.43-.2,27.78-.2S113.75,181.43,113.75,181.54Z"/><path class="cls-9" d="M116.2,187.2c0,.12-13.66.21-30.51.21s-30.51-.09-30.51-.21,13.66-.2,30.51-.2S116.2,187.09,116.2,187.2Z"/><path class="cls-9" d="M68.16,194.12a12.39,12.39,0,0,1-2.12-.57c-1.29-.4-3.08-.93-5.08-1.46s-3.81-1-5.13-1.25a13.26,13.26,0,0,1-2.13-.56,11.14,11.14,0,0,1,2.19.27c1.33.23,3.17.62,5.18,1.15s3.79,1.11,5.06,1.57A10.28,10.28,0,0,1,68.16,194.12Z"/><path class="cls-9" d="M101.24,193.11a7.33,7.33,0,0,1-1.26,0l-3.43,0L85.23,193H70.49a9.69,9.69,0,0,1-1.26,0,6.61,6.61,0,0,1,1.25-.11c.81,0,2-.09,3.43-.14,2.9-.08,6.9-.14,11.33-.12s8.42.12,11.32.24c1.44,0,2.62.11,3.42.16A8.78,8.78,0,0,1,101.24,193.11Z"/><path class="cls-9" d="M118.55,190.28s.06,0-.08,0l-.48.09-1.77.31c-1.49.25-3.56.58-5.84.93s-4.36.65-5.86.84a15.42,15.42,0,0,1-2.45.24,14.43,14.43,0,0,1,2.4-.52c1.5-.27,3.56-.61,5.85-1s4.36-.64,5.86-.82c.75-.09,1.37-.15,1.79-.18l.49,0c.06,0,.09,0,.14,0S118.55,190.28,118.55,190.28Z"/><path class="cls-9" d="M94,198.6c0,.11-5.22.2-11.67.2s-11.67-.09-11.67-.2,5.22-.21,11.67-.21S94,198.48,94,198.6Z"/><path class="cls-9" d="M101.52,200.48a18.7,18.7,0,0,1-4,.21,18.84,18.84,0,0,1-4-.21,20.15,20.15,0,0,1,4-.2A20,20,0,0,1,101.52,200.48Z"/><path class="cls-9" d="M88.87,205.45a13.25,13.25,0,0,1-2.46.18c-1.52.06-3.62.08-5.94,0s-4.41-.17-5.93-.29a15.21,15.21,0,0,1-2.45-.3,15.49,15.49,0,0,1,2.47,0l5.92.17,5.93.1A16.27,16.27,0,0,1,88.87,205.45Z"/><path class="cls-9" d="M102.15,207.12a75,75,0,0,1-8,.21,75.32,75.32,0,0,1-8-.21c0-.11,3.59-.2,8-.2S102.15,207,102.15,207.12Z"/><path class="cls-9" d="M103.35,212.92a7.13,7.13,0,0,1-1.28.06H98.56c-3,0-7.06-.11-11.58-.25s-8.61-.32-11.57-.51c-1.48-.09-2.68-.18-3.5-.26a9.05,9.05,0,0,1-1.28-.15,7.56,7.56,0,0,1,1.29,0l3.5.13,11.57.39,11.57.37,3.51.14A7.55,7.55,0,0,1,103.35,212.92Z"/><path class="cls-9" d="M104.44,219.5a8.38,8.38,0,0,1-1.4,0l-3.81-.14c-3.22-.15-7.66-.37-12.57-.65s-9.35-.54-12.57-.76l-3.81-.27a9.42,9.42,0,0,1-1.39-.16,8.22,8.22,0,0,1,1.39,0l3.81.14c3.22.15,7.67.37,12.58.65s9.36.54,12.57.76l3.81.27A9.16,9.16,0,0,1,104.44,219.5Z"/><g class="cls-16"><path d="M73.53,207c2.78,2.08,6.87,1.39,10.29.82a14.85,14.85,0,0,0,9-4.86,6.05,6.05,0,0,0,1.67-4.24,3,3,0,0,0-3.06-2.86c-1.77.21-2.63,2.2-3.48,3.77a13.75,13.75,0,0,1-14.33,6.73S73,206.58,73.53,207Z"/></g><g class="cls-16"><path d="M94.68,176.8c.86,7,2,12.72,3.45,19.6.72,3.39,1.59,6.92,3.92,9.47l-1.34-15.48Z"/></g><path class="cls-6" d="M74.85,162.22a5,5,0,0,0-2.34,7.49,2.44,2.44,0,0,1,.64,1.39c-.06,1.25-2.07,1.28-2.7,2.35A1.93,1.93,0,0,0,71,175.7a15.69,15.69,0,0,0,2.08,1.39,2.54,2.54,0,0,1,1.27,2c.7,0,1.12-.87,1-1.56a6.59,6.59,0,0,0-.87-1.91,2,2,0,0,1-.08-2c.46-.65,1.39-.68,2.14-1a3,3,0,0,0,1.58-3.84c-.45-1-1.5-2-1-3,.28-.54.94-.75,1.48-1.05a3.86,3.86,0,0,0,.5-6.42"/><polygon class="cls-8" points="60.56 281.8 56.18 363.06 69.58 366.29 79.62 283.51 60.56 281.8"/><polygon class="cls-9" points="55.78 362.74 53.5 372.78 68.92 372.78 69.58 366.25 55.78 362.74"/><path class="cls-6" d="M69.23,371.32a10.29,10.29,0,0,1-2.25.13c-1.38,0-3.3,0-5.41-.1l-5.41-.23a12.93,12.93,0,0,1-2.24-.18,10.64,10.64,0,0,1,2.24-.12c1.39,0,3.31,0,5.42.1l5.41.23A12.74,12.74,0,0,1,69.23,371.32Z"/><path class="cls-6" d="M62.7,364.7a12.54,12.54,0,0,1,0,3.25,12.32,12.32,0,0,1-.43,3.22,12.54,12.54,0,0,1,0-3.25A12.32,12.32,0,0,1,62.7,364.7Z"/><g class="cls-10"><polyline class="cls-3" points="53.5 372.78 68.92 372.78 69.06 371.32 53.77 370.94 53.5 372.61"/></g><polygon class="cls-8" points="109.05 344.05 112.3 368.56 124.16 367.73 121.66 345.26 109.05 344.05"/><path class="cls-9" d="M124.28,365.07h0s13.32,4.51,13.54,6.94l-25.48.74-.22-6.66.94.18A18.86,18.86,0,0,0,124.28,365.07Z"/><g class="cls-10"><path class="cls-3" d="M115.1,367.25a1,1,0,0,0-.69,1.21,1,1,0,0,0,1.2.69,1.09,1.09,0,0,0,.71-1.29,1,1,0,0,0-1.32-.58"/></g><g class="cls-10"><path class="cls-3" d="M112.34,372.75v-2.07l24.43.06s1.15.46,1,1.27Z"/></g><path class="cls-6" d="M124.69,364.93c0,.13-.62.2-1.22.62s-.91.95-1,.9,0-.77.78-1.26S124.71,364.82,124.69,364.93Z"/><path class="cls-6" d="M127.39,366c0,.12-.5.35-.9.89s-.52,1.09-.64,1.09-.23-.7.29-1.36S127.39,365.84,127.39,366Z"/><path class="cls-6" d="M129,369.11c-.11,0-.3-.58,0-1.27s.87-1,.93-.88-.29.48-.53,1.05S129.13,369.1,129,369.11Z"/><path class="cls-6" d="M124.41,364.87a2.46,2.46,0,0,1-1.28,0,5.94,5.94,0,0,1-1.34-.37,5.21,5.21,0,0,1-.75-.37,1.35,1.35,0,0,1-.39-.29.55.55,0,0,1-.08-.66.7.7,0,0,1,.54-.3,1.73,1.73,0,0,1,.48,0,4.52,4.52,0,0,1,2,1c.61.53.82,1,.78,1s-.35-.34-1-.78a5,5,0,0,0-1.16-.61,5.19,5.19,0,0,0-.73-.2c-.28-.06-.51-.06-.57.06s0,.07,0,.15a1.56,1.56,0,0,0,.29.21,5.7,5.7,0,0,0,.69.36,6.93,6.93,0,0,0,1.24.44A7.94,7.94,0,0,1,124.41,364.87Z"/><path class="cls-6" d="M124.25,365.05a2.09,2.09,0,0,1-.37-1.22,4.43,4.43,0,0,1,.13-1.4,3.69,3.69,0,0,1,.31-.79,1,1,0,0,1,.79-.66.58.58,0,0,1,.54.34,1.54,1.54,0,0,1,.15.46,2.79,2.79,0,0,1,0,.86,3,3,0,0,1-.51,1.33c-.48.68-1,.84-1,.8s.39-.31.75-1a3,3,0,0,0,.37-1.21,2.33,2.33,0,0,0-.05-.74c0-.27-.15-.48-.25-.45s-.34.21-.44.43a4.15,4.15,0,0,0-.29.7,4.21,4.21,0,0,0-.21,1.28C124.17,364.57,124.32,365,124.25,365.05Z"/><path class="cls-9" d="M67.9,220s-9.4,15.71-9.4,25.11L56.18,359.57,72.44,362,83.78,250.09S109.83,363.4,110.71,363.4s14.4-2.42,14.4-2.42L104.61,220.5Z"/><path class="cls-6" d="M94.14,252.62c0,.12-5-1-11.06-2.47s-11-2.78-11-2.9,5,1,11.06,2.46S94.17,252.5,94.14,252.62Z"/><path class="cls-6" d="M73.93,248.17a1.26,1.26,0,0,1,0,.29l-.13.84c-.12.77-.29,1.85-.51,3.23-.46,2.8-1.1,6.86-1.85,11.87-1.52,10-3.4,23.93-5,39.32s-2.54,29.39-3.09,39.52c-.28,5.07-.48,9.17-.59,12l-.16,3.27-.05.85a1.11,1.11,0,0,1,0,.29,1.29,1.29,0,0,1,0-.29v-.85l.08-3.27c.06-2.84.22-6.94.46-12,.47-10.14,1.4-24.14,3-39.55s3.51-29.3,5.1-39.32c.79-5,1.48-9.06,2-11.86.26-1.37.45-2.45.59-3.21l.16-.83C73.9,248.27,73.93,248.17,73.93,248.17Z"/><path class="cls-6" d="M97.46,250.07c.11,0,4.64,25.1,10.12,56.1s9.83,56.16,9.72,56.18-4.64-25.1-10.12-56.11S97.34,250.09,97.46,250.07Z"/><path class="cls-11" d="M57.06,155.42a3.28,3.28,0,0,1,.58.69,8.81,8.81,0,0,1,1.18,2.15,4.16,4.16,0,0,1,.28,1.7,3.67,3.67,0,0,1-.65,1.89c-.39.58-.88,1.11-1.32,1.68a3.49,3.49,0,0,0-.83,1.95,4,4,0,0,0,.6,2.06,17,17,0,0,0,1.19,1.73,8.71,8.71,0,0,1,1,1.69,4.67,4.67,0,0,1,.32,1.7,5.9,5.9,0,0,0,.12,1.34,2,2,0,0,0,.48.86,1.53,1.53,0,0,0,.75.39.92.92,0,0,1-.86-.27,2.15,2.15,0,0,1-.59-.91,5.92,5.92,0,0,1-.19-1.4,4.14,4.14,0,0,0-.35-1.57,7.83,7.83,0,0,0-1-1.6,18.08,18.08,0,0,1-1.24-1.76,4.34,4.34,0,0,1-.66-2.27,3.79,3.79,0,0,1,.92-2.18c.46-.6,1-1.11,1.32-1.65a3.52,3.52,0,0,0,.42-3.29,10.23,10.23,0,0,0-1-2.15A5.34,5.34,0,0,1,57.06,155.42Z"/><rect class="cls-6" x="504.75" y="334.44" width="45.48" height="6.25"/><path class="cls-6" d="M550.31,340.77H504.67v-6.4h45.64Zm-45.48-.15h45.32v-6.1H504.83Z"/><polygon class="cls-6" points="508.97 338.61 515.51 370.91 539.74 370.91 546.07 340.69 508.97 338.61"/><polygon class="cls-6" points="508.97 367.86 512.46 372.66 541.9 372.66 546.07 367.86 508.97 367.86"/><path class="cls-6" d="M525.78,339.56c-.09,0-.2-15-.25-33.42s0-33.42.06-33.42.21,15,.26,33.42S525.87,339.56,525.78,339.56Z"/><path class="cls-6" d="M535.91,302.11a1.35,1.35,0,0,1-.12.35l-.4,1-.3.7c-.09.26-.2.54-.3.85l-.35,1c-.13.35-.22.72-.34,1.11a44.47,44.47,0,0,0-1.27,5.57,69.54,69.54,0,0,0-.71,7,94,94,0,0,0,.36,12.72c.15,1.63.3,2.94.4,3.85,0,.42.09.77.12,1a2.06,2.06,0,0,1,0,.37,1.8,1.8,0,0,1-.09-.36c0-.27-.1-.61-.17-1-.15-.9-.33-2.21-.51-3.83a85.36,85.36,0,0,1-.45-12.76,64.42,64.42,0,0,1,.73-7,42.22,42.22,0,0,1,1.35-5.59c.13-.39.23-.76.36-1.11l.38-1,.33-.84c.11-.26.22-.48.32-.69l.46-.95A2.21,2.21,0,0,1,535.91,302.11Z"/><path class="cls-6" d="M534.75,290a2.9,2.9,0,0,1-.14.49l-.48,1.4c-.1.3-.22.63-.34,1s-.24.77-.37,1.21c-.27.86-.57,1.85-.85,2.95-.14.55-.3,1.13-.46,1.73s-.27,1.24-.42,1.89c-.32,1.31-.55,2.72-.84,4.2-.5,3-.94,6.26-1.25,9.72s-.41,6.78-.46,9.8,0,5.73.16,8c0,1.14.11,2.17.17,3.07s.11,1.69.17,2.32.08,1.1.11,1.47a2,2,0,0,1,0,.51,5.08,5.08,0,0,1-.08-.51c0-.36-.1-.85-.17-1.46s-.15-1.41-.22-2.31-.17-1.94-.22-3.08c-.15-2.28-.22-5-.22-8s.14-6.35.43-9.82.76-6.77,1.27-9.75c.31-1.48.55-2.9.88-4.2.15-.66.3-1.29.44-1.9s.33-1.18.48-1.73c.29-1.1.61-2.09.9-2.95l.39-1.2c.14-.36.26-.69.37-1l.54-1.37A3.32,3.32,0,0,1,534.75,290Z"/><path class="cls-6" d="M522.91,342.2s0-.06,0-.17,0-.3,0-.52c0-.47-.08-1.14-.14-2-.11-1.74-.26-4.23-.45-7.29-.4-6.15-1-14.65-2-24-.53-4.67-1.15-9.11-1.78-13.13-.34-2-.65-3.92-1-5.7s-.66-3.44-1-5-.63-2.86-.9-4.06-.52-2.21-.73-3-.36-1.46-.48-1.93c0-.2-.08-.37-.11-.5l0-.18s0,.06.06.17l.15.5c.13.46.3,1.1.53,1.91s.5,1.85.78,3,.64,2.55,1,4.06.69,3.15,1,4.94.68,3.69,1,5.7c.66,4,1.28,8.47,1.81,13.15,1,9.36,1.57,17.86,1.91,24,.16,3.08.28,5.57.35,7.3,0,.84,0,1.5.07,2,0,.21,0,.38,0,.52Z"/><path class="cls-9" d="M525.41,279.91a4.51,4.51,0,0,0-4.47-3.74,7,7,0,0,0-5.41,2.94,17.06,17.06,0,0,0-2.61,5.79,39.24,39.24,0,0,0-1.6,15.4,23.27,23.27,0,0,0,6.4,13.88,2.62,2.62,0,0,0,2.21,1,2.67,2.67,0,0,0,1.17-.72,34.46,34.46,0,0,0,11.18-26.2,10.61,10.61,0,0,0-1.4-5.64c-1.09-1.64-3.62-3.37-5.47-2.72"/><path class="cls-9" d="M509.52,262.94l-3,5.43c-.07.12-.17.26-.31.28s-.28-.14-.36-.27l-7.93-12.17,1.83-1Z"/><g class="cls-16"><path d="M509.52,262.94l-3,5.43c-.07.12-.17.26-.31.28s-.28-.14-.36-.27l-7.93-12.17,1.83-1Z"/></g><path class="cls-9" d="M525.59,272.72l-27-16a1.23,1.23,0,0,1-.65-.66c-.11-.4.19-.79.48-1.08a18.64,18.64,0,0,1,14.45-5.68,16.5,16.5,0,0,1,13.06,8.12c2.61,4.67,2.7,10.83-.3,15.26"/><path class="cls-6" d="M502.45,251.67a1.26,1.26,0,0,1,.36,0,8.32,8.32,0,0,1,1,0,19.74,19.74,0,0,1,3.75.3,21.64,21.64,0,0,1,5.34,1.62,22,22,0,0,1,12.16,14.21,20.34,20.34,0,0,1,.67,3.71c0,.44,0,.78,0,1a1.55,1.55,0,0,1,0,.35,11.67,11.67,0,0,1-.17-1.36,23.63,23.63,0,0,0-.77-3.65,22.09,22.09,0,0,0-17.32-15.68,23.18,23.18,0,0,0-3.71-.4C502.94,251.68,502.45,251.7,502.45,251.67Z"/><path class="cls-6" d="M521.93,261.71a6.37,6.37,0,0,1-1.36.62c-.86.34-2.07.77-3.41,1.2s-2.59.77-3.49,1a6.53,6.53,0,0,1-1.47.28,6.57,6.57,0,0,1,1.41-.5l3.45-1.08,3.43-1.11A6.88,6.88,0,0,1,521.93,261.71Z"/><path class="cls-6" d="M517.68,250.27a11.75,11.75,0,0,1,.32,3,11.33,11.33,0,0,1-.17,3,19.74,19.74,0,0,1-.16-3A18.71,18.71,0,0,1,517.68,250.27Z"/><path class="cls-6" d="M498.32,256.46a12,12,0,0,1,2-.69c1.23-.38,2.94-.86,4.85-1.32s3.65-.81,4.91-1a12.93,12.93,0,0,1,2.07-.28,16.3,16.3,0,0,1-2,.5c-1.25.28-3,.67-4.89,1.13s-3.61.9-4.86,1.22A13.81,13.81,0,0,1,498.32,256.46Z"/><path class="cls-9" d="M513.13,274.9c-2.33-1.77-4.79-2.11-7.71-2a23.62,23.62,0,0,0-8.42,2.18c-4.56,2-8.85,4.94-11.57,9.1s-3.68,9.68-1.64,14.23a2.07,2.07,0,0,0,.93,1.12,2.23,2.23,0,0,0,1.52-.12c5.19-1.69,10.41-3.4,15.18-6.05s9.11-6.33,11.67-11.15a9.64,9.64,0,0,0,1.23-3.7,4.59,4.59,0,0,0-1.19-3.61"/><path class="cls-6" d="M513.17,274.35a1.68,1.68,0,0,1-.37.15l-1.09.37-.78.27c-.29.1-.59.23-.92.36-.66.26-1.42.53-2.22.92l-1.28.57c-.44.21-.88.46-1.34.7-.94.46-1.89,1.05-2.91,1.65a50.68,50.68,0,0,0-6.14,4.55,50.11,50.11,0,0,0-5.3,5.51c-.72.93-1.43,1.8-2,2.67-.3.43-.6.84-.86,1.25l-.74,1.19c-.49.74-.85,1.46-1.19,2.08-.17.31-.34.6-.47.87s-.26.52-.37.74c-.2.43-.37.77-.5,1a2.14,2.14,0,0,1-.2.36,1.8,1.8,0,0,1,.14-.38l.45-1.06.34-.76c.13-.28.29-.57.45-.88.33-.63.68-1.36,1.16-2.12l.72-1.21c.25-.41.55-.82.85-1.26.57-.89,1.27-1.77,2-2.71a44.75,44.75,0,0,1,11.52-10.13c1-.59,2-1.18,2.93-1.63.48-.24.92-.48,1.37-.68l1.28-.56c.82-.38,1.59-.63,2.25-.88l.94-.34.79-.24,1.11-.31A1.87,1.87,0,0,1,513.17,274.35Z"/><path class="cls-6" d="M495,284.19a56.5,56.5,0,0,1-5.65,1.82,53.71,53.71,0,0,1-5.75,1.51,55.45,55.45,0,0,1,5.65-1.82A53.71,53.71,0,0,1,495,284.19Z"/><path class="cls-6" d="M494.77,296.67a9.72,9.72,0,0,1-.12-1.76c0-1.09,0-2.6,0-4.26s.13-3.17.22-4.25a8.19,8.19,0,0,1,.23-1.76,11.81,11.81,0,0,1,0,1.77c0,1.19-.08,2.64-.13,4.25s-.08,3-.1,4.25A9.29,9.29,0,0,1,494.77,296.67Z"/><path class="cls-6" d="M505.46,291.22c-.08,0-.37-3.05-.63-6.83s-.4-6.86-.31-6.86.37,3.05.63,6.83S505.55,291.22,505.46,291.22Z"/><path class="cls-6" d="M492.15,277.23a10.81,10.81,0,0,1,1.82-.05c1.11,0,2.66,0,4.36.09s3.25.13,4.36.19a9.58,9.58,0,0,1,1.81.18,10.63,10.63,0,0,1-1.81.05c-1.12,0-2.66,0-4.37-.09s-3.25-.13-4.36-.2A9.19,9.19,0,0,1,492.15,277.23Z"/><path class="cls-6" d="M518.88,315.64a1.82,1.82,0,0,1,0-.37c0-.28,0-.63-.05-1.06,0-.92,0-2.26,0-3.91s.14-3.62.34-5.8.51-4.55,1-7,1-4.82,1.54-6.94,1.14-4,1.68-5.55,1-2.81,1.37-3.67l.41-1a2.29,2.29,0,0,1,.16-.33s0,.13-.1.36-.21.59-.35,1c-.32.86-.76,2.12-1.27,3.69s-1.06,3.45-1.61,5.56-1.07,4.44-1.51,6.92-.75,4.85-1,7-.34,4.13-.4,5.77-.09,3-.09,3.91c0,.43,0,.78,0,1.06S518.9,315.64,518.88,315.64Z"/><path class="cls-6" d="M520.31,297.19a7.27,7.27,0,0,1-1.08,1.18c-.7.7-1.69,1.64-2.82,2.63s-2.2,1.86-3,2.46a8.56,8.56,0,0,1-1.31.92,7.74,7.74,0,0,1,1.16-1.1l2.91-2.52,2.89-2.55A8,8,0,0,1,520.31,297.19Z"/><path class="cls-6" d="M528.87,304.09a13.55,13.55,0,0,1-1.15-1.6c-.74-1.07-1.66-2.41-2.67-3.9s-2-2.79-2.73-3.86a11.64,11.64,0,0,1-1.09-1.63,12.1,12.1,0,0,1,1.27,1.5c.75.95,1.76,2.29,2.82,3.81s2,2.93,2.59,4A9.63,9.63,0,0,1,528.87,304.09Z"/><path class="cls-6" d="M524.39,282.4c0,.08-2.8,2-6.35,4.28s-6.48,4.07-6.53,4,2.8-2,6.35-4.28S524.34,282.33,524.39,282.4Z"/><path class="cls-6" d="M532.4,291.05a52.87,52.87,0,0,1-4.3-4,55.29,55.29,0,0,1-4.07-4.2,51,51,0,0,1,4.3,4A53,53,0,0,1,532.4,291.05Z"/><path class="cls-9" d="M534.42,290.88l2.44-.2a12.11,12.11,0,0,0,4.93-1.51,19.74,19.74,0,0,1,2.3-1.15c3-1.21,6.38-1,9.63-1.16A40,40,0,0,0,569,282.94a1.47,1.47,0,0,0,.67-.61c.5-.91-.43-1.72-1.23-2.22-4.11-2.53-8.3-5.09-13-6.35s-10-1.05-13.94,1.69c-4.67,3.21-6.37,9.82-7.16,15.43"/><path class="cls-6" d="M569.76,282l-.41-.2-1.16-.6c-1-.53-2.44-1.31-4.27-2.19a40.19,40.19,0,0,0-6.61-2.54,21.76,21.76,0,0,0-8.58-.7,14.62,14.62,0,0,0-7.81,3.36,17.37,17.37,0,0,0-4.07,5.71,46.46,46.46,0,0,0-1.77,4.45l-.44,1.23a2.87,2.87,0,0,1-.17.43,2.65,2.65,0,0,1,.11-.45c.1-.31.22-.73.38-1.25a39.78,39.78,0,0,1,1.68-4.5,17.37,17.37,0,0,1,4.08-5.85,14.85,14.85,0,0,1,8-3.45,21.75,21.75,0,0,1,8.7.73,38.27,38.27,0,0,1,6.63,2.63c1.82.9,3.25,1.71,4.23,2.28l1.13.66A1.66,1.66,0,0,1,569.76,282Z"/><path class="cls-6" d="M563.9,285.18c0,.08-3.24-2-7.13-4.61s-7-4.8-6.95-4.88,3.25,2,7.13,4.61S564,285.11,563.9,285.18Z"/><path class="cls-6" d="M560.84,275.39a7.9,7.9,0,0,1-2.5.5,7.44,7.44,0,0,1-2.54,0,15,15,0,0,1,2.51-.29A15.2,15.2,0,0,1,560.84,275.39Z"/><path class="cls-6" d="M546.52,272.82a8.54,8.54,0,0,1-1,2.1,8.77,8.77,0,0,1-1.33,1.93,8.2,8.2,0,0,1,1.05-2.1A8.94,8.94,0,0,1,546.52,272.82Z"/><path class="cls-6" d="M549.38,287.06a8.09,8.09,0,0,1-1.53-.83c-.93-.56-2.17-1.38-3.5-2.34s-2.51-1.89-3.35-2.56a10.58,10.58,0,0,1-1.33-1.13,8.69,8.69,0,0,1,1.47.95l3.4,2.47c1.32,1,2.54,1.81,3.43,2.42A10.24,10.24,0,0,1,549.38,287.06Z"/><path class="cls-9" d="M538,301.25c-2.32-.61-5.1,1.65-5.58,4s.41,4.77,1.44,6.95a35.37,35.37,0,0,0,9.63,12.59,23.8,23.8,0,0,0,14.72,5.42c-1-4.57.26-9.35-.29-14a18.2,18.2,0,0,0-16.12-16c-1.48-.16-3.2-.39-3.8,1"/><path class="cls-6" d="M558.22,330.22a1.28,1.28,0,0,1-.33-.15,5.81,5.81,0,0,1-.87-.59,9,9,0,0,1-2.3-3.07c-.37-.72-.79-1.5-1.19-2.37l-1.26-2.77a25.4,25.4,0,0,0-1.54-3,24,24,0,0,0-2.11-2.88c-1.6-1.87-3.31-3.49-4.79-5a32.72,32.72,0,0,1-3.65-4.38,15.88,15.88,0,0,1-1.78-3.4,9.82,9.82,0,0,1-.31-1,1.88,1.88,0,0,1-.08-.36s.17.48.51,1.31a16.81,16.81,0,0,0,1.85,3.32,35,35,0,0,0,3.67,4.3c1.49,1.53,3.21,3.15,4.82,5a22.41,22.41,0,0,1,2.15,2.93,26.69,26.69,0,0,1,1.54,3c.43,1,.84,1.9,1.22,2.78s.79,1.65,1.15,2.37a9.45,9.45,0,0,0,2.18,3.09C557.78,330,558.24,330.19,558.22,330.22Z"/><path class="cls-6" d="M546.18,326.42a7.07,7.07,0,0,1,.21-1.56c.19-1,.49-2.28.89-3.71s.83-2.72,1.18-3.63a6.87,6.87,0,0,1,.64-1.45,9.85,9.85,0,0,1-.42,1.53c-.29.92-.69,2.21-1.09,3.63s-.73,2.73-1,3.68A7.82,7.82,0,0,1,546.18,326.42Z"/><path class="cls-6" d="M557.78,315.2a8.28,8.28,0,0,1-1.64-.38c-1-.26-2.39-.62-3.93-1s-3-.62-4-.81a9.24,9.24,0,0,1-1.64-.37,8.86,8.86,0,0,1,1.68.14c1,.14,2.45.37,4,.72s2.93.75,3.92,1.06A8.09,8.09,0,0,1,557.78,315.2Z"/><path class="cls-6" d="M537.54,318.46a10.07,10.07,0,0,1,.25-1.81c.21-1.11.53-2.64,1-4.31s.9-3.16,1.26-4.23a10.25,10.25,0,0,1,.67-1.71,11.53,11.53,0,0,1-.45,1.78c-.31,1.08-.73,2.58-1.17,4.24s-.79,3.18-1.05,4.28A10.11,10.11,0,0,1,537.54,318.46Z"/><path class="cls-6" d="M552.44,305.42a63.68,63.68,0,0,1-6.49-.52,64.9,64.9,0,0,1-6.46-.85c0-.09,2.91.15,6.49.53A63.32,63.32,0,0,1,552.44,305.42Z"/><path class="cls-11" d="M550.31,340.67c0,.09-10.22.16-22.82.16s-22.82-.07-22.82-.16,10.22-.16,22.82-.16S550.31,340.58,550.31,340.67Z"/><path class="cls-11" d="M543.2,353.81c0,.09-6.88.17-15.37.17s-15.38-.08-15.38-.17,6.89-.16,15.38-.16S543.2,353.72,543.2,353.81Z"/><path class="cls-11" d="M543.47,355.69c0,.09-6.89.17-15.37.17s-15.38-.08-15.38-.17,6.88-.16,15.38-.16S543.47,355.6,543.47,355.69Z"/><path class="cls-11" d="M543.47,352.26c0,.09-7.12.17-15.9.17s-15.9-.08-15.9-.17,7.11-.16,15.9-.16S543.47,352.18,543.47,352.26Z"/><path class="cls-3" d="M216,197.33c-.24,0-.24,0-.28.32l0,.18h0c0,.12,0,.24,0,.36a.14.14,0,0,0,0,.14l0,0a1.55,1.55,0,0,0,.23,0c.06,0,.07-.12.1-.33l.06-.49C216.09,197.37,216.08,197.34,216,197.33Zm-.09.81s0,0,0,0h0s0,0,0,0c0-.2.05-.4.07-.59a0,0,0,0,1,0,0h0s0,0,0,0Z"/><path class="cls-3" d="M224.72,198.33s0,0,0,0a.47.47,0,0,0-.17,0,1.53,1.53,0,0,1,0-.27s.15,0,.16,0h.05a.09.09,0,0,0,0-.08.17.17,0,0,0,0-.07v0h0a1.68,1.68,0,0,0-.29,0,.11.11,0,0,0-.05.09h0c0,.09,0,.17,0,.26a.57.57,0,0,0,0,.13c0,.05,0,.1,0,.12a.1.1,0,0,0,.07,0h.1a2.18,2.18,0,0,1,0,.25h-.19v.21a1,1,0,0,0,.3,0s0,0,.06-.1,0-.43,0-.45S224.73,198.34,224.72,198.33Z"/><path class="cls-3" d="M212.66,197.54l0,0h-.14s0-.18,0-.23.12,0,.14,0h0v-.15h0a1,1,0,0,0-.22,0s0,0-.06.07h0l0,.22s0,.07,0,.11,0,.09,0,.11l.06,0h.07a.76.76,0,0,1,0,.21h-.14l0,.17a.76.76,0,0,0,.25,0s0,0,.05-.09,0-.36,0-.38S212.67,197.55,212.66,197.54Z"/><path class="cls-3" d="M231,198.52a.06.06,0,0,0,0,0s0,0,0,0h-.19a1.33,1.33,0,0,1,0-.27s.16,0,.18,0H231s0,0,0,0v0s0-.05,0-.07v0h0a1.87,1.87,0,0,0-.32,0s-.05,0-.06.09v0a2,2,0,0,0,0,.25.61.61,0,0,0,0,.14s0,.1,0,.12h.2a2.09,2.09,0,0,1,0,.25h-.2a1.41,1.41,0,0,0,0,.21,1.22,1.22,0,0,0,.34,0,.08.08,0,0,0,0,0A4.43,4.43,0,0,0,231,198.52Z"/><path class="cls-3" d="M216.4,198.4h.14c0-.34.08-.68.12-1h-.14Z"/><path class="cls-3" d="M215.12,197.67H215l.05-.41h-.15l-.12,1H215l.06-.45h.09l-.06.45h.15c0-.34.08-.69.13-1h-.15Z"/><path class="cls-3" d="M214.5,197.23h-.18l-.07.06a.64.64,0,0,0,0,.09l-.09.68s0,0,0,.06l.05.1h.19a.66.66,0,0,0,.06-.12s0,0,0,0h-.15v-.12l0-.11,0-.12c0-.07,0-.26,0-.27l0,0h.13v-.07A.29.29,0,0,0,214.5,197.23Z"/><path class="cls-3" d="M229.12,198.9v0h-.18s0,0,0,0,0-.23,0-.31v-.13a.57.57,0,0,0,0-.13v-.1a.06.06,0,0,1,0,0h.19v0l-.05-.15h-.25a1,1,0,0,0-.08.11s0,0,0,.06c0,.26,0,.52,0,.78a.37.37,0,0,0,0,.11l.07.07h.11a.33.33,0,0,0,.14,0,.34.34,0,0,0,.06-.12v0Z"/><path class="cls-3" d="M217.35,197.42h-.2l-.07.06s0,.06,0,.1c0,.24-.05.48-.08.71v.06l0,.11a1.62,1.62,0,0,0,.21,0,.69.69,0,0,0,.06-.13v0h-.15v-.13l0-.12v-.12c0-.07,0-.27,0-.28s0,0,0,0h.14v-.08S217.36,197.42,217.35,197.42Z"/><path class="cls-3" d="M217.9,198.06H218l0-.15h-.14l0-.26h.16v-.19h-.29l-.12,1.07H218l0-.14v-.07l-.18,0Z"/><path class="cls-3" d="M225.35,197.82h-.09l-.07,1.14h.34l0-.17v0h-.19l0-.28h.15v-.16h-.15v-.26h.2V198l0-.15Z"/><path class="cls-3" d="M229.74,197.94h-.1c0,.38,0,.76,0,1.15H230l0-.16v0h-.2v-.28H230v-.17h-.16v-.27h.21v-.08l0-.15Z"/><path class="cls-3" d="M219.21,197.53h-.16c0,.36-.07.73-.11,1.09h.16l0-.46h.13l0-.18h-.13l0-.24h.14l.05-.14v-.08h-.17Z"/><path class="cls-3" d="M219.87,197.57c-.08.35-.16.69-.25,1v0h.18v0l0-.11h.11v.16h.17v-.06l0-1Zm0,.8.08-.41h0v.41Z"/><path class="cls-3" d="M220.83,198.16l-.05-.54h-.17l-.1,1.11h.17l0-.38.07.38.13-.4,0,.41h.17l.09-1.11H221Z"/><path class="cls-3" d="M221.49,198.78h.17l.1-1.12h-.17Z"/><path class="cls-3" d="M228,199.05h.2l.06-1.16h-.21C228,198.28,228,198.67,228,199.05Z"/><path class="cls-3" d="M222.44,198.69v0h-.13l.08-1h-.17l-.09,1.12h.33v-.08h0l0-.05Z"/><path class="cls-3" d="M223.19,197.86v.06l0,.14,0,.14,0,.08h0v-.17l0-.14v-.24h-.19v.08h0l.08.81v.25h.18l0-.27.21-.78h0v-.07h-.18S223.2,197.82,223.19,197.86Z"/><path class="cls-3" d="M226.54,198.57s0-.59,0-.59l0-.11h-.42v.2l-.06.94h.18l0-.38h0l.07.38h.2l-.09-.36S226.54,198.58,226.54,198.57Zm-.17-.12h-.11l0-.39h.11Z"/><path class="cls-3" d="M227.37,197.94h0l-.09.65,0-.66h0v-.07h-.2v.06h0l.09.95V199h.23v-.13c.07-.32.13-.63.19-.95h0v-.06h-.2Z"/><path class="cls-3" d="M212,197h-.12l-.09.17h.06l-.09.6h-.05l0,.18.24,0,0-.18h-.05C212,197.56,212,197.3,212,197Z"/><path class="cls-3" d="M213.33,197.14h-.19l-.06.18h.1c0,.27-.08.53-.11.8h.12c0-.27.07-.53.11-.8h.11v-.19Z"/><path class="cls-3" d="M220.82,204.35a.76.76,0,0,1-.32.6h0a.4.4,0,0,1-.26.06.39.39,0,0,1-.22-.11h0a.89.89,0,0,1-.2-.66c0-.4.3-.69.58-.66S220.85,204,220.82,204.35Z"/><path class="cls-3" d="M219.41,200.85c0,.47-.37.83-.71.8a.78.78,0,0,1-.53-.92c.05-.47.36-.82.7-.79S219.45,200.37,219.41,200.85Z"/><path class="cls-3" d="M223.13,201.14c0,.5-.37.88-.74.85a.81.81,0,0,1-.59-.94c0-.49.36-.86.73-.83S223.16,200.65,223.13,201.14Z"/><path class="cls-3" d="M221.38,205.29h0l0,0s0,0,0,0l0,0h0l0,0h0l0,0,0,0h0l-.08,0h-.37l-.05,0,0,0a1,1,0,0,0-.39.37,1,1,0,0,0-.31-.46l0,0-.05,0,0,0,0,0h-.06l-.12,0h-.35l0,0,0,0h0a1,1,0,0,0-.18.16,2.89,2.89,0,0,1,.43.59.3.3,0,0,1,0,.08,3,3,0,0,1,.16.31,5,5,0,0,1,.43,1.93h0a4.39,4.39,0,0,1,.75-1.76,2,2,0,0,1,.22-.27L221,206a3,3,0,0,1,.54-.48A.94.94,0,0,0,221.38,205.29Z"/><path class="cls-3" d="M217.56,202.5l.05.05a6.81,6.81,0,0,1,.77,1,7.71,7.71,0,0,0-.81-1.09Z"/><path class="cls-3" d="M222.39,204a8.2,8.2,0,0,1,1-.87l.07,0v0A7.68,7.68,0,0,0,222.39,204Z"/><path class="cls-3" d="M223.42,203a1.79,1.79,0,0,0-1.31-.94h-.4l-.08,0-.11,0-.12,0-.12,0a2.26,2.26,0,0,0-.88.86,2.28,2.28,0,0,0-.7-1l-.11-.07-.1-.06-.11-.05-.06,0-.06,0-.1,0-.22-.05a1.57,1.57,0,0,0-1.33.65l0,0a7.71,7.71,0,0,1,.81,1.09,8.68,8.68,0,0,1,.66,1.29.66.66,0,0,1,.5-.13.73.73,0,0,1,.24.07,1.11,1.11,0,0,1-.1-.58c0-.48.35-.83.69-.79s.6.45.56.93a1.17,1.17,0,0,1-.2.56.65.65,0,0,1,.24,0,.76.76,0,0,1,.49.26,8.15,8.15,0,0,1,.93-1.16,7.68,7.68,0,0,1,1.06-.93Z"/><path class="cls-3" d="M226.14,183l-.09,1.34-1.52,0c0-.44.06-.88.1-1.33-1.14,0-2.25.1-3.34.18l-.12,1.3-1.39.1c0-.43.09-.85.13-1.29-.91.08-1.79.17-2.68.28a7.15,7.15,0,0,1,.15-.85,1.19,1.19,0,0,1,.88-.88l.14,0a76.49,76.49,0,0,1,12-.52,1.09,1.09,0,0,1,1.07,1.2c0,.58,0,1.17-.05,1.77v.14l-1.66-.07c0-.45,0-.89.05-1.34C228.53,183,227.33,183,226.14,183Z"/><path class="cls-3" d="M229.55,188.53l-1.45,0-.82,0a1,1,0,0,1-.93-1.14c.06-1.28.14-2.54.22-3.77a.18.18,0,0,1,0-.06h1.56c0,1-.11,2-.16,3.12h.14c.68,0,1.37,0,2.06.05a1.14,1.14,0,0,1,1.1,1.27c0,1.7-.09,3.44-.14,5.22a1.23,1.23,0,0,1-1.23,1.33l-5-.1c-.66,0-1.05-.57-1-1.38,0-.66.09-1.32.14-2v-.16h1.59c0,.25,0,.5-.05.75s0,.49,0,.74l3.85.07C229.45,191.14,229.5,189.83,229.55,188.53Z"/><path class="cls-3" d="M225.74,189.2h-1.56c0-.23,0-.46,0-.71l-1.51,0q-.22,2.82-.47,5.82h-.11l-1.33,0c-.08,0-.1,0-.09-.14.11-1.2.89-9.79.94-10.38,0,0,0-.07,0-.11l1.43-.08c-.08,1-.16,2-.25,3.07l1.5,0c0-.23,0-.45,0-.68l1.54,0Q225.85,187.54,225.74,189.2Z"/><path class="cls-3" d="M217.18,184.09l1.32-.14-.93,8.41H219l.15-1.43,1.44,0v.14l-.18,1.95c-.07.76-.54,1.3-1.12,1.28l-2.35-.05c-.56,0-.88-.53-.79-1.27q.54-4.52,1-8.75Z"/><path class="cls-3" d="M215.76,193l.07-.59h-.55q.63-5,1.26-10c0-.17-.08-.29-.21-.27-.58.08-1.15.18-1.72.28a.17.17,0,0,0-.13.15c0,.39-.11.79-.16,1.19l.82-.13c-.4,2.94-.79,5.86-1.19,8.75l-1.43,0c-.08.58-.17,1.16-.25,1.74l3.67.07A1.66,1.66,0,0,1,215.76,193Z"/><path class="cls-3" d="M231,197.39c-6.35-.07-12.78-.4-19.12-.83.1-.65.19-1.3.29-2,6.27.18,12.62.37,18.89.48Z"/><polygon class="cls-6" points="176.52 194 184.6 201.78 197.63 214.35 220.05 213.23 201.9 192.73 176.52 194"/><path class="cls-2" d="M180.06,193.77s-5.86,2.59.11,7.09,14.13,6.18,15.38,9.43a5.47,5.47,0,0,1-.79,5.5l17.18-.75s5.1-4.4,1.3-8.33-13.79-9.59-15-11.12,1.62-2.76,1.62-2.76Z"/><polygon class="cls-11" points="185.5 193.51 184.83 192.72 194.09 192.15 194.09 193.1 185.5 193.51"/><path class="cls-4" d="M196.78,196.13a11.14,11.14,0,0,1-2.3.35c-1.43.15-3.42.32-5.61.44s-4.18.17-5.63.14a9.22,9.22,0,0,1-2.32-.2,18.78,18.78,0,0,1,2.32-.09c1.44,0,3.42-.13,5.61-.26l5.6-.32A15.32,15.32,0,0,1,196.78,196.13Z"/><path class="cls-4" d="M198.6,198.73a68,68,0,0,1-7.5.56,66.1,66.1,0,0,1-7.53.15,71.41,71.41,0,0,1,7.51-.56A72,72,0,0,1,198.6,198.73Z"/><path class="cls-4" d="M202.58,200.88a11.68,11.68,0,0,1-2.15.38c-1.34.18-3.19.38-5.24.53s-3.91.25-5.26.28a11.9,11.9,0,0,1-2.18,0,11.78,11.78,0,0,1,2.17-.25l5.24-.39,5.24-.42A12,12,0,0,1,202.58,200.88Z"/><path class="cls-4" d="M205.28,203.82a52,52,0,0,1-6.43.71,52.56,52.56,0,0,1-6.45.31,52.68,52.68,0,0,1,6.42-.72A49.27,49.27,0,0,1,205.28,203.82Z"/><path class="cls-4" d="M209.32,206.46a50.41,50.41,0,0,1-6.22.86,48.83,48.83,0,0,1-6.25.45,46.21,46.21,0,0,1,6.21-.86A46.84,46.84,0,0,1,209.32,206.46Z"/><path class="cls-4" d="M211.21,210.19a7.86,7.86,0,0,1-1.86.31c-1.16.13-2.76.27-4.53.36s-3.38.11-4.54.1a7.87,7.87,0,0,1-1.89-.13,10.61,10.61,0,0,1,1.88-.16l4.53-.22,4.52-.24A8.77,8.77,0,0,1,211.21,210.19Z"/><path class="cls-13" d="M225,211.27l-4.26-.67-15.87.39s-.83-.24-.11-.69c.35-.23,6.18-1.67,6.18-1.67l-8.37.67a11,11,0,0,1,3.19-3.81,21.94,21.94,0,0,1,6-2.28l-2.54-1.93s8.29-1.08,9.36-.14,2.36,2.42,2.36,2.42l4.58,0"/><path class="cls-14" d="M213.88,208.17c0,.12-2.51.2-5.58.5s-5.54.67-5.56.56a5.82,5.82,0,0,1,1.59-.42c1-.19,2.39-.4,3.94-.55a38.6,38.6,0,0,1,4-.19A6.46,6.46,0,0,1,213.88,208.17Z"/><path class="cls-14" d="M213.39,206.1a27.61,27.61,0,0,1-4.76.89,29.3,29.3,0,0,1-4.82.47,29.48,29.48,0,0,1,4.76-.88A28.73,28.73,0,0,1,213.39,206.1Z"/><path class="cls-6" d="M361,163.94a.71.71,0,0,1-.27.61h0a.45.45,0,0,1-.26.08.43.43,0,0,1-.25-.07h0a.79.79,0,0,1-.3-.61.61.61,0,0,1,.54-.7A.66.66,0,0,1,361,163.94Z"/><path class="cls-6" d="M358.94,160.54a.8.8,0,0,1-.69.92.89.89,0,0,1-.77-.92.81.81,0,0,1,.69-.94A.91.91,0,0,1,358.94,160.54Z"/><path class="cls-6" d="M363.12,160.54a.83.83,0,0,1-.71.92.86.86,0,0,1-.74-.92.84.84,0,0,1,.72-.94A.86.86,0,0,1,363.12,160.54Z"/><path class="cls-6" d="M361.65,164.77h0l0,0,0,0,0,0h0l0,0,0,0h-.52l-.05,0,0,0a1,1,0,0,0-.37.39.91.91,0,0,0-.38-.39l-.06,0-.05,0h-.51l0,0,0,0h0l0,0,0,0-.05,0h0a.69.69,0,0,0-.17.18,3.15,3.15,0,0,1,.54.49l.06.07.21.27a4,4,0,0,1,.67,1.66h0a3.66,3.66,0,0,1,.58-1.66,1.85,1.85,0,0,1,.19-.27l.05-.07a3.43,3.43,0,0,1,.52-.49A.76.76,0,0,0,361.65,164.77Z"/><path class="cls-6" d="M357.08,162.49l.06,0a8.42,8.42,0,0,1,1.05.93,7.87,7.87,0,0,0-1.1-1Z"/><path class="cls-6" d="M362.58,163.46a6.63,6.63,0,0,1,1-.92l.06,0h0A8,8,0,0,0,362.58,163.46Z"/><path class="cls-6" d="M363.58,162.43a1.87,1.87,0,0,0-1.47-.84l-.26,0-.1,0-.08,0-.07,0-.12,0-.13.05-.13.06a2.28,2.28,0,0,0-.86.95,2.34,2.34,0,0,0-.91-.95l-.13-.06-.13-.05-.12,0-.08,0-.07,0-.11,0-.26,0a1.75,1.75,0,0,0-1.42.84l0,0a7.87,7.87,0,0,1,1.1,1,8.88,8.88,0,0,1,.92,1.18.82.82,0,0,1,.52-.2,1.09,1.09,0,0,1,.26,0,1.09,1.09,0,0,1-.18-.55.76.76,0,0,1,.66-.85.8.8,0,0,1,.7.85.91.91,0,0,1-.15.55,1.27,1.27,0,0,1,.26,0,.88.88,0,0,1,.54.2,7.84,7.84,0,0,1,.86-1.19,8,8,0,0,1,1-1Z"/></svg>