<svg height="233" viewBox="0 0 457 233" width="457" xmlns="http://www.w3.org/2000/svg">
    <g fill="none" fill-rule="evenodd" transform="">
        <path d="m283.499917 155c-.12799 0-.255979-.048999-.353471-.146496l-1.999833-1.99995c-.195484-.195495-.195484-.511488 0-.706983l1.999833-1.99995c.195484-.195495.511458-.195495.706941 0 .195484.195495.195484.511488 0 .706983l-1.646363 1.646458 1.646363 1.646459c.195484.195495.195484.511488 0 .706983-.097492.097497-.225481.146496-.35347.146496" fill="#1a4175" transform="matrix(-1 0 0 -1 565 305)" />
        <g id ="background" stroke-width="1.3416">
            <path d="m73 146.458833-5.8407557 69.541167h-2.1592443l4.9122807-70c.9932524.166747 2.0296896.32454 3.0877193.458833z" stroke="#d5d5d5" transform="matrix(-1 0 0 1 138 0)" />
            <path d="m19 216h-2.1419009l-5.8580991-70.383194c1.060241-.190649 2.0883534-.392513 3.0629183-.616806z" stroke="#d5d5d5" transform="matrix(-1 0 0 1 30 0)" />
            <path d="m87 137c0 2.955556-5.4467105 5.611111-14.1032895 7.433333-1.0177631.222223-2.0914473.422223-3.1986842.611111-7.0460526 1.233334-15.7585526 1.955556-25.1980263 1.955556-7.5046053 0-14.5506579-.455556-20.6572368-1.266667-1.0960527-.133333-2.1697369-.288889-3.1986843-.455555-11.25131574-1.8-18.6440789-4.833334-18.6440789-8.277778 0-5.522222 19.0243421-10 42.5-10s42.5 4.477778 42.5 10z" stroke="#d5d5d5" transform="matrix(-1 0 0 1 89 0)" />
            <path d="m180 197.5h24" stroke="#d5d5d5" transform="matrix(-1 0 0 1 384 0)" />
            <path d="m199 87h68v-42h-68z" stroke="#d5d5d5" transform="matrix(-1 0 0 1 466 0)" />
            <path d="m233 63h13v-10h-13z" stroke="#d5d5d5" transform="matrix(-1 0 0 1 479 0)" />
            <path d="m237 77h13v-10h-13z" stroke="#d5d5d5" transform="matrix(-1 0 0 1 487 0)" />
            <path d="m216 72h13v-10h-13z" stroke="#d5d5d5" transform="matrix(-1 0 0 1 445 0)" />
            <path d="m222 133h85v-7h-85z" stroke="#d5d5d5" transform="matrix(-1 0 0 1 529 0)" />
            <path d="m303 197h-16v-18.279787l3.940383-4.720213 2.97516 5.681234 5.882186 11.207392z" stroke="#d5d5d5" transform="matrix(-1 0 0 1 590 0)" />
            <path d="m303 133v64h-43.969604l-4.16484-17.152434-3.331872-13.760913c-3.964928.895747-7.985386 1.589951-12.016952 2.093809-3.765015.481464-7.541137.782658-11.328364.929337-.399825.022394-.788543.032471-1.188368.044787v-36.154586z" fill="#fff" stroke="#d5d5d5" transform="matrix(-1 0 0 1 530 0)" />
            <path d="m237.5 133v64" stroke="#d5d5d5" transform="matrix(-1 0 0 1 475 0)" />
            <path d="m262.5 134v64" stroke="#d5d5d5" transform="matrix(-1 0 0 1 525 0)" />
            <path d="m290.5 197v-6" stroke="#d5d5d5" transform="matrix(-1 0 0 1 581 0)" />
            <path d="m290.5 168v-34.560025-.439975" stroke="#c2e3ed" transform="matrix(-1 0 0 1 581 0)" />
            <path d="m275 180.465-7.086432.01-47.913568.06" stroke="#d5d5d5" transform="matrix(-1 0 0 1 495 0)" />
            <path d="m304 180.495-7.164706.01h-.835294" stroke="#d5d5d5" transform="matrix(-1 0 0 1 600 0)" />
            <path d="m195 180.4945-4 .011" stroke="#d5d5d5" transform="matrix(-1 0 0 1 386 0)" />
            <path d="m102 160.957273v-37.908182-100.049091h72v106.675227 40.324773" stroke="#d5d5d5" transform="matrix(-1 0 0 1 276 0)" />
            <path d="m109 98h58v-69h-58z" stroke="#d5d5d5" transform="matrix(-1 0 0 1 276 0)" />
            <path d="m115 114.499441c0 2.486768-2.014408 4.500559-4.499441 4.500559s-4.500559-2.013791-4.500559-4.500559c0-2.48565 2.015526-4.499441 4.500559-4.499441s4.499441 2.013791 4.499441 4.499441z" stroke="#d5d5d5" transform="matrix(-1 0 0 1 221 0)" />
            <path d="m172.5345 160.625c-.02-.08-.05-.17-.069-.25" stroke="#c2e3ed" transform="matrix(-1 0 0 1 345 0)" />
            <path d="m211 133-5 3" stroke="#c2e3ed" transform="matrix(-1 0 0 1 417 0)" />
            <path d="m361 67.5h32" stroke="#d5d5d5" transform="matrix(-1 0 0 1 754 0)" />
            <path d="m361 74.5h26" stroke="#d5d5d5" transform="matrix(-1 0 0 1 748 0)" />
            <path d="m55.5 196v7" stroke="#d5d5d5" transform="matrix(-1 0 0 1 111 0)" />
            <path d="m58 199.5h-7" stroke="#d5d5d5" transform="matrix(-1 0 0 1 109 0)" />
            <path d="m24 164.5h11" stroke="#d5d5d5" transform="matrix(-1 0 0 1 59 0)" />
            <path d="m23 171.5h6" stroke="#d5d5d5" transform="matrix(-1 0 0 1 52 0)" />
            <path d="m0 87.5h32" stroke="#d5d5d5" transform="matrix(-1 0 0 1 32 0)" />
            <path d="m0 94.5h26" stroke="#d5d5d5" transform="matrix(-1 0 0 1 26 0)" />
            <path d="m55 104.5h14" stroke="#d5d5d5" transform="matrix(-1 0 0 1 124 0)" />
            <path d="m8 116.5h10" stroke="#d5d5d5" transform="matrix(-1 0 0 1 26 0)" />
            <path d="m336 90.5h10" stroke="#d5d5d5" transform="matrix(-1 0 0 1 682 0)" />
            <path d="m336.5 111v8" stroke="#d5d5d5" transform="matrix(-1 0 0 1 673 0)" />
            <path d="m332 114.5h9" stroke="#d5d5d5" transform="matrix(-1 0 0 1 673 0)" />
            <path d="m420 90.5h32" stroke="#d5d5d5" transform="matrix(-1 0 0 1 872 0)" />
            <path d="m420 96.5h26" stroke="#d5d5d5" transform="matrix(-1 0 0 1 866 0)" />
            <path d="m69.5 79v10" stroke="#d5d5d5" transform="matrix(-1 0 0 1 139 0)" />
            <path d="m64 83.5h11" stroke="#d5d5d5" transform="matrix(-1 0 0 1 139 0)" />
            <path d="m83.5 70v8" stroke="#d5d5d5" transform="matrix(-1 0 0 1 167 0)" />
            <path d="m78 73.5h10" stroke="#d5d5d5" transform="matrix(-1 0 0 1 166 0)" />
            <path d="m438.5 138v10" stroke="#d5d5d5" transform="matrix(-1 0 0 1 877 0)" />
            <path d="m433 142.5h11" stroke="#d5d5d5" transform="matrix(-1 0 0 1 877 0)" />
            <path d="m452.5 129v8" stroke="#d5d5d5" transform="matrix(-1 0 0 1 905 0)" />
            <path d="m446 132.5h10" stroke="#d5d5d5" transform="matrix(-1 0 0 1 902 0)" />
            <path d="m288 36.5h14" stroke="#d5d5d5" transform="matrix(-1 0 0 1 590 0)" />
            <path d="m287 45.5h8" stroke="#d5d5d5" transform="matrix(-1 0 0 1 582 0)" />
            <path d="m209.5 18v10" stroke="#d5d5d5" transform="matrix(-1 0 0 1 419 0)" />
            <path d="m204 22.5h11" stroke="#d5d5d5" transform="matrix(-1 0 0 1 419 0)" />
            <path d="m188.5 0v8" stroke="#d5d5d5" transform="matrix(-1 0 0 1 377 0)" />
            <path d="m183 3.5h10" stroke="#d5d5d5" transform="matrix(-1 0 0 1 376 0)" />
            <path d="m301.55 169.595-.1-.19" stroke="#c2e3ed" transform="matrix(-1 0 0 1 603 0)" />
            <path d="m278.56 166.745-.12-.49" stroke="#c2e3ed" transform="matrix(-1 0 0 1 557 0)" />
            <path d="m45.5 8v45" stroke="#d5d5d5" stroke-width="1.3416" transform="matrix(-1 0 0 1 91 0)" />
        <path d="m35 74v-10.723793c0-5.6519138 4.5-10.276207 10-10.276207s10 4.6242932 10 10.276207v10.723793z" stroke="#d5d5d5" stroke-width="1.3416" transform="matrix(-1 0 0 1 90 0)" />
        </g>
          <g id ="background2" stroke-width="1.3416">
          	<path d="m45.5 8v45" stroke="#d5d5d5" stroke-width="1.3416" transform="matrix(-1 0 0 1 91 0)" />
        <path d="m35 74v-10.723793c0-5.6519138 4.5-10.276207 10-10.276207s10 4.6242932 10 10.276207v10.723793z" stroke="#d5d5d5" stroke-width="1.3416" transform="matrix(-1 0 0 1 90 0)" />
            <path d="m73 146.458833-5.8407557 69.541167h-2.1592443l4.9122807-70c.9932524.166747 2.0296896.32454 3.0877193.458833z" stroke="#d5d5d5" transform="matrix(-1 0 0 1 138 0)" />
            <path d="m19 216h-2.1419009l-5.8580991-70.383194c1.060241-.190649 2.0883534-.392513 3.0629183-.616806z" stroke="#d5d5d5" transform="matrix(-1 0 0 1 30 0)" />
            <path d="m87 137c0 2.955556-5.4467105 5.611111-14.1032895 7.433333-1.0177631.222223-2.0914473.422223-3.1986842.611111-7.0460526 1.233334-15.7585526 1.955556-25.1980263 1.955556-7.5046053 0-14.5506579-.455556-20.6572368-1.266667-1.0960527-.133333-2.1697369-.288889-3.1986843-.455555-11.25131574-1.8-18.6440789-4.833334-18.6440789-8.277778 0-5.522222 19.0243421-10 42.5-10s42.5 4.477778 42.5 10z" stroke="#d5d5d5" transform="matrix(-1 0 0 1 89 0)" />
            <path d="m180 197.5h24" stroke="#d5d5d5" transform="matrix(-1 0 0 1 384 0)" />
            <path d="m199 87h68v-42h-68z" stroke="#d5d5d5" transform="matrix(-1 0 0 1 466 0)" />
            <path d="m233 63h13v-10h-13z" stroke="#d5d5d5" transform="matrix(-1 0 0 1 479 0)" />
            <path d="m237 77h13v-10h-13z" stroke="#d5d5d5" transform="matrix(-1 0 0 1 487 0)" />
            <path d="m216 72h13v-10h-13z" stroke="#d5d5d5" transform="matrix(-1 0 0 1 445 0)" />
            <path d="m222 133h85v-7h-85z" stroke="#d5d5d5" transform="matrix(-1 0 0 1 529 0)" />
            <path d="m303 197h-16v-18.279787l3.940383-4.720213 2.97516 5.681234 5.882186 11.207392z" stroke="#d5d5d5" transform="matrix(-1 0 0 1 590 0)" />
            <path d="m303 133v64h-43.969604l-4.16484-17.152434-3.331872-13.760913c-3.964928.895747-7.985386 1.589951-12.016952 2.093809-3.765015.481464-7.541137.782658-11.328364.929337-.399825.022394-.788543.032471-1.188368.044787v-36.154586z" fill="#fff" stroke="#d5d5d5" transform="matrix(-1 0 0 1 530 0)" />
            <path d="m237.5 133v64" stroke="#d5d5d5" transform="matrix(-1 0 0 1 475 0)" />
            <path d="m262.5 134v64" stroke="#d5d5d5" transform="matrix(-1 0 0 1 525 0)" />
            <path d="m290.5 197v-6" stroke="#d5d5d5" transform="matrix(-1 0 0 1 581 0)" />
            <path d="m290.5 168v-34.560025-.439975" stroke="#c2e3ed" transform="matrix(-1 0 0 1 581 0)" />
            <path d="m275 180.465-7.086432.01-47.913568.06" stroke="#d5d5d5" transform="matrix(-1 0 0 1 495 0)" />
            <path d="m304 180.495-7.164706.01h-.835294" stroke="#d5d5d5" transform="matrix(-1 0 0 1 600 0)" />
            <path d="m195 180.4945-4 .011" stroke="#d5d5d5" transform="matrix(-1 0 0 1 386 0)" />
            <path d="m102 160.957273v-37.908182-100.049091h72v106.675227 40.324773" stroke="#d5d5d5" transform="matrix(-1 0 0 1 276 0)" />
            <path d="m109 98h58v-69h-58z" stroke="#d5d5d5" transform="matrix(-1 0 0 1 276 0)" />
            <path d="m115 114.499441c0 2.486768-2.014408 4.500559-4.499441 4.500559s-4.500559-2.013791-4.500559-4.500559c0-2.48565 2.015526-4.499441 4.500559-4.499441s4.499441 2.013791 4.499441 4.499441z" stroke="#d5d5d5" transform="matrix(-1 0 0 1 221 0)" />
            <path d="m172.5345 160.625c-.02-.08-.05-.17-.069-.25" stroke="#c2e3ed" transform="matrix(-1 0 0 1 345 0)" />
            <path d="m211 133-5 3" stroke="#c2e3ed" transform="matrix(-1 0 0 1 417 0)" />
            <path d="m361 67.5h32" stroke="#d5d5d5" transform="matrix(-1 0 0 1 754 0)" />
            <path d="m361 74.5h26" stroke="#d5d5d5" transform="matrix(-1 0 0 1 748 0)" />
            <path d="m55.5 196v7" stroke="#d5d5d5" transform="matrix(-1 0 0 1 111 0)" />
            <path d="m58 199.5h-7" stroke="#d5d5d5" transform="matrix(-1 0 0 1 109 0)" />
            <path d="m24 164.5h11" stroke="#d5d5d5" transform="matrix(-1 0 0 1 59 0)" />
            <path d="m23 171.5h6" stroke="#d5d5d5" transform="matrix(-1 0 0 1 52 0)" />
            <path d="m0 87.5h32" stroke="#d5d5d5" transform="matrix(-1 0 0 1 32 0)" />
            <path d="m0 94.5h26" stroke="#d5d5d5" transform="matrix(-1 0 0 1 26 0)" />
            <path d="m55 104.5h14" stroke="#d5d5d5" transform="matrix(-1 0 0 1 124 0)" />
            <path d="m8 116.5h10" stroke="#d5d5d5" transform="matrix(-1 0 0 1 26 0)" />
            <path d="m336 90.5h10" stroke="#d5d5d5" transform="matrix(-1 0 0 1 682 0)" />
            <path d="m336.5 111v8" stroke="#d5d5d5" transform="matrix(-1 0 0 1 673 0)" />
            <path d="m332 114.5h9" stroke="#d5d5d5" transform="matrix(-1 0 0 1 673 0)" />
            <path d="m420 90.5h32" stroke="#d5d5d5" transform="matrix(-1 0 0 1 872 0)" />
            <path d="m420 96.5h26" stroke="#d5d5d5" transform="matrix(-1 0 0 1 866 0)" />
            <path d="m69.5 79v10" stroke="#d5d5d5" transform="matrix(-1 0 0 1 139 0)" />
            <path d="m64 83.5h11" stroke="#d5d5d5" transform="matrix(-1 0 0 1 139 0)" />
            <path d="m83.5 70v8" stroke="#d5d5d5" transform="matrix(-1 0 0 1 167 0)" />
            <path d="m78 73.5h10" stroke="#d5d5d5" transform="matrix(-1 0 0 1 166 0)" />
            <path d="m438.5 138v10" stroke="#d5d5d5" transform="matrix(-1 0 0 1 877 0)" />
            <path d="m433 142.5h11" stroke="#d5d5d5" transform="matrix(-1 0 0 1 877 0)" />
            <path d="m452.5 129v8" stroke="#d5d5d5" transform="matrix(-1 0 0 1 905 0)" />
            <path d="m446 132.5h10" stroke="#d5d5d5" transform="matrix(-1 0 0 1 902 0)" />
            <path d="m288 36.5h14" stroke="#d5d5d5" transform="matrix(-1 0 0 1 590 0)" />
            <path d="m287 45.5h8" stroke="#d5d5d5" transform="matrix(-1 0 0 1 582 0)" />
            <path d="m209.5 18v10" stroke="#d5d5d5" transform="matrix(-1 0 0 1 419 0)" />
            <path d="m204 22.5h11" stroke="#d5d5d5" transform="matrix(-1 0 0 1 419 0)" />
            <path d="m188.5 0v8" stroke="#d5d5d5" transform="matrix(-1 0 0 1 377 0)" />
            <path d="m183 3.5h10" stroke="#d5d5d5" transform="matrix(-1 0 0 1 376 0)" />
            <path d="m301.55 169.595-.1-.19" stroke="#c2e3ed" transform="matrix(-1 0 0 1 603 0)" />
            <path d="m278.56 166.745-.12-.49" stroke="#c2e3ed" transform="matrix(-1 0 0 1 557 0)" />
        </g>
        <path d="m100 222v5.269625l-10.6913412.730375-.3086588-5.397042z" fill="#00aeef" transform="matrix(-1 0 0 1 189 0)" />
        <path d="m75.8080094 206 4.1919906 1.5-4.601 7-4.399-1.003598z" fill="#00aeef" transform="matrix(-1 0 0 1 151 0)" />
        <path d="m147.041553 146.422596c-1.860052-.577241-3.496001-1.344305-5.43561-1.83163-3.31784-.834779-6.428385-2.070297-9.557979-3.423484-2.94695-1.27437-5.703413-3.474547-8.342222-5.296186-2.346355-1.619605-5.026623-3.185927-6.996486-5.256224-.729454-.765954-1.322205-1.677329-1.557513-2.686391-.168077-.69935-.157993-1.420901-.145667-2.153553v-.155411c.011205-.210915.032495-.455133.212898-.56614.280128-.177613.593872.122108.784359.377426.078436.120999.155751.233117.246513.344125.04482.066605 2.14018.233116 2.364283.111008.112051-.056614.246513-.033303.369769 0 .470616.14431.82918.532838 1.165334.888063.80677.854761 1.65836 1.432002 2.610797 2.063637 1.170936.783715 2.154747 1.82608 3.359299 2.552071 1.272903.767065 2.613037 1.424231 3.999112 1.96817 3.651753 1.429782 7.588116 1.851612 11.489744 1.848282 2.516673-.002221 5.033346-.037743 7.548898-.111008 1.225842-.035523 2.470732-.158742 3.696574-.13543 1.168696.022202.862795.862531.888567 1.816089.089641 3.296935.168077 6.593869.257718 9.890804.022411.799256-6.375721-.067715-6.958388-.244218z" fill="#c9904e" transform="matrix(-1 0 0 1 269 0)" />
        <path d="m113 222.171175-13.5548053.761623-1.2314416.067202-4.0813173-17.707735-8.1324358-35.292265h18.041011l1.767191 10.293111 2.628418 15.299662 3.288318 19.152578z" fill="#fff" stroke="#1a4175" stroke-width="1.2" transform="matrix(-1 0 0 1 199 0)" />
        <path d="m74 195.285775 16.4523841 8.585733-5.2937585 9.107263-2.3412483 4.021229c-1.2800983-.61684-3.140256-1.566921-5.5804732-2.850244" fill="#fff" stroke="#1a4175" stroke-width="1.2" transform="matrix(-1 0 0 1 164.452384 0)" />
        <path d="m95.535 169.715-.07-.43" stroke="#1a4175" stroke-width="1.2" transform="matrix(-1 0 0 1 191 0)" />
        <path d="m118 205c-4.969722-3.030903-9.271135-6.06406-12.459794-9.094962-1.441449-9.942578.020748-18.711795 4.159453-26.421491.077532-.169073.164893-.326873.252253-.483547l.108109.483547z" fill="#fff" stroke="#1a4175" stroke-width="1.2" transform="matrix(-1 0 0 1 223 0)" />
        <path d="m100.651225 120.748181c-.299512.485731-.7195038.980274-.641811 1.542004.073189.528687.56637.903173.767921 1.397716.253346.619004.020268 1.312906-.155386 1.958345-.176779.644337-.26348 1.413136.195921 1.906578.587764.628917 1.729511.443876 2.338669 1.052968.447015.447181.436881 1.06178.410984 1.630118-.036032.745669.019141 1.408731.286 2.129067.118228.324922.37833.699409.721755.625613.149756-.031941.264606-.144287.378331-.243416.81859-.717032 1.938944-.970361 2.969219-1.342645.494307-.178432.41774-.818363.883897-1.083808.427874-.242315 1.27574.002202 1.186787-.761089-.264606-2.266746-.403102-4.546709-.408732-6.827773-.002252-.58486.003378-1.179633-.156512-1.743566-.190291-.671873-.602401-1.260038-1.055047-1.797536-.431251-.51547-.913172-1.001201-1.502062-1.338239-1.312897-.751177-3.284495-.8459-4.777549-.852508-.834354-.003305-.602401.83158-.695858 1.478121-.113724.791929-.319779 1.580554-.746527 2.27005" fill="#ce9144" transform="matrix(-1 0 0 1 210 0)" />
        <path d="m106.949218 122.450019c-.00216-.250825-.011881-.523461-.1685-.718668-.156619-.196298-.519543-.227924-.624316-.001091-.046446.09924-.033484.213747-.056167.32062-.097212.427493-.758252.449304-1.061769.131956-.302437-.316258-.361844-.787373-.470937-1.212685-.333761-1.291204-1.293997-2.400288-2.516706-2.905209-.992641-.410045-2.2466729-.526733-2.7921392-1.459148-.2927156-.49947-.2916355-1.118899-.2160263-1.693615.032404-.258459.0950516-.542001.3035169-.695767.1274555-.094878.2894752-.123232.4471744-.145043 2.0252462-.276998 4.0861362.282451 5.9385612 1.157067 1.171943.552906 2.350366 1.304291 2.882871 2.495165.308917.690315.370485 1.465691.382366 2.222529.018363 1.084001-.051846 2.170183-.212786 3.244369-.08749.589984-.480658 2.012053-1.356644 1.78522-.761493-.196298-.474178-1.969522-.478499-2.5257" fill="#231f20" transform="matrix(-1 0 0 1 208 0)" />
        <path d="m116.918579 171h-22.5783127l5.6418341-22.809122-4.840562-.847965-1.1415384-13.020714c3.9514792-.687297 8.76021-.814492 12.139822-3.197717.856154-.60808 1.767189-1.215044 2.72213-1.627869.965917-.401667 1.964763-.619237 2.985562-.423982.636627.113806 1.273255.423982 1.614619.985201.207452.333607.186597.767631.372097 1.112395 1.64645 3.014736 3.58926 33.261397 3.084349 39.829773" fill="#00aeef" transform="matrix(-1 0 0 1 211 0)" />
        <path d="m108.827799 227.485326c.271028.633915.132748 1.669655.144917 2.343984.012169.560015.0177 1.118877.019912 1.678892.001107.487272.090712 1.018421-.386077 1.305934-.438071.265575-1.104026.168582-1.597409.168582h-1.574177-3.970291-8.5390571-4.2158759c-.6360873 0-.9535778-.789795-.4878513-1.226261 2.5963424-2.435203 5.7911598-4.092157 9.7780443-4.712216h6.537871 2.327526c.550907 0 1.458023-.202067 1.849631.257492.04425.05196.081862.113158.112837.183593z" fill="#242223" transform="matrix(-1 0 0 1 197 0)" />
        <path d="m74.225998 207.111894c.4338151.358139.87082.712983 1.3025085 1.075516.9665145.814053.2062748 2.283963-.1584276 3.187001-.5220666 1.296333-1.0451965 2.592665-1.5683265 3.890097-.6241408 1.549007-1.2493448 3.099113-1.8745489 4.648121-.2892101.716279-.5784201 1.433656-.8676301 2.149935-.2923999.726166-.499738 1.610528-.905908 2.26968-.191389.310901-.480599.574561-.8304156.648167-.3785249.080197-.7953276-.091183-1.0175515-.416365-.1371621-.201041-.2009585-.444927-.2541221-.684419-.2317933-1.041461-.219034-2.085118-.3445002-3.134269-.1158966-.97994-.2232871-1.960978-.3338674-2.940917-.1254662-1.089799-.2488057-2.178498-.3732086-3.268297 1.1695994-1.897259 2.3370723-3.795617 3.5066718-5.692877.3636391-.588843.7251517-1.178784 1.0887908-1.767627.1552377-.252675.2902733-.538307.4540172-.778898.1275927-.188957.2796406-.275745.4444478-.293322.6007488-.064817 1.3705579.809658 1.7320704 1.108474z" fill="#242223" transform="matrix(-1 0 0 1 143 0)" />
        
        <path d="m317 217.593446-10.148782 4.406554-.851218-2.411193 9.630197-4.588807z" fill="#ebbc6f" transform="matrix(-1 0 0 1 623 0)" />
        <path d="m275 219.6-8.831972 2.4-1.168028-4.5444 8.896004-1.4556z" fill="#ebbc6f" transform="matrix(-1 0 0 1 540 0)" />
        <path d="m302 215.763922-10.15674 2.236078-11.149843-21.13094-3.182445-6.037411-5.845768-11.068587-2.95674-5.612557-2.708464-5.131799c3.848276-.145345 7.685266-.447216 11.510972-.927973 4.096552-.503117 8.181818-1.196302 12.210658-2.090733l3.38558 13.740701 4.231975 17.128359z" fill="#fff" stroke="#1a4175" stroke-width="1.2" transform="matrix(-1 0 0 1 568 0)" />
        <path d="m326 174.838838-3.824082 4.682298-.782449.964531-4.760816 5.828732 1.102041 28.071334-3.306123 2.245707-5.796734 2.953104-.81551.415456-8.595919-39.479524-.220408-.943197 5.532245-10.577279c.187347.044914.374694.066248.562041.089828 5.67551.595113 11.384081.808455 17.081632.640027.396735-.012352.782449-.022457 1.179184-.044914z" fill="#fff" stroke="#1a4175" stroke-width="1.2" transform="matrix(-1 0 0 1 625 0)" />
        <path d="m320 163-3 6" stroke="#1a4175" stroke-width="1.2" transform="matrix(-1 0 0 1 637 0)" />
        <path d="m316.29065 169.596927c-1.901302.787108-3.952356 1.122523-5.991208 1.389737-10.907526 1.427751-21.960367 1.04426-32.952197.658532-.885204-.030187-1.971186-.200131-2.270691-1.039787-.12424-.346596-.072103-.730088-.018858-1.094572.646709-4.420774 1.347772-8.64477 2.87081-12.862059 1.518601-4.207225 3.434323-8.283639 4.501448-12.646274 2.5946-10.586825-.167501-21.891438 2.029978-32.567707.708828-3.410056 1.906848-6.698244 3.104868-9.973015 1.253483-3.398875 2.495874-6.79775 3.739374-10.2078055.27732-.7613927.564622-1.5440284 1.053814-2.1913799.454804-.6037476 1.041611-1.0621485 1.640621-1.5104869 2.419334-1.7665206 5.026137-3.2982504 7.743866-4.5504675.321691-.1453466 7.221397 9.4028087 8.10771 10.6214843 2.741024 3.7801304 3.062715 9.4028085 3.094884 13.9085545.044371 5.2772-.486973 10.611422.356078 15.821539.543546 3.354153 1.652824 6.584202 2.640081 9.827668.088742.279513.166391.559026.242931.838539 1.508618 5.428137 2.916291 10.845094 3.910203 16.399571.503612 2.815253.926247 5.646158 1.264577 8.486007.240713 2.010256 1.338898 5.697588-.044371 7.441748-.534672.671948-1.285653 1.130349-2.019995 1.571979-.955088.575796-1.935689 1.320418-3.003923 1.678195" fill="#00aeef" transform="matrix(-1 0 0 1 597 0)" />
        <path d="m295.742925 72.624953c.060155.2394712.236246.4269816.35437.641602.838893 1.5260638-1.437166 3.2418973-1.053266 4.9498236.25484 1.1261922 1.525758 1.6480586 2.131687 2.6217574.332495.5354214.446243 1.1815417.535929 1.8118478.204528 1.4402157.320464 2.895116.34562 4.3500162 2.148092-.4642578 4.226186-1.2685194 6.139126-2.3788974.358744-.2067134.721864-.4360183.953735-.7839292.219841-.3309672.299683-.7364868.368589-1.1307105.386087-2.2241449.541398-4.4912138.460461-6.7492461-.056874-1.660484-.294214-3.4407036-1.381385-4.6651693-.767801-.8641294-4.762115-3.803299-5.835068-3.2147873-.598272.328708-.75577 1.703408-1.146233 2.2523844-.44843.628047-2.105437 1.3622746-1.873565 2.2953084" fill="#ebbc6f" transform="matrix(-1 0 0 1 601 0)" />
        <path d="m285.346063 65.0585426c.686996-1.5988947 2.362814-2.6651906 4.114089-2.9594926 1.752401-.2943021 3.564492.0977346 5.200893.7730919.78385.3239519 1.542924.7126942 2.36394.9268319.728665.1877822 1.500127.2350023 2.190501.5304025 2.195007.9345189 2.590311 3.7216032 3.666979 5.8069748.413323.7983492.966298 1.547282 1.155503 2.4225012.201594.9334206-.034912 1.8986874-.015767 2.8518747.028156 1.4045236.607034 2.738766.850298 4.1224249.404314 2.2984112-.164428 4.7461696-1.542924 6.651446-.278177.3843496-.596898.7544235-1.00459 1.0047999-.435848.2679466-.949405.3876441-1.455079.4809861-1.07892.1998619-2.175861.3096761-3.275053.3283445-.348003.0054907-.707268-.0010982-1.024862-.1383659-.360391-.1570343-.62618-.4656122-.848045-.7829752-1.559818-2.2413078-1.429176-5.1711506-1.286146-7.8769724.141904-2.7058218.155419-5.6675107-1.564322-7.7957098-1.390884-1.7196904-3.391054-2.2336208-5.522992-2.328061-2.129686-.0955384-2.848216-2.0491329-2.002423-4.0181015" fill="#1a4175" transform="matrix(-1 0 0 1 590 0)" />
        <path d="m269.707066 222.34411c-.840956.640131-1.699387 1.248905-2.504302 1.935532-1.518089 1.296482-2.905121 2.777866-3.810513 4.564178-.40628.802326-.648738 1.914987.051331 2.484833.23372.189228.531877.276813.824573.348179 6.820481 1.679263 13.105808-3.56181 18.409291-7.063068.285052-.188146.398635-.547139.269762-.861798l-1.73652-4.301421c-.13215-.325472-.48273-.509294-.828942-.433603 0 0-8.765601 1.927963-9.017888 1.984191-.114676.02487-.239181.089748-.369147.178414-.449966.309253-.955632.91262-1.287645 1.164563z" fill="#272223" transform="matrix(-1 0 0 1 546 0)" />
        <path d="m316.04141 226.140959c-3.208978 1.698041-7.221295 4.809098-10.9392 4.858619-.727821.009905-1.566183-.151866-1.926263-.789044-.269239-.476508-.181681-1.069666-.052534-1.603399 1.231276-5.071013 7.486156-7.744079 11.67906-10.049585.002189-.002201 3.480406-1.915936 3.480406-1.915936l1.015666-.553541c.36008-.195886.811-.053924.994871.315838l2.630004 5.287807c.17621.355455.038307.787943-.310828.972824-2.191124 1.158806-4.381153 2.317611-6.571182 3.476417z" fill="#272223" transform="matrix(-1 0 0 1 626 0)" />
        <path d="m353 115.369457c-1.568752 5.548373-3.58254 10.377928-6.675541 13.477829-3.704925 2.538324-8.010649 4.3466-12.071603 6.222264-5.407188 2.493398-10.881131 4.852018-16.410704 7.087092-1.365148.552591-2.733634 1.098443-4.108796 1.622955-1.229412.469478-2.448811.989497-3.772793 1.081596-3.113027.215645-6.201577.023586-9.241174.84461-.723183.202168-1.49087.404335-2.214054.224631-.178014-.056158-.356029-.134779-.456162-.29202-.200266-.336946.077881-.730049.411658-.988374.05563-.044926.111259-.089852.178015-.123547.356029-.213399.723183-.426798.967953-.774975.24477-.336946.3004-.842364.033378-1.145615-.378281-.426798-1.056961-.247094-1.568752-.022463-.934576.381871-1.880277.774975-2.814853 1.156846l-.3004.134779c-.211392.07862-.400532.157241-.600798.247093-.445036.179705-1.079213.303251-1.301731-.134778-.144636-.29202.033378-.628965.178015-.898522l.133511-.213399c.539606-.861458 1.068086-2.055369 1.930343-2.633792.887847-.597517 2.152862-.868197 3.183121-1.07598 2.277472-.462739 4.615024-.442522 6.924761-.5627.873383-.046049 1.75678-.115684 2.587885-.387487.729859-.238108 1.401863-.627842 2.048278-1.043409.955715-.61661 5.18467-3.323408 6.35289-4.022008 2.299723-1.375862 4.601672-2.746108 6.901396-4.123093 3.226512-1.931822 6.453023-3.863644 9.679535-5.795466l5.56295-11.231524z" fill="#ebbc6f" transform="matrix(-1 0 0 1 646 0)" />
        <path d="m219 217.550409.892769.414169c.011846 0 .022616.010899.032308.010899l10.124154 4.653951c.010769 0 .020461.010899.020461.010899l.776462.359673 2.153846-2.179837-11.491846-5.820163z" fill="#00aeef" transform="matrix(-1 0 0 1 452 0)" />
        <path d="m144 216.8 2.128339 2.2 1.479195-1.738 6.392466-5.962-2.550814-3.3-3.108439 3.663z" fill="#00aeef" transform="matrix(-1 0 0 1 298 0)" />
        <path d="m228.010153 152.867329c-.085548-1.559662.377288-3.119324 1.094573-4.512431.716188-1.393106 1.683536-2.629585 2.668432-3.847313.404706-.496356.820381-.997125 1.340248-1.367738.772123-.570258 1.728503-.81623 2.654174-1.051172 1.412634-.367304 2.816495-.732401 4.23242-1.088675l-.123935.759977-.04387.242663-.972832 6.039002c-.046064.0364-.092128.072799-.139289.110302l.00329.009927c-1.393989 1.108529-2.328434 2.691354-3.134557 4.294034-.334514.660706-.679995 1.35781-1.294184 1.767029-.152451.10258-.335611.179791-.514383.151113-.376191-.073902-.475997-.538271-.446384-.948593.002193-.070592.015354-.143391.029612-.215087.076774-.4026.162322-.818437.070193-1.216625-.08116-.400394-.4069-.776522-.806123-.774316-.561544-.008824-.874122.612173-1.053992 1.135002-.331223.947489-.673414 1.897184-1.005734 2.84357-.038387.103684-.066903.204058-.10529.306638-.076774.206264-.146967.399291-.213869.603349-.156838.446721-.486964 1.003743-.946509.872484-.309288-.081623-.445287-.432381-.540706-.725783l-.068-.232736c-.324642-1.042349-.635027-2.076976-.683285-3.154621" fill="#895e2f" transform="matrix(-1 0 0 1 468 0)" />
        <path d="m160.989794 127.837261c.085988-1.57101-.379231-3.14202-1.099109-4.545263-.720981-1.403243-1.693312-2.648718-2.683282-3.875306-.406791-.499968-.823505-1.00438-1.347153-1.377689-.774998-.574408-1.737408-.822169-2.667847-1.058821-1.229195-.30998-2.506895-.805503-3.761445-.971048-1.081471-.143324-1.64701 1.435463-2.201526 2.253188-.104729.153323-.211664.314424-.227098.499968-.016536.181099.057326.357754.14111.519966.799252 1.5499 2.388936 2.467619 3.391033 3.863085 1.005403 1.402132 2.04388 2.705381 2.837619 4.277502.336237.665513.684601 1.36769 1.300852 1.779885.153236.103327.337339.1811.518136.152213.377026-.07444.478448-.542188.447581-.955494-.002205-.071107-.015434-.144436-.028663-.216653-.078272-.40553-.16426-.824391-.071657-1.225477.081579-.403307.408996-.782172.810276-.779949.565539-.008889.878626.616626 1.059422 1.143259.334032.954383.676884 1.910988 1.010916 2.86426.038584.104438.067247.205542.106934.308869.077169.207765.146622.402196.214971.607739.156544.449971.488371 1.011046.950283.878832.310882-.082217.448684-.435527.544594-.731064l.067248-.234429c.326315-1.049933.638299-2.092088.686805-3.177573" fill="#895e2f" transform="matrix(-1 0 0 1 308 0)" />
        <path d="m232 205.206278-14.481013 15.569507c-12.821265-11.999642-24.183291-25.066906-32.469772-40.391749-.189367-.31139-.357569-.62278-.523544-.945292-.501266-.945291-.992506-1.901704-1.47038-2.858116-.612658.923049-1.22643 1.868341-1.827949 2.858116-.189367.311391-.389874.633902-.579241.956413-6.704709 11.132197-12.89924 25.900986-18.825316 42.604843l-4.455696-2.224215-11.88557-5.938655-1.481519-.733991 12.555038-33.68574.344203-.93417 4.923544-13.200718 40.134683-5.137937 1.158481-.144574c1.782279 6.227803 4.54481 12.355516 8.165064 18.383139.790886 1.323408 1.616303 2.635695 2.485164 3.947982.667241 1.012018 1.369013 2.024036 2.105317 3.036054 4.521417 6.372377 9.957367 12.644664 16.128506 18.839103z" fill="#fff" stroke="#1a4175" stroke-width="1.2" transform="matrix(-1 0 0 1 376 0)" />
        <path d="m198 176c-1.834975-3.228942-3.509852-6.553996-5-10" stroke="#1a4175" stroke-width="1.2" transform="matrix(-1 0 0 1 391 0)" />
        <path d="m231.536481 123.376753-11.962232-9.40435c.301287 2.945135.602575 5.901425.915021 8.846559l.033477.379298 3.202575 39.223834-44.635193 5.577906 3.581974-31.950245-15.856652 16.332108-8.648069-12.494509v-.011156l-.167382-.323518c5.356223-3.514081 22.116738-23.49414 23.455794-24.922084 1.662661-1.78493 1.76309-5.83449 2.120172-8.188366.435193-2.900511.747639-5.823334 1.260944-8.7126889 1.104721-6.2137872 3.303004-13.933609 9.786266-16.1201481.435193-.1450256.870386-.2788953 1.305579-.4016092.46867-.1450256.937339-.2788953 1.406009-.3792976.011159 0 .011159 0 .022318-.0111559.903862-.2119604 1.818884-.3904534 2.733905-.5243231.267811-.0557791.546781-.0892465.814592-.1227139 1.294421-.1561814 2.187125-.2677395 3.046352-.0446233.591417.1450256 1.171674.4350767 1.86352.9705556 2.87897 2.2200066 5.992274 4.3172992 8.224034 7.2289661.803433 1.0263347 18.936481 24.1411773 21.960515 26.1269113z" fill="#1a4175" transform="matrix(-1 0 0 1 394 0)" />
        <path d="m205.916456 74.1841861c-.027839-.4580273-.076835-.9083659-.164806-1.3356384-.438739-2.1374608-2.082342-4.4924022-3.82171-5.786302-1.508863-1.1236497-3.343996-1.6772367-5.176903-1.9551285-1.364101-.2075952-2.936436-.2010048-3.896318.8325772-.763896.8259869-.907545 2.0814431-.842959 3.2292573.145876 2.5976849 1.141391 5.1217779.992175 7.7194628-.054564.951203.172601 1.6541706 1.022241 2.2132495.583501.383337 1.267222.5832434 1.927558.8150031.660337.232858 1.328468.5151434 1.809522 1.019303.585728.6150966.881933 1.5432335 1.66142 1.8925205.303999.1372984.646973.164758.982152.17025 1.356307.0241645 2.666957-.300958 3.904113-.8413643.419809-.184529.978813-.2559242 1.358534-.5041596.438739-.2877774.308454-.6777047.316248-1.2093239.016704-1.1269449.010022-2.2549882-.021157-3.3830315-.024498-.9160547.010022-1.9155867-.05011-2.8766752" fill="#895e2f" transform="matrix(-1 0 0 1 398 0)" />
        <path d="m199.84579 66.4676354c-1.181092-.0206-2.053631 1.1210735-3.144304 1.5948735-1.31672.5746315-2.948774.0574631-3.849569-1.0993893-.901924-1.1579367-1.079371-2.8406312-.571897-4.2360099.075726-.2081684.169535-.4163368.332288-.5605368.155972-.1387789.358284-.2016631.551553-.2710526.646493-.2331052 1.255687-.5746314 1.918003-.7448525.762906-.196242 1.56085-.1582947 2.347491-.1192631 1.529203.0769789 3.059536.1539579 4.58874.2309368.44305.0216842.892883.046621 1.309938.2005789.573027.2125052 1.036422.6505262 1.503208 1.0560209 1.078241.9356735 2.660565 2.0545786 3.429122 3.28841.896274 1.4398314.729 3.685231.724479 5.3364834-.001131.2200947-.005652.4531999-.116414.6396841-.111893.1854-.372977.2905684-.53799.1550421-.231698-.3274315-.270536-.5352346-.330438-.9385609-.068944-.4737999-.587466-.7907474-1-1-1.043204-.5290947-1.840992-.3502072-2.945228-.6613755-1.652399-.4662105-2.497812-2.8417154-4.208982-2.8709891z" fill="#242221" transform="matrix(-1 0 0 1 401 0)" />
        <path d="m202.309883 73.8284216c.066028.9510801.027061 2.0418212-.647283 2.6674103-.558525.5170921-1.388736.5390223-2.112871.3716599-.723052-.1685166-1.412549-.4974703-2.14859-.5921166-.860519-.1119597-1.754592.1177308-2.475479.6313602-.49791.3555008-.936288.9095281-.925464 1.5478136.018401 1.0145624 1.080249 1.5939825 1.997053 1.865225 2.362908.6983052 4.863283.8622049 7.287889.4766943.416729-.066945.855106-.1627455 1.163594-.4674605.34962-.3508839.451366-.8956773.498993-1.4046899.292251-3.1117863-.692745-6.1820206-1.664752-9.1345241-.231636-.7063847-.5293-1.4889482-1.175501-1.7786582-.661354-.2966354.176433 5.4283127.202411 5.817286" fill="#242221" transform="matrix(-1 0 0 1 399 0)" />
        <path d="m231.546788 217.396515c-2.429361.227713-4.981884.013595-7.438363.011329-.967225-.001133-1.975127.006798-2.840658.439565-.34463.171068-.659882.410109-.879089.726188-1.602248 2.307715 2.173995 3.497259 3.625962 4.192858 2.148007 1.029805 4.296014 2.05961 6.445151 3.089415 3.386415 1.624577 6.771701 3.248021 10.158117 4.871465.142372.069107.284744.135948.427116.205055.281354.134815.619204.063442.821463-.173334l6.96718-6.829114c.299433-.348932.17966-.889325-.239546-1.080785 0 0-12.72759-5.851422-12.837194-5.849156-1.39773.032854-2.818059.263965-4.210139.396514z" fill="#272223" transform="matrix(-1 0 0 1 469 0)" />
        <path d="m155.933577 213.401388c1.15755 1.179198 3.038705 2.493034 3.06624 4.347663.015419 1.163491-.946085 1.755895-1.687313 2.512108-.998951 1.016512-1.9968 2.034146-2.995751 3.05178-2.663135 2.712942-5.194104 5.872431-9.143649 6.473811-.991242.150345-2.006713.11332-3.00236.171662-1.119001.066197-2.261131.087515-3.353699-.203078-.29517-.078538-.613468-.197468-.751141-.473474-.197147-.393814.083705-.854947.372266-1.184809 1.074946-1.227443 2.443961-2.151953 3.854827-2.953045 1.030891-.586794 2.215975-1.274566 2.424136-2.460497.140976-.797726-.250013-1.608916-.3987-2.369617-.082603-.422985-.489012-1.237541-.410814-1.658283.026433-.146979 7.895787-8.420442 7.895787-8.420442.257723-.299568.711491-.315276.989038-.03366 1.04631 1.067001 2.093722 2.13288 3.141133 3.199881z" fill="#242223" transform="matrix(-1 0 0 1 297 0)" />
        <path d="m384.903755 120.0943c-.032626.647311-.069751 1.30993-.330758 1.906943-.216004.49095-.586138.952378-.572638 1.487065.018001.665899.61764 1.164503.896646 1.773544.571513 1.247604-.209255 2.939141.731267 3.954938.439885.474549 1.136276.633096 1.792166.67574 1.324156.087474 2.694437-.180416 3.957841.214312.84377.263517 1.546911.801485 2.202801 1.364601.335258.288666.667141.582799.996773.878025.316132.284292.702016.459241 1.017024.746813.289131.263516.492761.626535.846019.801484.42526.208845.959647.07654 1.337656-.205565s.632264-.688861.87752-1.08687c.531012-.860529 1.018149-1.760422 1.678539-2.520356.315007-.363019.614264-.774149.659265-1.247605.091127-.968779-.85727-1.687163-1.345531-2.535665-.951772-1.65436-.103502-3.765774-.603014-5.598363-.333008-1.224642-1.30278-2.268868-2.523433-2.713894-1.92942-.705263-4.239098.042644-6.067265-.881305-.840394-.425344-1.477159-1.16341-2.317553-1.586567-.707642-.355365-2.497558-.969873-2.961069-.001094-.266631.556556-.118127 1.543924-.150753 2.151871z" fill="#c78f4d" transform="matrix(-1 0 0 1 785 0)" />
        <path d="m432.493398 186-12.493398 26.571429 9.110098 4.428571 14.889902-24.941714z" fill="#c78f4d" transform="matrix(-1 0 0 1 864 0)" />
        <path d="m435.402826 174.326662c-1.258924-.167775-2.551271-.257255-3.854759-.257255-.635032 0-1.270065.02237-1.893957.06711-1.471715-.04474-2.918921.06711-4.322677.492138-.378792.11185-.757583.24607-1.125233.391474-4.100974 1.073756-7.85435 3.031124-11.040654 5.65959-.635032.525693-1.247783 1.073756-1.827111 1.655374-.200536.15659-.401073.324364-.60161.480953-.601609.480954-1.225501.973092-1.949661 1.263901-.913555.369104-1.916238.391474-2.896639.402659-5.035697.067109-10.082535.145404-15.118231.212514-.534764.011185-1.058388.011185-1.593152.02237-1.437179.02237-2.918921.055925-4.244691.559248h-.011141c-.256241.089479-.4902.201329-.735301.335549-.902414.492138-5.982675 11.531694-6.762539 11.386289-.646174-.123034-2.406439-2.393581-2.963485-2.785055-.72416-.514508-1.459461-.995461-2.205903-1.46523-3.052612-1.901443-6.328043-3.433783-9.737165-4.574648-1.348052-.458584-2.885499-1.006647-3.3757-2.348842-.434496-1.207976.199423-2.516616.83557-3.635112.278523-.480954.557046-.961907.835569-1.44286 4.021872-6.778086 9.180119-13.343658 16.56655-15.815534 3.397981-1.129681 6.929653-1.297456 10.51703-1.185606-.222818.402659-.356509.872427-.356509 1.37575 0 .771762.311945 1.476415.812173 1.979738.502455.503323 1.204333.816502 1.973057.816502h42.335502c1.526306 0 2.785231-1.252715 2.785231-2.79624 0-.771762-.311946-1.476415-.824429-1.979738-.501341-.503323-1.203219-.816502-1.960802-.816502h-28.487336c.010026-2.281732.022281-4.563464.044563-6.845196.010027-3.400228.033423-6.800456.055705-10.189499.022282-2.527801.044564-5.133897.935837-7.493923.623892-1.677744 1.659998-3.165344 2.673822-4.630574 1.09181-1.577079 2.963485-5.63722 4.812878-6.084618 1.804829-.425029 4.846301.917166 6.461734 1.655374 4.144423 1.912628 7.60925 5.212191 10.037971 9.048633 1.782547 2.807425 3.063753 5.883289 4.021872 9.071003v6.185283c0 .805317.646174 1.454045 1.44832 1.454045h.289664c.167114.973091.311946 1.957368.445637 2.930459.011141.11185.033423.2237.044564.346734.668455 5.077972.802146 11.20733 0 16.296487-.011141.08948-.023396.167775-.044564.257255z" fill="#1a4175" transform="matrix(-1 0 0 1 795 0)" />
        <path d="m393 203c0 16.016923-12.983077 29-29 29s-29-12.983077-29-29c0-5.51 1.539231-10.674231 4.216154-15.057692 1.271538-2.096923 2.799615-4.015385 4.550769-5.699616.58-.58 1.193462-1.126538 1.829231-1.650769 3.19-2.621154 6.947731-4.573077 11.053461-5.643846 1.762308-.468462 3.580385-.769615 5.454231-.881154.624616-.044615 1.260385-.066923 1.896154-.066923 1.305 0 2.598846.089231 3.859231.256538 5.454231.725 10.417692 2.966924 14.476577 6.279616 6.514961 5.309231 10.664192 13.406923 10.664192 22.463846z" fill="#fff" stroke="#1a4175" stroke-width="1.2" transform="matrix(-1 0 0 1 728 0)" />
        <path d="m400 222c0 4.97025 4.02975 9 9 9 4.971375 0 9-4.02975 9-9s-4.028625-9-9-9c-4.97025 0-9 4.02975-9 9z" stroke="#1a4175" stroke-width="1.2" transform="matrix(-1 0 0 1 818 0)" />
        <path d="m362 144c-1.106667 0-2 .893333-2 2v-.266667c0-.96.773333-1.733333 1.733333-1.733333z" stroke="#1a4175" stroke-width="1.2" transform="matrix(-1 0 0 1 722 0)" />
        <path d="m453 187h-23.822724l-21.145088 36-20.032188-9" stroke="#1a4175" stroke-width="1.2" transform="matrix(-1 0 0 1 841 0)" />
        <path d="m423 205.5h-30" stroke="#1a4175" stroke-width="1.2" transform="matrix(-1 0 0 1 816 0)" />
        <path d="m426 210.5h-34" stroke="#1a4175" stroke-width="1.2" transform="matrix(-1 0 0 1 818 0)" />
        <path d="m414 214-1.5-3.5" stroke="#1a4175" stroke-width="1.2" transform="matrix(-1 0 0 1 826 0)" />
        <path d="m407.999578 161.039523c0 .249453 0 .497773-.066327.725682h-36.060156c-.950697 0-1.790848.486435-2.277251 1.234795h-.595844c1.801902-3.287116 4.974577-5.669396 8.444621-6.91553 2.619944-.952458 5.416762-1.305095 8.213579-1.258606.906479 0 1.790848.05556 2.687377.136066 2.784658.260792 6.02366.691666 8.024546-1.326639.740659-.738155 1.160734-1.700819 1.414991-2.709971.144815-.589618-.011055-2.358469.386911-2.721311.475349-.430874 2.863146-.045355 3.482204-.045355h6.146366c0 4.307608.210038 8.60501.198983 12.880869" fill="#c78f4d" transform="matrix(-1 0 0 1 777 0)" />
        <path d="m408 165c0 1.656-1.261395 3-2.790698 3h-42.418604c-.770233 0-1.473489-.336-1.976931-.876-.501209-.54-.813767-1.296-.813767-2.124 0-.54.133953-1.044.357209-1.476.044651-.084.07814-.144.132838-.216.492279-.792 1.340651-1.308 2.300651-1.308h42.418604c.75907 0 1.462326.336 1.964651.876.513489.54.826047 1.296.826047 2.124z" stroke="#1a4175" stroke-width="1.2" transform="matrix(-1 0 0 1 768 0)" />
        <path d="m433.545767 207.121993c-.363449.024519-.741172.054611-1.058503.23516-.31843.18055-.558899.558366-.467762.916122.06149.23516.245959.41348.422742.578427 3.245784 3.015846 7.684031 4.534914 11.667692 6.469691 1.21662.589573 2.478259 1.083297 3.734408 1.580366 1.304462.513786 2.403593 1.045404 3.817858 1.091099.32392.01003.652231.020061.969563-.049039 1.393403-.300915 2.154339-1.999418 2.87904-3.08383.438115-.659786 2.174104-2.653632 1.193562-3.496197-.216313-.185007-.619291-.285313-.875132-.40345-2.794492-1.28948-5.588985-2.57896-8.383477-3.868441-.086744-.039007-.181175-.059068-.276704-.055725-4.535972.162718-9.053277-.218442-13.623287.085817z" fill="#272223" transform="matrix(-1 0 0 1 889 0)" />
        <path d="m362 145.666667c0 .922222-.725833 1.666666-1.625 1.666666h-8.125v5.222223c0 .8-.628333 1.444444-1.408333 1.444444h-.433334c-.78 0-1.408333-.644444-1.408333-1.444444v-6.888889c0-.922223.725833-1.666667 1.625-1.666667h9.75c.899167 0 1.625.744444 1.625 1.666667z" stroke="#1a4175" stroke-width="1.2" transform="matrix(-1 0 0 1 711 0)" />
        <path d="m390.859251 120.292403c.119524.081905.179856.224398.218559.362402.196931.716949-.099035 1.539365-.709179 1.973573-.328977.233373-.782033.430843-.812767.828026-.021629.283862.195792.525089.398415.728169.955058.958176 1.710909 2.018453 2.657999 2.976629.308487.313034.965402 1.203038 1.387722 1.338798.619251.19747 1.38644-.286823 2-.5 1.178171-.409525 1.969256-1.141734 2.916346-1.942832.706903-.599141 1.018805-1.488876 1.071168-2.386465.05464-.913296-.070576-1.836691-.365403-2.703986-.541845-1.58761-1.62895-2.942969-2.851516-4.107591-1.222565-1.1635-2.593114-2.164311-3.862351-3.278443-1.692696-1.487754-3.265867-3.21449-5.36267-4.063834-2.857207-1.155645-6.417901-.320888-8.440713 1.980306-.713732.81344-1.261269 1.880448-1.064338 2.938481.130908.713583.580548 1.325066 1.032465 1.897279 1.844094 2.326999 4.140104 4.547409 7.067887 5.174599.837811.178396 1.620981.2143 2.280074-.324254.657954-.538553 1.141744-1.034471 2.089973-.983982.120663.006732.249294.023562.348329.093125z" fill="#00aeef" transform="matrix(-1 0 0 1 778 0)" />
    </g>
</svg>